# Blender3D v249 OBJ File: 
# www.blender3d.org
mtllib allammo.mtl
v 0.526230 -0.056004 -0.931023
v 0.526230 -0.079744 -0.902096
v 0.526230 -0.097384 -0.869093
v 0.526230 -0.108247 -0.833283
v 0.526230 -0.111915 -0.796042
v 0.526230 -0.108247 -0.758801
v 0.526230 -0.097384 -0.722991
v 0.526230 -0.079744 -0.689988
v 0.526230 -0.056004 -0.661061
v 0.526230 -0.027077 -0.637321
v 0.526230 0.005926 -0.619681
v 0.526230 0.041736 -0.608818
v 0.526230 0.078977 -0.605150
v 0.526230 0.116218 -0.608818
v 0.526230 0.152028 -0.619681
v 0.526230 0.185031 -0.637321
v 0.526230 0.213958 -0.661061
v 0.526230 0.237698 -0.689988
v 0.526230 0.255339 -0.722991
v 0.526230 0.266201 -0.758801
v 0.526230 0.269869 -0.796042
v 0.526230 0.266201 -0.833284
v 0.526230 0.255338 -0.869094
v 0.526230 0.237698 -0.902096
v 0.526230 0.213958 -0.931023
v 0.526230 0.185031 -0.954763
v 0.526230 0.152028 -0.972404
v 0.526230 0.116218 -0.983266
v 0.526230 0.078977 -0.986934
v 0.526230 0.041735 -0.983266
v 0.526230 0.005925 -0.972403
v 0.526230 -0.027077 -0.954763
v -0.528007 -0.056005 -0.931023
v -0.528007 -0.079744 -0.902096
v -0.528007 -0.097385 -0.869093
v -0.528007 -0.108248 -0.833283
v -0.528007 -0.111915 -0.796042
v -0.528007 -0.108247 -0.758800
v -0.528007 -0.097384 -0.722990
v -0.528007 -0.079744 -0.689988
v -0.528007 -0.056004 -0.661061
v -0.528007 -0.027077 -0.637321
v -0.528007 0.005926 -0.619681
v -0.528007 0.041736 -0.608818
v -0.528007 0.078977 -0.605150
v -0.528007 0.116218 -0.608818
v -0.528007 0.152028 -0.619681
v -0.528007 0.185031 -0.637321
v -0.528007 0.213958 -0.661061
v -0.528007 0.237698 -0.689988
v -0.528007 0.255338 -0.722990
v -0.528007 0.266201 -0.758800
v -0.528007 0.269869 -0.796041
v -0.528007 0.266201 -0.833283
v -0.528007 0.255339 -0.869093
v -0.528007 0.237699 -0.902095
v -0.528007 0.213959 -0.931023
v -0.528007 0.185032 -0.954763
v -0.528007 0.152029 -0.972403
v -0.528007 0.116219 -0.983266
v -0.528007 0.078978 -0.986934
v -0.528007 0.041737 -0.983267
v -0.528007 0.005927 -0.972404
v -0.528007 -0.027076 -0.954764
v 0.526230 0.078977 -0.796042
v -0.528007 0.078977 -0.796042
v 0.550777 0.239470 -0.993389
v 0.550777 0.215730 -0.964462
v 0.550777 0.198090 -0.931459
v 0.550777 0.187227 -0.895649
v 0.550777 0.183559 -0.858408
v 0.550777 0.187227 -0.821167
v 0.550777 0.198090 -0.785357
v 0.550777 0.215730 -0.752354
v 0.550777 0.239470 -0.723427
v 0.550777 0.268397 -0.699687
v 0.550777 0.301400 -0.682046
v 0.550777 0.337210 -0.671183
v 0.550777 0.374452 -0.667516
v 0.550777 0.411693 -0.671184
v 0.550777 0.447503 -0.682046
v 0.550777 0.480506 -0.699687
v 0.550777 0.509433 -0.723427
v 0.550777 0.533173 -0.752354
v 0.550777 0.550813 -0.785357
v 0.550777 0.561676 -0.821167
v 0.550777 0.565344 -0.858408
v 0.550777 0.561676 -0.895649
v 0.550777 0.550813 -0.931459
v 0.550777 0.533173 -0.964462
v 0.550777 0.509433 -0.993389
v 0.550777 0.480505 -1.017129
v 0.550777 0.447503 -1.034769
v 0.550777 0.411693 -1.045632
v 0.550777 0.374451 -1.049300
v 0.550777 0.337210 -1.045632
v 0.550777 0.301400 -1.034769
v 0.550777 0.268397 -1.017129
v -0.503460 0.239470 -0.993389
v -0.503460 0.215730 -0.964462
v -0.503460 0.198090 -0.931459
v -0.503460 0.187227 -0.895649
v -0.503460 0.183559 -0.858407
v -0.503460 0.187227 -0.821166
v -0.503460 0.198090 -0.785356
v -0.503460 0.215730 -0.752354
v -0.503460 0.239470 -0.723426
v -0.503460 0.268398 -0.699687
v -0.503460 0.301400 -0.682046
v -0.503460 0.337210 -0.671184
v -0.503460 0.374451 -0.667516
v -0.503460 0.411693 -0.671183
v -0.503460 0.447503 -0.682046
v -0.503460 0.480505 -0.699687
v -0.503460 0.509432 -0.723426
v -0.503460 0.533172 -0.752353
v -0.503460 0.550813 -0.785356
v -0.503460 0.561676 -0.821166
v -0.503460 0.565344 -0.858407
v -0.503460 0.561676 -0.895648
v -0.503460 0.550813 -0.931458
v -0.503460 0.533173 -0.964461
v -0.503460 0.509433 -0.993388
v -0.503460 0.480506 -1.017128
v -0.503460 0.447504 -1.034769
v -0.503460 0.411694 -1.045632
v -0.503460 0.374453 -1.049300
v -0.503460 0.337212 -1.045632
v -0.503460 0.301401 -1.034770
v -0.503460 0.268399 -1.017130
v 0.550777 0.374452 -0.858408
v -0.503460 0.374451 -0.858408
v 0.551573 0.506117 -0.801550
v 0.551573 0.482377 -0.772622
v 0.551573 0.464737 -0.739620
v 0.551573 0.453874 -0.703810
v 0.551573 0.450206 -0.666568
v 0.551573 0.453874 -0.629327
v 0.551573 0.464737 -0.593517
v 0.551573 0.482377 -0.560514
v 0.551573 0.506117 -0.531587
v 0.551573 0.535044 -0.507847
v 0.551573 0.568047 -0.490207
v 0.551573 0.603857 -0.479344
v 0.551573 0.641098 -0.475676
v 0.551573 0.678339 -0.479344
v 0.551573 0.714149 -0.490207
v 0.551573 0.747152 -0.507847
v 0.551573 0.776079 -0.531587
v 0.551573 0.799819 -0.560514
v 0.551573 0.817460 -0.593517
v 0.551573 0.828322 -0.629327
v 0.551573 0.831990 -0.666569
v 0.551573 0.828322 -0.703810
v 0.551573 0.817459 -0.739620
v 0.551573 0.799819 -0.772623
v 0.551573 0.776079 -0.801550
v 0.551573 0.747152 -0.825290
v 0.551573 0.714149 -0.842930
v 0.551573 0.678339 -0.853793
v 0.551573 0.641098 -0.857461
v 0.551573 0.603856 -0.853793
v 0.551573 0.568046 -0.842930
v 0.551573 0.535044 -0.825289
v -0.502665 0.506116 -0.801549
v -0.502665 0.482377 -0.772622
v -0.502665 0.464736 -0.739619
v -0.502665 0.453873 -0.703809
v -0.502665 0.450206 -0.666568
v -0.502665 0.453874 -0.629327
v -0.502665 0.464737 -0.593517
v -0.502665 0.482377 -0.560514
v -0.502665 0.506117 -0.531587
v -0.502665 0.535044 -0.507847
v -0.502665 0.568047 -0.490207
v -0.502665 0.603857 -0.479344
v -0.502665 0.641098 -0.475676
v -0.502665 0.678339 -0.479344
v -0.502665 0.714149 -0.490207
v -0.502665 0.747152 -0.507847
v -0.502665 0.776079 -0.531587
v -0.502665 0.799819 -0.560514
v -0.502665 0.817459 -0.593517
v -0.502665 0.828322 -0.629326
v -0.502665 0.831990 -0.666568
v -0.502665 0.828322 -0.703809
v -0.502665 0.817460 -0.739619
v -0.502665 0.799820 -0.772622
v -0.502665 0.776080 -0.801549
v -0.502665 0.747153 -0.825289
v -0.502665 0.714150 -0.842929
v -0.502665 0.678340 -0.853792
v -0.502665 0.641099 -0.857461
v -0.502665 0.603858 -0.853793
v -0.502665 0.568048 -0.842930
v -0.502665 0.535045 -0.825290
v 0.551573 0.641098 -0.666568
v -0.502665 0.641098 -0.666568
v 0.527119 0.560544 -0.403982
v 0.527119 0.536804 -0.375055
v 0.527119 0.519164 -0.342052
v 0.527119 0.508301 -0.306242
v 0.527119 0.504633 -0.269001
v 0.527119 0.508301 -0.231760
v 0.527119 0.519164 -0.195950
v 0.527119 0.536804 -0.162947
v 0.527119 0.560544 -0.134020
v 0.527119 0.589471 -0.110280
v 0.527119 0.622474 -0.092640
v 0.527119 0.658284 -0.081777
v 0.527119 0.695526 -0.078109
v 0.527119 0.732767 -0.081777
v 0.527119 0.768577 -0.092640
v 0.527119 0.801580 -0.110280
v 0.527119 0.830507 -0.134020
v 0.527119 0.854247 -0.162947
v 0.527119 0.871887 -0.195950
v 0.527119 0.882750 -0.231760
v 0.527119 0.886418 -0.269001
v 0.527119 0.882750 -0.306243
v 0.527119 0.871887 -0.342053
v 0.527119 0.854247 -0.375055
v 0.527119 0.830507 -0.403983
v 0.527119 0.801579 -0.427722
v 0.527119 0.768577 -0.445363
v 0.527119 0.732766 -0.456226
v 0.527119 0.695525 -0.459893
v 0.527119 0.658284 -0.456225
v 0.527119 0.622474 -0.445363
v 0.527119 0.589471 -0.427722
v -0.527119 0.560544 -0.403982
v -0.527119 0.536804 -0.375055
v -0.527119 0.519164 -0.342052
v -0.527119 0.508301 -0.306242
v -0.527119 0.504633 -0.269001
v -0.527119 0.508301 -0.231759
v -0.527119 0.519164 -0.195949
v -0.527119 0.536804 -0.162947
v -0.527119 0.560544 -0.134020
v -0.527119 0.589471 -0.110280
v -0.527119 0.622474 -0.092640
v -0.527119 0.658284 -0.081777
v -0.527119 0.695525 -0.078109
v -0.527119 0.732767 -0.081777
v -0.527119 0.768577 -0.092640
v -0.527119 0.801579 -0.110280
v -0.527119 0.830506 -0.134020
v -0.527119 0.854246 -0.162947
v -0.527119 0.871887 -0.195949
v -0.527119 0.882750 -0.231759
v -0.527119 0.886418 -0.269000
v -0.527119 0.882750 -0.306242
v -0.527119 0.871887 -0.342052
v -0.527119 0.854247 -0.375054
v -0.527119 0.830507 -0.403982
v -0.527119 0.801580 -0.427722
v -0.527119 0.768578 -0.445362
v -0.527119 0.732768 -0.456225
v -0.527119 0.695527 -0.459893
v -0.527119 0.658286 -0.456226
v -0.527119 0.622475 -0.445363
v -0.527119 0.589473 -0.427723
v 0.527119 0.695526 -0.269001
v -0.527119 0.695525 -0.269001
v 0.556311 -0.556311 -0.556311
v 0.556311 -0.556311 0.556311
v -0.556311 -0.556311 0.556311
v -0.556311 -0.556311 -0.556311
v 0.556311 0.556311 -0.556311
v 0.556310 0.556311 0.556311
v -0.556311 0.556311 0.556310
v -0.556311 0.556311 -0.556311
vn -1.000000 0.000000 0.000000
vn 1.000000 0.000000 0.000000
vn -0.000000 0.773014 0.634389
vn -0.000000 0.881921 0.471398
vn -0.000001 0.956939 0.290289
vn -0.000000 0.995186 0.098006
vn -0.000000 0.995185 -0.098018
vn -0.000000 0.956939 -0.290288
vn -0.000000 0.881923 -0.471393
vn 0.000000 0.773008 -0.634397
vn 0.000000 0.634397 -0.773008
vn 0.000000 0.471387 -0.881927
vn 0.000000 0.290289 -0.956939
vn 0.000000 0.098020 -0.995184
vn 0.000000 -0.098020 -0.995184
vn 0.000000 -0.290289 -0.956939
vn 0.000000 -0.471387 -0.881927
vn 0.000000 -0.634397 -0.773008
vn 0.000000 -0.773008 -0.634397
vn 0.000000 -0.881918 -0.471403
vn 0.000000 -0.956943 -0.290276
vn -0.000000 -0.995184 -0.098020
vn 0.000000 -0.995185 0.098017
vn -0.000000 -0.956943 0.290276
vn -0.000000 -0.881920 0.471399
vn -0.000000 -0.773013 0.634390
vn -0.000001 -0.634397 0.773008
vn -0.000000 -0.471397 0.881921
vn 0.000000 -0.290276 0.956943
vn -0.000000 -0.098020 0.995184
vn -0.000000 0.098005 0.995186
vn -0.000000 0.290289 0.956939
vn -0.000000 0.471392 0.881924
vn -0.000000 0.634392 0.773012
vn 0.000000 0.773008 0.634397
vn 0.000000 0.881926 0.471387
vn 0.000000 0.956939 0.290289
vn 0.000000 0.995185 0.098018
vn -0.000000 0.995184 -0.098020
vn -0.000000 0.956939 -0.290289
vn -0.000000 0.773013 -0.634390
vn -0.000000 0.634382 -0.773019
vn 0.000000 0.471413 -0.881912
vn 0.000000 0.290276 -0.956943
vn 0.000000 0.098005 -0.995186
vn -0.000000 -0.098005 -0.995186
vn -0.000000 -0.290276 -0.956943
vn 0.000000 -0.471413 -0.881912
vn 0.000000 -0.634389 -0.773014
vn -0.000000 -0.881921 -0.471398
vn -0.000000 -0.956939 -0.290289
vn -0.000000 -0.995185 -0.098018
vn 0.000000 -0.995185 0.098018
vn 0.000000 -0.956939 0.290289
vn 0.000000 -0.881927 0.471387
vn 0.000001 -0.773007 0.634398
vn 0.000000 -0.634390 0.773013
vn -0.000000 -0.471410 0.881914
vn -0.000000 -0.290287 0.956940
vn -0.000000 -0.098017 0.995185
vn 0.000000 0.098018 0.995185
vn -0.000000 0.290272 0.956944
vn -0.000000 0.471394 0.881923
vn 0.000000 0.634391 0.773012
vn -0.000000 0.773020 0.634382
vn -0.000000 0.881918 0.471403
vn -0.000000 0.995186 0.098004
vn 0.000000 0.995185 -0.098019
vn 0.000000 0.881927 -0.471386
vn 0.000000 0.773007 -0.634398
vn 0.000000 0.634396 -0.773008
vn 0.000000 0.471387 -0.881926
vn 0.000000 0.290288 -0.956939
vn 0.000000 0.098019 -0.995184
vn 0.000000 -0.290288 -0.956939
vn 0.000000 -0.471388 -0.881926
vn 0.000000 -0.634396 -0.773008
vn 0.000000 -0.773007 -0.634397
vn 0.000000 -0.881921 -0.471397
vn 0.000000 -0.956942 -0.290280
vn -0.000000 -0.995185 -0.098017
vn 0.000000 -0.995184 0.098021
vn -0.000000 -0.773008 0.634397
vn 0.000000 -0.634397 0.773008
vn 0.000000 -0.471387 0.881926
vn 0.000001 -0.290287 0.956940
vn 0.000000 -0.098031 0.995183
vn 0.000000 0.098017 0.995185
vn 0.000001 0.290288 0.956939
vn 0.000000 0.471403 0.881918
vn -0.000000 0.634384 0.773018
vn 0.000000 0.773008 0.634396
vn 0.000000 0.956939 0.290288
vn 0.000000 0.995184 0.098020
vn -0.000000 0.881924 -0.471392
vn 0.000000 0.634397 -0.773007
vn 0.000000 0.471386 -0.881927
vn -0.000000 0.098018 -0.995185
vn 0.000000 -0.098018 -0.995185
vn 0.000000 -0.471392 -0.881924
vn 0.000001 -0.634397 -0.773008
vn 0.000001 -0.773008 -0.634397
vn 0.000000 -0.881918 -0.471404
vn -0.000000 -0.956940 -0.290287
vn 0.000000 -0.956940 0.290287
vn 0.000001 -0.773018 0.634383
vn 0.000000 -0.634383 0.773019
vn -0.000000 -0.471408 0.881915
vn 0.000000 -0.290285 0.956940
vn 0.000000 -0.098006 0.995186
vn -0.000000 0.098006 0.995186
vn -0.000000 0.290273 0.956944
vn 0.000000 0.471402 0.881918
vn 0.000000 -1.000000 0.000000
vn 0.000000 1.000000 0.000000
vn -0.000000 0.000000 1.000000
vn 0.000000 0.000000 -1.000000
usemtl Material.001
s off
f 65//1 1//1 2//1
f 66//2 34//2 33//2
f 65//1 2//1 3//1
f 66//2 35//2 34//2
f 65//1 3//1 4//1
f 66//2 36//2 35//2
f 65//1 4//1 5//1
f 66//2 37//2 36//2
f 65//1 5//1 6//1
f 66//2 38//2 37//2
f 65//1 6//1 7//1
f 66//2 39//2 38//2
f 65//1 7//1 8//1
f 66//2 40//2 39//2
f 65//1 8//1 9//1
f 66//2 41//2 40//2
f 65//1 9//1 10//1
f 66//2 42//2 41//2
f 65//1 10//1 11//1
f 66//2 43//2 42//2
f 65//1 11//1 12//1
f 66//2 44//2 43//2
f 65//1 12//1 13//1
f 66//2 45//2 44//2
f 65//1 13//1 14//1
f 66//2 46//2 45//2
f 65//1 14//1 15//1
f 66//2 47//2 46//2
f 65//1 15//1 16//1
f 66//2 48//2 47//2
f 65//1 16//1 17//1
f 66//2 49//2 48//2
f 65//1 17//1 18//1
f 66//2 50//2 49//2
f 65//1 18//1 19//1
f 66//2 51//2 50//2
f 65//1 19//1 20//1
f 66//2 52//2 51//2
f 65//1 20//1 21//1
f 66//2 53//2 52//2
f 65//1 21//1 22//1
f 66//2 54//2 53//2
f 65//1 22//1 23//1
f 66//2 55//2 54//2
f 65//1 23//1 24//1
f 66//2 56//2 55//2
f 65//1 24//1 25//1
f 66//2 57//2 56//2
f 65//1 25//1 26//1
f 66//2 58//2 57//2
f 65//1 26//1 27//1
f 66//2 59//2 58//2
f 65//1 27//1 28//1
f 66//2 60//2 59//2
f 65//1 28//1 29//1
f 66//2 61//2 60//2
f 65//1 29//1 30//1
f 66//2 62//2 61//2
f 65//1 30//1 31//1
f 66//2 63//2 62//2
f 65//1 31//1 32//1
f 66//2 64//2 63//2
f 32//1 1//1 65//1
f 66//2 33//2 64//2
f 1//3 33//3 34//3 2//3
f 2//4 34//4 35//4 3//4
f 3//5 35//5 36//5 4//5
f 4//6 36//6 37//6 5//6
f 5//7 37//7 38//7 6//7
f 6//8 38//8 39//8 7//8
f 7//9 39//9 40//9 8//9
f 8//10 40//10 41//10 9//10
f 9//11 41//11 42//11 10//11
f 10//12 42//12 43//12 11//12
f 11//13 43//13 44//13 12//13
f 12//14 44//14 45//14 13//14
f 13//15 45//15 46//15 14//15
f 14//16 46//16 47//16 15//16
f 15//17 47//17 48//17 16//17
f 16//18 48//18 49//18 17//18
f 17//19 49//19 50//19 18//19
f 18//20 50//20 51//20 19//20
f 19//21 51//21 52//21 20//21
f 20//22 52//22 53//22 21//22
f 21//23 53//23 54//23 22//23
f 22//24 54//24 55//24 23//24
f 23//25 55//25 56//25 24//25
f 24//26 56//26 57//26 25//26
f 25//27 57//27 58//27 26//27
f 26//28 58//28 59//28 27//28
f 27//29 59//29 60//29 28//29
f 28//30 60//30 61//30 29//30
f 29//31 61//31 62//31 30//31
f 30//32 62//32 63//32 31//32
f 31//33 63//33 64//33 32//33
f 33//34 1//34 32//34 64//34
f 131//1 67//1 68//1
f 132//2 100//2 99//2
f 131//1 68//1 69//1
f 132//2 101//2 100//2
f 131//1 69//1 70//1
f 132//2 102//2 101//2
f 131//1 70//1 71//1
f 132//2 103//2 102//2
f 131//1 71//1 72//1
f 132//2 104//2 103//2
f 131//1 72//1 73//1
f 132//2 105//2 104//2
f 131//1 73//1 74//1
f 132//2 106//2 105//2
f 131//1 74//1 75//1
f 132//2 107//2 106//2
f 131//1 75//1 76//1
f 132//2 108//2 107//2
f 131//1 76//1 77//1
f 132//2 109//2 108//2
f 131//1 77//1 78//1
f 132//2 110//2 109//2
f 131//1 78//1 79//1
f 132//2 111//2 110//2
f 131//1 79//1 80//1
f 132//2 112//2 111//2
f 131//1 80//1 81//1
f 132//2 113//2 112//2
f 131//1 81//1 82//1
f 132//2 114//2 113//2
f 131//1 82//1 83//1
f 132//2 115//2 114//2
f 131//1 83//1 84//1
f 132//2 116//2 115//2
f 131//1 84//1 85//1
f 132//2 117//2 116//2
f 131//1 85//1 86//1
f 132//2 118//2 117//2
f 131//1 86//1 87//1
f 132//2 119//2 118//2
f 131//1 87//1 88//1
f 132//2 120//2 119//2
f 131//1 88//1 89//1
f 132//2 121//2 120//2
f 131//1 89//1 90//1
f 132//2 122//2 121//2
f 131//1 90//1 91//1
f 132//2 123//2 122//2
f 131//1 91//1 92//1
f 132//2 124//2 123//2
f 131//1 92//1 93//1
f 132//2 125//2 124//2
f 131//1 93//1 94//1
f 132//2 126//2 125//2
f 131//1 94//1 95//1
f 132//2 127//2 126//2
f 131//1 95//1 96//1
f 132//2 128//2 127//2
f 131//1 96//1 97//1
f 132//2 129//2 128//2
f 131//1 97//1 98//1
f 132//2 130//2 129//2
f 98//1 67//1 131//1
f 132//2 99//2 130//2
f 67//35 99//35 100//35 68//35
f 68//36 100//36 101//36 69//36
f 69//37 101//37 102//37 70//37
f 70//38 102//38 103//38 71//38
f 71//39 103//39 104//39 72//39
f 72//40 104//40 105//40 73//40
f 73//9 105//9 106//9 74//9
f 74//41 106//41 107//41 75//41
f 75//42 107//42 108//42 76//42
f 76//43 108//43 109//43 77//43
f 77//44 109//44 110//44 78//44
f 78//45 110//45 111//45 79//45
f 79//46 111//46 112//46 80//46
f 80//47 112//47 113//47 81//47
f 81//48 113//48 114//48 82//48
f 82//49 114//49 115//49 83//49
f 83//19 115//19 116//19 84//19
f 84//50 116//50 117//50 85//50
f 85//51 117//51 118//51 86//51
f 86//52 118//52 119//52 87//52
f 87//53 119//53 120//53 88//53
f 88//54 120//54 121//54 89//54
f 89//55 121//55 122//55 90//55
f 90//56 122//56 123//56 91//56
f 91//57 123//57 124//57 92//57
f 92//58 124//58 125//58 93//58
f 93//59 125//59 126//59 94//59
f 94//60 126//60 127//60 95//60
f 95//61 127//61 128//61 96//61
f 96//62 128//62 129//62 97//62
f 97//63 129//63 130//63 98//63
f 99//64 67//64 98//64 130//64
f 197//1 133//1 134//1
f 198//2 166//2 165//2
f 197//1 134//1 135//1
f 198//2 167//2 166//2
f 197//1 135//1 136//1
f 198//2 168//2 167//2
f 197//1 136//1 137//1
f 198//2 169//2 168//2
f 197//1 137//1 138//1
f 198//2 170//2 169//2
f 197//1 138//1 139//1
f 198//2 171//2 170//2
f 197//1 139//1 140//1
f 198//2 172//2 171//2
f 197//1 140//1 141//1
f 198//2 173//2 172//2
f 197//1 141//1 142//1
f 198//2 174//2 173//2
f 197//1 142//1 143//1
f 198//2 175//2 174//2
f 197//1 143//1 144//1
f 198//2 176//2 175//2
f 197//1 144//1 145//1
f 198//2 177//2 176//2
f 197//1 145//1 146//1
f 198//2 178//2 177//2
f 197//1 146//1 147//1
f 198//2 179//2 178//2
f 197//1 147//1 148//1
f 198//2 180//2 179//2
f 197//1 148//1 149//1
f 198//2 181//2 180//2
f 197//1 149//1 150//1
f 198//2 182//2 181//2
f 197//1 150//1 151//1
f 198//2 183//2 182//2
f 197//1 151//1 152//1
f 198//2 184//2 183//2
f 197//1 152//1 153//1
f 198//2 185//2 184//2
f 197//1 153//1 154//1
f 198//2 186//2 185//2
f 197//1 154//1 155//1
f 198//2 187//2 186//2
f 197//1 155//1 156//1
f 198//2 188//2 187//2
f 197//1 156//1 157//1
f 198//2 189//2 188//2
f 197//1 157//1 158//1
f 198//2 190//2 189//2
f 197//1 158//1 159//1
f 198//2 191//2 190//2
f 197//1 159//1 160//1
f 198//2 192//2 191//2
f 197//1 160//1 161//1
f 198//2 193//2 192//2
f 197//1 161//1 162//1
f 198//2 194//2 193//2
f 197//1 162//1 163//1
f 198//2 195//2 194//2
f 197//1 163//1 164//1
f 198//2 196//2 195//2
f 164//1 133//1 197//1
f 198//2 165//2 196//2
f 133//65 165//65 166//65 134//65
f 134//66 166//66 167//66 135//66
f 135//5 167//5 168//5 136//5
f 136//67 168//67 169//67 137//67
f 137//68 169//68 170//68 138//68
f 138//40 170//40 171//40 139//40
f 139//69 171//69 172//69 140//69
f 140//70 172//70 173//70 141//70
f 141//71 173//71 174//71 142//71
f 142//72 174//72 175//72 143//72
f 143//73 175//73 176//73 144//73
f 144//74 176//74 177//74 145//74
f 145//15 177//15 178//15 146//15
f 146//75 178//75 179//75 147//75
f 147//76 179//76 180//76 148//76
f 148//77 180//77 181//77 149//77
f 149//78 181//78 182//78 150//78
f 150//79 182//79 183//79 151//79
f 151//80 183//80 184//80 152//80
f 152//81 184//81 185//81 153//81
f 153//82 185//82 186//82 154//82
f 154//24 186//24 187//24 155//24
f 155//55 187//55 188//55 156//55
f 156//83 188//83 189//83 157//83
f 157//84 189//84 190//84 158//84
f 158//85 190//85 191//85 159//85
f 159//86 191//86 192//86 160//86
f 160//87 192//87 193//87 161//87
f 161//88 193//88 194//88 162//88
f 162//89 194//89 195//89 163//89
f 163//90 195//90 196//90 164//90
f 165//91 133//91 164//91 196//91
f 263//1 199//1 200//1
f 264//2 232//2 231//2
f 263//1 200//1 201//1
f 264//2 233//2 232//2
f 263//1 201//1 202//1
f 264//2 234//2 233//2
f 263//1 202//1 203//1
f 264//2 235//2 234//2
f 263//1 203//1 204//1
f 264//2 236//2 235//2
f 263//1 204//1 205//1
f 264//2 237//2 236//2
f 263//1 205//1 206//1
f 264//2 238//2 237//2
f 263//1 206//1 207//1
f 264//2 239//2 238//2
f 263//1 207//1 208//1
f 264//2 240//2 239//2
f 263//1 208//1 209//1
f 264//2 241//2 240//2
f 263//1 209//1 210//1
f 264//2 242//2 241//2
f 263//1 210//1 211//1
f 264//2 243//2 242//2
f 263//1 211//1 212//1
f 264//2 244//2 243//2
f 263//1 212//1 213//1
f 264//2 245//2 244//2
f 263//1 213//1 214//1
f 264//2 246//2 245//2
f 263//1 214//1 215//1
f 264//2 247//2 246//2
f 263//1 215//1 216//1
f 264//2 248//2 247//2
f 263//1 216//1 217//1
f 264//2 249//2 248//2
f 263//1 217//1 218//1
f 264//2 250//2 249//2
f 263//1 218//1 219//1
f 264//2 251//2 250//2
f 263//1 219//1 220//1
f 264//2 252//2 251//2
f 263//1 220//1 221//1
f 264//2 253//2 252//2
f 263//1 221//1 222//1
f 264//2 254//2 253//2
f 263//1 222//1 223//1
f 264//2 255//2 254//2
f 263//1 223//1 224//1
f 264//2 256//2 255//2
f 263//1 224//1 225//1
f 264//2 257//2 256//2
f 263//1 225//1 226//1
f 264//2 258//2 257//2
f 263//1 226//1 227//1
f 264//2 259//2 258//2
f 263//1 227//1 228//1
f 264//2 260//2 259//2
f 263//1 228//1 229//1
f 264//2 261//2 260//2
f 263//1 229//1 230//1
f 264//2 262//2 261//2
f 230//1 199//1 263//1
f 264//2 231//2 262//2
f 199//92 231//92 232//92 200//92
f 200//36 232//36 233//36 201//36
f 201//93 233//93 234//93 202//93
f 202//94 234//94 235//94 203//94
f 203//7 235//7 236//7 204//7
f 204//40 236//40 237//40 205//40
f 205//95 237//95 238//95 206//95
f 206//10 238//10 239//10 207//10
f 207//96 239//96 240//96 208//96
f 208//97 240//97 241//97 209//97
f 209//73 241//73 242//73 210//73
f 210//98 242//98 243//98 211//98
f 211//99 243//99 244//99 212//99
f 212//16 244//16 245//16 213//16
f 213//100 245//100 246//100 214//100
f 214//101 246//101 247//101 215//101
f 215//102 247//102 248//102 216//102
f 216//103 248//103 249//103 217//103
f 217//104 249//104 250//104 218//104
f 218//22 250//22 251//22 219//22
f 219//23 251//23 252//23 220//23
f 220//105 252//105 253//105 221//105
f 221//25 253//25 254//25 222//25
f 222//106 254//106 255//106 223//106
f 223//107 255//107 256//107 224//107
f 224//108 256//108 257//108 225//108
f 225//109 257//109 258//109 226//109
f 226//110 258//110 259//110 227//110
f 227//111 259//111 260//111 228//111
f 228//112 260//112 261//112 229//112
f 229//113 261//113 262//113 230//113
f 231//34 199//34 230//34 262//34
usemtl (null)
f 265//114 266//114 267//114 268//114
f 269//115 272//115 271//115 270//115
f 265//2 269//2 270//2 266//2
f 266//116 270//116 271//116 267//116
f 267//1 271//1 272//1 268//1
f 269//117 265//117 268//117 272//117
