# Blender3D v249 OBJ File: 
# www.blender3d.org
mtllib health.mtl
v -1.733468 0.100264 -0.261190
v -1.733468 0.100264 0.261191
v -1.945539 0.701971 0.261191
v -1.945539 0.701971 -0.261190
v -1.647509 1.704857 -0.261190
v -1.647510 1.704857 0.261191
v -1.928348 1.223491 0.261191
v -1.928347 1.223491 -0.261190
v -1.150249 1.921357 0.261191
v -1.150248 1.921357 -0.261190
v -1.167440 -0.560008 0.261191
v -1.167440 -0.560008 -0.261190
v -1.684902 1.006859 0.441661
v -1.684901 1.006859 -0.441660
v -1.935826 0.996630 0.261191
v -1.935826 0.996630 -0.261190
v -1.157726 0.841963 -0.589903
v -1.157727 0.841963 0.685311
v -0.470810 0.837204 0.685311
v -0.470809 0.837204 -0.589903
v -0.407396 -1.216458 -0.182781
v -0.407396 -1.216458 0.182782
v -0.704013 1.865023 -0.261190
v -0.704014 1.865023 0.261191
v -0.145518 1.530822 0.261191
v -0.145517 1.530822 -0.261190
v 0.010187 -1.866941 0.085779
v 0.010187 -1.866941 -0.085778
v -0.050705 0.503003 -0.441659
v -0.050706 0.503003 0.441661
v 0.146375 0.514087 0.441661
v 0.146375 0.514087 -0.441659
v 0.181849 -1.564538 -0.085778
v 0.181849 -1.564538 0.085779
v -0.007748 1.186039 -0.261190
v -0.007748 1.186039 0.261191
v 0.427798 1.833682 0.261191
v 0.427799 1.833682 -0.261190
v 0.561222 -1.103747 0.182783
v 0.561222 -1.103747 -0.182781
v 0.581922 0.568618 -0.441659
v 0.581921 0.568618 0.441661
v 1.038509 1.013391 0.548597
v 1.038510 0.951981 -0.584792
v 1.088108 -0.624140 -0.261190
v 1.088108 -0.624140 0.261191
v 0.884387 1.947481 -0.261190
v 0.884386 1.947481 0.261191
v 1.328013 1.845473 0.261191
v 1.328014 1.845473 -0.261190
v 1.531734 -0.152808 0.261191
v 1.531734 -0.152808 -0.261190
v 1.482137 0.988366 -0.584792
v 1.482136 1.049776 0.548598
v 1.905732 0.680006 0.441661
v 1.905733 0.680006 -0.441659
v 1.955330 0.441047 -0.261190
v 1.955330 0.441047 0.261191
v 1.751610 1.589203 -0.261190
v 1.751609 1.589203 0.261191
v 1.930635 1.306618 0.261191
v 1.930636 1.306618 -0.261190
v 1.995964 0.810885 0.261191
v 1.995964 0.810885 -0.261190
v 1.985907 1.049843 -0.261190
v 1.985907 1.049843 0.261191
vn -0.943136 -0.332408 -0.000000
vn -0.863747 0.503927 -0.000002
vn -0.399192 0.916868 -0.000001
vn -0.759211 -0.650845 0.000000
vn -0.477611 -0.107823 0.871930
vn -0.469189 0.191005 0.862194
vn -0.999457 0.032945 -0.000001
vn -0.999457 0.032946 -0.000002
vn -0.469189 0.191005 -0.862194
vn -0.477611 -0.107822 -0.871930
vn -0.278464 -0.200158 -0.939359
vn -0.151255 0.275758 -0.949252
vn -0.234494 0.318356 0.918511
vn -0.371576 -0.226417 0.900370
vn 0.020229 0.375209 0.926719
vn -0.066325 -0.259396 0.963491
vn 0.016140 0.299367 -0.954002
vn -0.042428 -0.208712 -0.977056
vn -0.653648 -0.756799 0.000000
vn 0.125249 0.992125 0.000000
vn 0.513483 0.858100 0.000001
vn -0.841522 -0.540223 0.000000
vn 0.091391 -0.166769 -0.981751
vn 0.325483 0.275954 -0.904384
vn 0.178532 -0.182601 0.966842
vn 0.427429 0.317194 0.846577
vn 0.233794 0.234600 0.943559
vn 0.130811 -0.153868 0.979394
vn 0.233794 0.234600 -0.943559
vn 0.130811 -0.153868 -0.979394
vn 0.869651 -0.493666 0.000000
vn 0.928610 0.371057 0.000001
vn -0.829805 0.558053 -0.000001
vn 0.772014 -0.635605 0.000000
vn -0.015153 -0.161775 -0.986711
vn -0.130229 0.161558 -0.978233
vn -0.015153 -0.161775 0.986711
vn -0.130229 0.161558 0.978233
vn -0.218660 0.173642 0.960227
vn -0.032600 -0.163033 0.986082
vn -0.246617 0.178761 -0.952483
vn -0.066190 -0.176677 -0.982041
vn 0.673149 -0.739507 0.000000
vn -0.241841 0.970316 -0.000000
vn 0.224094 0.974568 0.000000
vn 0.728185 -0.685381 0.000000
vn 0.128929 -0.225308 -0.965719
vn 0.024656 0.333355 -0.942479
vn 0.110690 -0.193434 0.974849
vn 0.023597 0.319044 0.947446
vn 0.338055 0.305417 0.890191
vn 0.195106 -0.290608 0.936739
vn 0.357537 0.313453 -0.879724
vn 0.260266 -0.314686 -0.912817
vn 0.814113 -0.580706 0.000000
vn 0.517631 0.855604 0.000001
vn 0.844743 0.535172 0.000001
vn 0.994018 -0.109212 0.000000
vn 0.906321 -0.045520 -0.420131
vn 0.506439 0.219997 -0.833739
vn 0.906320 -0.045519 0.420133
vn 0.506439 0.219997 0.833739
vn 0.999116 0.042050 0.000000
vn 0.977609 0.210432 0.000001
usemtl Material.001
s off
f 1//1 2//1 3//1 4//1
f 5//2 8//2 7//2 6//2
f 5//3 6//3 9//3 10//3
f 2//4 1//4 12//4 11//4
f 2//5 13//5 15//5 3//5
f 13//6 6//6 7//6 15//6
f 3//7 15//7 16//7 4//7
f 15//8 7//8 8//8 16//8
f 5//9 14//9 16//9 8//9
f 14//10 1//10 4//10 16//10
f 1//11 14//11 17//11 12//11
f 14//12 5//12 10//12 17//12
f 6//13 13//13 18//13 9//13
f 13//14 2//14 11//14 18//14
f 9//15 18//15 19//15 24//15
f 18//16 11//16 22//16 19//16
f 17//17 10//17 23//17 20//17
f 12//18 17//18 20//18 21//18
f 11//19 12//19 21//19 22//19
f 10//20 9//20 24//20 23//20
f 23//21 24//21 25//21 26//21
f 22//22 21//22 28//22 27//22
f 21//23 20//23 29//23 28//23
f 20//24 23//24 26//24 29//24
f 19//25 22//25 27//25 30//25
f 24//26 19//26 30//26 25//26
f 25//27 30//27 31//27 36//27
f 30//28 27//28 34//28 31//28
f 29//29 26//29 35//29 32//29
f 28//30 29//30 32//30 33//30
f 27//31 28//31 33//31 34//31
f 26//32 25//32 36//32 35//32
f 35//33 36//33 37//33 38//33
f 34//34 33//34 40//34 39//34
f 33//35 32//35 41//35 40//35
f 32//36 35//36 38//36 41//36
f 31//37 34//37 39//37 42//37
f 36//38 31//38 42//38 37//38
f 37//39 42//39 43//39 48//39
f 42//40 39//40 46//40 43//40
f 41//41 38//41 47//41 44//41
f 40//42 41//42 44//42 45//42
f 39//43 40//43 45//43 46//43
f 38//44 37//44 48//44 47//44
f 47//45 48//45 49//45 50//45
f 46//46 45//46 52//46 51//46
f 45//47 44//47 53//47 52//47
f 44//48 47//48 50//48 53//48
f 43//49 46//49 51//49 54//49
f 48//50 43//50 54//50 49//50
f 49//51 54//51 55//51 60//51
f 54//52 51//52 58//52 55//52
f 53//53 50//53 59//53 56//53
f 52//54 53//54 56//54 57//54
f 51//55 52//55 57//55 58//55
f 50//56 49//56 60//56 59//56
f 59//57 60//57 61//57 62//57
f 58//58 57//58 64//58 63//58
f 57//59 56//59 65//59 64//59
f 56//60 59//60 62//60 65//60
f 55//61 58//61 63//61 66//61
f 60//62 55//62 66//62 61//62
f 64//63 65//63 66//63 63//63
f 65//64 62//64 61//64 66//64
