# Blender3D v249 OBJ File: 
# www.blender3d.org
mtllib 19.mtl
v 0.471000 0.312000 0.050000
v 0.471000 0.224000 0.050000
v 0.398000 0.224000 0.050000
v 0.398000 0.000000 0.050000
v 0.300000 0.000000 0.050000
v 0.300000 0.224000 0.050000
v 0.011000 0.224000 0.050000
v 0.011000 0.269000 0.050000
v 0.356000 0.691000 0.050000
v 0.398000 0.691000 0.050000
v 0.398000 0.312000 0.050000
v 0.300000 0.312000 0.050000
v 0.300000 0.506000 0.050000
v 0.298000 0.506000 0.050000
v 0.142000 0.312000 0.050000
v 0.471000 0.312000 -0.050000
v 0.471000 0.224000 -0.050000
v 0.398000 0.224000 -0.050000
v 0.398000 0.000000 -0.050000
v 0.300000 0.000000 -0.050000
v 0.300000 0.224000 -0.050000
v 0.011000 0.224000 -0.050000
v 0.011000 0.269000 -0.050000
v 0.356000 0.691000 -0.050000
v 0.398000 0.691000 -0.050000
v 0.398000 0.312000 -0.050000
v 0.300000 0.312000 -0.050000
v 0.300000 0.506000 -0.050000
v 0.298000 0.506000 -0.050000
v 0.142000 0.312000 -0.050000
v 0.471000 0.312000 -0.050000
v 0.471000 0.312000 0.050000
v 0.471000 0.224000 -0.050000
v 0.471000 0.224000 0.050000
v 0.398000 0.224000 -0.050000
v 0.398000 0.224000 0.050000
v 0.398000 0.000000 -0.050000
v 0.398000 0.000000 0.050000
v 0.300000 0.000000 -0.050000
v 0.300000 0.000000 0.050000
v 0.300000 0.224000 -0.050000
v 0.300000 0.224000 0.050000
v 0.011000 0.224000 -0.050000
v 0.011000 0.224000 0.050000
v 0.011000 0.269000 -0.050000
v 0.011000 0.269000 0.050000
v 0.356000 0.691000 -0.050000
v 0.356000 0.691000 0.050000
v 0.398000 0.691000 -0.050000
v 0.398000 0.691000 0.050000
v 0.398000 0.312000 -0.050000
v 0.398000 0.312000 0.050000
v 0.300000 0.312000 -0.050000
v 0.300000 0.312000 0.050000
v 0.300000 0.506000 -0.050000
v 0.300000 0.506000 0.050000
v 0.298000 0.506000 -0.050000
v 0.298000 0.506000 0.050000
v 0.142000 0.312000 -0.050000
v 0.142000 0.312000 0.050000
vn 0.000000 0.000000 1.000000
vn 0.000000 0.000000 0.000000
vn 1.000000 0.000000 0.000000
vn 0.000000 -1.000000 0.000000
vn -1.000000 0.000000 0.000000
vn -0.774202 0.632938 0.000000
vn 0.000000 1.000000 0.000000
vn 0.779299 -0.626653 0.000000
usemtl (null)
s off
f 8//1 10//1 9//1
f 8//1 14//1 10//1
f 14//1 13//1 10//1
f 13//1 11//1 10//1
f 8//1 15//1 14//1
f 12//1 11//1 13//1
f 8//1 12//1 15//1
f 8//1 11//1 12//1
f 8//1 1//1 11//1
f 2//1 1//1 8//1
f 7//1 2//1 8//1
f 6//2 2//2 7//2
f 5//1 3//1 6//1
f 3//2 2//2 6//2
f 5//1 4//1 3//1
f 23//1 25//1 24//1
f 23//1 29//1 25//1
f 29//1 28//1 25//1
f 28//1 26//1 25//1
f 23//1 30//1 29//1
f 27//1 26//1 28//1
f 23//1 27//1 30//1
f 23//1 26//1 27//1
f 23//1 16//1 26//1
f 23//1 17//1 16//1
f 22//1 17//1 23//1
f 21//2 17//2 22//2
f 20//1 18//1 21//1
f 18//2 17//2 21//2
f 20//1 19//1 18//1
f 32//3 34//3 33//3 31//3
f 34//4 36//4 35//4 33//4
f 36//3 38//3 37//3 35//3
f 38//4 40//4 39//4 37//4
f 40//5 42//5 41//5 39//5
f 42//4 44//4 43//4 41//4
f 44//5 46//5 45//5 43//5
f 46//6 48//6 47//6 45//6
f 48//7 50//7 49//7 47//7
f 50//3 52//3 51//3 49//3
f 52//7 32//7 31//7 51//7
f 54//5 56//5 55//5 53//5
f 56//4 58//4 57//4 55//4
f 58//8 60//8 59//8 57//8
f 60//7 54//7 53//7 59//7
