# Blender3D v249 OBJ File: 
# www.blender3d.org
mtllib 2.mtl
v 0.227000 0.422000 0.050000
v 0.421000 0.422000 0.050000
v 0.462000 0.617000 0.050000
v 0.534000 0.617000 0.050000
v 0.493000 0.422000 0.050000
v 0.584000 0.422000 0.050000
v 0.584000 0.353000 0.050000
v 0.479000 0.353000 0.050000
v 0.443000 0.183000 0.050000
v 0.584000 0.183000 0.050000
v 0.584000 0.114000 0.050000
v 0.429000 0.114000 0.050000
v 0.388000 -0.081000 0.050000
v 0.316000 -0.081000 0.050000
v 0.357000 0.114000 0.050000
v 0.163000 0.114000 0.050000
v 0.122000 -0.081000 0.050000
v 0.050000 -0.081000 0.050000
v 0.091000 0.114000 0.050000
v 0.001000 0.114000 0.050000
v 0.001000 0.183000 0.050000
v 0.105000 0.183000 0.050000
v 0.141000 0.353000 0.050000
v 0.001000 0.353000 0.050000
v 0.001000 0.422000 0.050000
v 0.155000 0.422000 0.050000
v 0.196000 0.617000 0.050000
v 0.268000 0.617000 0.050000
v 0.371000 0.183000 0.050000
v 0.407000 0.353000 0.050000
v 0.213000 0.353000 0.050000
v 0.177000 0.183000 0.050000
v 0.227000 0.422000 -0.050000
v 0.421000 0.422000 -0.050000
v 0.462000 0.617000 -0.050000
v 0.534000 0.617000 -0.050000
v 0.493000 0.422000 -0.050000
v 0.584000 0.422000 -0.050000
v 0.584000 0.353000 -0.050000
v 0.479000 0.353000 -0.050000
v 0.443000 0.183000 -0.050000
v 0.584000 0.183000 -0.050000
v 0.584000 0.114000 -0.050000
v 0.429000 0.114000 -0.050000
v 0.388000 -0.081000 -0.050000
v 0.316000 -0.081000 -0.050000
v 0.357000 0.114000 -0.050000
v 0.163000 0.114000 -0.050000
v 0.122000 -0.081000 -0.050000
v 0.050000 -0.081000 -0.050000
v 0.091000 0.114000 -0.050000
v 0.001000 0.114000 -0.050000
v 0.001000 0.183000 -0.050000
v 0.105000 0.183000 -0.050000
v 0.141000 0.353000 -0.050000
v 0.001000 0.353000 -0.050000
v 0.001000 0.422000 -0.050000
v 0.155000 0.422000 -0.050000
v 0.196000 0.617000 -0.050000
v 0.268000 0.617000 -0.050000
v 0.371000 0.183000 -0.050000
v 0.407000 0.353000 -0.050000
v 0.213000 0.353000 -0.050000
v 0.177000 0.183000 -0.050000
v 0.227000 0.422000 -0.050000
v 0.227000 0.422000 0.050000
v 0.421000 0.422000 -0.050000
v 0.421000 0.422000 0.050000
v 0.462000 0.617000 -0.050000
v 0.462000 0.617000 0.050000
v 0.534000 0.617000 -0.050000
v 0.534000 0.617000 0.050000
v 0.493000 0.422000 -0.050000
v 0.493000 0.422000 0.050000
v 0.584000 0.422000 -0.050000
v 0.584000 0.422000 0.050000
v 0.584000 0.353000 -0.050000
v 0.584000 0.353000 0.050000
v 0.479000 0.353000 -0.050000
v 0.479000 0.353000 0.050000
v 0.443000 0.183000 -0.050000
v 0.443000 0.183000 0.050000
v 0.584000 0.183000 -0.050000
v 0.584000 0.183000 0.050000
v 0.584000 0.114000 -0.050000
v 0.584000 0.114000 0.050000
v 0.429000 0.114000 -0.050000
v 0.429000 0.114000 0.050000
v 0.388000 -0.081000 -0.050000
v 0.388000 -0.081000 0.050000
v 0.316000 -0.081000 -0.050000
v 0.316000 -0.081000 0.050000
v 0.357000 0.114000 -0.050000
v 0.357000 0.114000 0.050000
v 0.163000 0.114000 -0.050000
v 0.163000 0.114000 0.050000
v 0.122000 -0.081000 -0.050000
v 0.122000 -0.081000 0.050000
v 0.050000 -0.081000 -0.050000
v 0.050000 -0.081000 0.050000
v 0.091000 0.114000 -0.050000
v 0.091000 0.114000 0.050000
v 0.001000 0.114000 -0.050000
v 0.001000 0.114000 0.050000
v 0.001000 0.183000 -0.050000
v 0.001000 0.183000 0.050000
v 0.105000 0.183000 -0.050000
v 0.105000 0.183000 0.050000
v 0.141000 0.353000 -0.050000
v 0.141000 0.353000 0.050000
v 0.001000 0.353000 -0.050000
v 0.001000 0.353000 0.050000
v 0.001000 0.422000 -0.050000
v 0.001000 0.422000 0.050000
v 0.155000 0.422000 -0.050000
v 0.155000 0.422000 0.050000
v 0.196000 0.617000 -0.050000
v 0.196000 0.617000 0.050000
v 0.268000 0.617000 -0.050000
v 0.268000 0.617000 0.050000
v 0.371000 0.183000 -0.050000
v 0.371000 0.183000 0.050000
v 0.407000 0.353000 -0.050000
v 0.407000 0.353000 0.050000
v 0.213000 0.353000 -0.050000
v 0.213000 0.353000 0.050000
v 0.177000 0.183000 -0.050000
v 0.177000 0.183000 0.050000
vn 0.000000 0.000000 1.000000
vn 0.000000 0.000000 0.000000
vn 0.000000 1.000000 0.000000
vn -0.978603 0.205757 0.000000
vn 0.978603 -0.205758 0.000000
vn 1.000000 0.000000 0.000000
vn 0.000000 -1.000000 0.000000
vn 0.978305 -0.207171 0.000000
vn -0.978603 0.205758 0.000000
vn -1.000000 0.000000 0.000000
vn -0.978305 0.207170 0.000000
usemtl (null)
s off
f 26//1 28//1 27//1
f 26//1 1//1 28//1
f 2//1 4//1 3//1
f 2//1 5//1 4//1
f 24//1 26//1 25//1
f 24//1 1//1 26//1
f 2//1 1//1 24//1
f 24//1 5//1 2//1
f 24//1 6//1 5//1
f 24//1 7//1 6//1
f 23//2 7//2 24//2
f 22//1 31//1 23//1
f 31//2 7//2 23//2
f 22//1 32//1 31//1
f 30//2 7//2 31//2
f 29//1 8//1 30//1
f 8//2 7//2 30//2
f 29//1 9//1 8//1
f 20//1 22//1 21//1
f 20//1 32//1 22//1
f 20//1 29//1 32//1
f 20//1 9//1 29//1
f 20//1 10//1 9//1
f 20//1 11//1 10//1
f 19//2 11//2 20//2
f 18//1 16//1 19//1
f 16//2 11//2 19//2
f 18//1 17//1 16//1
f 15//2 11//2 16//2
f 14//1 12//1 15//1
f 12//2 11//2 15//2
f 14//1 13//1 12//1
f 58//1 60//1 59//1
f 58//1 33//1 60//1
f 34//1 36//1 35//1
f 34//1 37//1 36//1
f 56//1 58//1 57//1
f 56//1 33//1 58//1
f 56//1 34//1 33//1
f 56//1 37//1 34//1
f 56//1 38//1 37//1
f 56//1 39//1 38//1
f 55//2 39//2 56//2
f 54//1 63//1 55//1
f 63//2 39//2 55//2
f 54//1 64//1 63//1
f 62//2 39//2 63//2
f 61//1 40//1 62//1
f 40//2 39//2 62//2
f 61//1 41//1 40//1
f 52//1 54//1 53//1
f 52//1 64//1 54//1
f 52//1 61//1 64//1
f 52//1 41//1 61//1
f 52//1 42//1 41//1
f 52//1 43//1 42//1
f 51//2 43//2 52//2
f 50//1 48//1 51//1
f 48//2 43//2 51//2
f 50//1 49//1 48//1
f 47//2 43//2 48//2
f 46//1 44//1 47//1
f 44//2 43//2 47//2
f 46//1 45//1 44//1
f 66//3 68//3 67//3 65//3
f 68//4 70//4 69//4 67//4
f 70//3 72//3 71//3 69//3
f 72//5 74//5 73//5 71//5
f 74//3 76//3 75//3 73//3
f 76//6 78//6 77//6 75//6
f 78//7 80//7 79//7 77//7
f 80//8 82//8 81//8 79//8
f 82//3 84//3 83//3 81//3
f 84//6 86//6 85//6 83//6
f 86//7 88//7 87//7 85//7
f 88//5 90//5 89//5 87//5
f 90//7 92//7 91//7 89//7
f 92//9 94//9 93//9 91//9
f 94//7 96//7 95//7 93//7
f 96//5 98//5 97//5 95//5
f 98//7 100//7 99//7 97//7
f 100//9 102//9 101//9 99//9
f 102//7 104//7 103//7 101//7
f 104//10 106//10 105//10 103//10
f 106//3 108//3 107//3 105//3
f 108//11 110//11 109//11 107//11
f 110//7 112//7 111//7 109//7
f 112//10 114//10 113//10 111//10
f 114//3 116//3 115//3 113//3
f 116//9 118//9 117//9 115//9
f 118//3 120//3 119//3 117//3
f 120//5 66//5 65//5 119//5
f 122//11 124//11 123//11 121//11
f 124//7 126//7 125//7 123//7
f 126//8 128//8 127//8 125//8
f 128//3 122//3 121//3 127//3
