# Blender3D v249 OBJ File: 
# www.blender3d.org
mtllib 20.mtl
v 0.190000 0.594000 0.050000
v 0.190000 0.423000 0.050000
v 0.227230 0.423086 0.050000
v 0.261843 0.419023 0.050000
v 0.293719 0.411078 0.050000
v 0.322741 0.399519 0.050000
v 0.348791 0.384612 0.050000
v 0.371750 0.366625 0.050000
v 0.391501 0.345826 0.050000
v 0.407926 0.322481 0.050000
v 0.420906 0.296859 0.050000
v 0.430324 0.269227 0.050000
v 0.436061 0.239851 0.050000
v 0.438000 0.209000 0.050000
v 0.436076 0.178242 0.050000
v 0.430440 0.149102 0.050000
v 0.421297 0.121781 0.050000
v 0.408852 0.096481 0.050000
v 0.393310 0.073404 0.050000
v 0.374875 0.052750 0.050000
v 0.353753 0.034721 0.050000
v 0.330148 0.019519 0.050000
v 0.304266 0.007344 0.050000
v 0.276310 -0.001602 0.050000
v 0.246487 -0.007117 0.050000
v 0.215000 -0.009000 0.050000
v 0.200486 -0.008747 0.050000
v 0.186389 -0.007972 0.050000
v 0.172625 -0.006656 0.050000
v 0.159111 -0.004778 0.050000
v 0.145764 -0.002316 0.050000
v 0.132500 0.000750 0.050000
v 0.119236 0.004441 0.050000
v 0.105889 0.008778 0.050000
v 0.092375 0.013781 0.050000
v 0.078611 0.019472 0.050000
v 0.064514 0.025872 0.050000
v 0.050000 0.033000 0.050000
v 0.050000 0.134000 0.050000
v 0.062270 0.126084 0.050000
v 0.074579 0.118838 0.050000
v 0.086922 0.112266 0.050000
v 0.099296 0.106370 0.050000
v 0.111699 0.101156 0.050000
v 0.124125 0.096625 0.050000
v 0.136572 0.092782 0.050000
v 0.149037 0.089630 0.050000
v 0.161516 0.087172 0.050000
v 0.174005 0.085412 0.050000
v 0.186501 0.084354 0.050000
v 0.199000 0.084000 0.050000
v 0.217950 0.085141 0.050000
v 0.236181 0.088458 0.050000
v 0.253516 0.093797 0.050000
v 0.269778 0.101000 0.050000
v 0.284790 0.109911 0.050000
v 0.298375 0.120375 0.050000
v 0.310356 0.132234 0.050000
v 0.320556 0.145333 0.050000
v 0.328797 0.159516 0.050000
v 0.334903 0.174625 0.050000
v 0.338696 0.190505 0.050000
v 0.340000 0.207000 0.050000
v 0.338162 0.228325 0.050000
v 0.332713 0.248597 0.050000
v 0.323750 0.267516 0.050000
v 0.311370 0.284778 0.050000
v 0.295671 0.300082 0.050000
v 0.276750 0.313125 0.050000
v 0.254704 0.323606 0.050000
v 0.229630 0.331222 0.050000
v 0.201625 0.335672 0.050000
v 0.170787 0.336653 0.050000
v 0.137213 0.333863 0.050000
v 0.101000 0.327000 0.050000
v 0.101000 0.682000 0.050000
v 0.404000 0.682000 0.050000
v 0.404000 0.594000 0.050000
v 0.190000 0.594000 -0.050000
v 0.190000 0.423000 -0.050000
v 0.227230 0.423086 -0.050000
v 0.261843 0.419023 -0.050000
v 0.293719 0.411078 -0.050000
v 0.322741 0.399519 -0.050000
v 0.348791 0.384612 -0.050000
v 0.371750 0.366625 -0.050000
v 0.391501 0.345826 -0.050000
v 0.407926 0.322481 -0.050000
v 0.420906 0.296859 -0.050000
v 0.430324 0.269227 -0.050000
v 0.436061 0.239851 -0.050000
v 0.438000 0.209000 -0.050000
v 0.436076 0.178242 -0.050000
v 0.430440 0.149102 -0.050000
v 0.421297 0.121781 -0.050000
v 0.408852 0.096481 -0.050000
v 0.393310 0.073404 -0.050000
v 0.374875 0.052750 -0.050000
v 0.353753 0.034721 -0.050000
v 0.330148 0.019519 -0.050000
v 0.304266 0.007344 -0.050000
v 0.276310 -0.001602 -0.050000
v 0.246487 -0.007117 -0.050000
v 0.215000 -0.009000 -0.050000
v 0.200486 -0.008747 -0.050000
v 0.186389 -0.007972 -0.050000
v 0.172625 -0.006656 -0.050000
v 0.159111 -0.004778 -0.050000
v 0.145764 -0.002316 -0.050000
v 0.132500 0.000750 -0.050000
v 0.119236 0.004441 -0.050000
v 0.105889 0.008778 -0.050000
v 0.092375 0.013781 -0.050000
v 0.078611 0.019472 -0.050000
v 0.064514 0.025872 -0.050000
v 0.050000 0.033000 -0.050000
v 0.050000 0.134000 -0.050000
v 0.062270 0.126084 -0.050000
v 0.074579 0.118838 -0.050000
v 0.086922 0.112266 -0.050000
v 0.099296 0.106370 -0.050000
v 0.111699 0.101156 -0.050000
v 0.124125 0.096625 -0.050000
v 0.136572 0.092782 -0.050000
v 0.149037 0.089630 -0.050000
v 0.161516 0.087172 -0.050000
v 0.174005 0.085412 -0.050000
v 0.186501 0.084354 -0.050000
v 0.199000 0.084000 -0.050000
v 0.217950 0.085141 -0.050000
v 0.236181 0.088458 -0.050000
v 0.253516 0.093797 -0.050000
v 0.269778 0.101000 -0.050000
v 0.284790 0.109911 -0.050000
v 0.298375 0.120375 -0.050000
v 0.310356 0.132234 -0.050000
v 0.320556 0.145333 -0.050000
v 0.328797 0.159516 -0.050000
v 0.334903 0.174625 -0.050000
v 0.338696 0.190505 -0.050000
v 0.340000 0.207000 -0.050000
v 0.338162 0.228325 -0.050000
v 0.332713 0.248597 -0.050000
v 0.323750 0.267516 -0.050000
v 0.311370 0.284778 -0.050000
v 0.295671 0.300082 -0.050000
v 0.276750 0.313125 -0.050000
v 0.254704 0.323606 -0.050000
v 0.229630 0.331222 -0.050000
v 0.201625 0.335672 -0.050000
v 0.170787 0.336653 -0.050000
v 0.137213 0.333863 -0.050000
v 0.101000 0.327000 -0.050000
v 0.101000 0.682000 -0.050000
v 0.404000 0.682000 -0.050000
v 0.404000 0.594000 -0.050000
v 0.190000 0.594000 -0.050000
v 0.190000 0.594000 0.050000
v 0.190000 0.423000 -0.050000
v 0.190000 0.423000 0.050000
v 0.227230 0.423086 -0.050000
v 0.227230 0.423086 0.050000
v 0.261843 0.419023 -0.050000
v 0.261843 0.419023 0.050000
v 0.293719 0.411078 -0.050000
v 0.293719 0.411078 0.050000
v 0.322741 0.399519 -0.050000
v 0.322741 0.399519 0.050000
v 0.348791 0.384612 -0.050000
v 0.348791 0.384612 0.050000
v 0.371750 0.366625 -0.050000
v 0.371750 0.366625 0.050000
v 0.391501 0.345826 -0.050000
v 0.391501 0.345826 0.050000
v 0.407926 0.322481 -0.050000
v 0.407926 0.322481 0.050000
v 0.420906 0.296859 -0.050000
v 0.420906 0.296859 0.050000
v 0.430324 0.269227 -0.050000
v 0.430324 0.269227 0.050000
v 0.436061 0.239851 -0.050000
v 0.436061 0.239851 0.050000
v 0.438000 0.209000 -0.050000
v 0.438000 0.209000 0.050000
v 0.436076 0.178242 -0.050000
v 0.436076 0.178242 0.050000
v 0.430440 0.149102 -0.050000
v 0.430440 0.149102 0.050000
v 0.421297 0.121781 -0.050000
v 0.421297 0.121781 0.050000
v 0.408852 0.096481 -0.050000
v 0.408852 0.096481 0.050000
v 0.393310 0.073404 -0.050000
v 0.393310 0.073404 0.050000
v 0.374875 0.052750 -0.050000
v 0.374875 0.052750 0.050000
v 0.353753 0.034721 -0.050000
v 0.353753 0.034721 0.050000
v 0.330148 0.019519 -0.050000
v 0.330148 0.019519 0.050000
v 0.304266 0.007344 -0.050000
v 0.304266 0.007344 0.050000
v 0.276310 -0.001602 -0.050000
v 0.276310 -0.001602 0.050000
v 0.246487 -0.007117 -0.050000
v 0.246487 -0.007117 0.050000
v 0.215000 -0.009000 -0.050000
v 0.215000 -0.009000 0.050000
v 0.200486 -0.008747 -0.050000
v 0.200486 -0.008747 0.050000
v 0.186389 -0.007972 -0.050000
v 0.186389 -0.007972 0.050000
v 0.172625 -0.006656 -0.050000
v 0.172625 -0.006656 0.050000
v 0.159111 -0.004778 -0.050000
v 0.159111 -0.004778 0.050000
v 0.145764 -0.002316 -0.050000
v 0.145764 -0.002316 0.050000
v 0.132500 0.000750 -0.050000
v 0.132500 0.000750 0.050000
v 0.119236 0.004441 -0.050000
v 0.119236 0.004441 0.050000
v 0.105889 0.008778 -0.050000
v 0.105889 0.008778 0.050000
v 0.092375 0.013781 -0.050000
v 0.092375 0.013781 0.050000
v 0.078611 0.019472 -0.050000
v 0.078611 0.019472 0.050000
v 0.064514 0.025872 -0.050000
v 0.064514 0.025872 0.050000
v 0.050000 0.033000 -0.050000
v 0.050000 0.033000 0.050000
v 0.050000 0.134000 -0.050000
v 0.050000 0.134000 0.050000
v 0.062270 0.126084 -0.050000
v 0.062270 0.126084 0.050000
v 0.074579 0.118838 -0.050000
v 0.074579 0.118838 0.050000
v 0.086922 0.112266 -0.050000
v 0.086922 0.112266 0.050000
v 0.099296 0.106370 -0.050000
v 0.099296 0.106370 0.050000
v 0.111699 0.101156 -0.050000
v 0.111699 0.101156 0.050000
v 0.124125 0.096625 -0.050000
v 0.124125 0.096625 0.050000
v 0.136572 0.092782 -0.050000
v 0.136572 0.092782 0.050000
v 0.149037 0.089630 -0.050000
v 0.149037 0.089630 0.050000
v 0.161516 0.087172 -0.050000
v 0.161516 0.087172 0.050000
v 0.174005 0.085412 -0.050000
v 0.174005 0.085412 0.050000
v 0.186501 0.084354 -0.050000
v 0.186501 0.084354 0.050000
v 0.199000 0.084000 -0.050000
v 0.199000 0.084000 0.050000
v 0.217950 0.085141 -0.050000
v 0.217950 0.085141 0.050000
v 0.236181 0.088458 -0.050000
v 0.236181 0.088458 0.050000
v 0.253516 0.093797 -0.050000
v 0.253516 0.093797 0.050000
v 0.269778 0.101000 -0.050000
v 0.269778 0.101000 0.050000
v 0.284790 0.109911 -0.050000
v 0.284790 0.109911 0.050000
v 0.298375 0.120375 -0.050000
v 0.298375 0.120375 0.050000
v 0.310356 0.132234 -0.050000
v 0.310356 0.132234 0.050000
v 0.320556 0.145333 -0.050000
v 0.320556 0.145333 0.050000
v 0.328797 0.159516 -0.050000
v 0.328797 0.159516 0.050000
v 0.334903 0.174625 -0.050000
v 0.334903 0.174625 0.050000
v 0.338696 0.190505 -0.050000
v 0.338696 0.190505 0.050000
v 0.340000 0.207000 -0.050000
v 0.340000 0.207000 0.050000
v 0.338162 0.228325 -0.050000
v 0.338162 0.228325 0.050000
v 0.332713 0.248597 -0.050000
v 0.332713 0.248597 0.050000
v 0.323750 0.267516 -0.050000
v 0.323750 0.267516 0.050000
v 0.311370 0.284778 -0.050000
v 0.311370 0.284778 0.050000
v 0.295671 0.300082 -0.050000
v 0.295671 0.300082 0.050000
v 0.276750 0.313125 -0.050000
v 0.276750 0.313125 0.050000
v 0.254704 0.323606 -0.050000
v 0.254704 0.323606 0.050000
v 0.229630 0.331222 -0.050000
v 0.229630 0.331222 0.050000
v 0.201625 0.335672 -0.050000
v 0.201625 0.335672 0.050000
v 0.170787 0.336653 -0.050000
v 0.170787 0.336653 0.050000
v 0.137213 0.333863 -0.050000
v 0.137213 0.333863 0.050000
v 0.101000 0.327000 -0.050000
v 0.101000 0.327000 0.050000
v 0.101000 0.682000 -0.050000
v 0.101000 0.682000 0.050000
v 0.404000 0.682000 -0.050000
v 0.404000 0.682000 0.050000
v 0.404000 0.594000 -0.050000
v 0.404000 0.594000 0.050000
vn 0.000000 0.000000 1.000000
vn 1.000000 0.000000 0.000000
vn -0.002316 0.999997 0.000000
vn 0.116588 0.993180 0.000000
vn 0.241848 0.970314 0.000000
vn 0.370033 0.929019 0.000000
vn 0.496672 0.867938 0.000000
vn 0.616699 0.787199 0.000000
vn 0.725140 0.688602 0.000000
vn 0.817852 0.575429 0.000000
vn 0.892057 0.451923 0.000000
vn 0.946535 0.322602 0.000000
vn 0.981457 0.191685 0.000000
vn 0.998031 0.062716 0.000000
vn 0.998049 -0.062437 0.000000
vn 0.981805 -0.189892 0.000000
vn 0.948307 -0.317354 0.000000
vn 0.897314 -0.441392 0.000000
vn 0.829433 -0.558606 0.000000
vn 0.746053 -0.665887 0.000000
vn 0.649218 -0.760602 0.000000
vn 0.541465 -0.840724 0.000000
vn 0.425647 -0.904889 0.000000
vn 0.304771 -0.952426 0.000000
vn 0.181840 -0.983328 0.000000
vn 0.059700 -0.998216 0.000000
vn -0.017461 -0.999848 0.000000
vn -0.054843 -0.998495 0.000000
vn -0.095176 -0.995460 0.000000
vn -0.137679 -0.990477 0.000000
vn -0.181384 -0.983412 0.000000
vn -0.225214 -0.974309 0.000000
vn -0.268086 -0.963395 0.000000
vn -0.309019 -0.951056 0.000000
vn -0.347212 -0.937787 0.000000
vn -0.382098 -0.924122 0.000000
vn -0.413347 -0.910574 0.000000
vn -0.440846 -0.897583 0.000000
vn -1.000000 0.000000 0.000000
vn 0.542117 0.840303 0.000000
vn 0.507315 0.861760 0.000000
vn 0.469993 0.882670 0.000000
vn 0.430093 0.902785 0.000000
vn 0.387597 0.921829 0.000000
vn 0.342540 0.939503 0.000000
vn 0.295013 0.955493 0.000000
vn 0.245172 0.969480 0.000000
vn 0.193245 0.981151 0.000000
vn 0.139533 0.990217 0.000000
vn 0.084401 0.996432 0.000000
vn 0.028277 0.999600 0.000000
vn -0.060084 0.998193 0.000000
vn -0.179042 0.983841 0.000000
vn -0.294321 0.955706 0.000000
vn -0.404987 0.914322 0.000000
vn -0.510454 0.859905 0.000000
vn -0.610205 0.792243 0.000000
vn -0.703493 0.710702 0.000000
vn -0.789014 0.614376 0.000000
vn -0.864618 0.502429 0.000000
vn -0.927156 0.374676 0.000000
vn -0.972635 0.232338 0.000000
vn -0.996891 0.078799 0.000000
vn -0.996306 -0.085872 0.000000
vn -0.965723 -0.259576 0.000000
vn -0.903708 -0.428149 0.000000
vn -0.812629 -0.582781 0.000000
vn -0.698036 -0.716063 0.000000
vn -0.567563 -0.823330 0.000000
vn -0.429355 -0.903136 0.000000
vn -0.290640 -0.956832 0.000000
vn -0.156922 -0.987611 0.000000
vn -0.031792 -0.999494 0.000000
vn 0.082812 -0.996565 0.000000
vn 0.186199 -0.982512 0.000000
vn 0.000000 1.000000 0.000000
vn 0.000000 -1.000000 0.000000
usemtl (null)
s off
f 75//1 1//1 76//1
f 1//1 77//1 76//1
f 1//1 78//1 77//1
f 2//1 1//1 75//1
f 2//1 4//1 3//1
f 75//1 4//1 2//1
f 75//1 5//1 4//1
f 75//1 6//1 5//1
f 75//1 7//1 6//1
f 75//1 74//1 7//1
f 74//1 8//1 7//1
f 74//1 73//1 8//1
f 73//1 9//1 8//1
f 73//1 72//1 9//1
f 72//1 10//1 9//1
f 71//1 10//1 72//1
f 70//1 10//1 71//1
f 69//1 10//1 70//1
f 69//1 11//1 10//1
f 68//1 11//1 69//1
f 67//1 11//1 68//1
f 67//1 12//1 11//1
f 66//1 12//1 67//1
f 66//1 13//1 12//1
f 65//1 13//1 66//1
f 64//1 13//1 65//1
f 64//1 14//1 13//1
f 63//1 14//1 64//1
f 63//1 15//1 14//1
f 62//1 15//1 63//1
f 61//1 15//1 62//1
f 61//1 16//1 15//1
f 60//1 16//1 61//1
f 59//1 16//1 60//1
f 59//1 17//1 16//1
f 58//1 17//1 59//1
f 38//1 40//1 39//1
f 57//1 17//1 58//1
f 38//1 41//1 40//1
f 57//1 18//1 17//1
f 56//1 18//1 57//1
f 38//1 42//1 41//1
f 38//1 43//1 42//1
f 55//1 18//1 56//1
f 38//1 44//1 43//1
f 38//1 45//1 44//1
f 54//1 18//1 55//1
f 38//1 46//1 45//1
f 54//1 19//1 18//1
f 53//1 19//1 54//1
f 38//1 47//1 46//1
f 38//1 48//1 47//1
f 52//1 19//1 53//1
f 38//1 49//1 48//1
f 38//1 50//1 49//1
f 51//1 19//1 52//1
f 38//1 51//1 50//1
f 38//1 19//1 51//1
f 38//1 20//1 19//1
f 38//1 21//1 20//1
f 38//1 22//1 21//1
f 37//1 22//1 38//1
f 36//1 22//1 37//1
f 36//1 23//1 22//1
f 35//1 23//1 36//1
f 34//1 23//1 35//1
f 33//1 23//1 34//1
f 33//1 24//1 23//1
f 32//1 24//1 33//1
f 31//1 24//1 32//1
f 31//1 25//1 24//1
f 30//1 25//1 31//1
f 29//1 25//1 30//1
f 28//1 25//1 29//1
f 28//1 26//1 25//1
f 27//1 26//1 28//1
f 153//1 79//1 154//1
f 79//1 155//1 154//1
f 79//1 156//1 155//1
f 153//1 80//1 79//1
f 80//1 82//1 81//1
f 153//1 82//1 80//1
f 153//1 83//1 82//1
f 153//1 84//1 83//1
f 153//1 85//1 84//1
f 153//1 152//1 85//1
f 152//1 86//1 85//1
f 152//1 151//1 86//1
f 151//1 87//1 86//1
f 151//1 150//1 87//1
f 150//1 88//1 87//1
f 149//1 88//1 150//1
f 148//1 88//1 149//1
f 147//1 88//1 148//1
f 147//1 89//1 88//1
f 146//1 89//1 147//1
f 145//1 89//1 146//1
f 145//1 90//1 89//1
f 144//1 90//1 145//1
f 144//1 91//1 90//1
f 143//1 91//1 144//1
f 142//1 91//1 143//1
f 142//1 92//1 91//1
f 141//1 92//1 142//1
f 141//1 93//1 92//1
f 140//1 93//1 141//1
f 139//1 93//1 140//1
f 139//1 94//1 93//1
f 138//1 94//1 139//1
f 137//1 94//1 138//1
f 137//1 95//1 94//1
f 136//1 95//1 137//1
f 116//1 118//1 117//1
f 135//1 95//1 136//1
f 116//1 119//1 118//1
f 135//1 96//1 95//1
f 134//1 96//1 135//1
f 116//1 120//1 119//1
f 116//1 121//1 120//1
f 133//1 96//1 134//1
f 116//1 122//1 121//1
f 116//1 123//1 122//1
f 132//1 96//1 133//1
f 116//1 124//1 123//1
f 132//1 97//1 96//1
f 131//1 97//1 132//1
f 116//1 125//1 124//1
f 116//1 126//1 125//1
f 130//1 97//1 131//1
f 116//1 127//1 126//1
f 116//1 128//1 127//1
f 129//1 97//1 130//1
f 116//1 129//1 128//1
f 116//1 97//1 129//1
f 116//1 98//1 97//1
f 116//1 99//1 98//1
f 116//1 100//1 99//1
f 115//1 100//1 116//1
f 114//1 100//1 115//1
f 114//1 101//1 100//1
f 113//1 101//1 114//1
f 112//1 101//1 113//1
f 111//1 101//1 112//1
f 111//1 102//1 101//1
f 110//1 102//1 111//1
f 109//1 102//1 110//1
f 109//1 103//1 102//1
f 108//1 103//1 109//1
f 107//1 103//1 108//1
f 106//1 103//1 107//1
f 106//1 104//1 103//1
f 105//1 104//1 106//1
f 158//2 160//2 159//2 157//2
f 160//3 162//3 161//3 159//3
f 162//4 164//4 163//4 161//4
f 164//5 166//5 165//5 163//5
f 166//6 168//6 167//6 165//6
f 168//7 170//7 169//7 167//7
f 170//8 172//8 171//8 169//8
f 172//9 174//9 173//9 171//9
f 174//10 176//10 175//10 173//10
f 176//11 178//11 177//11 175//11
f 178//12 180//12 179//12 177//12
f 180//13 182//13 181//13 179//13
f 182//14 184//14 183//14 181//14
f 184//15 186//15 185//15 183//15
f 186//16 188//16 187//16 185//16
f 188//17 190//17 189//17 187//17
f 190//18 192//18 191//18 189//18
f 192//19 194//19 193//19 191//19
f 194//20 196//20 195//20 193//20
f 196//21 198//21 197//21 195//21
f 198//22 200//22 199//22 197//22
f 200//23 202//23 201//23 199//23
f 202//24 204//24 203//24 201//24
f 204//25 206//25 205//25 203//25
f 206//26 208//26 207//26 205//26
f 208//27 210//27 209//27 207//27
f 210//28 212//28 211//28 209//28
f 212//29 214//29 213//29 211//29
f 214//30 216//30 215//30 213//30
f 216//31 218//31 217//31 215//31
f 218//32 220//32 219//32 217//32
f 220//33 222//33 221//33 219//33
f 222//34 224//34 223//34 221//34
f 224//35 226//35 225//35 223//35
f 226//36 228//36 227//36 225//36
f 228//37 230//37 229//37 227//37
f 230//38 232//38 231//38 229//38
f 232//39 234//39 233//39 231//39
f 234//40 236//40 235//40 233//40
f 236//41 238//41 237//41 235//41
f 238//42 240//42 239//42 237//42
f 240//43 242//43 241//43 239//43
f 242//44 244//44 243//44 241//44
f 244//45 246//45 245//45 243//45
f 246//46 248//46 247//46 245//46
f 248//47 250//47 249//47 247//47
f 250//48 252//48 251//48 249//48
f 252//49 254//49 253//49 251//49
f 254//50 256//50 255//50 253//50
f 256//51 258//51 257//51 255//51
f 258//52 260//52 259//52 257//52
f 260//53 262//53 261//53 259//53
f 262//54 264//54 263//54 261//54
f 264//55 266//55 265//55 263//55
f 266//56 268//56 267//56 265//56
f 268//57 270//57 269//57 267//57
f 270//58 272//58 271//58 269//58
f 272//59 274//59 273//59 271//59
f 274//60 276//60 275//60 273//60
f 276//61 278//61 277//61 275//61
f 278//62 280//62 279//62 277//62
f 280//63 282//63 281//63 279//63
f 282//64 284//64 283//64 281//64
f 284//65 286//65 285//65 283//65
f 286//66 288//66 287//66 285//66
f 288//67 290//67 289//67 287//67
f 290//68 292//68 291//68 289//68
f 292//69 294//69 293//69 291//69
f 294//70 296//70 295//70 293//70
f 296//71 298//71 297//71 295//71
f 298//72 300//72 299//72 297//72
f 300//73 302//73 301//73 299//73
f 302//74 304//74 303//74 301//74
f 304//75 306//75 305//75 303//75
f 306//39 308//39 307//39 305//39
f 308//76 310//76 309//76 307//76
f 310//2 312//2 311//2 309//2
f 312//77 158//77 157//77 311//77
