# Blender3D v249 OBJ File: 
# www.blender3d.org
mtllib 22.mtl
v 0.094000 0.029000 0.050000
v 0.344000 0.589000 0.050000
v 0.049000 0.589000 0.050000
v 0.049000 0.682000 0.050000
v 0.490000 0.682000 0.050000
v 0.181000 -0.009000 0.050000
v 0.094000 0.029000 -0.050000
v 0.344000 0.589000 -0.050000
v 0.049000 0.589000 -0.050000
v 0.049000 0.682000 -0.050000
v 0.490000 0.682000 -0.050000
v 0.181000 -0.009000 -0.050000
v 0.094000 0.029000 -0.050000
v 0.094000 0.029000 0.050000
v 0.344000 0.589000 -0.050000
v 0.344000 0.589000 0.050000
v 0.049000 0.589000 -0.050000
v 0.049000 0.589000 0.050000
v 0.049000 0.682000 -0.050000
v 0.049000 0.682000 0.050000
v 0.490000 0.682000 -0.050000
v 0.490000 0.682000 0.050000
v 0.181000 -0.009000 -0.050000
v 0.181000 -0.009000 0.050000
vn 0.000000 0.000000 1.000000
vn -0.913138 0.407651 0.000000
vn 0.000000 -1.000000 0.000000
vn -1.000000 0.000000 0.000000
vn 0.000000 1.000000 0.000000
vn 0.912883 -0.408221 0.000000
vn -0.400266 -0.916399 0.000000
usemtl (null)
s off
f 3//1 5//1 4//1
f 3//1 2//1 5//1
f 2//1 6//1 5//1
f 1//1 6//1 2//1
f 9//1 11//1 10//1
f 9//1 8//1 11//1
f 8//1 12//1 11//1
f 7//1 12//1 8//1
f 14//2 16//2 15//2 13//2
f 16//3 18//3 17//3 15//3
f 18//4 20//4 19//4 17//4
f 20//5 22//5 21//5 19//5
f 22//6 24//6 23//6 21//6
f 24//7 14//7 13//7 23//7
