# Blender3D v249 OBJ File: 
# www.blender3d.org
mtllib 25.mtl
v 0.168450 0.389887 0.050000
v 0.166847 0.382097 0.050000
v 0.164266 0.374703 0.050000
v 0.160778 0.367778 0.050000
v 0.156457 0.361394 0.050000
v 0.151375 0.355625 0.050000
v 0.145606 0.350543 0.050000
v 0.139222 0.346222 0.050000
v 0.132297 0.342734 0.050000
v 0.124903 0.340153 0.050000
v 0.117113 0.338550 0.050000
v 0.109000 0.338000 0.050000
v 0.100887 0.338550 0.050000
v 0.093097 0.340153 0.050000
v 0.085703 0.342734 0.050000
v 0.078778 0.346222 0.050000
v 0.072394 0.350543 0.050000
v 0.066625 0.355625 0.050000
v 0.061543 0.361394 0.050000
v 0.057222 0.367778 0.050000
v 0.053734 0.374703 0.050000
v 0.051153 0.382097 0.050000
v 0.049550 0.389887 0.050000
v 0.049000 0.398000 0.050000
v 0.049550 0.406113 0.050000
v 0.051153 0.413903 0.050000
v 0.053734 0.421297 0.050000
v 0.057222 0.428222 0.050000
v 0.061543 0.434606 0.050000
v 0.066625 0.440375 0.050000
v 0.072394 0.445457 0.050000
v 0.078778 0.449778 0.050000
v 0.085703 0.453266 0.050000
v 0.093097 0.455847 0.050000
v 0.100887 0.457450 0.050000
v 0.109000 0.458000 0.050000
v 0.117113 0.457450 0.050000
v 0.124903 0.455847 0.050000
v 0.132297 0.453266 0.050000
v 0.139222 0.449778 0.050000
v 0.145606 0.445457 0.050000
v 0.151375 0.440375 0.050000
v 0.156457 0.434606 0.050000
v 0.160778 0.428222 0.050000
v 0.164266 0.421297 0.050000
v 0.166847 0.413903 0.050000
v 0.168450 0.406113 0.050000
v 0.169000 0.398000 0.050000
v 0.168450 0.042887 0.050000
v 0.166847 0.035097 0.050000
v 0.164266 0.027703 0.050000
v 0.160778 0.020778 0.050000
v 0.156457 0.014394 0.050000
v 0.151375 0.008625 0.050000
v 0.145606 0.003543 0.050000
v 0.139222 -0.000778 0.050000
v 0.132297 -0.004266 0.050000
v 0.124903 -0.006847 0.050000
v 0.117113 -0.008450 0.050000
v 0.109000 -0.009000 0.050000
v 0.100887 -0.008450 0.050000
v 0.093097 -0.006847 0.050000
v 0.085703 -0.004266 0.050000
v 0.078778 -0.000778 0.050000
v 0.072394 0.003543 0.050000
v 0.066625 0.008625 0.050000
v 0.061543 0.014394 0.050000
v 0.057222 0.020778 0.050000
v 0.053734 0.027703 0.050000
v 0.051153 0.035097 0.050000
v 0.049550 0.042887 0.050000
v 0.049000 0.051000 0.050000
v 0.049550 0.059113 0.050000
v 0.051153 0.066903 0.050000
v 0.053734 0.074297 0.050000
v 0.057222 0.081222 0.050000
v 0.061543 0.087606 0.050000
v 0.066625 0.093375 0.050000
v 0.072394 0.098457 0.050000
v 0.078778 0.102778 0.050000
v 0.085703 0.106266 0.050000
v 0.093097 0.108847 0.050000
v 0.100887 0.110450 0.050000
v 0.109000 0.111000 0.050000
v 0.117113 0.110450 0.050000
v 0.124903 0.108847 0.050000
v 0.132297 0.106266 0.050000
v 0.139222 0.102778 0.050000
v 0.145606 0.098457 0.050000
v 0.151375 0.093375 0.050000
v 0.156457 0.087606 0.050000
v 0.160778 0.081222 0.050000
v 0.164266 0.074297 0.050000
v 0.166847 0.066903 0.050000
v 0.168450 0.059113 0.050000
v 0.169000 0.051000 0.050000
v 0.168450 0.389887 -0.050000
v 0.166847 0.382097 -0.050000
v 0.164266 0.374703 -0.050000
v 0.160778 0.367778 -0.050000
v 0.156457 0.361394 -0.050000
v 0.151375 0.355625 -0.050000
v 0.145606 0.350543 -0.050000
v 0.139222 0.346222 -0.050000
v 0.132297 0.342734 -0.050000
v 0.124903 0.340153 -0.050000
v 0.117113 0.338550 -0.050000
v 0.109000 0.338000 -0.050000
v 0.100887 0.338550 -0.050000
v 0.093097 0.340153 -0.050000
v 0.085703 0.342734 -0.050000
v 0.078778 0.346222 -0.050000
v 0.072394 0.350543 -0.050000
v 0.066625 0.355625 -0.050000
v 0.061543 0.361394 -0.050000
v 0.057222 0.367778 -0.050000
v 0.053734 0.374703 -0.050000
v 0.051153 0.382097 -0.050000
v 0.049550 0.389887 -0.050000
v 0.049000 0.398000 -0.050000
v 0.049550 0.406113 -0.050000
v 0.051153 0.413903 -0.050000
v 0.053734 0.421297 -0.050000
v 0.057222 0.428222 -0.050000
v 0.061543 0.434606 -0.050000
v 0.066625 0.440375 -0.050000
v 0.072394 0.445457 -0.050000
v 0.078778 0.449778 -0.050000
v 0.085703 0.453266 -0.050000
v 0.093097 0.455847 -0.050000
v 0.100887 0.457450 -0.050000
v 0.109000 0.458000 -0.050000
v 0.117113 0.457450 -0.050000
v 0.124903 0.455847 -0.050000
v 0.132297 0.453266 -0.050000
v 0.139222 0.449778 -0.050000
v 0.145606 0.445457 -0.050000
v 0.151375 0.440375 -0.050000
v 0.156457 0.434606 -0.050000
v 0.160778 0.428222 -0.050000
v 0.164266 0.421297 -0.050000
v 0.166847 0.413903 -0.050000
v 0.168450 0.406113 -0.050000
v 0.169000 0.398000 -0.050000
v 0.168450 0.042887 -0.050000
v 0.166847 0.035097 -0.050000
v 0.164266 0.027703 -0.050000
v 0.160778 0.020778 -0.050000
v 0.156457 0.014394 -0.050000
v 0.151375 0.008625 -0.050000
v 0.145606 0.003543 -0.050000
v 0.139222 -0.000778 -0.050000
v 0.132297 -0.004266 -0.050000
v 0.124903 -0.006847 -0.050000
v 0.117113 -0.008450 -0.050000
v 0.109000 -0.009000 -0.050000
v 0.100887 -0.008450 -0.050000
v 0.093097 -0.006847 -0.050000
v 0.085703 -0.004266 -0.050000
v 0.078778 -0.000778 -0.050000
v 0.072394 0.003543 -0.050000
v 0.066625 0.008625 -0.050000
v 0.061543 0.014394 -0.050000
v 0.057222 0.020778 -0.050000
v 0.053734 0.027703 -0.050000
v 0.051153 0.035097 -0.050000
v 0.049550 0.042887 -0.050000
v 0.049000 0.051000 -0.050000
v 0.049550 0.059113 -0.050000
v 0.051153 0.066903 -0.050000
v 0.053734 0.074297 -0.050000
v 0.057222 0.081222 -0.050000
v 0.061543 0.087606 -0.050000
v 0.066625 0.093375 -0.050000
v 0.072394 0.098457 -0.050000
v 0.078778 0.102778 -0.050000
v 0.085703 0.106266 -0.050000
v 0.093097 0.108847 -0.050000
v 0.100887 0.110450 -0.050000
v 0.109000 0.111000 -0.050000
v 0.117113 0.110450 -0.050000
v 0.124903 0.108847 -0.050000
v 0.132297 0.106266 -0.050000
v 0.139222 0.102778 -0.050000
v 0.145606 0.098457 -0.050000
v 0.151375 0.093375 -0.050000
v 0.156457 0.087606 -0.050000
v 0.160778 0.081222 -0.050000
v 0.164266 0.074297 -0.050000
v 0.166847 0.066903 -0.050000
v 0.168450 0.059113 -0.050000
v 0.169000 0.051000 -0.050000
v 0.168450 0.389887 -0.050000
v 0.168450 0.389887 0.050000
v 0.166847 0.382097 -0.050000
v 0.166847 0.382097 0.050000
v 0.164266 0.374703 -0.050000
v 0.164266 0.374703 0.050000
v 0.160778 0.367778 -0.050000
v 0.160778 0.367778 0.050000
v 0.156457 0.361394 -0.050000
v 0.156457 0.361394 0.050000
v 0.151375 0.355625 -0.050000
v 0.151375 0.355625 0.050000
v 0.145606 0.350543 -0.050000
v 0.145606 0.350543 0.050000
v 0.139222 0.346222 -0.050000
v 0.139222 0.346222 0.050000
v 0.132297 0.342734 -0.050000
v 0.132297 0.342734 0.050000
v 0.124903 0.340153 -0.050000
v 0.124903 0.340153 0.050000
v 0.117113 0.338550 -0.050000
v 0.117113 0.338550 0.050000
v 0.109000 0.338000 -0.050000
v 0.109000 0.338000 0.050000
v 0.100887 0.338550 -0.050000
v 0.100887 0.338550 0.050000
v 0.093097 0.340153 -0.050000
v 0.093097 0.340153 0.050000
v 0.085703 0.342734 -0.050000
v 0.085703 0.342734 0.050000
v 0.078778 0.346222 -0.050000
v 0.078778 0.346222 0.050000
v 0.072394 0.350543 -0.050000
v 0.072394 0.350543 0.050000
v 0.066625 0.355625 -0.050000
v 0.066625 0.355625 0.050000
v 0.061543 0.361394 -0.050000
v 0.061543 0.361394 0.050000
v 0.057222 0.367778 -0.050000
v 0.057222 0.367778 0.050000
v 0.053734 0.374703 -0.050000
v 0.053734 0.374703 0.050000
v 0.051153 0.382097 -0.050000
v 0.051153 0.382097 0.050000
v 0.049550 0.389887 -0.050000
v 0.049550 0.389887 0.050000
v 0.049000 0.398000 -0.050000
v 0.049000 0.398000 0.050000
v 0.049550 0.406113 -0.050000
v 0.049550 0.406113 0.050000
v 0.051153 0.413903 -0.050000
v 0.051153 0.413903 0.050000
v 0.053734 0.421297 -0.050000
v 0.053734 0.421297 0.050000
v 0.057222 0.428222 -0.050000
v 0.057222 0.428222 0.050000
v 0.061543 0.434606 -0.050000
v 0.061543 0.434606 0.050000
v 0.066625 0.440375 -0.050000
v 0.066625 0.440375 0.050000
v 0.072394 0.445457 -0.050000
v 0.072394 0.445457 0.050000
v 0.078778 0.449778 -0.050000
v 0.078778 0.449778 0.050000
v 0.085703 0.453266 -0.050000
v 0.085703 0.453266 0.050000
v 0.093097 0.455847 -0.050000
v 0.093097 0.455847 0.050000
v 0.100887 0.457450 -0.050000
v 0.100887 0.457450 0.050000
v 0.109000 0.458000 -0.050000
v 0.109000 0.458000 0.050000
v 0.117113 0.457450 -0.050000
v 0.117113 0.457450 0.050000
v 0.124903 0.455847 -0.050000
v 0.124903 0.455847 0.050000
v 0.132297 0.453266 -0.050000
v 0.132297 0.453266 0.050000
v 0.139222 0.449778 -0.050000
v 0.139222 0.449778 0.050000
v 0.145606 0.445457 -0.050000
v 0.145606 0.445457 0.050000
v 0.151375 0.440375 -0.050000
v 0.151375 0.440375 0.050000
v 0.156457 0.434606 -0.050000
v 0.156457 0.434606 0.050000
v 0.160778 0.428222 -0.050000
v 0.160778 0.428222 0.050000
v 0.164266 0.421297 -0.050000
v 0.164266 0.421297 0.050000
v 0.166847 0.413903 -0.050000
v 0.166847 0.413903 0.050000
v 0.168450 0.406113 -0.050000
v 0.168450 0.406113 0.050000
v 0.169000 0.398000 -0.050000
v 0.169000 0.398000 0.050000
v 0.168450 0.042887 -0.050000
v 0.168450 0.042887 0.050000
v 0.166847 0.035097 -0.050000
v 0.166847 0.035097 0.050000
v 0.164266 0.027703 -0.050000
v 0.164266 0.027703 0.050000
v 0.160778 0.020778 -0.050000
v 0.160778 0.020778 0.050000
v 0.156457 0.014394 -0.050000
v 0.156457 0.014394 0.050000
v 0.151375 0.008625 -0.050000
v 0.151375 0.008625 0.050000
v 0.145606 0.003543 -0.050000
v 0.145606 0.003543 0.050000
v 0.139222 -0.000778 -0.050000
v 0.139222 -0.000778 0.050000
v 0.132297 -0.004266 -0.050000
v 0.132297 -0.004266 0.050000
v 0.124903 -0.006847 -0.050000
v 0.124903 -0.006847 0.050000
v 0.117113 -0.008450 -0.050000
v 0.117113 -0.008450 0.050000
v 0.109000 -0.009000 -0.050000
v 0.109000 -0.009000 0.050000
v 0.100887 -0.008450 -0.050000
v 0.100887 -0.008450 0.050000
v 0.093097 -0.006847 -0.050000
v 0.093097 -0.006847 0.050000
v 0.085703 -0.004266 -0.050000
v 0.085703 -0.004266 0.050000
v 0.078778 -0.000778 -0.050000
v 0.078778 -0.000778 0.050000
v 0.072394 0.003543 -0.050000
v 0.072394 0.003543 0.050000
v 0.066625 0.008625 -0.050000
v 0.066625 0.008625 0.050000
v 0.061543 0.014394 -0.050000
v 0.061543 0.014394 0.050000
v 0.057222 0.020778 -0.050000
v 0.057222 0.020778 0.050000
v 0.053734 0.027703 -0.050000
v 0.053734 0.027703 0.050000
v 0.051153 0.035097 -0.050000
v 0.051153 0.035097 0.050000
v 0.049550 0.042887 -0.050000
v 0.049550 0.042887 0.050000
v 0.049000 0.051000 -0.050000
v 0.049000 0.051000 0.050000
v 0.049550 0.059113 -0.050000
v 0.049550 0.059113 0.050000
v 0.051153 0.066903 -0.050000
v 0.051153 0.066903 0.050000
v 0.053734 0.074297 -0.050000
v 0.053734 0.074297 0.050000
v 0.057222 0.081222 -0.050000
v 0.057222 0.081222 0.050000
v 0.061543 0.087606 -0.050000
v 0.061543 0.087606 0.050000
v 0.066625 0.093375 -0.050000
v 0.066625 0.093375 0.050000
v 0.072394 0.098457 -0.050000
v 0.072394 0.098457 0.050000
v 0.078778 0.102778 -0.050000
v 0.078778 0.102778 0.050000
v 0.085703 0.106266 -0.050000
v 0.085703 0.106266 0.050000
v 0.093097 0.108847 -0.050000
v 0.093097 0.108847 0.050000
v 0.100887 0.110450 -0.050000
v 0.100887 0.110450 0.050000
v 0.109000 0.111000 -0.050000
v 0.109000 0.111000 0.050000
v 0.117113 0.110450 -0.050000
v 0.117113 0.110450 0.050000
v 0.124903 0.108847 -0.050000
v 0.124903 0.108847 0.050000
v 0.132297 0.106266 -0.050000
v 0.132297 0.106266 0.050000
v 0.139222 0.102778 -0.050000
v 0.139222 0.102778 0.050000
v 0.145606 0.098457 -0.050000
v 0.145606 0.098457 0.050000
v 0.151375 0.093375 -0.050000
v 0.151375 0.093375 0.050000
v 0.156457 0.087606 -0.050000
v 0.156457 0.087606 0.050000
v 0.160778 0.081222 -0.050000
v 0.160778 0.081222 0.050000
v 0.164266 0.074297 -0.050000
v 0.164266 0.074297 0.050000
v 0.166847 0.066903 -0.050000
v 0.166847 0.066903 0.050000
v 0.168450 0.059113 -0.050000
v 0.168450 0.059113 0.050000
v 0.169000 0.051000 -0.050000
v 0.169000 0.051000 0.050000
vn 0.000000 0.000000 1.000000
vn 0.979491 -0.201488 0.000000
vn 0.944111 -0.329629 0.000000
vn 0.893125 -0.449808 0.000000
vn 0.828114 -0.560560 0.000000
vn 0.750403 -0.660980 0.000000
vn 0.660978 -0.750405 0.000000
vn 0.560560 -0.828114 0.000000
vn 0.449809 -0.893125 0.000000
vn 0.329630 -0.944110 0.000000
vn 0.201484 -0.979492 0.000000
vn 0.067682 -0.997707 0.000000
vn -0.067682 -0.997707 0.000000
vn -0.201484 -0.979492 0.000000
vn -0.329629 -0.944110 0.000000
vn -0.449810 -0.893124 0.000000
vn -0.560560 -0.828114 0.000000
vn -0.660979 -0.750404 0.000000
vn -0.750403 -0.660981 0.000000
vn -0.828115 -0.560559 0.000000
vn -0.893125 -0.449809 0.000000
vn -0.944111 -0.329629 0.000000
vn -0.979491 -0.201486 0.000000
vn -0.997707 -0.067681 0.000000
vn -0.997707 0.067681 0.000000
vn -0.979491 0.201486 0.000000
vn -0.944110 0.329630 0.000000
vn -0.893125 0.449809 0.000000
vn -0.828115 0.560559 0.000000
vn -0.750404 0.660979 0.000000
vn -0.660979 0.750404 0.000000
vn -0.560560 0.828114 0.000000
vn -0.449810 0.893124 0.000000
vn -0.329629 0.944110 0.000000
vn -0.201484 0.979492 0.000000
vn -0.067682 0.997707 0.000000
vn 0.067682 0.997707 0.000000
vn 0.201484 0.979492 0.000000
vn 0.329630 0.944110 0.000000
vn 0.449809 0.893125 0.000000
vn 0.560560 0.828114 0.000000
vn 0.660978 0.750405 0.000000
vn 0.750405 0.660978 0.000000
vn 0.828114 0.560560 0.000000
vn 0.893125 0.449808 0.000000
vn 0.944110 0.329630 0.000000
vn 0.979491 0.201488 0.000000
vn 0.997707 0.067681 0.000000
vn 0.997707 -0.067681 0.000000
vn 0.944110 -0.329629 0.000000
vn 0.750405 -0.660979 0.000000
vn 0.660979 -0.750405 0.000000
vn 0.449808 -0.893125 0.000000
vn 0.201487 -0.979491 0.000000
vn 0.067681 -0.997707 0.000000
vn -0.067681 -0.997707 0.000000
vn -0.201487 -0.979491 0.000000
vn -0.329630 -0.944110 0.000000
vn -0.449809 -0.893125 0.000000
vn -0.560559 -0.828114 0.000000
vn -0.750404 -0.660979 0.000000
vn -0.828114 -0.560559 0.000000
vn -0.944110 -0.329629 0.000000
vn -0.979491 0.201487 0.000000
vn -0.944110 0.329629 0.000000
vn -0.828114 0.560559 0.000000
vn -0.560559 0.828114 0.000000
vn -0.449809 0.893125 0.000000
vn -0.201487 0.979491 0.000000
vn -0.067681 0.997707 0.000000
vn 0.067681 0.997707 0.000000
vn 0.201487 0.979491 0.000000
vn 0.449808 0.893125 0.000000
vn 0.660979 0.750404 0.000000
vn 0.750404 0.660979 0.000000
vn 0.944110 0.329629 0.000000
usemtl (null)
s off
f 83//1 85//1 84//1
f 82//1 85//1 83//1
f 82//1 86//1 85//1
f 81//1 86//1 82//1
f 81//1 87//1 86//1
f 80//1 87//1 81//1
f 80//1 88//1 87//1
f 79//1 88//1 80//1
f 79//1 89//1 88//1
f 78//1 89//1 79//1
f 78//1 90//1 89//1
f 77//1 90//1 78//1
f 77//1 91//1 90//1
f 76//1 91//1 77//1
f 76//1 92//1 91//1
f 75//1 92//1 76//1
f 75//1 93//1 92//1
f 74//1 93//1 75//1
f 74//1 94//1 93//1
f 73//1 94//1 74//1
f 73//1 95//1 94//1
f 72//1 95//1 73//1
f 72//1 96//1 95//1
f 71//1 96//1 72//1
f 71//1 49//1 96//1
f 70//1 49//1 71//1
f 70//1 50//1 49//1
f 69//1 50//1 70//1
f 69//1 51//1 50//1
f 68//1 51//1 69//1
f 68//1 52//1 51//1
f 67//1 52//1 68//1
f 67//1 53//1 52//1
f 66//1 53//1 67//1
f 66//1 54//1 53//1
f 65//1 54//1 66//1
f 65//1 55//1 54//1
f 64//1 55//1 65//1
f 64//1 56//1 55//1
f 63//1 56//1 64//1
f 63//1 57//1 56//1
f 62//1 57//1 63//1
f 62//1 58//1 57//1
f 61//1 58//1 62//1
f 61//1 59//1 58//1
f 60//1 59//1 61//1
f 35//1 37//1 36//1
f 34//1 37//1 35//1
f 34//1 38//1 37//1
f 33//1 38//1 34//1
f 33//1 39//1 38//1
f 32//1 39//1 33//1
f 32//1 40//1 39//1
f 31//1 40//1 32//1
f 31//1 41//1 40//1
f 30//1 41//1 31//1
f 30//1 42//1 41//1
f 29//1 42//1 30//1
f 29//1 43//1 42//1
f 28//1 43//1 29//1
f 28//1 44//1 43//1
f 27//1 44//1 28//1
f 27//1 45//1 44//1
f 26//1 45//1 27//1
f 26//1 46//1 45//1
f 25//1 46//1 26//1
f 25//1 47//1 46//1
f 24//1 47//1 25//1
f 24//1 48//1 47//1
f 23//1 48//1 24//1
f 23//1 1//1 48//1
f 22//1 1//1 23//1
f 2//1 1//1 22//1
f 21//1 2//1 22//1
f 21//1 3//1 2//1
f 20//1 3//1 21//1
f 20//1 4//1 3//1
f 19//1 4//1 20//1
f 19//1 5//1 4//1
f 18//1 5//1 19//1
f 18//1 6//1 5//1
f 17//1 6//1 18//1
f 17//1 7//1 6//1
f 16//1 7//1 17//1
f 16//1 8//1 7//1
f 15//1 8//1 16//1
f 15//1 9//1 8//1
f 14//1 9//1 15//1
f 14//1 10//1 9//1
f 13//1 10//1 14//1
f 13//1 11//1 10//1
f 12//1 11//1 13//1
f 179//1 181//1 180//1
f 178//1 181//1 179//1
f 178//1 182//1 181//1
f 177//1 182//1 178//1
f 177//1 183//1 182//1
f 176//1 183//1 177//1
f 176//1 184//1 183//1
f 175//1 184//1 176//1
f 175//1 185//1 184//1
f 174//1 185//1 175//1
f 174//1 186//1 185//1
f 173//1 186//1 174//1
f 173//1 187//1 186//1
f 172//1 187//1 173//1
f 172//1 188//1 187//1
f 171//1 188//1 172//1
f 171//1 189//1 188//1
f 170//1 189//1 171//1
f 170//1 190//1 189//1
f 169//1 190//1 170//1
f 169//1 191//1 190//1
f 168//1 191//1 169//1
f 168//1 192//1 191//1
f 167//1 192//1 168//1
f 167//1 145//1 192//1
f 166//1 145//1 167//1
f 166//1 146//1 145//1
f 165//1 146//1 166//1
f 165//1 147//1 146//1
f 164//1 147//1 165//1
f 164//1 148//1 147//1
f 163//1 148//1 164//1
f 163//1 149//1 148//1
f 162//1 149//1 163//1
f 162//1 150//1 149//1
f 161//1 150//1 162//1
f 161//1 151//1 150//1
f 160//1 151//1 161//1
f 160//1 152//1 151//1
f 159//1 152//1 160//1
f 159//1 153//1 152//1
f 158//1 153//1 159//1
f 158//1 154//1 153//1
f 157//1 154//1 158//1
f 157//1 155//1 154//1
f 156//1 155//1 157//1
f 131//1 133//1 132//1
f 130//1 133//1 131//1
f 130//1 134//1 133//1
f 129//1 134//1 130//1
f 129//1 135//1 134//1
f 128//1 135//1 129//1
f 128//1 136//1 135//1
f 127//1 136//1 128//1
f 127//1 137//1 136//1
f 126//1 137//1 127//1
f 126//1 138//1 137//1
f 125//1 138//1 126//1
f 125//1 139//1 138//1
f 124//1 139//1 125//1
f 124//1 140//1 139//1
f 123//1 140//1 124//1
f 123//1 141//1 140//1
f 122//1 141//1 123//1
f 122//1 142//1 141//1
f 121//1 142//1 122//1
f 121//1 143//1 142//1
f 120//1 143//1 121//1
f 120//1 144//1 143//1
f 119//1 144//1 120//1
f 119//1 97//1 144//1
f 118//1 97//1 119//1
f 118//1 98//1 97//1
f 117//1 98//1 118//1
f 117//1 99//1 98//1
f 116//1 99//1 117//1
f 116//1 100//1 99//1
f 115//1 100//1 116//1
f 115//1 101//1 100//1
f 114//1 101//1 115//1
f 114//1 102//1 101//1
f 113//1 102//1 114//1
f 113//1 103//1 102//1
f 112//1 103//1 113//1
f 112//1 104//1 103//1
f 111//1 104//1 112//1
f 111//1 105//1 104//1
f 110//1 105//1 111//1
f 110//1 106//1 105//1
f 109//1 106//1 110//1
f 109//1 107//1 106//1
f 108//1 107//1 109//1
f 194//2 196//2 195//2 193//2
f 196//3 198//3 197//3 195//3
f 198//4 200//4 199//4 197//4
f 200//5 202//5 201//5 199//5
f 202//6 204//6 203//6 201//6
f 204//7 206//7 205//7 203//7
f 206//8 208//8 207//8 205//8
f 208//9 210//9 209//9 207//9
f 210//10 212//10 211//10 209//10
f 212//11 214//11 213//11 211//11
f 214//12 216//12 215//12 213//12
f 216//13 218//13 217//13 215//13
f 218//14 220//14 219//14 217//14
f 220//15 222//15 221//15 219//15
f 222//16 224//16 223//16 221//16
f 224//17 226//17 225//17 223//17
f 226//18 228//18 227//18 225//18
f 228//19 230//19 229//19 227//19
f 230//20 232//20 231//20 229//20
f 232//21 234//21 233//21 231//21
f 234//22 236//22 235//22 233//22
f 236//23 238//23 237//23 235//23
f 238//24 240//24 239//24 237//24
f 240//25 242//25 241//25 239//25
f 242//26 244//26 243//26 241//26
f 244//27 246//27 245//27 243//27
f 246//28 248//28 247//28 245//28
f 248//29 250//29 249//29 247//29
f 250//30 252//30 251//30 249//30
f 252//31 254//31 253//31 251//31
f 254//32 256//32 255//32 253//32
f 256//33 258//33 257//33 255//33
f 258//34 260//34 259//34 257//34
f 260//35 262//35 261//35 259//35
f 262//36 264//36 263//36 261//36
f 264//37 266//37 265//37 263//37
f 266//38 268//38 267//38 265//38
f 268//39 270//39 269//39 267//39
f 270//40 272//40 271//40 269//40
f 272//41 274//41 273//41 271//41
f 274//42 276//42 275//42 273//42
f 276//43 278//43 277//43 275//43
f 278//44 280//44 279//44 277//44
f 280//45 282//45 281//45 279//45
f 282//46 284//46 283//46 281//46
f 284//47 286//47 285//47 283//47
f 286//48 288//48 287//48 285//48
f 288//49 194//49 193//49 287//49
f 290//2 292//2 291//2 289//2
f 292//50 294//50 293//50 291//50
f 294//4 296//4 295//4 293//4
f 296//5 298//5 297//5 295//5
f 298//51 300//51 299//51 297//51
f 300//52 302//52 301//52 299//52
f 302//8 304//8 303//8 301//8
f 304//53 306//53 305//53 303//53
f 306//10 308//10 307//10 305//10
f 308//54 310//54 309//54 307//54
f 310//55 312//55 311//55 309//55
f 312//56 314//56 313//56 311//56
f 314//57 316//57 315//57 313//57
f 316//58 318//58 317//58 315//58
f 318//59 320//59 319//59 317//59
f 320//60 322//60 321//60 319//60
f 322//18 324//18 323//18 321//18
f 324//61 326//61 325//61 323//61
f 326//62 328//62 327//62 325//62
f 328//21 330//21 329//21 327//21
f 330//63 332//63 331//63 329//63
f 332//23 334//23 333//23 331//23
f 334//24 336//24 335//24 333//24
f 336//25 338//25 337//25 335//25
f 338//64 340//64 339//64 337//64
f 340//65 342//65 341//65 339//65
f 342//28 344//28 343//28 341//28
f 344//66 346//66 345//66 343//66
f 346//30 348//30 347//30 345//30
f 348//31 350//31 349//31 347//31
f 350//67 352//67 351//67 349//67
f 352//68 354//68 353//68 351//68
f 354//34 356//34 355//34 353//34
f 356//69 358//69 357//69 355//69
f 358//70 360//70 359//70 357//70
f 360//71 362//71 361//71 359//71
f 362//72 364//72 363//72 361//72
f 364//39 366//39 365//39 363//39
f 366//73 368//73 367//73 365//73
f 368//41 370//41 369//41 367//41
f 370//74 372//74 371//74 369//74
f 372//75 374//75 373//75 371//75
f 374//44 376//44 375//44 373//44
f 376//45 378//45 377//45 375//45
f 378//76 380//76 379//76 377//76
f 380//47 382//47 381//47 379//47
f 382//48 384//48 383//48 381//48
f 384//49 290//49 289//49 383//49
