# Blender3D v249 OBJ File: 
# www.blender3d.org
mtllib 26.mtl
v 0.100887 0.338550 0.050000
v 0.093097 0.340153 0.050000
v 0.085703 0.342734 0.050000
v 0.078778 0.346222 0.050000
v 0.072394 0.350543 0.050000
v 0.066625 0.355625 0.050000
v 0.061543 0.361394 0.050000
v 0.057222 0.367778 0.050000
v 0.053734 0.374703 0.050000
v 0.051153 0.382097 0.050000
v 0.049550 0.389887 0.050000
v 0.049000 0.398000 0.050000
v 0.049550 0.406113 0.050000
v 0.051153 0.413903 0.050000
v 0.053734 0.421297 0.050000
v 0.057222 0.428222 0.050000
v 0.061543 0.434606 0.050000
v 0.066625 0.440375 0.050000
v 0.072394 0.445457 0.050000
v 0.078778 0.449778 0.050000
v 0.085703 0.453266 0.050000
v 0.093097 0.455847 0.050000
v 0.100887 0.457450 0.050000
v 0.109000 0.458000 0.050000
v 0.117113 0.457450 0.050000
v 0.124903 0.455847 0.050000
v 0.132297 0.453266 0.050000
v 0.139222 0.449778 0.050000
v 0.145606 0.445457 0.050000
v 0.151375 0.440375 0.050000
v 0.156457 0.434606 0.050000
v 0.160778 0.428222 0.050000
v 0.164266 0.421297 0.050000
v 0.166847 0.413903 0.050000
v 0.168450 0.406113 0.050000
v 0.169000 0.398000 0.050000
v 0.168450 0.389887 0.050000
v 0.166847 0.382097 0.050000
v 0.164266 0.374703 0.050000
v 0.160778 0.367778 0.050000
v 0.156457 0.361394 0.050000
v 0.151375 0.355625 0.050000
v 0.145606 0.350543 0.050000
v 0.139222 0.346222 0.050000
v 0.132297 0.342734 0.050000
v 0.124903 0.340153 0.050000
v 0.117113 0.338550 0.050000
v 0.109000 0.338000 0.050000
v 0.070438 -0.087306 0.050000
v 0.078338 -0.078699 0.050000
v 0.084828 -0.070141 0.050000
v 0.090037 -0.061593 0.050000
v 0.094093 -0.053017 0.050000
v 0.097125 -0.044375 0.050000
v 0.099261 -0.035629 0.050000
v 0.100630 -0.026741 0.050000
v 0.101359 -0.017672 0.050000
v 0.101579 -0.008384 0.050000
v 0.101416 0.001160 0.050000
v 0.101000 0.011000 0.050000
v 0.093235 0.012390 0.050000
v 0.085963 0.014537 0.050000
v 0.079219 0.017406 0.050000
v 0.073037 0.020963 0.050000
v 0.067453 0.025172 0.050000
v 0.062500 0.030000 0.050000
v 0.058214 0.035411 0.050000
v 0.054630 0.041370 0.050000
v 0.051781 0.047844 0.050000
v 0.049704 0.054796 0.050000
v 0.048432 0.062193 0.050000
v 0.048000 0.070000 0.050000
v 0.048531 0.079603 0.050000
v 0.050083 0.088407 0.050000
v 0.052594 0.096406 0.050000
v 0.056000 0.103593 0.050000
v 0.060240 0.109959 0.050000
v 0.065250 0.115500 0.050000
v 0.070969 0.120207 0.050000
v 0.077333 0.124074 0.050000
v 0.084281 0.127094 0.050000
v 0.091750 0.129259 0.050000
v 0.099677 0.130564 0.050000
v 0.108000 0.131000 0.050000
v 0.117931 0.130144 0.050000
v 0.127199 0.127653 0.050000
v 0.135766 0.123641 0.050000
v 0.143593 0.118222 0.050000
v 0.150642 0.111512 0.050000
v 0.156875 0.103625 0.050000
v 0.162254 0.094675 0.050000
v 0.166741 0.084778 0.050000
v 0.170297 0.074047 0.050000
v 0.172884 0.062597 0.050000
v 0.174465 0.050543 0.050000
v 0.175000 0.038000 0.050000
v 0.174170 0.019865 0.050000
v 0.171694 0.002500 0.050000
v 0.167594 -0.014031 0.050000
v 0.161889 -0.029667 0.050000
v 0.154601 -0.044344 0.050000
v 0.145750 -0.058000 0.050000
v 0.135358 -0.070573 0.050000
v 0.123444 -0.082000 0.050000
v 0.110031 -0.092219 0.050000
v 0.095139 -0.101167 0.050000
v 0.078788 -0.108781 0.050000
v 0.061000 -0.115000 0.050000
v 0.061000 -0.096000 0.050000
v 0.100887 0.338550 -0.050000
v 0.093097 0.340153 -0.050000
v 0.085703 0.342734 -0.050000
v 0.078778 0.346222 -0.050000
v 0.072394 0.350543 -0.050000
v 0.066625 0.355625 -0.050000
v 0.061543 0.361394 -0.050000
v 0.057222 0.367778 -0.050000
v 0.053734 0.374703 -0.050000
v 0.051153 0.382097 -0.050000
v 0.049550 0.389887 -0.050000
v 0.049000 0.398000 -0.050000
v 0.049550 0.406113 -0.050000
v 0.051153 0.413903 -0.050000
v 0.053734 0.421297 -0.050000
v 0.057222 0.428222 -0.050000
v 0.061543 0.434606 -0.050000
v 0.066625 0.440375 -0.050000
v 0.072394 0.445457 -0.050000
v 0.078778 0.449778 -0.050000
v 0.085703 0.453266 -0.050000
v 0.093097 0.455847 -0.050000
v 0.100887 0.457450 -0.050000
v 0.109000 0.458000 -0.050000
v 0.117113 0.457450 -0.050000
v 0.124903 0.455847 -0.050000
v 0.132297 0.453266 -0.050000
v 0.139222 0.449778 -0.050000
v 0.145606 0.445457 -0.050000
v 0.151375 0.440375 -0.050000
v 0.156457 0.434606 -0.050000
v 0.160778 0.428222 -0.050000
v 0.164266 0.421297 -0.050000
v 0.166847 0.413903 -0.050000
v 0.168450 0.406113 -0.050000
v 0.169000 0.398000 -0.050000
v 0.168450 0.389887 -0.050000
v 0.166847 0.382097 -0.050000
v 0.164266 0.374703 -0.050000
v 0.160778 0.367778 -0.050000
v 0.156457 0.361394 -0.050000
v 0.151375 0.355625 -0.050000
v 0.145606 0.350543 -0.050000
v 0.139222 0.346222 -0.050000
v 0.132297 0.342734 -0.050000
v 0.124903 0.340153 -0.050000
v 0.117113 0.338550 -0.050000
v 0.109000 0.338000 -0.050000
v 0.070438 -0.087306 -0.050000
v 0.078338 -0.078699 -0.050000
v 0.084828 -0.070141 -0.050000
v 0.090037 -0.061593 -0.050000
v 0.094093 -0.053017 -0.050000
v 0.097125 -0.044375 -0.050000
v 0.099261 -0.035629 -0.050000
v 0.100630 -0.026741 -0.050000
v 0.101359 -0.017672 -0.050000
v 0.101579 -0.008384 -0.050000
v 0.101416 0.001160 -0.050000
v 0.101000 0.011000 -0.050000
v 0.093235 0.012390 -0.050000
v 0.085963 0.014537 -0.050000
v 0.079219 0.017406 -0.050000
v 0.073037 0.020963 -0.050000
v 0.067453 0.025172 -0.050000
v 0.062500 0.030000 -0.050000
v 0.058214 0.035411 -0.050000
v 0.054630 0.041370 -0.050000
v 0.051781 0.047844 -0.050000
v 0.049704 0.054796 -0.050000
v 0.048432 0.062193 -0.050000
v 0.048000 0.070000 -0.050000
v 0.048531 0.079603 -0.050000
v 0.050083 0.088407 -0.050000
v 0.052594 0.096406 -0.050000
v 0.056000 0.103593 -0.050000
v 0.060240 0.109959 -0.050000
v 0.065250 0.115500 -0.050000
v 0.070969 0.120207 -0.050000
v 0.077333 0.124074 -0.050000
v 0.084281 0.127094 -0.050000
v 0.091750 0.129259 -0.050000
v 0.099677 0.130564 -0.050000
v 0.108000 0.131000 -0.050000
v 0.117931 0.130144 -0.050000
v 0.127199 0.127653 -0.050000
v 0.135766 0.123641 -0.050000
v 0.143593 0.118222 -0.050000
v 0.150642 0.111512 -0.050000
v 0.156875 0.103625 -0.050000
v 0.162254 0.094675 -0.050000
v 0.166741 0.084778 -0.050000
v 0.170297 0.074047 -0.050000
v 0.172884 0.062597 -0.050000
v 0.174465 0.050543 -0.050000
v 0.175000 0.038000 -0.050000
v 0.174170 0.019865 -0.050000
v 0.171694 0.002500 -0.050000
v 0.167594 -0.014031 -0.050000
v 0.161889 -0.029667 -0.050000
v 0.154601 -0.044344 -0.050000
v 0.145750 -0.058000 -0.050000
v 0.135358 -0.070573 -0.050000
v 0.123444 -0.082000 -0.050000
v 0.110031 -0.092219 -0.050000
v 0.095139 -0.101167 -0.050000
v 0.078788 -0.108781 -0.050000
v 0.061000 -0.115000 -0.050000
v 0.061000 -0.096000 -0.050000
v 0.070438 -0.087306 -0.050000
v 0.070438 -0.087306 0.050000
v 0.078338 -0.078699 -0.050000
v 0.078338 -0.078699 0.050000
v 0.084828 -0.070141 -0.050000
v 0.084828 -0.070141 0.050000
v 0.090037 -0.061593 -0.050000
v 0.090037 -0.061593 0.050000
v 0.094093 -0.053017 -0.050000
v 0.094093 -0.053017 0.050000
v 0.097125 -0.044375 -0.050000
v 0.097125 -0.044375 0.050000
v 0.099261 -0.035629 -0.050000
v 0.099261 -0.035629 0.050000
v 0.100630 -0.026741 -0.050000
v 0.100630 -0.026741 0.050000
v 0.101359 -0.017672 -0.050000
v 0.101359 -0.017672 0.050000
v 0.101579 -0.008384 -0.050000
v 0.101579 -0.008384 0.050000
v 0.101416 0.001160 -0.050000
v 0.101416 0.001160 0.050000
v 0.101000 0.011000 -0.050000
v 0.101000 0.011000 0.050000
v 0.093235 0.012390 -0.050000
v 0.093235 0.012390 0.050000
v 0.085963 0.014537 -0.050000
v 0.085963 0.014537 0.050000
v 0.079219 0.017406 -0.050000
v 0.079219 0.017406 0.050000
v 0.073037 0.020963 -0.050000
v 0.073037 0.020963 0.050000
v 0.067453 0.025172 -0.050000
v 0.067453 0.025172 0.050000
v 0.062500 0.030000 -0.050000
v 0.062500 0.030000 0.050000
v 0.058214 0.035411 -0.050000
v 0.058214 0.035411 0.050000
v 0.054630 0.041370 -0.050000
v 0.054630 0.041370 0.050000
v 0.051781 0.047844 -0.050000
v 0.051781 0.047844 0.050000
v 0.049704 0.054796 -0.050000
v 0.049704 0.054796 0.050000
v 0.048432 0.062193 -0.050000
v 0.048432 0.062193 0.050000
v 0.048000 0.070000 -0.050000
v 0.048000 0.070000 0.050000
v 0.048531 0.079603 -0.050000
v 0.048531 0.079603 0.050000
v 0.050083 0.088407 -0.050000
v 0.050083 0.088407 0.050000
v 0.052594 0.096406 -0.050000
v 0.052594 0.096406 0.050000
v 0.056000 0.103593 -0.050000
v 0.056000 0.103593 0.050000
v 0.060240 0.109959 -0.050000
v 0.060240 0.109959 0.050000
v 0.065250 0.115500 -0.050000
v 0.065250 0.115500 0.050000
v 0.070969 0.120207 -0.050000
v 0.070969 0.120207 0.050000
v 0.077333 0.124074 -0.050000
v 0.077333 0.124074 0.050000
v 0.084281 0.127094 -0.050000
v 0.084281 0.127094 0.050000
v 0.091750 0.129259 -0.050000
v 0.091750 0.129259 0.050000
v 0.099677 0.130564 -0.050000
v 0.099677 0.130564 0.050000
v 0.108000 0.131000 -0.050000
v 0.108000 0.131000 0.050000
v 0.117931 0.130144 -0.050000
v 0.117931 0.130144 0.050000
v 0.127199 0.127653 -0.050000
v 0.127199 0.127653 0.050000
v 0.135766 0.123641 -0.050000
v 0.135766 0.123641 0.050000
v 0.143593 0.118222 -0.050000
v 0.143593 0.118222 0.050000
v 0.150642 0.111512 -0.050000
v 0.150642 0.111512 0.050000
v 0.156875 0.103625 -0.050000
v 0.156875 0.103625 0.050000
v 0.162254 0.094675 -0.050000
v 0.162254 0.094675 0.050000
v 0.166741 0.084778 -0.050000
v 0.166741 0.084778 0.050000
v 0.170297 0.074047 -0.050000
v 0.170297 0.074047 0.050000
v 0.172884 0.062597 -0.050000
v 0.172884 0.062597 0.050000
v 0.174465 0.050543 -0.050000
v 0.174465 0.050543 0.050000
v 0.175000 0.038000 -0.050000
v 0.175000 0.038000 0.050000
v 0.174170 0.019865 -0.050000
v 0.174170 0.019865 0.050000
v 0.171694 0.002500 -0.050000
v 0.171694 0.002500 0.050000
v 0.167594 -0.014031 -0.050000
v 0.167594 -0.014031 0.050000
v 0.161889 -0.029667 -0.050000
v 0.161889 -0.029667 0.050000
v 0.154601 -0.044344 -0.050000
v 0.154601 -0.044344 0.050000
v 0.145750 -0.058000 -0.050000
v 0.145750 -0.058000 0.050000
v 0.135358 -0.070573 -0.050000
v 0.135358 -0.070573 0.050000
v 0.123444 -0.082000 -0.050000
v 0.123444 -0.082000 0.050000
v 0.110031 -0.092219 -0.050000
v 0.110031 -0.092219 0.050000
v 0.095139 -0.101167 -0.050000
v 0.095139 -0.101167 0.050000
v 0.078788 -0.108781 -0.050000
v 0.078788 -0.108781 0.050000
v 0.061000 -0.115000 -0.050000
v 0.061000 -0.115000 0.050000
v 0.061000 -0.096000 -0.050000
v 0.061000 -0.096000 0.050000
v 0.100887 0.338550 -0.050000
v 0.100887 0.338550 0.050000
v 0.093097 0.340153 -0.050000
v 0.093097 0.340153 0.050000
v 0.085703 0.342734 -0.050000
v 0.085703 0.342734 0.050000
v 0.078778 0.346222 -0.050000
v 0.078778 0.346222 0.050000
v 0.072394 0.350543 -0.050000
v 0.072394 0.350543 0.050000
v 0.066625 0.355625 -0.050000
v 0.066625 0.355625 0.050000
v 0.061543 0.361394 -0.050000
v 0.061543 0.361394 0.050000
v 0.057222 0.367778 -0.050000
v 0.057222 0.367778 0.050000
v 0.053734 0.374703 -0.050000
v 0.053734 0.374703 0.050000
v 0.051153 0.382097 -0.050000
v 0.051153 0.382097 0.050000
v 0.049550 0.389887 -0.050000
v 0.049550 0.389887 0.050000
v 0.049000 0.398000 -0.050000
v 0.049000 0.398000 0.050000
v 0.049550 0.406113 -0.050000
v 0.049550 0.406113 0.050000
v 0.051153 0.413903 -0.050000
v 0.051153 0.413903 0.050000
v 0.053734 0.421297 -0.050000
v 0.053734 0.421297 0.050000
v 0.057222 0.428222 -0.050000
v 0.057222 0.428222 0.050000
v 0.061543 0.434606 -0.050000
v 0.061543 0.434606 0.050000
v 0.066625 0.440375 -0.050000
v 0.066625 0.440375 0.050000
v 0.072394 0.445457 -0.050000
v 0.072394 0.445457 0.050000
v 0.078778 0.449778 -0.050000
v 0.078778 0.449778 0.050000
v 0.085703 0.453266 -0.050000
v 0.085703 0.453266 0.050000
v 0.093097 0.455847 -0.050000
v 0.093097 0.455847 0.050000
v 0.100887 0.457450 -0.050000
v 0.100887 0.457450 0.050000
v 0.109000 0.458000 -0.050000
v 0.109000 0.458000 0.050000
v 0.117113 0.457450 -0.050000
v 0.117113 0.457450 0.050000
v 0.124903 0.455847 -0.050000
v 0.124903 0.455847 0.050000
v 0.132297 0.453266 -0.050000
v 0.132297 0.453266 0.050000
v 0.139222 0.449778 -0.050000
v 0.139222 0.449778 0.050000
v 0.145606 0.445457 -0.050000
v 0.145606 0.445457 0.050000
v 0.151375 0.440375 -0.050000
v 0.151375 0.440375 0.050000
v 0.156457 0.434606 -0.050000
v 0.156457 0.434606 0.050000
v 0.160778 0.428222 -0.050000
v 0.160778 0.428222 0.050000
v 0.164266 0.421297 -0.050000
v 0.164266 0.421297 0.050000
v 0.166847 0.413903 -0.050000
v 0.166847 0.413903 0.050000
v 0.168450 0.406113 -0.050000
v 0.168450 0.406113 0.050000
v 0.169000 0.398000 -0.050000
v 0.169000 0.398000 0.050000
v 0.168450 0.389887 -0.050000
v 0.168450 0.389887 0.050000
v 0.166847 0.382097 -0.050000
v 0.166847 0.382097 0.050000
v 0.164266 0.374703 -0.050000
v 0.164266 0.374703 0.050000
v 0.160778 0.367778 -0.050000
v 0.160778 0.367778 0.050000
v 0.156457 0.361394 -0.050000
v 0.156457 0.361394 0.050000
v 0.151375 0.355625 -0.050000
v 0.151375 0.355625 0.050000
v 0.145606 0.350543 -0.050000
v 0.145606 0.350543 0.050000
v 0.139222 0.346222 -0.050000
v 0.139222 0.346222 0.050000
v 0.132297 0.342734 -0.050000
v 0.132297 0.342734 0.050000
v 0.124903 0.340153 -0.050000
v 0.124903 0.340153 0.050000
v 0.117113 0.338550 -0.050000
v 0.117113 0.338550 0.050000
v 0.109000 0.338000 -0.050000
v 0.109000 0.338000 0.050000
vn 0.000000 0.000000 1.000000
vn -0.736724 0.676193 0.000000
vn -0.796801 0.604242 0.000000
vn -0.853943 0.520367 0.000000
vn -0.903986 0.427562 0.000000
vn -0.943613 0.331052 0.000000
vn -0.971448 0.237253 0.000000
vn -0.988352 0.152188 0.000000
vn -0.996778 0.080208 0.000000
vn -0.999721 0.023609 0.000000
vn -0.999855 -0.017035 0.000000
vn -0.999107 -0.042249 0.000000
vn -0.176212 -0.984352 0.000000
vn -0.283158 -0.959073 0.000000
vn -0.391478 -0.920187 0.000000
vn -0.498706 -0.866771 0.000000
vn -0.601931 -0.798548 0.000000
vn -0.698012 -0.716086 0.000000
vn -0.783886 -0.620904 0.000000
vn -0.856934 -0.515426 0.000000
vn -0.915310 -0.402750 0.000000
vn -0.958137 -0.286309 0.000000
vn -0.985535 -0.169473 0.000000
vn -0.998474 -0.055216 0.000000
vn -0.998473 0.055237 0.000000
vn -0.984815 0.173608 0.000000
vn -0.954113 0.299446 0.000000
vn -0.903631 0.428312 0.000000
vn -0.832353 0.554246 0.000000
vn -0.741697 0.670735 0.000000
vn -0.635515 0.772088 0.000000
vn -0.519243 0.854627 0.000000
vn -0.398597 0.917126 0.000000
vn -0.278474 0.960444 0.000000
vn -0.162367 0.986731 0.000000
vn -0.052354 0.998629 0.000000
vn 0.085866 0.996307 0.000000
vn 0.259594 0.965718 0.000000
vn 0.424139 0.905597 0.000000
vn 0.569191 0.822205 0.000000
vn 0.689470 0.724315 0.000000
vn 0.784567 0.620044 0.000000
vn 0.857101 0.515148 0.000000
vn 0.910790 0.412871 0.000000
vn 0.949234 0.314570 0.000000
vn 0.975405 0.220421 0.000000
vn 0.991514 0.130003 0.000000
vn 0.999091 0.042637 0.000000
vn 0.998955 -0.045711 0.000000
vn 0.989989 -0.141144 0.000000
vn 0.970585 -0.240760 0.000000
vn 0.939421 -0.342765 0.000000
vn 0.895653 -0.444754 0.000000
vn 0.839169 -0.543870 0.000000
vn 0.770780 -0.637102 0.000000
vn 0.692230 -0.721677 0.000000
vn 0.606012 -0.795456 0.000000
vn 0.515025 -0.857175 0.000000
vn 0.422169 -0.906517 0.000000
vn 0.330014 -0.943976 0.000000
vn -1.000000 0.000000 0.000000
vn -0.677513 0.735510 0.000000
vn -0.201484 -0.979492 0.000000
vn -0.329629 -0.944110 0.000000
vn -0.449810 -0.893124 0.000000
vn -0.560560 -0.828114 0.000000
vn -0.660979 -0.750404 0.000000
vn -0.750403 -0.660981 0.000000
vn -0.828115 -0.560559 0.000000
vn -0.893125 -0.449809 0.000000
vn -0.944111 -0.329629 0.000000
vn -0.979491 -0.201486 0.000000
vn -0.997707 -0.067681 0.000000
vn -0.997707 0.067681 0.000000
vn -0.979491 0.201486 0.000000
vn -0.944110 0.329630 0.000000
vn -0.893125 0.449809 0.000000
vn -0.828115 0.560559 0.000000
vn -0.750404 0.660979 0.000000
vn -0.660979 0.750404 0.000000
vn -0.560560 0.828114 0.000000
vn -0.449810 0.893124 0.000000
vn -0.329629 0.944110 0.000000
vn -0.201484 0.979492 0.000000
vn -0.067682 0.997707 0.000000
vn 0.067682 0.997707 0.000000
vn 0.201484 0.979492 0.000000
vn 0.329630 0.944110 0.000000
vn 0.449809 0.893125 0.000000
vn 0.560560 0.828114 0.000000
vn 0.660978 0.750405 0.000000
vn 0.750405 0.660978 0.000000
vn 0.828114 0.560560 0.000000
vn 0.893125 0.449808 0.000000
vn 0.944110 0.329630 0.000000
vn 0.979491 0.201488 0.000000
vn 0.997707 0.067681 0.000000
vn 0.997707 -0.067681 0.000000
vn 0.979491 -0.201488 0.000000
vn 0.944111 -0.329629 0.000000
vn 0.893125 -0.449808 0.000000
vn 0.828114 -0.560560 0.000000
vn 0.750403 -0.660980 0.000000
vn 0.660978 -0.750405 0.000000
vn 0.560560 -0.828114 0.000000
vn 0.449809 -0.893125 0.000000
vn 0.329630 -0.944110 0.000000
vn 0.201484 -0.979492 0.000000
vn 0.067682 -0.997707 0.000000
vn -0.067682 -0.997707 0.000000
usemtl (null)
s off
f 83//1 85//1 84//1
f 82//1 85//1 83//1
f 82//1 86//1 85//1
f 81//1 86//1 82//1
f 81//1 87//1 86//1
f 80//1 87//1 81//1
f 79//1 87//1 80//1
f 79//1 88//1 87//1
f 78//1 88//1 79//1
f 78//1 89//1 88//1
f 77//1 89//1 78//1
f 77//1 90//1 89//1
f 76//1 90//1 77//1
f 76//1 91//1 90//1
f 75//1 91//1 76//1
f 74//1 91//1 75//1
f 74//1 92//1 91//1
f 73//1 92//1 74//1
f 73//1 93//1 92//1
f 72//1 93//1 73//1
f 72//1 94//1 93//1
f 71//1 94//1 72//1
f 71//1 95//1 94//1
f 70//1 95//1 71//1
f 69//1 95//1 70//1
f 69//1 96//1 95//1
f 68//1 96//1 69//1
f 67//1 96//1 68//1
f 67//1 97//1 96//1
f 66//1 97//1 67//1
f 65//1 97//1 66//1
f 64//1 97//1 65//1
f 63//1 97//1 64//1
f 63//1 98//1 97//1
f 62//1 98//1 63//1
f 61//1 98//1 62//1
f 60//1 98//1 61//1
f 59//1 98//1 60//1
f 59//1 99//1 98//1
f 58//1 99//1 59//1
f 57//1 99//1 58//1
f 57//1 100//1 99//1
f 56//1 100//1 57//1
f 55//1 100//1 56//1
f 55//1 101//1 100//1
f 54//1 101//1 55//1
f 54//1 102//1 101//1
f 53//1 102//1 54//1
f 52//1 102//1 53//1
f 52//1 103//1 102//1
f 51//1 103//1 52//1
f 50//1 103//1 51//1
f 50//1 104//1 103//1
f 49//1 104//1 50//1
f 49//1 105//1 104//1
f 109//1 105//1 49//1
f 109//1 106//1 105//1
f 108//1 106//1 109//1
f 108//1 107//1 106//1
f 23//1 25//1 24//1
f 22//1 25//1 23//1
f 22//1 26//1 25//1
f 21//1 26//1 22//1
f 21//1 27//1 26//1
f 20//1 27//1 21//1
f 20//1 28//1 27//1
f 19//1 28//1 20//1
f 19//1 29//1 28//1
f 18//1 29//1 19//1
f 18//1 30//1 29//1
f 17//1 30//1 18//1
f 17//1 31//1 30//1
f 16//1 31//1 17//1
f 16//1 32//1 31//1
f 15//1 32//1 16//1
f 15//1 33//1 32//1
f 14//1 33//1 15//1
f 14//1 34//1 33//1
f 13//1 34//1 14//1
f 13//1 35//1 34//1
f 12//1 35//1 13//1
f 12//1 36//1 35//1
f 11//1 36//1 12//1
f 11//1 37//1 36//1
f 10//1 37//1 11//1
f 10//1 38//1 37//1
f 9//1 38//1 10//1
f 9//1 39//1 38//1
f 8//1 39//1 9//1
f 8//1 40//1 39//1
f 7//1 40//1 8//1
f 7//1 41//1 40//1
f 6//1 41//1 7//1
f 6//1 42//1 41//1
f 5//1 42//1 6//1
f 5//1 43//1 42//1
f 4//1 43//1 5//1
f 4//1 44//1 43//1
f 3//1 44//1 4//1
f 3//1 45//1 44//1
f 2//1 45//1 3//1
f 2//1 46//1 45//1
f 1//1 46//1 2//1
f 1//1 47//1 46//1
f 47//1 1//1 48//1
f 192//1 194//1 193//1
f 191//1 194//1 192//1
f 191//1 195//1 194//1
f 190//1 195//1 191//1
f 190//1 196//1 195//1
f 189//1 196//1 190//1
f 188//1 196//1 189//1
f 188//1 197//1 196//1
f 187//1 197//1 188//1
f 187//1 198//1 197//1
f 186//1 198//1 187//1
f 186//1 199//1 198//1
f 185//1 199//1 186//1
f 185//1 200//1 199//1
f 184//1 200//1 185//1
f 183//1 200//1 184//1
f 183//1 201//1 200//1
f 182//1 201//1 183//1
f 182//1 202//1 201//1
f 181//1 202//1 182//1
f 181//1 203//1 202//1
f 180//1 203//1 181//1
f 180//1 204//1 203//1
f 179//1 204//1 180//1
f 178//1 204//1 179//1
f 178//1 205//1 204//1
f 177//1 205//1 178//1
f 176//1 205//1 177//1
f 176//1 206//1 205//1
f 175//1 206//1 176//1
f 174//1 206//1 175//1
f 173//1 206//1 174//1
f 172//1 206//1 173//1
f 172//1 207//1 206//1
f 171//1 207//1 172//1
f 170//1 207//1 171//1
f 169//1 207//1 170//1
f 168//1 207//1 169//1
f 168//1 208//1 207//1
f 167//1 208//1 168//1
f 166//1 208//1 167//1
f 166//1 209//1 208//1
f 165//1 209//1 166//1
f 164//1 209//1 165//1
f 164//1 210//1 209//1
f 163//1 210//1 164//1
f 163//1 211//1 210//1
f 162//1 211//1 163//1
f 161//1 211//1 162//1
f 161//1 212//1 211//1
f 160//1 212//1 161//1
f 159//1 212//1 160//1
f 159//1 213//1 212//1
f 158//1 213//1 159//1
f 158//1 214//1 213//1
f 218//1 214//1 158//1
f 218//1 215//1 214//1
f 217//1 215//1 218//1
f 217//1 216//1 215//1
f 132//1 134//1 133//1
f 131//1 134//1 132//1
f 131//1 135//1 134//1
f 130//1 135//1 131//1
f 130//1 136//1 135//1
f 129//1 136//1 130//1
f 129//1 137//1 136//1
f 128//1 137//1 129//1
f 128//1 138//1 137//1
f 127//1 138//1 128//1
f 127//1 139//1 138//1
f 126//1 139//1 127//1
f 126//1 140//1 139//1
f 125//1 140//1 126//1
f 125//1 141//1 140//1
f 124//1 141//1 125//1
f 124//1 142//1 141//1
f 123//1 142//1 124//1
f 123//1 143//1 142//1
f 122//1 143//1 123//1
f 122//1 144//1 143//1
f 121//1 144//1 122//1
f 121//1 145//1 144//1
f 120//1 145//1 121//1
f 120//1 146//1 145//1
f 119//1 146//1 120//1
f 119//1 147//1 146//1
f 118//1 147//1 119//1
f 118//1 148//1 147//1
f 117//1 148//1 118//1
f 117//1 149//1 148//1
f 116//1 149//1 117//1
f 116//1 150//1 149//1
f 115//1 150//1 116//1
f 115//1 151//1 150//1
f 114//1 151//1 115//1
f 114//1 152//1 151//1
f 113//1 152//1 114//1
f 113//1 153//1 152//1
f 112//1 153//1 113//1
f 112//1 154//1 153//1
f 111//1 154//1 112//1
f 111//1 155//1 154//1
f 110//1 155//1 111//1
f 110//1 156//1 155//1
f 157//1 156//1 110//1
f 220//2 222//2 221//2 219//2
f 222//3 224//3 223//3 221//3
f 224//4 226//4 225//4 223//4
f 226//5 228//5 227//5 225//5
f 228//6 230//6 229//6 227//6
f 230//7 232//7 231//7 229//7
f 232//8 234//8 233//8 231//8
f 234//9 236//9 235//9 233//9
f 236//10 238//10 237//10 235//10
f 238//11 240//11 239//11 237//11
f 240//12 242//12 241//12 239//12
f 242//13 244//13 243//13 241//13
f 244//14 246//14 245//14 243//14
f 246//15 248//15 247//15 245//15
f 248//16 250//16 249//16 247//16
f 250//17 252//17 251//17 249//17
f 252//18 254//18 253//18 251//18
f 254//19 256//19 255//19 253//19
f 256//20 258//20 257//20 255//20
f 258//21 260//21 259//21 257//21
f 260//22 262//22 261//22 259//22
f 262//23 264//23 263//23 261//23
f 264//24 266//24 265//24 263//24
f 266//25 268//25 267//25 265//25
f 268//26 270//26 269//26 267//26
f 270//27 272//27 271//27 269//27
f 272//28 274//28 273//28 271//28
f 274//29 276//29 275//29 273//29
f 276//30 278//30 277//30 275//30
f 278//31 280//31 279//31 277//31
f 280//32 282//32 281//32 279//32
f 282//33 284//33 283//33 281//33
f 284//34 286//34 285//34 283//34
f 286//35 288//35 287//35 285//35
f 288//36 290//36 289//36 287//36
f 290//37 292//37 291//37 289//37
f 292//38 294//38 293//38 291//38
f 294//39 296//39 295//39 293//39
f 296//40 298//40 297//40 295//40
f 298//41 300//41 299//41 297//41
f 300//42 302//42 301//42 299//42
f 302//43 304//43 303//43 301//43
f 304//44 306//44 305//44 303//44
f 306//45 308//45 307//45 305//45
f 308//46 310//46 309//46 307//46
f 310//47 312//47 311//47 309//47
f 312//48 314//48 313//48 311//48
f 314//49 316//49 315//49 313//49
f 316//50 318//50 317//50 315//50
f 318//51 320//51 319//51 317//51
f 320//52 322//52 321//52 319//52
f 322//53 324//53 323//53 321//53
f 324//54 326//54 325//54 323//54
f 326//55 328//55 327//55 325//55
f 328//56 330//56 329//56 327//56
f 330//57 332//57 331//57 329//57
f 332//58 334//58 333//58 331//58
f 334//59 336//59 335//59 333//59
f 336//60 338//60 337//60 335//60
f 338//61 340//61 339//61 337//61
f 340//62 220//62 219//62 339//62
f 342//63 344//63 343//63 341//63
f 344//64 346//64 345//64 343//64
f 346//65 348//65 347//65 345//65
f 348//66 350//66 349//66 347//66
f 350//67 352//67 351//67 349//67
f 352//68 354//68 353//68 351//68
f 354//69 356//69 355//69 353//69
f 356//70 358//70 357//70 355//70
f 358//71 360//71 359//71 357//71
f 360//72 362//72 361//72 359//72
f 362//73 364//73 363//73 361//73
f 364//74 366//74 365//74 363//74
f 366//75 368//75 367//75 365//75
f 368//76 370//76 369//76 367//76
f 370//77 372//77 371//77 369//77
f 372//78 374//78 373//78 371//78
f 374//79 376//79 375//79 373//79
f 376//80 378//80 377//80 375//80
f 378//81 380//81 379//81 377//81
f 380//82 382//82 381//82 379//82
f 382//83 384//83 383//83 381//83
f 384//84 386//84 385//84 383//84
f 386//85 388//85 387//85 385//85
f 388//86 390//86 389//86 387//86
f 390//87 392//87 391//87 389//87
f 392//88 394//88 393//88 391//88
f 394//89 396//89 395//89 393//89
f 396//90 398//90 397//90 395//90
f 398//91 400//91 399//91 397//91
f 400//92 402//92 401//92 399//92
f 402//93 404//93 403//93 401//93
f 404//94 406//94 405//94 403//94
f 406//95 408//95 407//95 405//95
f 408//96 410//96 409//96 407//96
f 410//97 412//97 411//97 409//97
f 412//98 414//98 413//98 411//98
f 414//99 416//99 415//99 413//99
f 416//100 418//100 417//100 415//100
f 418//101 420//101 419//101 417//101
f 420//102 422//102 421//102 419//102
f 422//103 424//103 423//103 421//103
f 424//104 426//104 425//104 423//104
f 426//105 428//105 427//105 425//105
f 428//106 430//106 429//106 427//106
f 430//107 432//107 431//107 429//107
f 432//108 434//108 433//108 431//108
f 434//109 436//109 435//109 433//109
f 436//110 342//110 341//110 435//110
