# Blender3D v249 OBJ File: 
# www.blender3d.org
mtllib 27.mtl
v 0.529000 0.597000 0.050000
v 0.529000 0.510000 0.050000
v 0.153000 0.354000 0.050000
v 0.529000 0.198000 0.050000
v 0.529000 0.111000 0.050000
v 0.055000 0.313000 0.050000
v 0.055000 0.395000 0.050000
v 0.529000 0.597000 -0.050000
v 0.529000 0.510000 -0.050000
v 0.153000 0.354000 -0.050000
v 0.529000 0.198000 -0.050000
v 0.529000 0.111000 -0.050000
v 0.055000 0.313000 -0.050000
v 0.055000 0.395000 -0.050000
v 0.529000 0.597000 -0.050000
v 0.529000 0.597000 0.050000
v 0.529000 0.510000 -0.050000
v 0.529000 0.510000 0.050000
v 0.153000 0.354000 -0.050000
v 0.153000 0.354000 0.050000
v 0.529000 0.198000 -0.050000
v 0.529000 0.198000 0.050000
v 0.529000 0.111000 -0.050000
v 0.529000 0.111000 0.050000
v 0.055000 0.313000 -0.050000
v 0.055000 0.313000 0.050000
v 0.055000 0.395000 -0.050000
v 0.055000 0.395000 0.050000
vn 0.000000 0.000000 1.000000
vn 1.000000 0.000000 0.000000
vn 0.383220 -0.923657 0.000000
vn 0.383219 0.923657 0.000000
vn -0.392045 -0.919946 0.000000
vn -1.000000 0.000000 0.000000
vn -0.392045 0.919946 0.000000
usemtl (null)
s off
f 2//1 1//1 7//1
f 7//1 3//1 2//1
f 6//1 3//1 7//1
f 6//1 4//1 3//1
f 5//1 4//1 6//1
f 14//1 9//1 8//1
f 14//1 10//1 9//1
f 13//1 10//1 14//1
f 13//1 11//1 10//1
f 12//1 11//1 13//1
f 16//2 18//2 17//2 15//2
f 18//3 20//3 19//3 17//3
f 20//4 22//4 21//4 19//4
f 22//2 24//2 23//2 21//2
f 24//5 26//5 25//5 23//5
f 26//6 28//6 27//6 25//6
f 28//7 16//7 15//7 27//7
