# Blender3D v249 OBJ File: 
# www.blender3d.org
mtllib 1.mtl
v 0.273000 0.682000 0.100000
v 0.308012 0.680219 0.100000
v 0.339597 0.675083 0.100000
v 0.367828 0.666906 0.100000
v 0.392778 0.656000 0.100000
v 0.414519 0.642677 0.100000
v 0.433125 0.627250 0.100000
v 0.448668 0.610031 0.100000
v 0.461222 0.591333 0.100000
v 0.470859 0.571469 0.100000
v 0.477653 0.550750 0.100000
v 0.481675 0.529490 0.100000
v 0.483000 0.508000 0.100000
v 0.482310 0.490766 0.100000
v 0.480227 0.474546 0.100000
v 0.476734 0.459313 0.100000
v 0.471815 0.445037 0.100000
v 0.465451 0.431692 0.100000
v 0.457625 0.419250 0.100000
v 0.448320 0.407683 0.100000
v 0.437519 0.396963 0.100000
v 0.425203 0.387063 0.100000
v 0.411356 0.377954 0.100000
v 0.395961 0.369609 0.100000
v 0.379000 0.362000 0.100000
v 0.379000 0.360000 0.100000
v 0.403654 0.354263 0.100000
v 0.426565 0.346606 0.100000
v 0.447656 0.337109 0.100000
v 0.466852 0.325852 0.100000
v 0.484075 0.312914 0.100000
v 0.499250 0.298375 0.100000
v 0.512300 0.282315 0.100000
v 0.523148 0.264815 0.100000
v 0.531719 0.245953 0.100000
v 0.537935 0.225810 0.100000
v 0.541721 0.204466 0.100000
v 0.543000 0.182000 0.100000
v 0.541662 0.160773 0.100000
v 0.537542 0.139352 0.100000
v 0.530484 0.118125 0.100000
v 0.520333 0.097481 0.100000
v 0.506932 0.077810 0.100000
v 0.490125 0.059500 0.100000
v 0.469755 0.042940 0.100000
v 0.445667 0.028519 0.100000
v 0.417703 0.016625 0.100000
v 0.385708 0.007648 0.100000
v 0.349526 0.001977 0.100000
v 0.309000 0.000000 0.100000
v 0.075000 0.000000 0.100000
v 0.075000 0.682000 0.100000
v 0.238000 0.390000 0.100000
v 0.261210 0.390751 0.100000
v 0.282347 0.393005 0.100000
v 0.301422 0.396766 0.100000
v 0.318444 0.402037 0.100000
v 0.333425 0.408822 0.100000
v 0.346375 0.417125 0.100000
v 0.357304 0.426949 0.100000
v 0.366222 0.438296 0.100000
v 0.373141 0.451172 0.100000
v 0.378069 0.465579 0.100000
v 0.381019 0.481520 0.100000
v 0.382000 0.499000 0.100000
v 0.381377 0.511583 0.100000
v 0.379435 0.523745 0.100000
v 0.376063 0.535359 0.100000
v 0.371148 0.546296 0.100000
v 0.364581 0.556428 0.100000
v 0.356250 0.565625 0.100000
v 0.346044 0.573760 0.100000
v 0.333852 0.580704 0.100000
v 0.319563 0.586328 0.100000
v 0.303065 0.590505 0.100000
v 0.284248 0.593105 0.100000
v 0.263000 0.594000 0.100000
v 0.173000 0.594000 0.100000
v 0.173000 0.390000 0.100000
v 0.296000 0.088000 0.100000
v 0.323031 0.089151 0.100000
v 0.346745 0.092458 0.100000
v 0.367328 0.097703 0.100000
v 0.384963 0.104667 0.100000
v 0.399834 0.113130 0.100000
v 0.412125 0.122875 0.100000
v 0.422020 0.133682 0.100000
v 0.429704 0.145333 0.100000
v 0.435359 0.157609 0.100000
v 0.439171 0.170292 0.100000
v 0.441324 0.183161 0.100000
v 0.442000 0.196000 0.100000
v 0.440996 0.211110 0.100000
v 0.437968 0.225380 0.100000
v 0.432891 0.238719 0.100000
v 0.425741 0.251037 0.100000
v 0.416494 0.262244 0.100000
v 0.405125 0.272250 0.100000
v 0.391611 0.280964 0.100000
v 0.375926 0.288296 0.100000
v 0.358047 0.294156 0.100000
v 0.337949 0.298454 0.100000
v 0.315608 0.301098 0.100000
v 0.291000 0.302000 0.100000
v 0.173000 0.302000 0.100000
v 0.173000 0.088000 0.100000
v 0.273000 0.682000 -0.100000
v 0.308012 0.680219 -0.100000
v 0.339597 0.675083 -0.100000
v 0.367828 0.666906 -0.100000
v 0.392778 0.656000 -0.100000
v 0.414519 0.642677 -0.100000
v 0.433125 0.627250 -0.100000
v 0.448668 0.610031 -0.100000
v 0.461222 0.591333 -0.100000
v 0.470859 0.571469 -0.100000
v 0.477653 0.550750 -0.100000
v 0.481675 0.529490 -0.100000
v 0.483000 0.508000 -0.100000
v 0.482310 0.490766 -0.100000
v 0.480227 0.474546 -0.100000
v 0.476734 0.459313 -0.100000
v 0.471815 0.445037 -0.100000
v 0.465451 0.431692 -0.100000
v 0.457625 0.419250 -0.100000
v 0.448320 0.407683 -0.100000
v 0.437519 0.396963 -0.100000
v 0.425203 0.387063 -0.100000
v 0.411356 0.377954 -0.100000
v 0.395961 0.369609 -0.100000
v 0.379000 0.362000 -0.100000
v 0.379000 0.360000 -0.100000
v 0.403654 0.354263 -0.100000
v 0.426565 0.346606 -0.100000
v 0.447656 0.337109 -0.100000
v 0.466852 0.325852 -0.100000
v 0.484075 0.312914 -0.100000
v 0.499250 0.298375 -0.100000
v 0.512300 0.282315 -0.100000
v 0.523148 0.264815 -0.100000
v 0.531719 0.245953 -0.100000
v 0.537935 0.225810 -0.100000
v 0.541721 0.204466 -0.100000
v 0.543000 0.182000 -0.100000
v 0.541662 0.160773 -0.100000
v 0.537542 0.139352 -0.100000
v 0.530484 0.118125 -0.100000
v 0.520333 0.097481 -0.100000
v 0.506932 0.077810 -0.100000
v 0.490125 0.059500 -0.100000
v 0.469755 0.042940 -0.100000
v 0.445667 0.028519 -0.100000
v 0.417703 0.016625 -0.100000
v 0.385708 0.007648 -0.100000
v 0.349526 0.001977 -0.100000
v 0.309000 0.000000 -0.100000
v 0.075000 0.000000 -0.100000
v 0.075000 0.682000 -0.100000
v 0.238000 0.390000 -0.100000
v 0.261210 0.390751 -0.100000
v 0.282347 0.393005 -0.100000
v 0.301422 0.396766 -0.100000
v 0.318444 0.402037 -0.100000
v 0.333425 0.408822 -0.100000
v 0.346375 0.417125 -0.100000
v 0.357304 0.426949 -0.100000
v 0.366222 0.438296 -0.100000
v 0.373141 0.451172 -0.100000
v 0.378069 0.465579 -0.100000
v 0.381019 0.481520 -0.100000
v 0.382000 0.499000 -0.100000
v 0.381377 0.511583 -0.100000
v 0.379435 0.523745 -0.100000
v 0.376063 0.535359 -0.100000
v 0.371148 0.546296 -0.100000
v 0.364581 0.556428 -0.100000
v 0.356250 0.565625 -0.100000
v 0.346044 0.573760 -0.100000
v 0.333852 0.580704 -0.100000
v 0.319563 0.586328 -0.100000
v 0.303065 0.590505 -0.100000
v 0.284248 0.593105 -0.100000
v 0.263000 0.594000 -0.100000
v 0.173000 0.594000 -0.100000
v 0.173000 0.390000 -0.100000
v 0.296000 0.088000 -0.100000
v 0.323031 0.089151 -0.100000
v 0.346745 0.092458 -0.100000
v 0.367328 0.097703 -0.100000
v 0.384963 0.104667 -0.100000
v 0.399834 0.113130 -0.100000
v 0.412125 0.122875 -0.100000
v 0.422020 0.133682 -0.100000
v 0.429704 0.145333 -0.100000
v 0.435359 0.157609 -0.100000
v 0.439171 0.170292 -0.100000
v 0.441324 0.183161 -0.100000
v 0.442000 0.196000 -0.100000
v 0.440996 0.211110 -0.100000
v 0.437968 0.225380 -0.100000
v 0.432891 0.238719 -0.100000
v 0.425741 0.251037 -0.100000
v 0.416494 0.262244 -0.100000
v 0.405125 0.272250 -0.100000
v 0.391611 0.280964 -0.100000
v 0.375926 0.288296 -0.100000
v 0.358047 0.294156 -0.100000
v 0.337949 0.298454 -0.100000
v 0.315608 0.301098 -0.100000
v 0.291000 0.302000 -0.100000
v 0.173000 0.302000 -0.100000
v 0.173000 0.088000 -0.100000
v 0.273000 0.682000 -0.100000
v 0.273000 0.682000 0.100000
v 0.308012 0.680219 -0.100000
v 0.308012 0.680219 0.100000
v 0.339597 0.675083 -0.100000
v 0.339597 0.675083 0.100000
v 0.367828 0.666906 -0.100000
v 0.367828 0.666906 0.100000
v 0.392778 0.656000 -0.100000
v 0.392778 0.656000 0.100000
v 0.414519 0.642677 -0.100000
v 0.414519 0.642677 0.100000
v 0.433125 0.627250 -0.100000
v 0.433125 0.627250 0.100000
v 0.448668 0.610031 -0.100000
v 0.448668 0.610031 0.100000
v 0.461222 0.591333 -0.100000
v 0.461222 0.591333 0.100000
v 0.470859 0.571469 -0.100000
v 0.470859 0.571469 0.100000
v 0.477653 0.550750 -0.100000
v 0.477653 0.550750 0.100000
v 0.481675 0.529490 -0.100000
v 0.481675 0.529490 0.100000
v 0.483000 0.508000 -0.100000
v 0.483000 0.508000 0.100000
v 0.482310 0.490766 -0.100000
v 0.482310 0.490766 0.100000
v 0.480227 0.474546 -0.100000
v 0.480227 0.474546 0.100000
v 0.476734 0.459313 -0.100000
v 0.476734 0.459313 0.100000
v 0.471815 0.445037 -0.100000
v 0.471815 0.445037 0.100000
v 0.465451 0.431692 -0.100000
v 0.465451 0.431692 0.100000
v 0.457625 0.419250 -0.100000
v 0.457625 0.419250 0.100000
v 0.448320 0.407683 -0.100000
v 0.448320 0.407683 0.100000
v 0.437519 0.396963 -0.100000
v 0.437519 0.396963 0.100000
v 0.425203 0.387063 -0.100000
v 0.425203 0.387063 0.100000
v 0.411356 0.377954 -0.100000
v 0.411356 0.377954 0.100000
v 0.395961 0.369609 -0.100000
v 0.395961 0.369609 0.100000
v 0.379000 0.362000 -0.100000
v 0.379000 0.362000 0.100000
v 0.379000 0.360000 -0.100000
v 0.379000 0.360000 0.100000
v 0.403654 0.354263 -0.100000
v 0.403654 0.354263 0.100000
v 0.426565 0.346606 -0.100000
v 0.426565 0.346606 0.100000
v 0.447656 0.337109 -0.100000
v 0.447656 0.337109 0.100000
v 0.466852 0.325852 -0.100000
v 0.466852 0.325852 0.100000
v 0.484075 0.312914 -0.100000
v 0.484075 0.312914 0.100000
v 0.499250 0.298375 -0.100000
v 0.499250 0.298375 0.100000
v 0.512300 0.282315 -0.100000
v 0.512300 0.282315 0.100000
v 0.523148 0.264815 -0.100000
v 0.523148 0.264815 0.100000
v 0.531719 0.245953 -0.100000
v 0.531719 0.245953 0.100000
v 0.537935 0.225810 -0.100000
v 0.537935 0.225810 0.100000
v 0.541721 0.204466 -0.100000
v 0.541721 0.204466 0.100000
v 0.543000 0.182000 -0.100000
v 0.543000 0.182000 0.100000
v 0.541662 0.160773 -0.100000
v 0.541662 0.160773 0.100000
v 0.537542 0.139352 -0.100000
v 0.537542 0.139352 0.100000
v 0.530484 0.118125 -0.100000
v 0.530484 0.118125 0.100000
v 0.520333 0.097481 -0.100000
v 0.520333 0.097481 0.100000
v 0.506932 0.077810 -0.100000
v 0.506932 0.077810 0.100000
v 0.490125 0.059500 -0.100000
v 0.490125 0.059500 0.100000
v 0.469755 0.042940 -0.100000
v 0.469755 0.042940 0.100000
v 0.445667 0.028519 -0.100000
v 0.445667 0.028519 0.100000
v 0.417703 0.016625 -0.100000
v 0.417703 0.016625 0.100000
v 0.385708 0.007648 -0.100000
v 0.385708 0.007648 0.100000
v 0.349526 0.001977 -0.100000
v 0.349526 0.001977 0.100000
v 0.309000 0.000000 -0.100000
v 0.309000 0.000000 0.100000
v 0.075000 0.000000 -0.100000
v 0.075000 0.000000 0.100000
v 0.075000 0.682000 -0.100000
v 0.075000 0.682000 0.100000
v 0.238000 0.390000 -0.100000
v 0.238000 0.390000 0.100000
v 0.261210 0.390751 -0.100000
v 0.261210 0.390751 0.100000
v 0.282347 0.393005 -0.100000
v 0.282347 0.393005 0.100000
v 0.301422 0.396766 -0.100000
v 0.301422 0.396766 0.100000
v 0.318444 0.402037 -0.100000
v 0.318444 0.402037 0.100000
v 0.333425 0.408822 -0.100000
v 0.333425 0.408822 0.100000
v 0.346375 0.417125 -0.100000
v 0.346375 0.417125 0.100000
v 0.357304 0.426949 -0.100000
v 0.357304 0.426949 0.100000
v 0.366222 0.438296 -0.100000
v 0.366222 0.438296 0.100000
v 0.373141 0.451172 -0.100000
v 0.373141 0.451172 0.100000
v 0.378069 0.465579 -0.100000
v 0.378069 0.465579 0.100000
v 0.381019 0.481520 -0.100000
v 0.381019 0.481520 0.100000
v 0.382000 0.499000 -0.100000
v 0.382000 0.499000 0.100000
v 0.381377 0.511583 -0.100000
v 0.381377 0.511583 0.100000
v 0.379435 0.523745 -0.100000
v 0.379435 0.523745 0.100000
v 0.376063 0.535359 -0.100000
v 0.376063 0.535359 0.100000
v 0.371148 0.546296 -0.100000
v 0.371148 0.546296 0.100000
v 0.364581 0.556428 -0.100000
v 0.364581 0.556428 0.100000
v 0.356250 0.565625 -0.100000
v 0.356250 0.565625 0.100000
v 0.346044 0.573760 -0.100000
v 0.346044 0.573760 0.100000
v 0.333852 0.580704 -0.100000
v 0.333852 0.580704 0.100000
v 0.319563 0.586328 -0.100000
v 0.319563 0.586328 0.100000
v 0.303065 0.590505 -0.100000
v 0.303065 0.590505 0.100000
v 0.284248 0.593105 -0.100000
v 0.284248 0.593105 0.100000
v 0.263000 0.594000 -0.100000
v 0.263000 0.594000 0.100000
v 0.173000 0.594000 -0.100000
v 0.173000 0.594000 0.100000
v 0.173000 0.390000 -0.100000
v 0.173000 0.390000 0.100000
v 0.296000 0.088000 -0.100000
v 0.296000 0.088000 0.100000
v 0.323031 0.089151 -0.100000
v 0.323031 0.089151 0.100000
v 0.346745 0.092458 -0.100000
v 0.346745 0.092458 0.100000
v 0.367328 0.097703 -0.100000
v 0.367328 0.097703 0.100000
v 0.384963 0.104667 -0.100000
v 0.384963 0.104667 0.100000
v 0.399834 0.113130 -0.100000
v 0.399834 0.113130 0.100000
v 0.412125 0.122875 -0.100000
v 0.412125 0.122875 0.100000
v 0.422020 0.133682 -0.100000
v 0.422020 0.133682 0.100000
v 0.429704 0.145333 -0.100000
v 0.429704 0.145333 0.100000
v 0.435359 0.157609 -0.100000
v 0.435359 0.157609 0.100000
v 0.439171 0.170292 -0.100000
v 0.439171 0.170292 0.100000
v 0.441324 0.183161 -0.100000
v 0.441324 0.183161 0.100000
v 0.442000 0.196000 -0.100000
v 0.442000 0.196000 0.100000
v 0.440996 0.211110 -0.100000
v 0.440996 0.211110 0.100000
v 0.437968 0.225380 -0.100000
v 0.437968 0.225380 0.100000
v 0.432891 0.238719 -0.100000
v 0.432891 0.238719 0.100000
v 0.425741 0.251037 -0.100000
v 0.425741 0.251037 0.100000
v 0.416494 0.262244 -0.100000
v 0.416494 0.262244 0.100000
v 0.405125 0.272250 -0.100000
v 0.405125 0.272250 0.100000
v 0.391611 0.280964 -0.100000
v 0.391611 0.280964 0.100000
v 0.375926 0.288296 -0.100000
v 0.375926 0.288296 0.100000
v 0.358047 0.294156 -0.100000
v 0.358047 0.294156 0.100000
v 0.337949 0.298454 -0.100000
v 0.337949 0.298454 0.100000
v 0.315608 0.301098 -0.100000
v 0.315608 0.301098 0.100000
v 0.291000 0.302000 -0.100000
v 0.291000 0.302000 0.100000
v 0.173000 0.302000 -0.100000
v 0.173000 0.302000 0.100000
v 0.173000 0.088000 -0.100000
v 0.173000 0.088000 0.100000
vn 0.000000 0.000000 1.000000
vn 0.050809 0.998708 0.000000
vn 0.160483 0.987039 0.000000
vn 0.278215 0.960519 0.000000
vn 0.400535 0.916281 0.000000
vn 0.522493 0.852644 0.000000
vn 0.638282 0.769802 0.000000
vn 0.742295 0.670073 0.000000
vn 0.830231 0.557419 0.000000
vn 0.899711 0.436487 0.000000
vn 0.950224 0.311566 0.000000
vn 0.982568 0.185906 0.000000
vn 0.998106 0.061525 0.000000
vn 0.999199 -0.040029 0.000000
vn 0.991857 -0.127360 0.000000
vn 0.974713 -0.223461 0.000000
vn 0.945434 -0.325812 0.000000
vn 0.902616 -0.430446 0.000000
vn 0.846482 -0.532418 0.000000
vn 0.779181 -0.626799 0.000000
vn 0.704422 -0.709782 0.000000
vn 0.626551 -0.779381 0.000000
vn 0.549580 -0.835441 0.000000
vn 0.476540 -0.879153 0.000000
vn 0.409302 -0.912399 0.000000
vn 1.000000 0.000000 0.000000
vn 0.226634 0.973980 0.000000
vn 0.316968 0.948436 0.000000
vn 0.410579 0.911825 0.000000
vn 0.505884 0.862601 0.000000
vn 0.600609 0.799543 0.000000
vn 0.691814 0.722075 0.000000
vn 0.776081 0.630633 0.000000
vn 0.849947 0.526869 0.000000
vn 0.910419 0.413688 0.000000
vn 0.955531 0.294891 0.000000
vn 0.984631 0.174647 0.000000
vn 0.998384 0.056836 0.000000
vn 0.998018 -0.062934 0.000000
vn 0.982004 -0.188862 0.000000
vn 0.948929 -0.315489 0.000000
vn 0.897375 -0.441269 0.000000
vn 0.826447 -0.563015 0.000000
vn 0.736694 -0.676226 0.000000
vn 0.630816 -0.775933 0.000000
vn 0.513662 -0.857993 0.000000
vn 0.391392 -0.920224 0.000000
vn 0.270141 -0.962821 0.000000
vn 0.154852 -0.987938 0.000000
vn 0.048722 -0.998812 0.000000
vn 0.000000 -1.000000 0.000000
vn -1.000000 0.000000 0.000000
vn 0.000000 1.000000 0.000000
vn -0.032321 0.999478 0.000000
vn -0.106039 0.994362 0.000000
vn -0.193448 0.981111 0.000000
vn -0.295812 0.955246 0.000000
vn -0.412583 0.910920 0.000000
vn -0.539740 0.841832 0.000000
vn -0.668497 0.743715 0.000000
vn -0.786242 0.617919 0.000000
vn -0.880887 0.473326 0.000000
vn -0.946161 0.323696 0.000000
vn -0.983309 0.181941 0.000000
vn -0.998429 0.056029 0.000000
vn -0.998778 -0.049427 0.000000
vn -0.987490 -0.157683 0.000000
vn -0.960327 -0.278878 0.000000
vn -0.912148 -0.409860 0.000000
vn -0.839134 -0.543925 0.000000
vn -0.741150 -0.671339 0.000000
vn -0.623294 -0.781988 0.000000
vn -0.494900 -0.868950 0.000000
vn -0.366258 -0.930513 0.000000
vn -0.245414 -0.969418 0.000000
vn -0.136879 -0.990588 0.000000
vn -0.042097 -0.999114 0.000000
vn -0.042544 0.999095 0.000000
vn -0.138125 0.990415 0.000000
vn -0.246924 0.969035 0.000000
vn -0.367277 0.930112 0.000000
vn -0.494634 0.869101 0.000000
vn -0.621264 0.783601 0.000000
vn -0.737542 0.675301 0.000000
vn -0.834815 0.550531 0.000000
vn -0.908247 0.418435 0.000000
vn -0.957676 0.287849 0.000000
vn -0.986304 0.164939 0.000000
vn -0.998615 0.052621 0.000000
vn -0.997800 -0.066303 0.000000
vn -0.978214 -0.207600 0.000000
vn -0.934595 -0.355714 0.000000
vn -0.864871 -0.501994 0.000000
vn -0.771332 -0.636433 0.000000
vn -0.660680 -0.750667 0.000000
vn -0.541912 -0.840435 0.000000
vn -0.423487 -0.905902 0.000000
vn -0.311452 -0.950262 0.000000
vn -0.209101 -0.977894 0.000000
vn -0.117558 -0.993066 0.000000
vn -0.036614 -0.999330 0.000000
usemtl (null)
s off
f 51//1 78//1 52//1
f 78//1 1//1 52//1
f 2//1 1//1 78//1
f 78//1 3//1 2//1
f 78//1 4//1 3//1
f 78//1 5//1 4//1
f 78//1 6//1 5//1
f 78//1 7//1 6//1
f 78//1 8//1 7//1
f 78//1 77//1 8//1
f 77//1 9//1 8//1
f 51//1 79//1 78//1
f 76//1 9//1 77//1
f 75//1 9//1 76//1
f 75//1 10//1 9//1
f 74//1 10//1 75//1
f 73//1 10//1 74//1
f 72//1 10//1 73//1
f 71//1 10//1 72//1
f 71//1 11//1 10//1
f 70//1 11//1 71//1
f 69//1 11//1 70//1
f 69//1 12//1 11//1
f 68//1 12//1 69//1
f 67//1 12//1 68//1
f 67//1 13//1 12//1
f 66//1 13//1 67//1
f 65//1 13//1 66//1
f 65//1 14//1 13//1
f 64//1 14//1 65//1
f 64//1 15//1 14//1
f 63//1 15//1 64//1
f 63//1 16//1 15//1
f 62//1 16//1 63//1
f 62//1 17//1 16//1
f 61//1 17//1 62//1
f 61//1 18//1 17//1
f 60//1 18//1 61//1
f 60//1 19//1 18//1
f 59//1 19//1 60//1
f 59//1 20//1 19//1
f 58//1 20//1 59//1
f 57//1 20//1 58//1
f 57//1 21//1 20//1
f 56//1 21//1 57//1
f 56//1 22//1 21//1
f 55//1 22//1 56//1
f 54//1 22//1 55//1
f 53//1 22//1 54//1
f 51//1 105//1 79//1
f 105//1 53//1 79//1
f 105//1 22//1 53//1
f 105//1 23//1 22//1
f 105//1 24//1 23//1
f 105//1 25//1 24//1
f 105//1 26//1 25//1
f 105//1 27//1 26//1
f 105//1 28//1 27//1
f 105//1 29//1 28//1
f 105//1 30//1 29//1
f 105//1 31//1 30//1
f 105//1 104//1 31//1
f 104//1 32//1 31//1
f 51//1 106//1 105//1
f 103//1 32//1 104//1
f 102//1 32//1 103//1
f 101//1 32//1 102//1
f 101//1 33//1 32//1
f 100//1 33//1 101//1
f 99//1 33//1 100//1
f 99//1 34//1 33//1
f 98//1 34//1 99//1
f 97//1 34//1 98//1
f 97//1 35//1 34//1
f 96//1 35//1 97//1
f 95//1 35//1 96//1
f 95//1 36//1 35//1
f 94//1 36//1 95//1
f 94//1 37//1 36//1
f 93//1 37//1 94//1
f 92//1 37//1 93//1
f 92//1 38//1 37//1
f 91//1 38//1 92//1
f 90//1 38//1 91//1
f 90//1 39//1 38//1
f 89//1 39//1 90//1
f 89//1 40//1 39//1
f 88//1 40//1 89//1
f 87//1 40//1 88//1
f 87//1 41//1 40//1
f 86//1 41//1 87//1
f 85//1 41//1 86//1
f 85//1 42//1 41//1
f 84//1 42//1 85//1
f 83//1 42//1 84//1
f 82//1 42//1 83//1
f 82//1 43//1 42//1
f 81//1 43//1 82//1
f 80//1 43//1 81//1
f 51//1 80//1 106//1
f 51//1 43//1 80//1
f 51//1 44//1 43//1
f 51//1 45//1 44//1
f 51//1 46//1 45//1
f 51//1 47//1 46//1
f 51//1 48//1 47//1
f 51//1 49//1 48//1
f 51//1 50//1 49//1
f 157//1 184//1 158//1
f 184//1 107//1 158//1
f 184//1 108//1 107//1
f 184//1 109//1 108//1
f 184//1 110//1 109//1
f 184//1 111//1 110//1
f 184//1 112//1 111//1
f 184//1 113//1 112//1
f 184//1 114//1 113//1
f 184//1 183//1 114//1
f 183//1 115//1 114//1
f 157//1 185//1 184//1
f 182//1 115//1 183//1
f 181//1 115//1 182//1
f 181//1 116//1 115//1
f 180//1 116//1 181//1
f 179//1 116//1 180//1
f 178//1 116//1 179//1
f 177//1 116//1 178//1
f 177//1 117//1 116//1
f 176//1 117//1 177//1
f 175//1 117//1 176//1
f 175//1 118//1 117//1
f 174//1 118//1 175//1
f 173//1 118//1 174//1
f 173//1 119//1 118//1
f 172//1 119//1 173//1
f 171//1 119//1 172//1
f 171//1 120//1 119//1
f 170//1 120//1 171//1
f 170//1 121//1 120//1
f 169//1 121//1 170//1
f 169//1 122//1 121//1
f 168//1 122//1 169//1
f 168//1 123//1 122//1
f 167//1 123//1 168//1
f 167//1 124//1 123//1
f 166//1 124//1 167//1
f 166//1 125//1 124//1
f 165//1 125//1 166//1
f 165//1 126//1 125//1
f 164//1 126//1 165//1
f 163//1 126//1 164//1
f 163//1 127//1 126//1
f 162//1 127//1 163//1
f 162//1 128//1 127//1
f 161//1 128//1 162//1
f 160//1 128//1 161//1
f 159//1 128//1 160//1
f 157//1 211//1 185//1
f 211//1 159//1 185//1
f 211//1 128//1 159//1
f 211//1 129//1 128//1
f 211//1 130//1 129//1
f 211//1 131//1 130//1
f 211//1 132//1 131//1
f 211//1 133//1 132//1
f 211//1 134//1 133//1
f 211//1 135//1 134//1
f 211//1 136//1 135//1
f 211//1 137//1 136//1
f 211//1 210//1 137//1
f 210//1 138//1 137//1
f 157//1 212//1 211//1
f 209//1 138//1 210//1
f 208//1 138//1 209//1
f 207//1 138//1 208//1
f 207//1 139//1 138//1
f 206//1 139//1 207//1
f 205//1 139//1 206//1
f 205//1 140//1 139//1
f 204//1 140//1 205//1
f 203//1 140//1 204//1
f 203//1 141//1 140//1
f 202//1 141//1 203//1
f 201//1 141//1 202//1
f 201//1 142//1 141//1
f 200//1 142//1 201//1
f 200//1 143//1 142//1
f 199//1 143//1 200//1
f 198//1 143//1 199//1
f 198//1 144//1 143//1
f 197//1 144//1 198//1
f 196//1 144//1 197//1
f 196//1 145//1 144//1
f 195//1 145//1 196//1
f 195//1 146//1 145//1
f 194//1 146//1 195//1
f 193//1 146//1 194//1
f 193//1 147//1 146//1
f 192//1 147//1 193//1
f 191//1 147//1 192//1
f 191//1 148//1 147//1
f 190//1 148//1 191//1
f 189//1 148//1 190//1
f 188//1 148//1 189//1
f 188//1 149//1 148//1
f 187//1 149//1 188//1
f 186//1 149//1 187//1
f 157//1 186//1 212//1
f 157//1 149//1 186//1
f 157//1 150//1 149//1
f 157//1 151//1 150//1
f 157//1 152//1 151//1
f 157//1 153//1 152//1
f 157//1 154//1 153//1
f 157//1 155//1 154//1
f 157//1 156//1 155//1
f 214//2 216//2 215//2 213//2
f 216//3 218//3 217//3 215//3
f 218//4 220//4 219//4 217//4
f 220//5 222//5 221//5 219//5
f 222//6 224//6 223//6 221//6
f 224//7 226//7 225//7 223//7
f 226//8 228//8 227//8 225//8
f 228//9 230//9 229//9 227//9
f 230//10 232//10 231//10 229//10
f 232//11 234//11 233//11 231//11
f 234//12 236//12 235//12 233//12
f 236//13 238//13 237//13 235//13
f 238//14 240//14 239//14 237//14
f 240//15 242//15 241//15 239//15
f 242//16 244//16 243//16 241//16
f 244//17 246//17 245//17 243//17
f 246//18 248//18 247//18 245//18
f 248//19 250//19 249//19 247//19
f 250//20 252//20 251//20 249//20
f 252//21 254//21 253//21 251//21
f 254//22 256//22 255//22 253//22
f 256//23 258//23 257//23 255//23
f 258//24 260//24 259//24 257//24
f 260//25 262//25 261//25 259//25
f 262//26 264//26 263//26 261//26
f 264//27 266//27 265//27 263//27
f 266//28 268//28 267//28 265//28
f 268//29 270//29 269//29 267//29
f 270//30 272//30 271//30 269//30
f 272//31 274//31 273//31 271//31
f 274//32 276//32 275//32 273//32
f 276//33 278//33 277//33 275//33
f 278//34 280//34 279//34 277//34
f 280//35 282//35 281//35 279//35
f 282//36 284//36 283//36 281//36
f 284//37 286//37 285//37 283//37
f 286//38 288//38 287//38 285//38
f 288//39 290//39 289//39 287//39
f 290//40 292//40 291//40 289//40
f 292//41 294//41 293//41 291//41
f 294//42 296//42 295//42 293//42
f 296//43 298//43 297//43 295//43
f 298//44 300//44 299//44 297//44
f 300//45 302//45 301//45 299//45
f 302//46 304//46 303//46 301//46
f 304//47 306//47 305//47 303//47
f 306//48 308//48 307//48 305//48
f 308//49 310//49 309//49 307//49
f 310//50 312//50 311//50 309//50
f 312//51 314//51 313//51 311//51
f 314//52 316//52 315//52 313//52
f 316//53 214//53 213//53 315//53
f 318//54 320//54 319//54 317//54
f 320//55 322//55 321//55 319//55
f 322//56 324//56 323//56 321//56
f 324//57 326//57 325//57 323//57
f 326//58 328//58 327//58 325//58
f 328//59 330//59 329//59 327//59
f 330//60 332//60 331//60 329//60
f 332//61 334//61 333//61 331//61
f 334//62 336//62 335//62 333//62
f 336//63 338//63 337//63 335//63
f 338//64 340//64 339//64 337//64
f 340//65 342//65 341//65 339//65
f 342//66 344//66 343//66 341//66
f 344//67 346//67 345//67 343//67
f 346//68 348//68 347//68 345//68
f 348//69 350//69 349//69 347//69
f 350//70 352//70 351//70 349//70
f 352//71 354//71 353//71 351//71
f 354//72 356//72 355//72 353//72
f 356//73 358//73 357//73 355//73
f 358//74 360//74 359//74 357//74
f 360//75 362//75 361//75 359//75
f 362//76 364//76 363//76 361//76
f 364//77 366//77 365//77 363//77
f 366//51 368//51 367//51 365//51
f 368//26 370//26 369//26 367//26
f 370//53 318//53 317//53 369//53
f 372//78 374//78 373//78 371//78
f 374//79 376//79 375//79 373//79
f 376//80 378//80 377//80 375//80
f 378//81 380//81 379//81 377//81
f 380//82 382//82 381//82 379//82
f 382//83 384//83 383//83 381//83
f 384//84 386//84 385//84 383//84
f 386//85 388//85 387//85 385//85
f 388//86 390//86 389//86 387//86
f 390//87 392//87 391//87 389//87
f 392//88 394//88 393//88 391//88
f 394//89 396//89 395//89 393//89
f 396//90 398//90 397//90 395//90
f 398//91 400//91 399//91 397//91
f 400//92 402//92 401//92 399//92
f 402//93 404//93 403//93 401//93
f 404//94 406//94 405//94 403//94
f 406//95 408//95 407//95 405//95
f 408//96 410//96 409//96 407//96
f 410//97 412//97 411//97 409//97
f 412//98 414//98 413//98 411//98
f 414//99 416//99 415//99 413//99
f 416//100 418//100 417//100 415//100
f 418//101 420//101 419//101 417//101
f 420//51 422//51 421//51 419//51
f 422//26 424//26 423//26 421//26
f 424//53 372//53 371//53 423//53
