# Blender3D v249 OBJ File: 
# www.blender3d.org
mtllib 9.mtl
v 0.172917 -0.039047 0.100000
v 0.169588 -0.068542 0.100000
v 0.163891 -0.096266 0.100000
v 0.155704 -0.122000 0.100000
v 0.144906 -0.145526 0.100000
v 0.131375 -0.166625 0.100000
v 0.114990 -0.185078 0.100000
v 0.095630 -0.200667 0.100000
v 0.073172 -0.213172 0.100000
v 0.047495 -0.222375 0.100000
v 0.018479 -0.228057 0.100000
v -0.014000 -0.230000 0.100000
v -0.016920 -0.229980 0.100000
v -0.019694 -0.229921 0.100000
v -0.022344 -0.229828 0.100000
v -0.024889 -0.229704 0.100000
v -0.027351 -0.229552 0.100000
v -0.029750 -0.229375 0.100000
v -0.032108 -0.229178 0.100000
v -0.034444 -0.228963 0.100000
v -0.036781 -0.228734 0.100000
v -0.039139 -0.228495 0.100000
v -0.041538 -0.228249 0.100000
v -0.044000 -0.228000 0.100000
v -0.062000 -0.137000 0.100000
v -0.037000 -0.137000 0.100000
v -0.012929 -0.135916 0.100000
v 0.007481 -0.132657 0.100000
v 0.024531 -0.127219 0.100000
v 0.038519 -0.119593 0.100000
v 0.049742 -0.109772 0.100000
v 0.058500 -0.097750 0.100000
v 0.065091 -0.083520 0.100000
v 0.069815 -0.067074 0.100000
v 0.072969 -0.048406 0.100000
v 0.074852 -0.027509 0.100000
v 0.075763 -0.004376 0.100000
v 0.076000 0.021000 0.100000
v 0.076000 0.682000 0.100000
v 0.174000 0.682000 0.100000
v 0.174000 -0.008000 0.100000
v 0.172917 -0.039047 -0.100000
v 0.169588 -0.068542 -0.100000
v 0.163891 -0.096266 -0.100000
v 0.155704 -0.122000 -0.100000
v 0.144906 -0.145526 -0.100000
v 0.131375 -0.166625 -0.100000
v 0.114990 -0.185078 -0.100000
v 0.095630 -0.200667 -0.100000
v 0.073172 -0.213172 -0.100000
v 0.047495 -0.222375 -0.100000
v 0.018479 -0.228057 -0.100000
v -0.014000 -0.230000 -0.100000
v -0.016920 -0.229980 -0.100000
v -0.019694 -0.229921 -0.100000
v -0.022344 -0.229828 -0.100000
v -0.024889 -0.229704 -0.100000
v -0.027351 -0.229552 -0.100000
v -0.029750 -0.229375 -0.100000
v -0.032108 -0.229178 -0.100000
v -0.034444 -0.228963 -0.100000
v -0.036781 -0.228734 -0.100000
v -0.039139 -0.228495 -0.100000
v -0.041538 -0.228249 -0.100000
v -0.044000 -0.228000 -0.100000
v -0.062000 -0.137000 -0.100000
v -0.037000 -0.137000 -0.100000
v -0.012929 -0.135916 -0.100000
v 0.007481 -0.132657 -0.100000
v 0.024531 -0.127219 -0.100000
v 0.038519 -0.119593 -0.100000
v 0.049742 -0.109772 -0.100000
v 0.058500 -0.097750 -0.100000
v 0.065091 -0.083520 -0.100000
v 0.069815 -0.067074 -0.100000
v 0.072969 -0.048406 -0.100000
v 0.074852 -0.027509 -0.100000
v 0.075763 -0.004376 -0.100000
v 0.076000 0.021000 -0.100000
v 0.076000 0.682000 -0.100000
v 0.174000 0.682000 -0.100000
v 0.174000 -0.008000 -0.100000
v 0.172917 -0.039047 -0.100000
v 0.172917 -0.039047 0.100000
v 0.169588 -0.068542 -0.100000
v 0.169588 -0.068542 0.100000
v 0.163891 -0.096266 -0.100000
v 0.163891 -0.096266 0.100000
v 0.155704 -0.122000 -0.100000
v 0.155704 -0.122000 0.100000
v 0.144906 -0.145526 -0.100000
v 0.144906 -0.145526 0.100000
v 0.131375 -0.166625 -0.100000
v 0.131375 -0.166625 0.100000
v 0.114990 -0.185078 -0.100000
v 0.114990 -0.185078 0.100000
v 0.095630 -0.200667 -0.100000
v 0.095630 -0.200667 0.100000
v 0.073172 -0.213172 -0.100000
v 0.073172 -0.213172 0.100000
v 0.047495 -0.222375 -0.100000
v 0.047495 -0.222375 0.100000
v 0.018479 -0.228057 -0.100000
v 0.018479 -0.228057 0.100000
v -0.014000 -0.230000 -0.100000
v -0.014000 -0.230000 0.100000
v -0.016920 -0.229980 -0.100000
v -0.016920 -0.229980 0.100000
v -0.019694 -0.229921 -0.100000
v -0.019694 -0.229921 0.100000
v -0.022344 -0.229828 -0.100000
v -0.022344 -0.229828 0.100000
v -0.024889 -0.229704 -0.100000
v -0.024889 -0.229704 0.100000
v -0.027351 -0.229552 -0.100000
v -0.027351 -0.229552 0.100000
v -0.029750 -0.229375 -0.100000
v -0.029750 -0.229375 0.100000
v -0.032108 -0.229178 -0.100000
v -0.032108 -0.229178 0.100000
v -0.034444 -0.228963 -0.100000
v -0.034444 -0.228963 0.100000
v -0.036781 -0.228734 -0.100000
v -0.036781 -0.228734 0.100000
v -0.039139 -0.228495 -0.100000
v -0.039139 -0.228495 0.100000
v -0.041538 -0.228249 -0.100000
v -0.041538 -0.228249 0.100000
v -0.044000 -0.228000 -0.100000
v -0.044000 -0.228000 0.100000
v -0.062000 -0.137000 -0.100000
v -0.062000 -0.137000 0.100000
v -0.037000 -0.137000 -0.100000
v -0.037000 -0.137000 0.100000
v -0.012929 -0.135916 -0.100000
v -0.012929 -0.135916 0.100000
v 0.007481 -0.132657 -0.100000
v 0.007481 -0.132657 0.100000
v 0.024531 -0.127219 -0.100000
v 0.024531 -0.127219 0.100000
v 0.038519 -0.119593 -0.100000
v 0.038519 -0.119593 0.100000
v 0.049742 -0.109772 -0.100000
v 0.049742 -0.109772 0.100000
v 0.058500 -0.097750 -0.100000
v 0.058500 -0.097750 0.100000
v 0.065091 -0.083520 -0.100000
v 0.065091 -0.083520 0.100000
v 0.069815 -0.067074 -0.100000
v 0.069815 -0.067074 0.100000
v 0.072969 -0.048406 -0.100000
v 0.072969 -0.048406 0.100000
v 0.074852 -0.027509 -0.100000
v 0.074852 -0.027509 0.100000
v 0.075763 -0.004376 -0.100000
v 0.075763 -0.004376 0.100000
v 0.076000 0.021000 -0.100000
v 0.076000 0.021000 0.100000
v 0.076000 0.682000 -0.100000
v 0.076000 0.682000 0.100000
v 0.174000 0.682000 -0.100000
v 0.174000 0.682000 0.100000
v 0.174000 -0.008000 -0.100000
v 0.174000 -0.008000 0.100000
vn 0.000000 0.000000 1.000000
vn 0.993690 -0.112165 0.000000
vn 0.979531 -0.201296 0.000000
vn 0.952940 -0.303160 0.000000
vn 0.908841 -0.417142 0.000000
vn 0.841776 -0.539827 0.000000
vn 0.747770 -0.663958 0.000000
vn 0.627148 -0.778900 0.000000
vn 0.486496 -0.873683 0.000000
vn 0.337407 -0.941359 0.000000
vn 0.192177 -0.981360 0.000000
vn 0.059708 -0.998216 0.000000
vn -0.006935 -0.999976 0.000000
vn -0.021066 -0.999778 0.000000
vn -0.035143 -0.999382 0.000000
vn -0.048829 -0.998807 0.000000
vn -0.061707 -0.998094 0.000000
vn -0.073366 -0.997305 0.000000
vn -0.083409 -0.996515 0.000000
vn -0.091490 -0.995806 0.000000
vn -0.097354 -0.995250 0.000000
vn -0.100856 -0.994901 0.000000
vn -0.101978 -0.994787 0.000000
vn -0.100798 -0.994907 0.000000
vn -0.980993 -0.194043 0.000000
vn 0.000000 1.000000 0.000000
vn -0.045009 0.998987 0.000000
vn -0.157630 0.987498 0.000000
vn -0.303901 0.952704 0.000000
vn -0.478694 0.877982 0.000000
vn -0.658510 0.752572 0.000000
vn -0.808261 0.588824 0.000000
vn -0.907386 0.420298 0.000000
vn -0.961143 0.276052 0.000000
vn -0.986026 0.166589 0.000000
vn -0.995964 0.089750 0.000000
vn -0.999226 0.039345 0.000000
vn -0.999956 0.009350 0.000000
vn -1.000000 0.000000 0.000000
vn 1.000000 0.000000 0.000000
vn 0.999392 -0.034853 0.000000
usemtl (null)
s off
f 38//1 40//1 39//1
f 38//1 41//1 40//1
f 37//1 41//1 38//1
f 36//1 41//1 37//1
f 36//1 1//1 41//1
f 35//1 1//1 36//1
f 2//1 1//1 35//1
f 34//1 2//1 35//1
f 33//1 2//1 34//1
f 33//1 3//1 2//1
f 32//1 3//1 33//1
f 32//1 4//1 3//1
f 31//1 4//1 32//1
f 30//1 4//1 31//1
f 29//1 4//1 30//1
f 29//1 5//1 4//1
f 28//1 5//1 29//1
f 27//1 5//1 28//1
f 26//1 5//1 27//1
f 24//1 26//1 25//1
f 24//1 5//1 26//1
f 24//1 6//1 5//1
f 24//1 7//1 6//1
f 24//1 8//1 7//1
f 24//1 9//1 8//1
f 24//1 10//1 9//1
f 24//1 11//1 10//1
f 23//1 11//1 24//1
f 23//1 12//1 11//1
f 22//1 12//1 23//1
f 21//1 12//1 22//1
f 20//1 12//1 21//1
f 19//1 12//1 20//1
f 18//1 12//1 19//1
f 17//1 12//1 18//1
f 16//1 12//1 17//1
f 15//1 12//1 16//1
f 14//1 12//1 15//1
f 13//1 12//1 14//1
f 79//1 81//1 80//1
f 79//1 82//1 81//1
f 78//1 82//1 79//1
f 77//1 82//1 78//1
f 77//1 42//1 82//1
f 76//1 42//1 77//1
f 76//1 43//1 42//1
f 75//1 43//1 76//1
f 74//1 43//1 75//1
f 74//1 44//1 43//1
f 73//1 44//1 74//1
f 73//1 45//1 44//1
f 72//1 45//1 73//1
f 71//1 45//1 72//1
f 70//1 45//1 71//1
f 70//1 46//1 45//1
f 69//1 46//1 70//1
f 68//1 46//1 69//1
f 67//1 46//1 68//1
f 65//1 67//1 66//1
f 65//1 46//1 67//1
f 65//1 47//1 46//1
f 65//1 48//1 47//1
f 65//1 49//1 48//1
f 65//1 50//1 49//1
f 65//1 51//1 50//1
f 65//1 52//1 51//1
f 64//1 52//1 65//1
f 64//1 53//1 52//1
f 63//1 53//1 64//1
f 62//1 53//1 63//1
f 61//1 53//1 62//1
f 60//1 53//1 61//1
f 59//1 53//1 60//1
f 58//1 53//1 59//1
f 57//1 53//1 58//1
f 56//1 53//1 57//1
f 55//1 53//1 56//1
f 54//1 53//1 55//1
f 84//2 86//2 85//2 83//2
f 86//3 88//3 87//3 85//3
f 88//4 90//4 89//4 87//4
f 90//5 92//5 91//5 89//5
f 92//6 94//6 93//6 91//6
f 94//7 96//7 95//7 93//7
f 96//8 98//8 97//8 95//8
f 98//9 100//9 99//9 97//9
f 100//10 102//10 101//10 99//10
f 102//11 104//11 103//11 101//11
f 104//12 106//12 105//12 103//12
f 106//13 108//13 107//13 105//13
f 108//14 110//14 109//14 107//14
f 110//15 112//15 111//15 109//15
f 112//16 114//16 113//16 111//16
f 114//17 116//17 115//17 113//17
f 116//18 118//18 117//18 115//18
f 118//19 120//19 119//19 117//19
f 120//20 122//20 121//20 119//20
f 122//21 124//21 123//21 121//21
f 124//22 126//22 125//22 123//22
f 126//23 128//23 127//23 125//23
f 128//24 130//24 129//24 127//24
f 130//25 132//25 131//25 129//25
f 132//26 134//26 133//26 131//26
f 134//27 136//27 135//27 133//27
f 136//28 138//28 137//28 135//28
f 138//29 140//29 139//29 137//29
f 140//30 142//30 141//30 139//30
f 142//31 144//31 143//31 141//31
f 144//32 146//32 145//32 143//32
f 146//33 148//33 147//33 145//33
f 148//34 150//34 149//34 147//34
f 150//35 152//35 151//35 149//35
f 152//36 154//36 153//36 151//36
f 154//37 156//37 155//37 153//37
f 156//38 158//38 157//38 155//38
f 158//39 160//39 159//39 157//39
f 160//26 162//26 161//26 159//26
f 162//40 164//40 163//40 161//40
f 164//41 84//41 83//41 163//41
