# Blender3D v249 OBJ File: 
# www.blender3d.org
mtllib 10.mtl
v 0.520000 0.000000 0.100000
v 0.173000 0.337000 0.100000
v 0.173000 0.000000 0.100000
v 0.075000 0.000000 0.100000
v 0.075000 0.682000 0.100000
v 0.173000 0.682000 0.100000
v 0.173000 0.370000 0.100000
v 0.460000 0.682000 0.100000
v 0.582000 0.682000 0.100000
v 0.285000 0.359000 0.100000
v 0.655000 0.000000 0.100000
v 0.520000 0.000000 -0.100000
v 0.173000 0.337000 -0.100000
v 0.173000 0.000000 -0.100000
v 0.075000 0.000000 -0.100000
v 0.075000 0.682000 -0.100000
v 0.173000 0.682000 -0.100000
v 0.173000 0.370000 -0.100000
v 0.460000 0.682000 -0.100000
v 0.582000 0.682000 -0.100000
v 0.285000 0.359000 -0.100000
v 0.655000 0.000000 -0.100000
v 0.520000 0.000000 -0.100000
v 0.520000 0.000000 0.100000
v 0.173000 0.337000 -0.100000
v 0.173000 0.337000 0.100000
v 0.173000 0.000000 -0.100000
v 0.173000 0.000000 0.100000
v 0.075000 0.000000 -0.100000
v 0.075000 0.000000 0.100000
v 0.075000 0.682000 -0.100000
v 0.075000 0.682000 0.100000
v 0.173000 0.682000 -0.100000
v 0.173000 0.682000 0.100000
v 0.173000 0.370000 -0.100000
v 0.173000 0.370000 0.100000
v 0.460000 0.682000 -0.100000
v 0.460000 0.682000 0.100000
v 0.582000 0.682000 -0.100000
v 0.582000 0.682000 0.100000
v 0.285000 0.359000 -0.100000
v 0.285000 0.359000 0.100000
v 0.655000 0.000000 -0.100000
v 0.655000 0.000000 0.100000
vn 0.000000 0.000000 1.000000
vn -0.696694 -0.717368 0.000000
vn 1.000000 0.000000 0.000000
vn 0.000000 -1.000000 0.000000
vn -1.000000 0.000000 0.000000
vn 0.000000 1.000000 0.000000
vn -0.735978 0.677005 0.000000
vn 0.736113 -0.676859 0.000000
vn 0.696358 0.717695 0.000000
usemtl (null)
s off
f 4//1 6//1 5//1
f 4//1 7//1 6//1
f 7//1 9//1 8//1
f 7//1 10//1 9//1
f 4//1 2//1 7//1
f 2//1 10//1 7//1
f 2//1 11//1 10//1
f 4//1 3//1 2//1
f 1//1 11//1 2//1
f 15//1 17//1 16//1
f 15//1 18//1 17//1
f 18//1 20//1 19//1
f 18//1 21//1 20//1
f 15//1 13//1 18//1
f 13//1 21//1 18//1
f 13//1 22//1 21//1
f 15//1 14//1 13//1
f 12//1 22//1 13//1
f 24//2 26//2 25//2 23//2
f 26//3 28//3 27//3 25//3
f 28//4 30//4 29//4 27//4
f 30//5 32//5 31//5 29//5
f 32//6 34//6 33//6 31//6
f 34//3 36//3 35//3 33//3
f 36//7 38//7 37//7 35//7
f 38//6 40//6 39//6 37//6
f 40//8 42//8 41//8 39//8
f 42//9 44//9 43//9 41//9
f 44//4 24//4 23//4 43//4
