# Blender3D v249 OBJ File: 
# www.blender3d.org
mtllib 14.mtl
v 0.465487 0.687742 0.100000
v 0.516310 0.678269 0.100000
v 0.563266 0.663031 0.100000
v 0.606148 0.642482 0.100000
v 0.644753 0.617071 0.100000
v 0.678875 0.587250 0.100000
v 0.708310 0.553471 0.100000
v 0.732852 0.516185 0.100000
v 0.752297 0.475844 0.100000
v 0.766440 0.432898 0.100000
v 0.775076 0.387800 0.100000
v 0.778000 0.341000 0.100000
v 0.775151 0.295461 0.100000
v 0.766708 0.251185 0.100000
v 0.752828 0.208688 0.100000
v 0.733667 0.168481 0.100000
v 0.709380 0.131081 0.100000
v 0.680125 0.097000 0.100000
v 0.646057 0.066752 0.100000
v 0.607333 0.040852 0.100000
v 0.564109 0.019813 0.100000
v 0.516542 0.004148 0.100000
v 0.464786 -0.005627 0.100000
v 0.409000 -0.009000 0.100000
v 0.354992 -0.005646 0.100000
v 0.304606 0.004079 0.100000
v 0.258047 0.019672 0.100000
v 0.215519 0.040630 0.100000
v 0.177226 0.066448 0.100000
v 0.143375 0.096625 0.100000
v 0.114170 0.130656 0.100000
v 0.089815 0.168037 0.100000
v 0.070516 0.208266 0.100000
v 0.056477 0.250838 0.100000
v 0.047903 0.295251 0.100000
v 0.045000 0.341000 0.100000
v 0.047981 0.387590 0.100000
v 0.056764 0.432551 0.100000
v 0.071109 0.475422 0.100000
v 0.090778 0.515741 0.100000
v 0.115530 0.553046 0.100000
v 0.145125 0.586875 0.100000
v 0.179325 0.616767 0.100000
v 0.217889 0.642259 0.100000
v 0.260578 0.662891 0.100000
v 0.307153 0.678199 0.100000
v 0.357373 0.687723 0.100000
v 0.411000 0.691000 0.100000
v 0.448374 0.083270 0.100000
v 0.483829 0.089912 0.100000
v 0.517109 0.100672 0.100000
v 0.547963 0.115296 0.100000
v 0.576136 0.133532 0.100000
v 0.601375 0.155125 0.100000
v 0.623427 0.179822 0.100000
v 0.642037 0.207370 0.100000
v 0.656953 0.237516 0.100000
v 0.667921 0.270005 0.100000
v 0.674688 0.304584 0.100000
v 0.677000 0.341000 0.100000
v 0.674688 0.377626 0.100000
v 0.667921 0.412343 0.100000
v 0.656953 0.444906 0.100000
v 0.642037 0.475074 0.100000
v 0.623427 0.502603 0.100000
v 0.601375 0.527250 0.100000
v 0.576136 0.548772 0.100000
v 0.547963 0.566926 0.100000
v 0.517109 0.581469 0.100000
v 0.483829 0.592157 0.100000
v 0.448374 0.598749 0.100000
v 0.411000 0.601000 0.100000
v 0.373855 0.598749 0.100000
v 0.338593 0.592157 0.100000
v 0.305469 0.581469 0.100000
v 0.274741 0.566926 0.100000
v 0.246666 0.548772 0.100000
v 0.221500 0.527250 0.100000
v 0.199501 0.502603 0.100000
v 0.180926 0.475074 0.100000
v 0.166031 0.444906 0.100000
v 0.155074 0.412343 0.100000
v 0.148311 0.377626 0.100000
v 0.146000 0.341000 0.100000
v 0.148311 0.304584 0.100000
v 0.155074 0.270005 0.100000
v 0.166031 0.237516 0.100000
v 0.180926 0.207370 0.100000
v 0.199501 0.179822 0.100000
v 0.221500 0.155125 0.100000
v 0.246666 0.133532 0.100000
v 0.274741 0.115296 0.100000
v 0.305469 0.100672 0.100000
v 0.338593 0.089912 0.100000
v 0.373855 0.083270 0.100000
v 0.411000 0.081000 0.100000
v 0.465487 0.687742 -0.100000
v 0.516310 0.678269 -0.100000
v 0.563266 0.663031 -0.100000
v 0.606148 0.642482 -0.100000
v 0.644753 0.617071 -0.100000
v 0.678875 0.587250 -0.100000
v 0.708310 0.553471 -0.100000
v 0.732852 0.516185 -0.100000
v 0.752297 0.475844 -0.100000
v 0.766440 0.432898 -0.100000
v 0.775076 0.387800 -0.100000
v 0.778000 0.341000 -0.100000
v 0.775151 0.295461 -0.100000
v 0.766708 0.251185 -0.100000
v 0.752828 0.208688 -0.100000
v 0.733667 0.168481 -0.100000
v 0.709380 0.131081 -0.100000
v 0.680125 0.097000 -0.100000
v 0.646057 0.066752 -0.100000
v 0.607333 0.040852 -0.100000
v 0.564109 0.019813 -0.100000
v 0.516542 0.004148 -0.100000
v 0.464786 -0.005627 -0.100000
v 0.409000 -0.009000 -0.100000
v 0.354992 -0.005646 -0.100000
v 0.304606 0.004079 -0.100000
v 0.258047 0.019672 -0.100000
v 0.215519 0.040630 -0.100000
v 0.177226 0.066448 -0.100000
v 0.143375 0.096625 -0.100000
v 0.114170 0.130656 -0.100000
v 0.089815 0.168037 -0.100000
v 0.070516 0.208266 -0.100000
v 0.056477 0.250838 -0.100000
v 0.047903 0.295251 -0.100000
v 0.045000 0.341000 -0.100000
v 0.047981 0.387590 -0.100000
v 0.056764 0.432551 -0.100000
v 0.071109 0.475422 -0.100000
v 0.090778 0.515741 -0.100000
v 0.115530 0.553046 -0.100000
v 0.145125 0.586875 -0.100000
v 0.179325 0.616767 -0.100000
v 0.217889 0.642259 -0.100000
v 0.260578 0.662891 -0.100000
v 0.307153 0.678199 -0.100000
v 0.357373 0.687723 -0.100000
v 0.411000 0.691000 -0.100000
v 0.448374 0.083270 -0.100000
v 0.483829 0.089912 -0.100000
v 0.517109 0.100672 -0.100000
v 0.547963 0.115296 -0.100000
v 0.576136 0.133532 -0.100000
v 0.601375 0.155125 -0.100000
v 0.623427 0.179822 -0.100000
v 0.642037 0.207370 -0.100000
v 0.656953 0.237516 -0.100000
v 0.667921 0.270005 -0.100000
v 0.674688 0.304584 -0.100000
v 0.677000 0.341000 -0.100000
v 0.674688 0.377626 -0.100000
v 0.667921 0.412343 -0.100000
v 0.656953 0.444906 -0.100000
v 0.642037 0.475074 -0.100000
v 0.623427 0.502603 -0.100000
v 0.601375 0.527250 -0.100000
v 0.576136 0.548772 -0.100000
v 0.547963 0.566926 -0.100000
v 0.517109 0.581469 -0.100000
v 0.483829 0.592157 -0.100000
v 0.448374 0.598749 -0.100000
v 0.411000 0.601000 -0.100000
v 0.373855 0.598749 -0.100000
v 0.338593 0.592157 -0.100000
v 0.305469 0.581469 -0.100000
v 0.274741 0.566926 -0.100000
v 0.246666 0.548772 -0.100000
v 0.221500 0.527250 -0.100000
v 0.199501 0.502603 -0.100000
v 0.180926 0.475074 -0.100000
v 0.166031 0.444906 -0.100000
v 0.155074 0.412343 -0.100000
v 0.148311 0.377626 -0.100000
v 0.146000 0.341000 -0.100000
v 0.148311 0.304584 -0.100000
v 0.155074 0.270005 -0.100000
v 0.166031 0.237516 -0.100000
v 0.180926 0.207370 -0.100000
v 0.199501 0.179822 -0.100000
v 0.221500 0.155125 -0.100000
v 0.246666 0.133532 -0.100000
v 0.274741 0.115296 -0.100000
v 0.305469 0.100672 -0.100000
v 0.338593 0.089912 -0.100000
v 0.373855 0.083270 -0.100000
v 0.411000 0.081000 -0.100000
v 0.465487 0.687742 -0.100000
v 0.465487 0.687742 0.100000
v 0.516310 0.678269 -0.100000
v 0.516310 0.678269 0.100000
v 0.563266 0.663031 -0.100000
v 0.563266 0.663031 0.100000
v 0.606148 0.642482 -0.100000
v 0.606148 0.642482 0.100000
v 0.644753 0.617071 -0.100000
v 0.644753 0.617071 0.100000
v 0.678875 0.587250 -0.100000
v 0.678875 0.587250 0.100000
v 0.708310 0.553471 -0.100000
v 0.708310 0.553471 0.100000
v 0.732852 0.516185 -0.100000
v 0.732852 0.516185 0.100000
v 0.752297 0.475844 -0.100000
v 0.752297 0.475844 0.100000
v 0.766440 0.432898 -0.100000
v 0.766440 0.432898 0.100000
v 0.775076 0.387800 -0.100000
v 0.775076 0.387800 0.100000
v 0.778000 0.341000 -0.100000
v 0.778000 0.341000 0.100000
v 0.775151 0.295461 -0.100000
v 0.775151 0.295461 0.100000
v 0.766708 0.251185 -0.100000
v 0.766708 0.251185 0.100000
v 0.752828 0.208688 -0.100000
v 0.752828 0.208688 0.100000
v 0.733667 0.168481 -0.100000
v 0.733667 0.168481 0.100000
v 0.709380 0.131081 -0.100000
v 0.709380 0.131081 0.100000
v 0.680125 0.097000 -0.100000
v 0.680125 0.097000 0.100000
v 0.646057 0.066752 -0.100000
v 0.646057 0.066752 0.100000
v 0.607333 0.040852 -0.100000
v 0.607333 0.040852 0.100000
v 0.564109 0.019813 -0.100000
v 0.564109 0.019813 0.100000
v 0.516542 0.004148 -0.100000
v 0.516542 0.004148 0.100000
v 0.464786 -0.005627 -0.100000
v 0.464786 -0.005627 0.100000
v 0.409000 -0.009000 -0.100000
v 0.409000 -0.009000 0.100000
v 0.354992 -0.005646 -0.100000
v 0.354992 -0.005646 0.100000
v 0.304606 0.004079 -0.100000
v 0.304606 0.004079 0.100000
v 0.258047 0.019672 -0.100000
v 0.258047 0.019672 0.100000
v 0.215519 0.040630 -0.100000
v 0.215519 0.040630 0.100000
v 0.177226 0.066448 -0.100000
v 0.177226 0.066448 0.100000
v 0.143375 0.096625 -0.100000
v 0.143375 0.096625 0.100000
v 0.114170 0.130656 -0.100000
v 0.114170 0.130656 0.100000
v 0.089815 0.168037 -0.100000
v 0.089815 0.168037 0.100000
v 0.070516 0.208266 -0.100000
v 0.070516 0.208266 0.100000
v 0.056477 0.250838 -0.100000
v 0.056477 0.250838 0.100000
v 0.047903 0.295251 -0.100000
v 0.047903 0.295251 0.100000
v 0.045000 0.341000 -0.100000
v 0.045000 0.341000 0.100000
v 0.047981 0.387590 -0.100000
v 0.047981 0.387590 0.100000
v 0.056764 0.432551 -0.100000
v 0.056764 0.432551 0.100000
v 0.071109 0.475422 -0.100000
v 0.071109 0.475422 0.100000
v 0.090778 0.515741 -0.100000
v 0.090778 0.515741 0.100000
v 0.115530 0.553046 -0.100000
v 0.115530 0.553046 0.100000
v 0.145125 0.586875 -0.100000
v 0.145125 0.586875 0.100000
v 0.179325 0.616767 -0.100000
v 0.179325 0.616767 0.100000
v 0.217889 0.642259 -0.100000
v 0.217889 0.642259 0.100000
v 0.260578 0.662891 -0.100000
v 0.260578 0.662891 0.100000
v 0.307153 0.678199 -0.100000
v 0.307153 0.678199 0.100000
v 0.357373 0.687723 -0.100000
v 0.357373 0.687723 0.100000
v 0.411000 0.691000 -0.100000
v 0.411000 0.691000 0.100000
v 0.448374 0.083270 -0.100000
v 0.448374 0.083270 0.100000
v 0.483829 0.089912 -0.100000
v 0.483829 0.089912 0.100000
v 0.517109 0.100672 -0.100000
v 0.517109 0.100672 0.100000
v 0.547963 0.115296 -0.100000
v 0.547963 0.115296 0.100000
v 0.576136 0.133532 -0.100000
v 0.576136 0.133532 0.100000
v 0.601375 0.155125 -0.100000
v 0.601375 0.155125 0.100000
v 0.623427 0.179822 -0.100000
v 0.623427 0.179822 0.100000
v 0.642037 0.207370 -0.100000
v 0.642037 0.207370 0.100000
v 0.656953 0.237516 -0.100000
v 0.656953 0.237516 0.100000
v 0.667921 0.270005 -0.100000
v 0.667921 0.270005 0.100000
v 0.674688 0.304584 -0.100000
v 0.674688 0.304584 0.100000
v 0.677000 0.341000 -0.100000
v 0.677000 0.341000 0.100000
v 0.674688 0.377626 -0.100000
v 0.674688 0.377626 0.100000
v 0.667921 0.412343 -0.100000
v 0.667921 0.412343 0.100000
v 0.656953 0.444906 -0.100000
v 0.656953 0.444906 0.100000
v 0.642037 0.475074 -0.100000
v 0.642037 0.475074 0.100000
v 0.623427 0.502603 -0.100000
v 0.623427 0.502603 0.100000
v 0.601375 0.527250 -0.100000
v 0.601375 0.527250 0.100000
v 0.576136 0.548772 -0.100000
v 0.576136 0.548772 0.100000
v 0.547963 0.566926 -0.100000
v 0.547963 0.566926 0.100000
v 0.517109 0.581469 -0.100000
v 0.517109 0.581469 0.100000
v 0.483829 0.592157 -0.100000
v 0.483829 0.592157 0.100000
v 0.448374 0.598749 -0.100000
v 0.448374 0.598749 0.100000
v 0.411000 0.601000 -0.100000
v 0.411000 0.601000 0.100000
v 0.373855 0.598749 -0.100000
v 0.373855 0.598749 0.100000
v 0.338593 0.592157 -0.100000
v 0.338593 0.592157 0.100000
v 0.305469 0.581469 -0.100000
v 0.305469 0.581469 0.100000
v 0.274741 0.566926 -0.100000
v 0.274741 0.566926 0.100000
v 0.246666 0.548772 -0.100000
v 0.246666 0.548772 0.100000
v 0.221500 0.527250 -0.100000
v 0.221500 0.527250 0.100000
v 0.199501 0.502603 -0.100000
v 0.199501 0.502603 0.100000
v 0.180926 0.475074 -0.100000
v 0.180926 0.475074 0.100000
v 0.166031 0.444906 -0.100000
v 0.166031 0.444906 0.100000
v 0.155074 0.412343 -0.100000
v 0.155074 0.412343 0.100000
v 0.148311 0.377626 -0.100000
v 0.148311 0.377626 0.100000
v 0.146000 0.341000 -0.100000
v 0.146000 0.341000 0.100000
v 0.148311 0.304584 -0.100000
v 0.148311 0.304584 0.100000
v 0.155074 0.270005 -0.100000
v 0.155074 0.270005 0.100000
v 0.166031 0.237516 -0.100000
v 0.166031 0.237516 0.100000
v 0.180926 0.207370 -0.100000
v 0.180926 0.207370 0.100000
v 0.199501 0.179822 -0.100000
v 0.199501 0.179822 0.100000
v 0.221500 0.155125 -0.100000
v 0.221500 0.155125 0.100000
v 0.246666 0.133532 -0.100000
v 0.246666 0.133532 0.100000
v 0.274741 0.115296 -0.100000
v 0.274741 0.115296 0.100000
v 0.305469 0.100672 -0.100000
v 0.305469 0.100672 0.100000
v 0.338593 0.089912 -0.100000
v 0.338593 0.089912 0.100000
v 0.373855 0.083270 -0.100000
v 0.373855 0.083270 0.100000
v 0.411000 0.081000 -0.100000
v 0.411000 0.081000 0.100000
vn 0.000000 0.000000 1.000000
vn 0.183242 0.983068 0.000000
vn 0.308660 0.951172 0.000000
vn 0.432153 0.901800 0.000000
vn 0.549813 0.835288 0.000000
vn 0.658051 0.752973 0.000000
vn 0.753924 0.656961 0.000000
vn 0.835293 0.549806 0.000000
vn 0.900815 0.434203 0.000000
vn 0.949820 0.312796 0.000000
vn 0.982155 0.188075 0.000000
vn 0.998054 0.062362 0.000000
vn 0.998049 -0.062439 0.000000
vn 0.982301 -0.187311 0.000000
vn 0.950583 -0.310470 0.000000
vn 0.902723 -0.430222 0.000000
vn 0.838688 -0.544612 0.000000
vn 0.758784 -0.651342 0.000000
vn 0.663938 -0.747788 0.000000
vn 0.555955 -0.831212 0.000000
vn 0.437659 -0.899141 0.000000
vn 0.312784 -0.949824 0.000000
vn 0.185597 -0.982626 0.000000
vn 0.060347 -0.998177 0.000000
vn -0.061975 -0.998078 0.000000
vn -0.189515 -0.981878 0.000000
vn -0.317571 -0.948234 0.000000
vn -0.442036 -0.896998 0.000000
vn -0.559050 -0.829134 0.000000
vn -0.665429 -0.746462 0.000000
vn -0.758857 -0.651258 0.000000
vn -0.837861 -0.545884 0.000000
vn -0.901615 -0.432539 0.000000
vn -0.949696 -0.313174 0.000000
vn -0.981872 -0.189543 0.000000
vn -0.997992 -0.063335 0.000000
vn -0.997959 0.063851 0.000000
vn -0.981449 0.191722 0.000000
vn -0.948317 0.317326 0.000000
vn -0.898763 0.438436 0.000000
vn -0.833267 0.552870 0.000000
vn -0.752633 0.658440 0.000000
vn -0.658094 0.752936 0.000000
vn -0.551446 0.834210 0.000000
vn -0.435139 0.900363 0.000000
vn -0.312252 0.949999 0.000000
vn -0.186318 0.982489 0.000000
vn -0.060997 0.998138 0.000000
vn 0.059690 0.998217 0.000000
vn -0.184131 0.982902 0.000000
vn -0.307628 0.951507 0.000000
vn -0.428315 0.903629 0.000000
vn -0.543376 0.839490 0.000000
vn -0.650092 0.759856 0.000000
vn -0.745933 0.666021 0.000000
vn -0.828631 0.559795 0.000000
vn -0.896281 0.443486 0.000000
vn -0.947464 0.319862 0.000000
vn -0.981386 0.192045 0.000000
vn -0.997991 0.063359 0.000000
vn -0.998014 -0.062997 0.000000
vn -0.981529 -0.191314 0.000000
vn -0.947686 -0.319203 0.000000
vn -0.896413 -0.443219 0.000000
vn -0.828451 -0.560062 0.000000
vn -0.745256 -0.666778 0.000000
vn -0.648852 -0.760915 0.000000
vn -0.541659 -0.840598 0.000000
vn -0.426361 -0.904553 0.000000
vn -0.305784 -0.952101 0.000000
vn -0.182782 -0.983154 0.000000
vn -0.060123 -0.998191 0.000000
vn 0.060494 -0.998169 0.000000
vn 0.183741 -0.982975 0.000000
vn 0.307095 -0.951679 0.000000
vn 0.427785 -0.903881 0.000000
vn 0.542991 -0.839739 0.000000
vn 0.649947 -0.759979 0.000000
vn 0.746048 -0.665892 0.000000
vn 0.828944 -0.559332 0.000000
vn 0.896666 -0.442708 0.000000
vn 0.947783 -0.318915 0.000000
vn 0.981550 -0.191205 0.000000
vn 0.998015 -0.062981 0.000000
vn 0.997992 0.063343 0.000000
vn 0.981408 0.191935 0.000000
vn 0.947562 0.319573 0.000000
vn 0.896534 0.442975 0.000000
vn 0.829123 0.559066 0.000000
vn 0.746724 0.665135 0.000000
vn 0.651187 0.758918 0.000000
vn 0.544707 0.838626 0.000000
vn 0.429743 0.902951 0.000000
vn 0.308946 0.951080 0.000000
vn 0.185097 0.982720 0.000000
vn 0.061005 0.998137 0.000000
vn -0.060632 0.998160 0.000000
usemtl (null)
s off
f 47//1 1//1 48//1
f 2//1 1//1 47//1
f 46//1 2//1 47//1
f 46//1 3//1 2//1
f 45//1 3//1 46//1
f 45//1 4//1 3//1
f 44//1 4//1 45//1
f 44//1 5//1 4//1
f 43//1 5//1 44//1
f 43//1 6//1 5//1
f 42//1 72//1 43//1
f 72//1 6//1 43//1
f 42//1 73//1 72//1
f 71//1 6//1 72//1
f 42//1 74//1 73//1
f 70//1 6//1 71//1
f 42//1 75//1 74//1
f 69//1 6//1 70//1
f 69//1 7//1 6//1
f 41//1 75//1 42//1
f 41//1 76//1 75//1
f 68//1 7//1 69//1
f 41//1 77//1 76//1
f 67//1 7//1 68//1
f 67//1 8//1 7//1
f 40//1 77//1 41//1
f 40//1 78//1 77//1
f 66//1 8//1 67//1
f 40//1 79//1 78//1
f 65//1 8//1 66//1
f 65//1 9//1 8//1
f 39//1 79//1 40//1
f 39//1 80//1 79//1
f 64//1 9//1 65//1
f 64//1 10//1 9//1
f 38//1 80//1 39//1
f 38//1 81//1 80//1
f 63//1 10//1 64//1
f 38//1 82//1 81//1
f 62//1 10//1 63//1
f 62//1 11//1 10//1
f 37//1 82//1 38//1
f 37//1 83//1 82//1
f 61//1 11//1 62//1
f 61//1 12//1 11//1
f 36//1 83//1 37//1
f 36//1 84//1 83//1
f 60//1 12//1 61//1
f 35//1 84//1 36//1
f 35//1 85//1 84//1
f 59//1 12//1 60//1
f 59//1 13//1 12//1
f 35//1 86//1 85//1
f 58//1 13//1 59//1
f 58//1 14//1 13//1
f 34//1 86//1 35//1
f 34//1 87//1 86//1
f 57//1 14//1 58//1
f 57//1 15//1 14//1
f 33//1 87//1 34//1
f 33//1 88//1 87//1
f 56//1 15//1 57//1
f 56//1 16//1 15//1
f 32//1 88//1 33//1
f 32//1 89//1 88//1
f 55//1 16//1 56//1
f 32//1 90//1 89//1
f 54//1 16//1 55//1
f 54//1 17//1 16//1
f 31//1 90//1 32//1
f 31//1 91//1 90//1
f 53//1 17//1 54//1
f 31//1 92//1 91//1
f 52//1 17//1 53//1
f 52//1 18//1 17//1
f 30//1 92//1 31//1
f 30//1 93//1 92//1
f 51//1 18//1 52//1
f 30//1 94//1 93//1
f 50//1 18//1 51//1
f 50//1 19//1 18//1
f 29//1 94//1 30//1
f 29//1 95//1 94//1
f 49//1 19//1 50//1
f 29//1 96//1 95//1
f 96//1 19//1 49//1
f 29//1 19//1 96//1
f 29//1 20//1 19//1
f 28//1 20//1 29//1
f 28//1 21//1 20//1
f 27//1 21//1 28//1
f 27//1 22//1 21//1
f 26//1 22//1 27//1
f 26//1 23//1 22//1
f 25//1 23//1 26//1
f 25//1 24//1 23//1
f 143//1 97//1 144//1
f 143//1 98//1 97//1
f 142//1 98//1 143//1
f 142//1 99//1 98//1
f 141//1 99//1 142//1
f 141//1 100//1 99//1
f 140//1 100//1 141//1
f 140//1 101//1 100//1
f 139//1 101//1 140//1
f 139//1 102//1 101//1
f 138//1 168//1 139//1
f 168//1 102//1 139//1
f 138//1 169//1 168//1
f 167//1 102//1 168//1
f 138//1 170//1 169//1
f 166//1 102//1 167//1
f 138//1 171//1 170//1
f 165//1 102//1 166//1
f 165//1 103//1 102//1
f 137//1 171//1 138//1
f 137//1 172//1 171//1
f 164//1 103//1 165//1
f 137//1 173//1 172//1
f 163//1 103//1 164//1
f 163//1 104//1 103//1
f 136//1 173//1 137//1
f 136//1 174//1 173//1
f 162//1 104//1 163//1
f 136//1 175//1 174//1
f 161//1 104//1 162//1
f 161//1 105//1 104//1
f 135//1 175//1 136//1
f 135//1 176//1 175//1
f 160//1 105//1 161//1
f 160//1 106//1 105//1
f 134//1 176//1 135//1
f 134//1 177//1 176//1
f 159//1 106//1 160//1
f 134//1 178//1 177//1
f 158//1 106//1 159//1
f 158//1 107//1 106//1
f 133//1 178//1 134//1
f 133//1 179//1 178//1
f 157//1 107//1 158//1
f 157//1 108//1 107//1
f 132//1 179//1 133//1
f 132//1 180//1 179//1
f 156//1 108//1 157//1
f 131//1 180//1 132//1
f 131//1 181//1 180//1
f 155//1 108//1 156//1
f 155//1 109//1 108//1
f 131//1 182//1 181//1
f 154//1 109//1 155//1
f 154//1 110//1 109//1
f 130//1 182//1 131//1
f 130//1 183//1 182//1
f 153//1 110//1 154//1
f 153//1 111//1 110//1
f 129//1 183//1 130//1
f 129//1 184//1 183//1
f 152//1 111//1 153//1
f 152//1 112//1 111//1
f 128//1 184//1 129//1
f 128//1 185//1 184//1
f 151//1 112//1 152//1
f 128//1 186//1 185//1
f 150//1 112//1 151//1
f 150//1 113//1 112//1
f 127//1 186//1 128//1
f 127//1 187//1 186//1
f 149//1 113//1 150//1
f 127//1 188//1 187//1
f 148//1 113//1 149//1
f 148//1 114//1 113//1
f 126//1 188//1 127//1
f 126//1 189//1 188//1
f 147//1 114//1 148//1
f 126//1 190//1 189//1
f 146//1 114//1 147//1
f 146//1 115//1 114//1
f 125//1 190//1 126//1
f 125//1 191//1 190//1
f 145//1 115//1 146//1
f 125//1 192//1 191//1
f 192//1 115//1 145//1
f 125//1 115//1 192//1
f 125//1 116//1 115//1
f 124//1 116//1 125//1
f 124//1 117//1 116//1
f 123//1 117//1 124//1
f 123//1 118//1 117//1
f 122//1 118//1 123//1
f 122//1 119//1 118//1
f 121//1 119//1 122//1
f 121//1 120//1 119//1
f 194//2 196//2 195//2 193//2
f 196//3 198//3 197//3 195//3
f 198//4 200//4 199//4 197//4
f 200//5 202//5 201//5 199//5
f 202//6 204//6 203//6 201//6
f 204//7 206//7 205//7 203//7
f 206//8 208//8 207//8 205//8
f 208//9 210//9 209//9 207//9
f 210//10 212//10 211//10 209//10
f 212//11 214//11 213//11 211//11
f 214//12 216//12 215//12 213//12
f 216//13 218//13 217//13 215//13
f 218//14 220//14 219//14 217//14
f 220//15 222//15 221//15 219//15
f 222//16 224//16 223//16 221//16
f 224//17 226//17 225//17 223//17
f 226//18 228//18 227//18 225//18
f 228//19 230//19 229//19 227//19
f 230//20 232//20 231//20 229//20
f 232//21 234//21 233//21 231//21
f 234//22 236//22 235//22 233//22
f 236//23 238//23 237//23 235//23
f 238//24 240//24 239//24 237//24
f 240//25 242//25 241//25 239//25
f 242//26 244//26 243//26 241//26
f 244//27 246//27 245//27 243//27
f 246//28 248//28 247//28 245//28
f 248//29 250//29 249//29 247//29
f 250//30 252//30 251//30 249//30
f 252//31 254//31 253//31 251//31
f 254//32 256//32 255//32 253//32
f 256//33 258//33 257//33 255//33
f 258//34 260//34 259//34 257//34
f 260//35 262//35 261//35 259//35
f 262//36 264//36 263//36 261//36
f 264//37 266//37 265//37 263//37
f 266//38 268//38 267//38 265//38
f 268//39 270//39 269//39 267//39
f 270//40 272//40 271//40 269//40
f 272//41 274//41 273//41 271//41
f 274//42 276//42 275//42 273//42
f 276//43 278//43 277//43 275//43
f 278//44 280//44 279//44 277//44
f 280//45 282//45 281//45 279//45
f 282//46 284//46 283//46 281//46
f 284//47 286//47 285//47 283//47
f 286//48 288//48 287//48 285//48
f 288//49 194//49 193//49 287//49
f 290//50 292//50 291//50 289//50
f 292//51 294//51 293//51 291//51
f 294//52 296//52 295//52 293//52
f 296//53 298//53 297//53 295//53
f 298//54 300//54 299//54 297//54
f 300//55 302//55 301//55 299//55
f 302//56 304//56 303//56 301//56
f 304//57 306//57 305//57 303//57
f 306//58 308//58 307//58 305//58
f 308//59 310//59 309//59 307//59
f 310//60 312//60 311//60 309//60
f 312//61 314//61 313//61 311//61
f 314//62 316//62 315//62 313//62
f 316//63 318//63 317//63 315//63
f 318//64 320//64 319//64 317//64
f 320//65 322//65 321//65 319//65
f 322//66 324//66 323//66 321//66
f 324//67 326//67 325//67 323//67
f 326//68 328//68 327//68 325//68
f 328//69 330//69 329//69 327//69
f 330//70 332//70 331//70 329//70
f 332//71 334//71 333//71 331//71
f 334//72 336//72 335//72 333//72
f 336//73 338//73 337//73 335//73
f 338//74 340//74 339//74 337//74
f 340//75 342//75 341//75 339//75
f 342//76 344//76 343//76 341//76
f 344//77 346//77 345//77 343//77
f 346//78 348//78 347//78 345//78
f 348//79 350//79 349//79 347//79
f 350//80 352//80 351//80 349//80
f 352//81 354//81 353//81 351//81
f 354//82 356//82 355//82 353//82
f 356//83 358//83 357//83 355//83
f 358//84 360//84 359//84 357//84
f 360//85 362//85 361//85 359//85
f 362//86 364//86 363//86 361//86
f 364//87 366//87 365//87 363//87
f 366//88 368//88 367//88 365//88
f 368//89 370//89 369//89 367//89
f 370//90 372//90 371//90 369//90
f 372//91 374//91 373//91 371//91
f 374//92 376//92 375//92 373//92
f 376//93 378//93 377//93 375//93
f 378//94 380//94 379//94 377//94
f 380//95 382//95 381//95 379//95
f 382//96 384//96 383//96 381//96
f 384//97 290//97 289//97 383//97
