# Blender3D v249 OBJ File: 
# www.blender3d.org
mtllib 17.mtl
v 0.282397 0.680495 0.100000
v 0.313509 0.676046 0.100000
v 0.342219 0.668750 0.100000
v 0.368407 0.658704 0.100000
v 0.391957 0.646005 0.100000
v 0.412750 0.630750 0.100000
v 0.430668 0.613037 0.100000
v 0.445593 0.592963 0.100000
v 0.457406 0.570625 0.100000
v 0.465991 0.546120 0.100000
v 0.471228 0.519546 0.100000
v 0.473000 0.491000 0.100000
v 0.472151 0.471672 0.100000
v 0.469625 0.453213 0.100000
v 0.465453 0.435656 0.100000
v 0.459667 0.419037 0.100000
v 0.452297 0.403390 0.100000
v 0.443375 0.388750 0.100000
v 0.432932 0.375152 0.100000
v 0.421000 0.362630 0.100000
v 0.407609 0.351219 0.100000
v 0.392792 0.340954 0.100000
v 0.376578 0.331869 0.100000
v 0.359000 0.324000 0.100000
v 0.374022 0.313292 0.100000
v 0.388176 0.301667 0.100000
v 0.401594 0.289125 0.100000
v 0.414407 0.275667 0.100000
v 0.426749 0.261292 0.100000
v 0.438750 0.246000 0.100000
v 0.450543 0.229792 0.100000
v 0.462259 0.212667 0.100000
v 0.474031 0.194625 0.100000
v 0.485991 0.175667 0.100000
v 0.498270 0.155792 0.100000
v 0.511000 0.135000 0.100000
v 0.518024 0.123712 0.100000
v 0.524695 0.113194 0.100000
v 0.531156 0.103219 0.100000
v 0.537556 0.093556 0.100000
v 0.544038 0.083976 0.100000
v 0.550750 0.074250 0.100000
v 0.557837 0.064149 0.100000
v 0.565444 0.053444 0.100000
v 0.573719 0.041906 0.100000
v 0.582806 0.029306 0.100000
v 0.592851 0.015413 0.100000
v 0.604000 0.000000 0.100000
v 0.487000 0.000000 0.100000
v 0.397000 0.140000 0.100000
v 0.375487 0.172479 0.100000
v 0.355815 0.200167 0.100000
v 0.337781 0.223438 0.100000
v 0.321185 0.242667 0.100000
v 0.305825 0.258229 0.100000
v 0.291500 0.270500 0.100000
v 0.278008 0.279854 0.100000
v 0.265148 0.286667 0.100000
v 0.252719 0.291313 0.100000
v 0.240519 0.294167 0.100000
v 0.228346 0.295604 0.100000
v 0.216000 0.296000 0.100000
v 0.175000 0.296000 0.100000
v 0.175000 0.000000 0.100000
v 0.077000 0.000000 0.100000
v 0.077000 0.682000 0.100000
v 0.249000 0.682000 0.100000
v 0.238000 0.384000 0.100000
v 0.262713 0.385095 0.100000
v 0.284454 0.388264 0.100000
v 0.303375 0.393328 0.100000
v 0.319630 0.400111 0.100000
v 0.333370 0.408436 0.100000
v 0.344750 0.418125 0.100000
v 0.353921 0.429002 0.100000
v 0.361037 0.440889 0.100000
v 0.366250 0.453609 0.100000
v 0.369713 0.466986 0.100000
v 0.371579 0.480842 0.100000
v 0.372000 0.495000 0.100000
v 0.370968 0.510471 0.100000
v 0.368324 0.524852 0.100000
v 0.364000 0.538094 0.100000
v 0.357926 0.550148 0.100000
v 0.350032 0.560966 0.100000
v 0.340250 0.570500 0.100000
v 0.328509 0.578700 0.100000
v 0.314741 0.585519 0.100000
v 0.298875 0.590906 0.100000
v 0.280843 0.594815 0.100000
v 0.260574 0.597196 0.100000
v 0.238000 0.598000 0.100000
v 0.175000 0.598000 0.100000
v 0.175000 0.384000 0.100000
v 0.282397 0.680495 -0.100000
v 0.313509 0.676046 -0.100000
v 0.342219 0.668750 -0.100000
v 0.368407 0.658704 -0.100000
v 0.391957 0.646005 -0.100000
v 0.412750 0.630750 -0.100000
v 0.430668 0.613037 -0.100000
v 0.445593 0.592963 -0.100000
v 0.457406 0.570625 -0.100000
v 0.465991 0.546120 -0.100000
v 0.471228 0.519546 -0.100000
v 0.473000 0.491000 -0.100000
v 0.472151 0.471672 -0.100000
v 0.469625 0.453213 -0.100000
v 0.465453 0.435656 -0.100000
v 0.459667 0.419037 -0.100000
v 0.452297 0.403390 -0.100000
v 0.443375 0.388750 -0.100000
v 0.432932 0.375152 -0.100000
v 0.421000 0.362630 -0.100000
v 0.407609 0.351219 -0.100000
v 0.392792 0.340954 -0.100000
v 0.376578 0.331869 -0.100000
v 0.359000 0.324000 -0.100000
v 0.374022 0.313292 -0.100000
v 0.388176 0.301667 -0.100000
v 0.401594 0.289125 -0.100000
v 0.414407 0.275667 -0.100000
v 0.426749 0.261292 -0.100000
v 0.438750 0.246000 -0.100000
v 0.450543 0.229792 -0.100000
v 0.462259 0.212667 -0.100000
v 0.474031 0.194625 -0.100000
v 0.485991 0.175667 -0.100000
v 0.498270 0.155792 -0.100000
v 0.511000 0.135000 -0.100000
v 0.518024 0.123712 -0.100000
v 0.524695 0.113194 -0.100000
v 0.531156 0.103219 -0.100000
v 0.537556 0.093556 -0.100000
v 0.544038 0.083976 -0.100000
v 0.550750 0.074250 -0.100000
v 0.557837 0.064149 -0.100000
v 0.565444 0.053444 -0.100000
v 0.573719 0.041906 -0.100000
v 0.582806 0.029306 -0.100000
v 0.592851 0.015413 -0.100000
v 0.604000 0.000000 -0.100000
v 0.487000 0.000000 -0.100000
v 0.397000 0.140000 -0.100000
v 0.375487 0.172479 -0.100000
v 0.355815 0.200167 -0.100000
v 0.337781 0.223438 -0.100000
v 0.321185 0.242667 -0.100000
v 0.305825 0.258229 -0.100000
v 0.291500 0.270500 -0.100000
v 0.278008 0.279854 -0.100000
v 0.265148 0.286667 -0.100000
v 0.252719 0.291313 -0.100000
v 0.240519 0.294167 -0.100000
v 0.228346 0.295604 -0.100000
v 0.216000 0.296000 -0.100000
v 0.175000 0.296000 -0.100000
v 0.175000 0.000000 -0.100000
v 0.077000 0.000000 -0.100000
v 0.077000 0.682000 -0.100000
v 0.249000 0.682000 -0.100000
v 0.238000 0.384000 -0.100000
v 0.262713 0.385095 -0.100000
v 0.284454 0.388264 -0.100000
v 0.303375 0.393328 -0.100000
v 0.319630 0.400111 -0.100000
v 0.333370 0.408436 -0.100000
v 0.344750 0.418125 -0.100000
v 0.353921 0.429002 -0.100000
v 0.361037 0.440889 -0.100000
v 0.366250 0.453609 -0.100000
v 0.369713 0.466986 -0.100000
v 0.371579 0.480842 -0.100000
v 0.372000 0.495000 -0.100000
v 0.370968 0.510471 -0.100000
v 0.368324 0.524852 -0.100000
v 0.364000 0.538094 -0.100000
v 0.357926 0.550148 -0.100000
v 0.350032 0.560966 -0.100000
v 0.340250 0.570500 -0.100000
v 0.328509 0.578700 -0.100000
v 0.314741 0.585519 -0.100000
v 0.298875 0.590906 -0.100000
v 0.280843 0.594815 -0.100000
v 0.260574 0.597196 -0.100000
v 0.238000 0.598000 -0.100000
v 0.175000 0.598000 -0.100000
v 0.175000 0.384000 -0.100000
v 0.282397 0.680495 -0.100000
v 0.282397 0.680495 0.100000
v 0.313509 0.676046 -0.100000
v 0.313509 0.676046 0.100000
v 0.342219 0.668750 -0.100000
v 0.342219 0.668750 0.100000
v 0.368407 0.658704 -0.100000
v 0.368407 0.658704 0.100000
v 0.391957 0.646005 -0.100000
v 0.391957 0.646005 0.100000
v 0.412750 0.630750 -0.100000
v 0.412750 0.630750 0.100000
v 0.430668 0.613037 -0.100000
v 0.430668 0.613037 0.100000
v 0.445593 0.592963 -0.100000
v 0.445593 0.592963 0.100000
v 0.457406 0.570625 -0.100000
v 0.457406 0.570625 0.100000
v 0.465991 0.546120 -0.100000
v 0.465991 0.546120 0.100000
v 0.471228 0.519546 -0.100000
v 0.471228 0.519546 0.100000
v 0.473000 0.491000 -0.100000
v 0.473000 0.491000 0.100000
v 0.472151 0.471672 -0.100000
v 0.472151 0.471672 0.100000
v 0.469625 0.453213 -0.100000
v 0.469625 0.453213 0.100000
v 0.465453 0.435656 -0.100000
v 0.465453 0.435656 0.100000
v 0.459667 0.419037 -0.100000
v 0.459667 0.419037 0.100000
v 0.452297 0.403390 -0.100000
v 0.452297 0.403390 0.100000
v 0.443375 0.388750 -0.100000
v 0.443375 0.388750 0.100000
v 0.432932 0.375152 -0.100000
v 0.432932 0.375152 0.100000
v 0.421000 0.362630 -0.100000
v 0.421000 0.362630 0.100000
v 0.407609 0.351219 -0.100000
v 0.407609 0.351219 0.100000
v 0.392792 0.340954 -0.100000
v 0.392792 0.340954 0.100000
v 0.376578 0.331869 -0.100000
v 0.376578 0.331869 0.100000
v 0.359000 0.324000 -0.100000
v 0.359000 0.324000 0.100000
v 0.374022 0.313292 -0.100000
v 0.374022 0.313292 0.100000
v 0.388176 0.301667 -0.100000
v 0.388176 0.301667 0.100000
v 0.401594 0.289125 -0.100000
v 0.401594 0.289125 0.100000
v 0.414407 0.275667 -0.100000
v 0.414407 0.275667 0.100000
v 0.426749 0.261292 -0.100000
v 0.426749 0.261292 0.100000
v 0.438750 0.246000 -0.100000
v 0.438750 0.246000 0.100000
v 0.450543 0.229792 -0.100000
v 0.450543 0.229792 0.100000
v 0.462259 0.212667 -0.100000
v 0.462259 0.212667 0.100000
v 0.474031 0.194625 -0.100000
v 0.474031 0.194625 0.100000
v 0.485991 0.175667 -0.100000
v 0.485991 0.175667 0.100000
v 0.498270 0.155792 -0.100000
v 0.498270 0.155792 0.100000
v 0.511000 0.135000 -0.100000
v 0.511000 0.135000 0.100000
v 0.518024 0.123712 -0.100000
v 0.518024 0.123712 0.100000
v 0.524695 0.113194 -0.100000
v 0.524695 0.113194 0.100000
v 0.531156 0.103219 -0.100000
v 0.531156 0.103219 0.100000
v 0.537556 0.093556 -0.100000
v 0.537556 0.093556 0.100000
v 0.544038 0.083976 -0.100000
v 0.544038 0.083976 0.100000
v 0.550750 0.074250 -0.100000
v 0.550750 0.074250 0.100000
v 0.557837 0.064149 -0.100000
v 0.557837 0.064149 0.100000
v 0.565444 0.053444 -0.100000
v 0.565444 0.053444 0.100000
v 0.573719 0.041906 -0.100000
v 0.573719 0.041906 0.100000
v 0.582806 0.029306 -0.100000
v 0.582806 0.029306 0.100000
v 0.592851 0.015413 -0.100000
v 0.592851 0.015413 0.100000
v 0.604000 0.000000 -0.100000
v 0.604000 0.000000 0.100000
v 0.487000 0.000000 -0.100000
v 0.487000 0.000000 0.100000
v 0.397000 0.140000 -0.100000
v 0.397000 0.140000 0.100000
v 0.375487 0.172479 -0.100000
v 0.375487 0.172479 0.100000
v 0.355815 0.200167 -0.100000
v 0.355815 0.200167 0.100000
v 0.337781 0.223438 -0.100000
v 0.337781 0.223438 0.100000
v 0.321185 0.242667 -0.100000
v 0.321185 0.242667 0.100000
v 0.305825 0.258229 -0.100000
v 0.305825 0.258229 0.100000
v 0.291500 0.270500 -0.100000
v 0.291500 0.270500 0.100000
v 0.278008 0.279854 -0.100000
v 0.278008 0.279854 0.100000
v 0.265148 0.286667 -0.100000
v 0.265148 0.286667 0.100000
v 0.252719 0.291313 -0.100000
v 0.252719 0.291313 0.100000
v 0.240519 0.294167 -0.100000
v 0.240519 0.294167 0.100000
v 0.228346 0.295604 -0.100000
v 0.228346 0.295604 0.100000
v 0.216000 0.296000 -0.100000
v 0.216000 0.296000 0.100000
v 0.175000 0.296000 -0.100000
v 0.175000 0.296000 0.100000
v 0.175000 0.000000 -0.100000
v 0.175000 0.000000 0.100000
v 0.077000 0.000000 -0.100000
v 0.077000 0.000000 0.100000
v 0.077000 0.682000 -0.100000
v 0.077000 0.682000 0.100000
v 0.249000 0.682000 -0.100000
v 0.249000 0.682000 0.100000
v 0.238000 0.384000 -0.100000
v 0.238000 0.384000 0.100000
v 0.262713 0.385095 -0.100000
v 0.262713 0.385095 0.100000
v 0.284454 0.388264 -0.100000
v 0.284454 0.388264 0.100000
v 0.303375 0.393328 -0.100000
v 0.303375 0.393328 0.100000
v 0.319630 0.400111 -0.100000
v 0.319630 0.400111 0.100000
v 0.333370 0.408436 -0.100000
v 0.333370 0.408436 0.100000
v 0.344750 0.418125 -0.100000
v 0.344750 0.418125 0.100000
v 0.353921 0.429002 -0.100000
v 0.353921 0.429002 0.100000
v 0.361037 0.440889 -0.100000
v 0.361037 0.440889 0.100000
v 0.366250 0.453609 -0.100000
v 0.366250 0.453609 0.100000
v 0.369713 0.466986 -0.100000
v 0.369713 0.466986 0.100000
v 0.371579 0.480842 -0.100000
v 0.371579 0.480842 0.100000
v 0.372000 0.495000 -0.100000
v 0.372000 0.495000 0.100000
v 0.370968 0.510471 -0.100000
v 0.370968 0.510471 0.100000
v 0.368324 0.524852 -0.100000
v 0.368324 0.524852 0.100000
v 0.364000 0.538094 -0.100000
v 0.364000 0.538094 0.100000
v 0.357926 0.550148 -0.100000
v 0.357926 0.550148 0.100000
v 0.350032 0.560966 -0.100000
v 0.350032 0.560966 0.100000
v 0.340250 0.570500 -0.100000
v 0.340250 0.570500 0.100000
v 0.328509 0.578700 -0.100000
v 0.328509 0.578700 0.100000
v 0.314741 0.585519 -0.100000
v 0.314741 0.585519 0.100000
v 0.298875 0.590906 -0.100000
v 0.298875 0.590906 0.100000
v 0.280843 0.594815 -0.100000
v 0.280843 0.594815 0.100000
v 0.260574 0.597196 -0.100000
v 0.260574 0.597196 0.100000
v 0.238000 0.598000 -0.100000
v 0.238000 0.598000 0.100000
v 0.175000 0.598000 -0.100000
v 0.175000 0.598000 0.100000
v 0.175000 0.384000 -0.100000
v 0.175000 0.384000 0.100000
vn 0.000000 0.000000 1.000000
vn 0.141560 0.989930 0.000000
vn 0.246311 0.969191 0.000000
vn 0.358163 0.933659 0.000000
vn 0.474634 0.880183 0.000000
vn 0.591529 0.806284 0.000000
vn 0.703030 0.711160 0.000000
vn 0.802503 0.596649 0.000000
vn 0.883989 0.467507 0.000000
vn 0.943764 0.330620 0.000000
vn 0.981127 0.193363 0.000000
vn 0.998079 0.061955 0.000000
vn 0.999037 -0.043882 0.000000
vn 0.990767 -0.135579 0.000000
vn 0.972910 -0.231186 0.000000
vn 0.944394 -0.328817 0.000000
vn 0.904673 -0.426106 0.000000
vn 0.853926 -0.520395 0.000000
vn 0.793120 -0.609066 0.000000
vn 0.723947 -0.689856 0.000000
vn 0.648601 -0.761129 0.000000
vn 0.569459 -0.822020 0.000000
vn 0.488805 -0.872393 0.000000
vn 0.408596 -0.912715 0.000000
vn 0.580461 0.814288 0.000000
vn 0.634691 0.772766 0.000000
vn 0.682852 0.730556 0.000000
vn 0.724240 0.689548 0.000000
vn 0.758734 0.651400 0.000000
vn 0.786661 0.617385 0.000000
vn 0.808618 0.588333 0.000000
vn 0.825323 0.564661 0.000000
vn 0.837490 0.546452 0.000000
vn 0.845775 0.533540 0.000000
vn 0.850737 0.525592 0.000000
vn 0.852838 0.522176 0.000000
vn 0.849039 0.528330 0.000000
vn 0.844486 0.535578 0.000000
vn 0.839304 0.543663 0.000000
vn 0.833753 0.552138 0.000000
vn 0.828196 0.560438 0.000000
vn 0.823039 0.567985 0.000000
vn 0.818610 0.574350 0.000000
vn 0.815125 0.579286 0.000000
vn 0.812641 0.582764 0.000000
vn 0.811098 0.584910 0.000000
vn 0.810352 0.585943 0.000000
vn 0.810242 0.586096 0.000000
vn 0.000000 -1.000000 0.000000
vn -0.841178 -0.540758 0.000000
vn -0.833706 -0.552209 0.000000
vn -0.815184 -0.579202 0.000000
vn -0.790437 -0.612543 0.000000
vn -0.757036 -0.653373 0.000000
vn -0.711723 -0.702460 0.000000
vn -0.650549 -0.759464 0.000000
vn -0.569771 -0.821804 0.000000
vn -0.468117 -0.883666 0.000000
vn -0.350121 -0.936705 0.000000
vn -0.227793 -0.973709 0.000000
vn -0.117278 -0.993099 0.000000
vn -0.032045 -0.999486 0.000000
vn 1.000000 0.000000 0.000000
vn -1.000000 0.000000 0.000000
vn 0.000000 1.000000 0.000000
vn 0.045008 0.998987 0.000000
vn -0.044284 0.999019 0.000000
vn -0.144212 0.989547 0.000000
vn -0.258548 0.965998 0.000000
vn -0.385109 0.922871 0.000000
vn -0.518162 0.855283 0.000000
vn -0.648291 0.761392 0.000000
vn -0.764497 0.644627 0.000000
vn -0.858020 0.513616 0.000000
vn -0.925314 0.379201 0.000000
vn -0.968086 0.250618 0.000000
vn -0.991056 0.133449 0.000000
vn -0.999558 0.029743 0.000000
vn -0.997781 -0.066584 0.000000
vn -0.983521 -0.180793 0.000000
vn -0.950602 -0.310413 0.000000
vn -0.893034 -0.449990 0.000000
vn -0.807823 -0.589425 0.000000
vn -0.697938 -0.716158 0.000000
vn -0.572605 -0.819832 0.000000
vn -0.443775 -0.896138 0.000000
vn -0.321551 -0.946892 0.000000
vn -0.211831 -0.977306 0.000000
vn -0.116660 -0.993172 0.000000
vn -0.035612 -0.999366 0.000000
usemtl (null)
s off
f 65//1 93//1 66//1
f 93//1 67//1 66//1
f 93//1 1//1 67//1
f 2//1 1//1 93//1
f 93//1 3//1 2//1
f 93//1 4//1 3//1
f 93//1 5//1 4//1
f 93//1 6//1 5//1
f 93//1 7//1 6//1
f 93//1 92//1 7//1
f 92//1 8//1 7//1
f 65//1 94//1 93//1
f 91//1 8//1 92//1
f 90//1 8//1 91//1
f 89//1 8//1 90//1
f 89//1 9//1 8//1
f 88//1 9//1 89//1
f 87//1 9//1 88//1
f 86//1 9//1 87//1
f 86//1 10//1 9//1
f 85//1 10//1 86//1
f 84//1 10//1 85//1
f 83//1 10//1 84//1
f 83//1 11//1 10//1
f 82//1 11//1 83//1
f 81//1 11//1 82//1
f 81//1 12//1 11//1
f 80//1 12//1 81//1
f 79//1 12//1 80//1
f 79//1 13//1 12//1
f 78//1 13//1 79//1
f 78//1 14//1 13//1
f 77//1 14//1 78//1
f 76//1 14//1 77//1
f 76//1 15//1 14//1
f 75//1 15//1 76//1
f 75//1 16//1 15//1
f 74//1 16//1 75//1
f 74//1 17//1 16//1
f 73//1 17//1 74//1
f 72//1 17//1 73//1
f 72//1 18//1 17//1
f 71//1 18//1 72//1
f 70//1 18//1 71//1
f 70//1 19//1 18//1
f 69//1 19//1 70//1
f 68//1 19//1 69//1
f 65//1 63//1 94//1
f 63//1 68//1 94//1
f 63//1 19//1 68//1
f 63//1 20//1 19//1
f 63//1 21//1 20//1
f 63//1 22//1 21//1
f 63//1 23//1 22//1
f 63//1 24//1 23//1
f 63//1 25//1 24//1
f 63//1 26//1 25//1
f 63//1 62//1 26//1
f 62//1 61//1 26//1
f 61//1 27//1 26//1
f 65//1 64//1 63//1
f 60//1 27//1 61//1
f 59//1 27//1 60//1
f 58//1 27//1 59//1
f 58//1 28//1 27//1
f 57//1 28//1 58//1
f 56//1 28//1 57//1
f 56//1 29//1 28//1
f 55//1 29//1 56//1
f 55//1 30//1 29//1
f 54//1 30//1 55//1
f 54//1 31//1 30//1
f 53//1 31//1 54//1
f 53//1 32//1 31//1
f 52//1 32//1 53//1
f 52//1 33//1 32//1
f 51//1 33//1 52//1
f 51//1 34//1 33//1
f 51//1 35//1 34//1
f 50//1 35//1 51//1
f 50//1 36//1 35//1
f 49//1 36//1 50//1
f 49//1 37//1 36//1
f 49//1 38//1 37//1
f 49//1 39//1 38//1
f 49//1 40//1 39//1
f 49//1 41//1 40//1
f 49//1 42//1 41//1
f 49//1 43//1 42//1
f 49//1 44//1 43//1
f 49//1 45//1 44//1
f 49//1 46//1 45//1
f 49//1 47//1 46//1
f 49//1 48//1 47//1
f 159//1 187//1 160//1
f 187//1 161//1 160//1
f 187//1 95//1 161//1
f 187//1 96//1 95//1
f 187//1 97//1 96//1
f 187//1 98//1 97//1
f 187//1 99//1 98//1
f 187//1 100//1 99//1
f 187//1 101//1 100//1
f 187//1 186//1 101//1
f 186//1 102//1 101//1
f 159//1 188//1 187//1
f 185//1 102//1 186//1
f 184//1 102//1 185//1
f 183//1 102//1 184//1
f 183//1 103//1 102//1
f 182//1 103//1 183//1
f 181//1 103//1 182//1
f 180//1 103//1 181//1
f 180//1 104//1 103//1
f 179//1 104//1 180//1
f 178//1 104//1 179//1
f 177//1 104//1 178//1
f 177//1 105//1 104//1
f 176//1 105//1 177//1
f 175//1 105//1 176//1
f 175//1 106//1 105//1
f 174//1 106//1 175//1
f 173//1 106//1 174//1
f 173//1 107//1 106//1
f 172//1 107//1 173//1
f 172//1 108//1 107//1
f 171//1 108//1 172//1
f 170//1 108//1 171//1
f 170//1 109//1 108//1
f 169//1 109//1 170//1
f 169//1 110//1 109//1
f 168//1 110//1 169//1
f 168//1 111//1 110//1
f 167//1 111//1 168//1
f 166//1 111//1 167//1
f 166//1 112//1 111//1
f 165//1 112//1 166//1
f 164//1 112//1 165//1
f 164//1 113//1 112//1
f 163//1 113//1 164//1
f 162//1 113//1 163//1
f 159//1 157//1 188//1
f 157//1 162//1 188//1
f 157//1 113//1 162//1
f 157//1 114//1 113//1
f 157//1 115//1 114//1
f 157//1 116//1 115//1
f 157//1 117//1 116//1
f 157//1 118//1 117//1
f 157//1 119//1 118//1
f 157//1 120//1 119//1
f 157//1 156//1 120//1
f 156//1 155//1 120//1
f 155//1 121//1 120//1
f 159//1 158//1 157//1
f 154//1 121//1 155//1
f 153//1 121//1 154//1
f 152//1 121//1 153//1
f 152//1 122//1 121//1
f 151//1 122//1 152//1
f 150//1 122//1 151//1
f 150//1 123//1 122//1
f 149//1 123//1 150//1
f 149//1 124//1 123//1
f 148//1 124//1 149//1
f 148//1 125//1 124//1
f 147//1 125//1 148//1
f 147//1 126//1 125//1
f 146//1 126//1 147//1
f 146//1 127//1 126//1
f 145//1 127//1 146//1
f 145//1 128//1 127//1
f 145//1 129//1 128//1
f 144//1 129//1 145//1
f 144//1 130//1 129//1
f 143//1 130//1 144//1
f 143//1 131//1 130//1
f 143//1 132//1 131//1
f 143//1 133//1 132//1
f 143//1 134//1 133//1
f 143//1 135//1 134//1
f 143//1 136//1 135//1
f 143//1 137//1 136//1
f 143//1 138//1 137//1
f 143//1 139//1 138//1
f 143//1 140//1 139//1
f 143//1 141//1 140//1
f 143//1 142//1 141//1
f 190//2 192//2 191//2 189//2
f 192//3 194//3 193//3 191//3
f 194//4 196//4 195//4 193//4
f 196//5 198//5 197//5 195//5
f 198//6 200//6 199//6 197//6
f 200//7 202//7 201//7 199//7
f 202//8 204//8 203//8 201//8
f 204//9 206//9 205//9 203//9
f 206//10 208//10 207//10 205//10
f 208//11 210//11 209//11 207//11
f 210//12 212//12 211//12 209//12
f 212//13 214//13 213//13 211//13
f 214//14 216//14 215//14 213//14
f 216//15 218//15 217//15 215//15
f 218//16 220//16 219//16 217//16
f 220//17 222//17 221//17 219//17
f 222//18 224//18 223//18 221//18
f 224//19 226//19 225//19 223//19
f 226//20 228//20 227//20 225//20
f 228//21 230//21 229//21 227//21
f 230//22 232//22 231//22 229//22
f 232//23 234//23 233//23 231//23
f 234//24 236//24 235//24 233//24
f 236//25 238//25 237//25 235//25
f 238//26 240//26 239//26 237//26
f 240//27 242//27 241//27 239//27
f 242//28 244//28 243//28 241//28
f 244//29 246//29 245//29 243//29
f 246//30 248//30 247//30 245//30
f 248//31 250//31 249//31 247//31
f 250//32 252//32 251//32 249//32
f 252//33 254//33 253//33 251//33
f 254//34 256//34 255//34 253//34
f 256//35 258//35 257//35 255//35
f 258//36 260//36 259//36 257//36
f 260//37 262//37 261//37 259//37
f 262//38 264//38 263//38 261//38
f 264//39 266//39 265//39 263//39
f 266//40 268//40 267//40 265//40
f 268//41 270//41 269//41 267//41
f 270//42 272//42 271//42 269//42
f 272//43 274//43 273//43 271//43
f 274//44 276//44 275//44 273//44
f 276//45 278//45 277//45 275//45
f 278//46 280//46 279//46 277//46
f 280//47 282//47 281//47 279//47
f 282//48 284//48 283//48 281//48
f 284//49 286//49 285//49 283//49
f 286//50 288//50 287//50 285//50
f 288//51 290//51 289//51 287//51
f 290//52 292//52 291//52 289//52
f 292//53 294//53 293//53 291//53
f 294//54 296//54 295//54 293//54
f 296//55 298//55 297//55 295//55
f 298//56 300//56 299//56 297//56
f 300//57 302//57 301//57 299//57
f 302//58 304//58 303//58 301//58
f 304//59 306//59 305//59 303//59
f 306//60 308//60 307//60 305//60
f 308//61 310//61 309//61 307//61
f 310//62 312//62 311//62 309//62
f 312//49 314//49 313//49 311//49
f 314//63 316//63 315//63 313//63
f 316//49 318//49 317//49 315//49
f 318//64 320//64 319//64 317//64
f 320//65 322//65 321//65 319//65
f 322//66 190//66 189//66 321//66
f 324//67 326//67 325//67 323//67
f 326//68 328//68 327//68 325//68
f 328//69 330//69 329//69 327//69
f 330//70 332//70 331//70 329//70
f 332//71 334//71 333//71 331//71
f 334//72 336//72 335//72 333//72
f 336//73 338//73 337//73 335//73
f 338//74 340//74 339//74 337//74
f 340//75 342//75 341//75 339//75
f 342//76 344//76 343//76 341//76
f 344//77 346//77 345//77 343//77
f 346//78 348//78 347//78 345//78
f 348//79 350//79 349//79 347//79
f 350//80 352//80 351//80 349//80
f 352//81 354//81 353//81 351//81
f 354//82 356//82 355//82 353//82
f 356//83 358//83 357//83 355//83
f 358//84 360//84 359//84 357//84
f 360//85 362//85 361//85 359//85
f 362//86 364//86 363//86 361//86
f 364//87 366//87 365//87 363//87
f 366//88 368//88 367//88 365//88
f 368//89 370//89 369//89 367//89
f 370//90 372//90 371//90 369//90
f 372//49 374//49 373//49 371//49
f 374//63 376//63 375//63 373//63
f 376//65 324//65 323//65 375//65
