# Blender3D v249 OBJ File: 
# www.blender3d.org
mtllib 24.mtl
v 0.604000 0.682000 0.100000
v 0.351000 0.360000 0.100000
v 0.351000 0.000000 0.100000
v 0.253000 0.000000 0.100000
v 0.253000 0.361000 0.100000
v 0.000000 0.682000 0.100000
v 0.118000 0.682000 0.100000
v 0.301000 0.447000 0.100000
v 0.486000 0.682000 0.100000
v 0.604000 0.682000 -0.100000
v 0.351000 0.360000 -0.100000
v 0.351000 0.000000 -0.100000
v 0.253000 0.000000 -0.100000
v 0.253000 0.361000 -0.100000
v 0.000000 0.682000 -0.100000
v 0.118000 0.682000 -0.100000
v 0.301000 0.447000 -0.100000
v 0.486000 0.682000 -0.100000
v 0.604000 0.682000 -0.100000
v 0.604000 0.682000 0.100000
v 0.351000 0.360000 -0.100000
v 0.351000 0.360000 0.100000
v 0.351000 0.000000 -0.100000
v 0.351000 0.000000 0.100000
v 0.253000 0.000000 -0.100000
v 0.253000 0.000000 0.100000
v 0.253000 0.361000 -0.100000
v 0.253000 0.361000 0.100000
v 0.000000 0.682000 -0.100000
v 0.000000 0.682000 0.100000
v 0.118000 0.682000 -0.100000
v 0.118000 0.682000 0.100000
v 0.301000 0.447000 -0.100000
v 0.301000 0.447000 0.100000
v 0.486000 0.682000 -0.100000
v 0.486000 0.682000 0.100000
vn 0.000000 0.000000 1.000000
vn 0.786318 -0.617822 0.000000
vn 1.000000 0.000000 0.000000
vn 0.000000 -1.000000 0.000000
vn -1.000000 0.000000 0.000000
vn -0.785384 -0.619009 0.000000
vn 0.000000 1.000000 0.000000
vn 0.788990 0.614405 0.000000
vn -0.785738 0.618560 0.000000
usemtl (null)
s off
f 5//1 7//1 6//1
f 5//1 8//1 7//1
f 8//1 1//1 9//1
f 2//1 1//1 8//1
f 5//1 2//1 8//1
f 4//1 2//1 5//1
f 4//1 3//1 2//1
f 14//1 16//1 15//1
f 14//1 17//1 16//1
f 17//1 10//1 18//1
f 17//1 11//1 10//1
f 14//1 11//1 17//1
f 13//1 11//1 14//1
f 13//1 12//1 11//1
f 20//2 22//2 21//2 19//2
f 22//3 24//3 23//3 21//3
f 24//4 26//4 25//4 23//4
f 26//5 28//5 27//5 25//5
f 28//6 30//6 29//6 27//6
f 30//7 32//7 31//7 29//7
f 32//8 34//8 33//8 31//8
f 34//9 36//9 35//9 33//9
f 36//7 20//7 19//7 35//7
