# Blender3D v249 OBJ File: 
# www.blender3d.org
mtllib 58.mtl
v 0.182000 0.602000 0.050000
v 0.182000 -0.141000 0.050000
v 0.319000 -0.141000 0.050000
v 0.319000 -0.221000 0.050000
v 0.086000 -0.221000 0.050000
v 0.086000 0.682000 0.050000
v 0.319000 0.682000 0.050000
v 0.319000 0.602000 0.050000
v 0.182000 0.602000 -0.050000
v 0.182000 -0.141000 -0.050000
v 0.319000 -0.141000 -0.050000
v 0.319000 -0.221000 -0.050000
v 0.086000 -0.221000 -0.050000
v 0.086000 0.682000 -0.050000
v 0.319000 0.682000 -0.050000
v 0.319000 0.602000 -0.050000
v 0.182000 0.602000 -0.050000
v 0.182000 0.602000 0.050000
v 0.182000 -0.141000 -0.050000
v 0.182000 -0.141000 0.050000
v 0.319000 -0.141000 -0.050000
v 0.319000 -0.141000 0.050000
v 0.319000 -0.221000 -0.050000
v 0.319000 -0.221000 0.050000
v 0.086000 -0.221000 -0.050000
v 0.086000 -0.221000 0.050000
v 0.086000 0.682000 -0.050000
v 0.086000 0.682000 0.050000
v 0.319000 0.682000 -0.050000
v 0.319000 0.682000 0.050000
v 0.319000 0.602000 -0.050000
v 0.319000 0.602000 0.050000
vn 0.000000 0.000000 1.000000
vn 1.000000 0.000000 0.000000
vn 0.000000 1.000000 0.000000
vn 0.000000 -1.000000 0.000000
vn -1.000000 0.000000 0.000000
usemtl (null)
s off
f 5//1 1//1 6//1
f 1//1 7//1 6//1
f 1//1 8//1 7//1
f 2//1 1//1 5//1
f 5//1 3//1 2//1
f 5//1 4//1 3//1
f 13//1 9//1 14//1
f 9//1 15//1 14//1
f 9//1 16//1 15//1
f 13//1 10//1 9//1
f 13//1 11//1 10//1
f 13//1 12//1 11//1
f 18//2 20//2 19//2 17//2
f 20//3 22//3 21//3 19//3
f 22//2 24//2 23//2 21//2
f 24//4 26//4 25//4 23//4
f 26//5 28//5 27//5 25//5
f 28//3 30//3 29//3 27//3
f 30//2 32//2 31//2 29//2
f 32//4 18//4 17//4 31//4
