# Blender3D v249 OBJ File: 
# www.blender3d.org
mtllib 63.mtl
v 0.172000 0.507000 0.050000
v 0.060000 0.654000 0.050000
v 0.160000 0.654000 0.050000
v 0.227000 0.507000 0.050000
v 0.172000 0.507000 -0.050000
v 0.060000 0.654000 -0.050000
v 0.160000 0.654000 -0.050000
v 0.227000 0.507000 -0.050000
v 0.172000 0.507000 -0.050000
v 0.172000 0.507000 0.050000
v 0.060000 0.654000 -0.050000
v 0.060000 0.654000 0.050000
v 0.160000 0.654000 -0.050000
v 0.160000 0.654000 0.050000
v 0.227000 0.507000 -0.050000
v 0.227000 0.507000 0.050000
vn 0.000000 0.000000 1.000000
vn -0.795432 -0.606043 0.000000
vn 0.000000 1.000000 0.000000
vn 0.909942 0.414735 0.000000
vn 0.000000 -1.000000 0.000000
usemtl (null)
s off
f 1//1 3//1 2//1
f 1//1 4//1 3//1
f 5//1 7//1 6//1
f 5//1 8//1 7//1
f 10//2 12//2 11//2 9//2
f 12//3 14//3 13//3 11//3
f 14//4 16//4 15//4 13//4
f 16//5 10//5 9//5 15//5
