# Blender3D v249 OBJ File: 
# www.blender3d.org
mtllib 67.mtl
v 0.262000 0.000000 0.050000
v 0.229561 0.001874 0.050000
v 0.199324 0.007407 0.050000
v 0.171406 0.016469 0.050000
v 0.145926 0.028926 0.050000
v 0.123001 0.044647 0.050000
v 0.102750 0.063500 0.050000
v 0.085291 0.085353 0.050000
v 0.070741 0.110074 0.050000
v 0.059219 0.137531 0.050000
v 0.050843 0.167593 0.050000
v 0.045730 0.200126 0.050000
v 0.044000 0.235000 0.050000
v 0.045906 0.266697 0.050000
v 0.051495 0.296657 0.050000
v 0.060578 0.324688 0.050000
v 0.072963 0.350593 0.050000
v 0.088459 0.374178 0.050000
v 0.106875 0.395250 0.050000
v 0.128020 0.413613 0.050000
v 0.151704 0.429074 0.050000
v 0.177734 0.441438 0.050000
v 0.205921 0.450509 0.050000
v 0.236074 0.456095 0.050000
v 0.268000 0.458000 0.050000
v 0.275464 0.457894 0.050000
v 0.282880 0.457569 0.050000
v 0.290281 0.457016 0.050000
v 0.297704 0.456222 0.050000
v 0.305182 0.455179 0.050000
v 0.312750 0.453875 0.050000
v 0.320443 0.452300 0.050000
v 0.328296 0.450444 0.050000
v 0.336344 0.448297 0.050000
v 0.344620 0.445847 0.050000
v 0.353161 0.443085 0.050000
v 0.362000 0.440000 0.050000
v 0.362000 0.682000 0.050000
v 0.451000 0.682000 0.050000
v 0.451000 0.000000 0.050000
v 0.354638 0.363855 0.050000
v 0.347519 0.366426 0.050000
v 0.340594 0.368719 0.050000
v 0.333815 0.370741 0.050000
v 0.327133 0.372499 0.050000
v 0.320500 0.374000 0.050000
v 0.313867 0.375251 0.050000
v 0.307185 0.376259 0.050000
v 0.300406 0.377031 0.050000
v 0.293481 0.377574 0.050000
v 0.286362 0.377895 0.050000
v 0.279000 0.378000 0.050000
v 0.258101 0.376726 0.050000
v 0.238472 0.372972 0.050000
v 0.220219 0.366844 0.050000
v 0.203444 0.358444 0.050000
v 0.188253 0.347878 0.050000
v 0.174750 0.335250 0.050000
v 0.163038 0.320663 0.050000
v 0.153222 0.304222 0.050000
v 0.145406 0.286031 0.050000
v 0.139694 0.266194 0.050000
v 0.136191 0.244816 0.050000
v 0.135000 0.222000 0.050000
v 0.135729 0.201462 0.050000
v 0.137995 0.181944 0.050000
v 0.141922 0.163594 0.050000
v 0.147630 0.146556 0.050000
v 0.155240 0.130976 0.050000
v 0.164875 0.117000 0.050000
v 0.176656 0.104774 0.050000
v 0.190704 0.094444 0.050000
v 0.207141 0.086156 0.050000
v 0.226088 0.080056 0.050000
v 0.247667 0.076288 0.050000
v 0.272000 0.075000 0.050000
v 0.362000 0.075000 0.050000
v 0.362000 0.361000 0.050000
v 0.262000 0.000000 -0.050000
v 0.229561 0.001874 -0.050000
v 0.199324 0.007407 -0.050000
v 0.171406 0.016469 -0.050000
v 0.145926 0.028926 -0.050000
v 0.123001 0.044647 -0.050000
v 0.102750 0.063500 -0.050000
v 0.085291 0.085353 -0.050000
v 0.070741 0.110074 -0.050000
v 0.059219 0.137531 -0.050000
v 0.050843 0.167593 -0.050000
v 0.045730 0.200126 -0.050000
v 0.044000 0.235000 -0.050000
v 0.045906 0.266697 -0.050000
v 0.051495 0.296657 -0.050000
v 0.060578 0.324688 -0.050000
v 0.072963 0.350593 -0.050000
v 0.088459 0.374178 -0.050000
v 0.106875 0.395250 -0.050000
v 0.128020 0.413613 -0.050000
v 0.151704 0.429074 -0.050000
v 0.177734 0.441438 -0.050000
v 0.205921 0.450509 -0.050000
v 0.236074 0.456095 -0.050000
v 0.268000 0.458000 -0.050000
v 0.275464 0.457894 -0.050000
v 0.282880 0.457569 -0.050000
v 0.290281 0.457016 -0.050000
v 0.297704 0.456222 -0.050000
v 0.305182 0.455179 -0.050000
v 0.312750 0.453875 -0.050000
v 0.320443 0.452300 -0.050000
v 0.328296 0.450444 -0.050000
v 0.336344 0.448297 -0.050000
v 0.344620 0.445847 -0.050000
v 0.353161 0.443085 -0.050000
v 0.362000 0.440000 -0.050000
v 0.362000 0.682000 -0.050000
v 0.451000 0.682000 -0.050000
v 0.451000 0.000000 -0.050000
v 0.354638 0.363855 -0.050000
v 0.347519 0.366426 -0.050000
v 0.340594 0.368719 -0.050000
v 0.333815 0.370741 -0.050000
v 0.327133 0.372499 -0.050000
v 0.320500 0.374000 -0.050000
v 0.313867 0.375251 -0.050000
v 0.307185 0.376259 -0.050000
v 0.300406 0.377031 -0.050000
v 0.293481 0.377574 -0.050000
v 0.286362 0.377895 -0.050000
v 0.279000 0.378000 -0.050000
v 0.258101 0.376726 -0.050000
v 0.238472 0.372972 -0.050000
v 0.220219 0.366844 -0.050000
v 0.203444 0.358444 -0.050000
v 0.188253 0.347878 -0.050000
v 0.174750 0.335250 -0.050000
v 0.163038 0.320663 -0.050000
v 0.153222 0.304222 -0.050000
v 0.145406 0.286031 -0.050000
v 0.139694 0.266194 -0.050000
v 0.136191 0.244816 -0.050000
v 0.135000 0.222000 -0.050000
v 0.135729 0.201462 -0.050000
v 0.137995 0.181944 -0.050000
v 0.141922 0.163594 -0.050000
v 0.147630 0.146556 -0.050000
v 0.155240 0.130976 -0.050000
v 0.164875 0.117000 -0.050000
v 0.176656 0.104774 -0.050000
v 0.190704 0.094444 -0.050000
v 0.207141 0.086156 -0.050000
v 0.226088 0.080056 -0.050000
v 0.247667 0.076288 -0.050000
v 0.272000 0.075000 -0.050000
v 0.362000 0.075000 -0.050000
v 0.362000 0.361000 -0.050000
v 0.262000 0.000000 -0.050000
v 0.262000 0.000000 0.050000
v 0.229561 0.001874 -0.050000
v 0.229561 0.001874 0.050000
v 0.199324 0.007407 -0.050000
v 0.199324 0.007407 0.050000
v 0.171406 0.016469 -0.050000
v 0.171406 0.016469 0.050000
v 0.145926 0.028926 -0.050000
v 0.145926 0.028926 0.050000
v 0.123001 0.044647 -0.050000
v 0.123001 0.044647 0.050000
v 0.102750 0.063500 -0.050000
v 0.102750 0.063500 0.050000
v 0.085291 0.085353 -0.050000
v 0.085291 0.085353 0.050000
v 0.070741 0.110074 -0.050000
v 0.070741 0.110074 0.050000
v 0.059219 0.137531 -0.050000
v 0.059219 0.137531 0.050000
v 0.050843 0.167593 -0.050000
v 0.050843 0.167593 0.050000
v 0.045730 0.200126 -0.050000
v 0.045730 0.200126 0.050000
v 0.044000 0.235000 -0.050000
v 0.044000 0.235000 0.050000
v 0.045906 0.266697 -0.050000
v 0.045906 0.266697 0.050000
v 0.051495 0.296657 -0.050000
v 0.051495 0.296657 0.050000
v 0.060578 0.324688 -0.050000
v 0.060578 0.324688 0.050000
v 0.072963 0.350593 -0.050000
v 0.072963 0.350593 0.050000
v 0.088459 0.374178 -0.050000
v 0.088459 0.374178 0.050000
v 0.106875 0.395250 -0.050000
v 0.106875 0.395250 0.050000
v 0.128020 0.413613 -0.050000
v 0.128020 0.413613 0.050000
v 0.151704 0.429074 -0.050000
v 0.151704 0.429074 0.050000
v 0.177734 0.441438 -0.050000
v 0.177734 0.441438 0.050000
v 0.205921 0.450509 -0.050000
v 0.205921 0.450509 0.050000
v 0.236074 0.456095 -0.050000
v 0.236074 0.456095 0.050000
v 0.268000 0.458000 -0.050000
v 0.268000 0.458000 0.050000
v 0.275464 0.457894 -0.050000
v 0.275464 0.457894 0.050000
v 0.282880 0.457569 -0.050000
v 0.282880 0.457569 0.050000
v 0.290281 0.457016 -0.050000
v 0.290281 0.457016 0.050000
v 0.297704 0.456222 -0.050000
v 0.297704 0.456222 0.050000
v 0.305182 0.455179 -0.050000
v 0.305182 0.455179 0.050000
v 0.312750 0.453875 -0.050000
v 0.312750 0.453875 0.050000
v 0.320443 0.452300 -0.050000
v 0.320443 0.452300 0.050000
v 0.328296 0.450444 -0.050000
v 0.328296 0.450444 0.050000
v 0.336344 0.448297 -0.050000
v 0.336344 0.448297 0.050000
v 0.344620 0.445847 -0.050000
v 0.344620 0.445847 0.050000
v 0.353161 0.443085 -0.050000
v 0.353161 0.443085 0.050000
v 0.362000 0.440000 -0.050000
v 0.362000 0.440000 0.050000
v 0.362000 0.682000 -0.050000
v 0.362000 0.682000 0.050000
v 0.451000 0.682000 -0.050000
v 0.451000 0.682000 0.050000
v 0.451000 0.000000 -0.050000
v 0.451000 0.000000 0.050000
v 0.354638 0.363855 -0.050000
v 0.354638 0.363855 0.050000
v 0.347519 0.366426 -0.050000
v 0.347519 0.366426 0.050000
v 0.340594 0.368719 -0.050000
v 0.340594 0.368719 0.050000
v 0.333815 0.370741 -0.050000
v 0.333815 0.370741 0.050000
v 0.327133 0.372499 -0.050000
v 0.327133 0.372499 0.050000
v 0.320500 0.374000 -0.050000
v 0.320500 0.374000 0.050000
v 0.313867 0.375251 -0.050000
v 0.313867 0.375251 0.050000
v 0.307185 0.376259 -0.050000
v 0.307185 0.376259 0.050000
v 0.300406 0.377031 -0.050000
v 0.300406 0.377031 0.050000
v 0.293481 0.377574 -0.050000
v 0.293481 0.377574 0.050000
v 0.286362 0.377895 -0.050000
v 0.286362 0.377895 0.050000
v 0.279000 0.378000 -0.050000
v 0.279000 0.378000 0.050000
v 0.258101 0.376726 -0.050000
v 0.258101 0.376726 0.050000
v 0.238472 0.372972 -0.050000
v 0.238472 0.372972 0.050000
v 0.220219 0.366844 -0.050000
v 0.220219 0.366844 0.050000
v 0.203444 0.358444 -0.050000
v 0.203444 0.358444 0.050000
v 0.188253 0.347878 -0.050000
v 0.188253 0.347878 0.050000
v 0.174750 0.335250 -0.050000
v 0.174750 0.335250 0.050000
v 0.163038 0.320663 -0.050000
v 0.163038 0.320663 0.050000
v 0.153222 0.304222 -0.050000
v 0.153222 0.304222 0.050000
v 0.145406 0.286031 -0.050000
v 0.145406 0.286031 0.050000
v 0.139694 0.266194 -0.050000
v 0.139694 0.266194 0.050000
v 0.136191 0.244816 -0.050000
v 0.136191 0.244816 0.050000
v 0.135000 0.222000 -0.050000
v 0.135000 0.222000 0.050000
v 0.135729 0.201462 -0.050000
v 0.135729 0.201462 0.050000
v 0.137995 0.181944 -0.050000
v 0.137995 0.181944 0.050000
v 0.141922 0.163594 -0.050000
v 0.141922 0.163594 0.050000
v 0.147630 0.146556 -0.050000
v 0.147630 0.146556 0.050000
v 0.155240 0.130976 -0.050000
v 0.155240 0.130976 0.050000
v 0.164875 0.117000 -0.050000
v 0.164875 0.117000 0.050000
v 0.176656 0.104774 -0.050000
v 0.176656 0.104774 0.050000
v 0.190704 0.094444 -0.050000
v 0.190704 0.094444 0.050000
v 0.207141 0.086156 -0.050000
v 0.207141 0.086156 0.050000
v 0.226088 0.080056 -0.050000
v 0.226088 0.080056 0.050000
v 0.247667 0.076288 -0.050000
v 0.247667 0.076288 0.050000
v 0.272000 0.075000 -0.050000
v 0.272000 0.075000 0.050000
v 0.362000 0.075000 -0.050000
v 0.362000 0.075000 0.050000
v 0.362000 0.361000 -0.050000
v 0.362000 0.361000 0.050000
vn 0.000000 0.000000 1.000000
vn -0.057670 -0.998336 0.000000
vn -0.180015 -0.983664 0.000000
vn -0.308718 -0.951154 0.000000
vn -0.439214 -0.898383 0.000000
vn -0.565558 -0.824708 0.000000
vn -0.681389 -0.731921 0.000000
vn -0.781268 -0.624195 0.000000
vn -0.861813 -0.507226 0.000000
vn -0.922102 -0.386946 0.000000
vn -0.963305 -0.268411 0.000000
vn -0.987878 -0.155233 0.000000
vn -0.998771 -0.049556 0.000000
vn -0.998198 0.060014 0.000000
vn -0.983038 0.183403 0.000000
vn -0.951303 0.308256 0.000000
vn -0.902196 0.431326 0.000000
vn -0.835757 0.549099 0.000000
vn -0.752961 0.658065 0.000000
vn -0.655695 0.755026 0.000000
vn -0.546638 0.837369 0.000000
vn -0.429025 0.903293 0.000000
vn -0.306366 0.951914 0.000000
vn -0.182150 0.983271 0.000000
vn -0.059565 0.998224 0.000000
vn 0.014189 0.999899 0.000000
vn 0.043736 0.999043 0.000000
vn 0.074615 0.997212 0.000000
vn 0.106290 0.994335 0.000000
vn 0.138188 0.990406 0.000000
vn 0.169773 0.985483 0.000000
vn 0.200523 0.979689 0.000000
vn 0.229996 0.973192 0.000000
vn 0.257838 0.966188 0.000000
vn 0.283804 0.958882 0.000000
vn 0.307723 0.951476 0.000000
vn 0.329530 0.944145 0.000000
vn -1.000000 0.000000 0.000000
vn 0.000000 1.000000 0.000000
vn 1.000000 0.000000 0.000000
vn 0.000000 -1.000000 0.000000
vn -0.339618 -0.940563 0.000000
vn -0.314321 -0.949317 0.000000
vn -0.285833 -0.958279 0.000000
vn -0.254460 -0.967083 0.000000
vn -0.220729 -0.975335 0.000000
vn -0.185355 -0.982672 0.000000
vn -0.149185 -0.988809 0.000000
vn -0.113151 -0.993578 0.000000
vn -0.078148 -0.996942 0.000000
vn -0.044989 -0.998987 0.000000
vn -0.014304 -0.999898 0.000000
vn 0.060861 -0.998146 0.000000
vn 0.187822 -0.982203 0.000000
vn 0.318284 -0.947996 0.000000
vn 0.447732 -0.894168 0.000000
vn 0.571004 -0.820947 0.000000
vn 0.683047 -0.730374 0.000000
vn 0.779763 -0.626075 0.000000
vn 0.858611 -0.512627 0.000000
vn 0.918782 -0.394766 0.000000
vn 0.960957 -0.276698 0.000000
vn 0.986836 -0.161721 0.000000
vn 0.998640 -0.052128 0.000000
vn 0.999371 0.035453 0.000000
vn 0.993323 0.115366 0.000000
vn 0.977866 0.209234 0.000000
vn 0.948209 0.317648 0.000000
vn 0.898527 0.438918 0.000000
vn 0.823311 0.567590 0.000000
vn 0.720091 0.693879 0.000000
vn 0.592406 0.805639 0.000000
vn 0.450241 0.892907 0.000000
vn 0.306487 0.951875 0.000000
vn 0.171981 0.985100 0.000000
vn 0.052867 0.998602 0.000000
vn -0.361591 -0.932337 0.000000
usemtl (null)
s off
f 37//1 39//1 38//1
f 37//1 40//1 39//1
f 24//1 26//1 25//1
f 24//1 27//1 26//1
f 24//1 28//1 27//1
f 24//1 29//1 28//1
f 24//1 30//1 29//1
f 23//1 30//1 24//1
f 23//1 31//1 30//1
f 23//1 32//1 31//1
f 23//1 33//1 32//1
f 22//1 33//1 23//1
f 22//1 34//1 33//1
f 22//1 35//1 34//1
f 22//1 36//1 35//1
f 22//1 37//1 36//1
f 21//1 37//1 22//1
f 21//1 52//1 37//1
f 52//1 51//1 37//1
f 51//1 50//1 37//1
f 50//1 49//1 37//1
f 49//1 48//1 37//1
f 48//1 47//1 37//1
f 47//1 46//1 37//1
f 46//1 45//1 37//1
f 45//1 44//1 37//1
f 44//1 43//1 37//1
f 43//1 42//1 37//1
f 42//1 41//1 37//1
f 41//1 78//1 37//1
f 78//1 40//1 37//1
f 20//1 52//1 21//1
f 19//1 52//1 20//1
f 18//1 52//1 19//1
f 18//1 53//1 52//1
f 18//1 54//1 53//1
f 17//1 54//1 18//1
f 17//1 55//1 54//1
f 17//1 56//1 55//1
f 77//1 40//1 78//1
f 17//1 57//1 56//1
f 16//1 57//1 17//1
f 16//1 58//1 57//1
f 16//1 59//1 58//1
f 15//1 59//1 16//1
f 15//1 60//1 59//1
f 15//1 61//1 60//1
f 14//1 61//1 15//1
f 14//1 62//1 61//1
f 13//1 62//1 14//1
f 13//1 63//1 62//1
f 13//1 64//1 63//1
f 12//1 64//1 13//1
f 12//1 65//1 64//1
f 12//1 66//1 65//1
f 11//1 66//1 12//1
f 11//1 67//1 66//1
f 10//1 67//1 11//1
f 10//1 68//1 67//1
f 10//1 69//1 68//1
f 9//1 69//1 10//1
f 9//1 70//1 69//1
f 9//1 71//1 70//1
f 8//1 71//1 9//1
f 8//1 72//1 71//1
f 8//1 73//1 72//1
f 8//1 74//1 73//1
f 7//1 74//1 8//1
f 7//1 75//1 74//1
f 7//1 76//1 75//1
f 7//1 77//1 76//1
f 7//1 40//1 77//1
f 6//1 40//1 7//1
f 5//1 40//1 6//1
f 4//1 40//1 5//1
f 3//1 40//1 4//1
f 2//1 40//1 3//1
f 1//1 40//1 2//1
f 115//1 117//1 116//1
f 115//1 118//1 117//1
f 102//1 104//1 103//1
f 102//1 105//1 104//1
f 102//1 106//1 105//1
f 102//1 107//1 106//1
f 102//1 108//1 107//1
f 101//1 108//1 102//1
f 101//1 109//1 108//1
f 101//1 110//1 109//1
f 101//1 111//1 110//1
f 100//1 111//1 101//1
f 100//1 112//1 111//1
f 100//1 113//1 112//1
f 100//1 114//1 113//1
f 100//1 115//1 114//1
f 99//1 115//1 100//1
f 99//1 130//1 115//1
f 130//1 129//1 115//1
f 129//1 128//1 115//1
f 128//1 127//1 115//1
f 127//1 126//1 115//1
f 126//1 125//1 115//1
f 125//1 124//1 115//1
f 124//1 123//1 115//1
f 123//1 122//1 115//1
f 122//1 121//1 115//1
f 121//1 120//1 115//1
f 120//1 119//1 115//1
f 119//1 156//1 115//1
f 156//1 118//1 115//1
f 98//1 130//1 99//1
f 97//1 130//1 98//1
f 96//1 130//1 97//1
f 96//1 131//1 130//1
f 96//1 132//1 131//1
f 95//1 132//1 96//1
f 95//1 133//1 132//1
f 95//1 134//1 133//1
f 155//1 118//1 156//1
f 95//1 135//1 134//1
f 94//1 135//1 95//1
f 94//1 136//1 135//1
f 94//1 137//1 136//1
f 93//1 137//1 94//1
f 93//1 138//1 137//1
f 93//1 139//1 138//1
f 92//1 139//1 93//1
f 92//1 140//1 139//1
f 91//1 140//1 92//1
f 91//1 141//1 140//1
f 91//1 142//1 141//1
f 90//1 142//1 91//1
f 90//1 143//1 142//1
f 90//1 144//1 143//1
f 89//1 144//1 90//1
f 89//1 145//1 144//1
f 88//1 145//1 89//1
f 88//1 146//1 145//1
f 88//1 147//1 146//1
f 87//1 147//1 88//1
f 87//1 148//1 147//1
f 87//1 149//1 148//1
f 86//1 149//1 87//1
f 86//1 150//1 149//1
f 86//1 151//1 150//1
f 86//1 152//1 151//1
f 85//1 152//1 86//1
f 85//1 153//1 152//1
f 85//1 154//1 153//1
f 85//1 155//1 154//1
f 85//1 118//1 155//1
f 84//1 118//1 85//1
f 83//1 118//1 84//1
f 82//1 118//1 83//1
f 81//1 118//1 82//1
f 80//1 118//1 81//1
f 79//1 118//1 80//1
f 158//2 160//2 159//2 157//2
f 160//3 162//3 161//3 159//3
f 162//4 164//4 163//4 161//4
f 164//5 166//5 165//5 163//5
f 166//6 168//6 167//6 165//6
f 168//7 170//7 169//7 167//7
f 170//8 172//8 171//8 169//8
f 172//9 174//9 173//9 171//9
f 174//10 176//10 175//10 173//10
f 176//11 178//11 177//11 175//11
f 178//12 180//12 179//12 177//12
f 180//13 182//13 181//13 179//13
f 182//14 184//14 183//14 181//14
f 184//15 186//15 185//15 183//15
f 186//16 188//16 187//16 185//16
f 188//17 190//17 189//17 187//17
f 190//18 192//18 191//18 189//18
f 192//19 194//19 193//19 191//19
f 194//20 196//20 195//20 193//20
f 196//21 198//21 197//21 195//21
f 198//22 200//22 199//22 197//22
f 200//23 202//23 201//23 199//23
f 202//24 204//24 203//24 201//24
f 204//25 206//25 205//25 203//25
f 206//26 208//26 207//26 205//26
f 208//27 210//27 209//27 207//27
f 210//28 212//28 211//28 209//28
f 212//29 214//29 213//29 211//29
f 214//30 216//30 215//30 213//30
f 216//31 218//31 217//31 215//31
f 218//32 220//32 219//32 217//32
f 220//33 222//33 221//33 219//33
f 222//34 224//34 223//34 221//34
f 224//35 226//35 225//35 223//35
f 226//36 228//36 227//36 225//36
f 228//37 230//37 229//37 227//37
f 230//38 232//38 231//38 229//38
f 232//39 234//39 233//39 231//39
f 234//40 236//40 235//40 233//40
f 236//41 158//41 157//41 235//41
f 238//42 240//42 239//42 237//42
f 240//43 242//43 241//43 239//43
f 242//44 244//44 243//44 241//44
f 244//45 246//45 245//45 243//45
f 246//46 248//46 247//46 245//46
f 248//47 250//47 249//47 247//47
f 250//48 252//48 251//48 249//48
f 252//49 254//49 253//49 251//49
f 254//50 256//50 255//50 253//50
f 256//51 258//51 257//51 255//51
f 258//52 260//52 259//52 257//52
f 260//53 262//53 261//53 259//53
f 262//54 264//54 263//54 261//54
f 264//55 266//55 265//55 263//55
f 266//56 268//56 267//56 265//56
f 268//57 270//57 269//57 267//57
f 270//58 272//58 271//58 269//58
f 272//59 274//59 273//59 271//59
f 274//60 276//60 275//60 273//60
f 276//61 278//61 277//61 275//61
f 278//62 280//62 279//62 277//62
f 280//63 282//63 281//63 279//63
f 282//64 284//64 283//64 281//64
f 284//65 286//65 285//65 283//65
f 286//66 288//66 287//66 285//66
f 288//67 290//67 289//67 287//67
f 290//68 292//68 291//68 289//68
f 292//69 294//69 293//69 291//69
f 294//70 296//70 295//70 293//70
f 296//71 298//71 297//71 295//71
f 298//72 300//72 299//72 297//72
f 300//73 302//73 301//73 299//73
f 302//74 304//74 303//74 301//74
f 304//75 306//75 305//75 303//75
f 306//76 308//76 307//76 305//76
f 308//39 310//39 309//39 307//39
f 310//38 312//38 311//38 309//38
f 312//77 238//77 237//77 311//77
