# Blender3D v249 OBJ File: 
# www.blender3d.org
mtllib 71.mtl
v 0.152000 0.390000 0.050000
v 0.160824 0.400371 0.050000
v 0.170259 0.409968 0.050000
v 0.180250 0.418766 0.050000
v 0.190741 0.426741 0.050000
v 0.201676 0.433869 0.050000
v 0.213000 0.440125 0.050000
v 0.224657 0.445486 0.050000
v 0.236593 0.449926 0.050000
v 0.248750 0.453422 0.050000
v 0.261074 0.455949 0.050000
v 0.273509 0.457483 0.050000
v 0.286000 0.458000 0.050000
v 0.307497 0.456748 0.050000
v 0.327889 0.452986 0.050000
v 0.347031 0.446703 0.050000
v 0.364778 0.437889 0.050000
v 0.380983 0.426533 0.050000
v 0.395500 0.412625 0.050000
v 0.408184 0.396155 0.050000
v 0.418889 0.377111 0.050000
v 0.427469 0.355484 0.050000
v 0.433778 0.331264 0.050000
v 0.437670 0.304439 0.050000
v 0.439000 0.275000 0.050000
v 0.439000 0.000000 0.050000
v 0.350000 0.000000 0.050000
v 0.350000 0.278000 0.050000
v 0.349300 0.294009 0.050000
v 0.347232 0.308991 0.050000
v 0.343844 0.322875 0.050000
v 0.339185 0.335593 0.050000
v 0.333304 0.347074 0.050000
v 0.326250 0.357250 0.050000
v 0.318071 0.366051 0.050000
v 0.308815 0.373407 0.050000
v 0.298531 0.379250 0.050000
v 0.287269 0.383509 0.050000
v 0.275075 0.386116 0.050000
v 0.262000 0.387000 0.050000
v 0.252406 0.386619 0.050000
v 0.243079 0.385449 0.050000
v 0.233953 0.383453 0.050000
v 0.224963 0.380593 0.050000
v 0.216042 0.376829 0.050000
v 0.207125 0.372125 0.050000
v 0.198145 0.366442 0.050000
v 0.189037 0.359741 0.050000
v 0.179734 0.351984 0.050000
v 0.170171 0.343134 0.050000
v 0.160282 0.333152 0.050000
v 0.150000 0.322000 0.050000
v 0.150000 0.000000 0.050000
v 0.061000 0.000000 0.050000
v 0.061000 0.682000 0.050000
v 0.150000 0.682000 0.050000
v 0.150000 0.390000 0.050000
v 0.152000 0.390000 -0.050000
v 0.160824 0.400371 -0.050000
v 0.170259 0.409968 -0.050000
v 0.180250 0.418766 -0.050000
v 0.190741 0.426741 -0.050000
v 0.201676 0.433869 -0.050000
v 0.213000 0.440125 -0.050000
v 0.224657 0.445486 -0.050000
v 0.236593 0.449926 -0.050000
v 0.248750 0.453422 -0.050000
v 0.261074 0.455949 -0.050000
v 0.273509 0.457483 -0.050000
v 0.286000 0.458000 -0.050000
v 0.307497 0.456748 -0.050000
v 0.327889 0.452986 -0.050000
v 0.347031 0.446703 -0.050000
v 0.364778 0.437889 -0.050000
v 0.380983 0.426533 -0.050000
v 0.395500 0.412625 -0.050000
v 0.408184 0.396155 -0.050000
v 0.418889 0.377111 -0.050000
v 0.427469 0.355484 -0.050000
v 0.433778 0.331264 -0.050000
v 0.437670 0.304439 -0.050000
v 0.439000 0.275000 -0.050000
v 0.439000 0.000000 -0.050000
v 0.350000 0.000000 -0.050000
v 0.350000 0.278000 -0.050000
v 0.349300 0.294009 -0.050000
v 0.347232 0.308991 -0.050000
v 0.343844 0.322875 -0.050000
v 0.339185 0.335593 -0.050000
v 0.333304 0.347074 -0.050000
v 0.326250 0.357250 -0.050000
v 0.318071 0.366051 -0.050000
v 0.308815 0.373407 -0.050000
v 0.298531 0.379250 -0.050000
v 0.287269 0.383509 -0.050000
v 0.275075 0.386116 -0.050000
v 0.262000 0.387000 -0.050000
v 0.252406 0.386619 -0.050000
v 0.243079 0.385449 -0.050000
v 0.233953 0.383453 -0.050000
v 0.224963 0.380593 -0.050000
v 0.216042 0.376829 -0.050000
v 0.207125 0.372125 -0.050000
v 0.198145 0.366442 -0.050000
v 0.189037 0.359741 -0.050000
v 0.179734 0.351984 -0.050000
v 0.170171 0.343134 -0.050000
v 0.160282 0.333152 -0.050000
v 0.150000 0.322000 -0.050000
v 0.150000 0.000000 -0.050000
v 0.061000 0.000000 -0.050000
v 0.061000 0.682000 -0.050000
v 0.150000 0.682000 -0.050000
v 0.150000 0.390000 -0.050000
v 0.152000 0.390000 -0.050000
v 0.152000 0.390000 0.050000
v 0.160824 0.400371 -0.050000
v 0.160824 0.400371 0.050000
v 0.170259 0.409968 -0.050000
v 0.170259 0.409968 0.050000
v 0.180250 0.418766 -0.050000
v 0.180250 0.418766 0.050000
v 0.190741 0.426741 -0.050000
v 0.190741 0.426741 0.050000
v 0.201676 0.433869 -0.050000
v 0.201676 0.433869 0.050000
v 0.213000 0.440125 -0.050000
v 0.213000 0.440125 0.050000
v 0.224657 0.445486 -0.050000
v 0.224657 0.445486 0.050000
v 0.236593 0.449926 -0.050000
v 0.236593 0.449926 0.050000
v 0.248750 0.453422 -0.050000
v 0.248750 0.453422 0.050000
v 0.261074 0.455949 -0.050000
v 0.261074 0.455949 0.050000
v 0.273509 0.457483 -0.050000
v 0.273509 0.457483 0.050000
v 0.286000 0.458000 -0.050000
v 0.286000 0.458000 0.050000
v 0.307497 0.456748 -0.050000
v 0.307497 0.456748 0.050000
v 0.327889 0.452986 -0.050000
v 0.327889 0.452986 0.050000
v 0.347031 0.446703 -0.050000
v 0.347031 0.446703 0.050000
v 0.364778 0.437889 -0.050000
v 0.364778 0.437889 0.050000
v 0.380983 0.426533 -0.050000
v 0.380983 0.426533 0.050000
v 0.395500 0.412625 -0.050000
v 0.395500 0.412625 0.050000
v 0.408184 0.396155 -0.050000
v 0.408184 0.396155 0.050000
v 0.418889 0.377111 -0.050000
v 0.418889 0.377111 0.050000
v 0.427469 0.355484 -0.050000
v 0.427469 0.355484 0.050000
v 0.433778 0.331264 -0.050000
v 0.433778 0.331264 0.050000
v 0.437670 0.304439 -0.050000
v 0.437670 0.304439 0.050000
v 0.439000 0.275000 -0.050000
v 0.439000 0.275000 0.050000
v 0.439000 0.000000 -0.050000
v 0.439000 0.000000 0.050000
v 0.350000 0.000000 -0.050000
v 0.350000 0.000000 0.050000
v 0.350000 0.278000 -0.050000
v 0.350000 0.278000 0.050000
v 0.349300 0.294009 -0.050000
v 0.349300 0.294009 0.050000
v 0.347232 0.308991 -0.050000
v 0.347232 0.308991 0.050000
v 0.343844 0.322875 -0.050000
v 0.343844 0.322875 0.050000
v 0.339185 0.335593 -0.050000
v 0.339185 0.335593 0.050000
v 0.333304 0.347074 -0.050000
v 0.333304 0.347074 0.050000
v 0.326250 0.357250 -0.050000
v 0.326250 0.357250 0.050000
v 0.318071 0.366051 -0.050000
v 0.318071 0.366051 0.050000
v 0.308815 0.373407 -0.050000
v 0.308815 0.373407 0.050000
v 0.298531 0.379250 -0.050000
v 0.298531 0.379250 0.050000
v 0.287269 0.383509 -0.050000
v 0.287269 0.383509 0.050000
v 0.275075 0.386116 -0.050000
v 0.275075 0.386116 0.050000
v 0.262000 0.387000 -0.050000
v 0.262000 0.387000 0.050000
v 0.252406 0.386619 -0.050000
v 0.252406 0.386619 0.050000
v 0.243079 0.385449 -0.050000
v 0.243079 0.385449 0.050000
v 0.233953 0.383453 -0.050000
v 0.233953 0.383453 0.050000
v 0.224963 0.380593 -0.050000
v 0.224963 0.380593 0.050000
v 0.216042 0.376829 -0.050000
v 0.216042 0.376829 0.050000
v 0.207125 0.372125 -0.050000
v 0.207125 0.372125 0.050000
v 0.198145 0.366442 -0.050000
v 0.198145 0.366442 0.050000
v 0.189037 0.359741 -0.050000
v 0.189037 0.359741 0.050000
v 0.179734 0.351984 -0.050000
v 0.179734 0.351984 0.050000
v 0.170171 0.343134 -0.050000
v 0.170171 0.343134 0.050000
v 0.160282 0.333152 -0.050000
v 0.160282 0.333152 0.050000
v 0.150000 0.322000 -0.050000
v 0.150000 0.322000 0.050000
v 0.150000 0.000000 -0.050000
v 0.150000 0.000000 0.050000
v 0.061000 0.000000 -0.050000
v 0.061000 0.000000 0.050000
v 0.061000 0.682000 -0.050000
v 0.061000 0.682000 0.050000
v 0.150000 0.682000 -0.050000
v 0.150000 0.682000 0.050000
v 0.150000 0.390000 -0.050000
v 0.150000 0.390000 0.050000
vn 0.000000 0.000000 1.000000
vn -0.761621 0.648023 0.000000
vn -0.713080 0.701082 0.000000
vn -0.660890 0.750483 0.000000
vn -0.605187 0.796083 0.000000
vn -0.546067 0.837741 0.000000
vn -0.483585 0.875297 0.000000
vn -0.417786 0.908545 0.000000
vn -0.348692 0.937237 0.000000
vn -0.276359 0.961055 0.000000
vn -0.200880 0.979616 0.000000
vn -0.122445 0.992475 0.000000
vn -0.041337 0.999145 0.000000
vn 0.058131 0.998309 0.000000
vn 0.181427 0.983404 0.000000
vn 0.311855 0.950130 0.000000
vn 0.444829 0.895616 0.000000
vn 0.573887 0.818935 0.000000
vn 0.691788 0.722100 0.000000
vn 0.792288 0.610147 0.000000
vn 0.871714 0.490015 0.000000
vn 0.929523 0.368764 0.000000
vn 0.967709 0.252072 0.000000
vn 0.989636 0.143600 0.000000
vn 0.998981 0.045127 0.000000
vn 1.000000 0.000000 0.000000
vn 0.000000 -1.000000 0.000000
vn -1.000000 0.000000 0.000000
vn -0.999045 -0.043698 0.000000
vn -0.990604 -0.136758 0.000000
vn -0.971499 -0.237045 0.000000
vn -0.938985 -0.343958 0.000000
vn -0.890042 -0.455878 0.000000
vn -0.821833 -0.569729 0.000000
vn -0.732498 -0.680769 0.000000
vn -0.622208 -0.782852 0.000000
vn -0.493988 -0.869469 0.000000
vn -0.353724 -0.935350 0.000000
vn -0.209041 -0.977907 0.000000
vn -0.067475 -0.997721 0.000000
vn 0.039719 -0.999211 0.000000
vn 0.124418 -0.992230 0.000000
vn 0.213669 -0.976906 0.000000
vn 0.303208 -0.952924 0.000000
vn 0.388690 -0.921368 0.000000
vn 0.466599 -0.884469 0.000000
vn 0.534802 -0.844977 0.000000
vn 0.592597 -0.805499 0.000000
vn 0.640386 -0.768053 0.000000
vn 0.679219 -0.733936 0.000000
vn 0.710393 -0.703805 0.000000
vn 0.735215 -0.677835 0.000000
vn 0.000000 1.000000 0.000000
usemtl (null)
s off
f 54//1 56//1 55//1
f 54//1 57//1 56//1
f 12//1 14//1 13//1
f 11//1 14//1 12//1
f 11//1 15//1 14//1
f 10//1 15//1 11//1
f 9//1 15//1 10//1
f 9//1 16//1 15//1
f 8//1 16//1 9//1
f 8//1 17//1 16//1
f 7//1 17//1 8//1
f 6//1 17//1 7//1
f 6//1 18//1 17//1
f 5//1 18//1 6//1
f 4//1 18//1 5//1
f 4//1 19//1 18//1
f 3//1 19//1 4//1
f 3//1 20//1 19//1
f 2//1 20//1 3//1
f 1//1 20//1 2//1
f 1//1 40//1 20//1
f 40//1 21//1 20//1
f 54//1 1//1 57//1
f 52//1 1//1 54//1
f 51//1 1//1 52//1
f 50//1 1//1 51//1
f 49//1 1//1 50//1
f 48//1 1//1 49//1
f 47//1 1//1 48//1
f 46//1 1//1 47//1
f 45//1 1//1 46//1
f 44//1 1//1 45//1
f 43//1 1//1 44//1
f 42//1 1//1 43//1
f 41//1 1//1 42//1
f 40//1 1//1 41//1
f 39//1 21//1 40//1
f 38//1 21//1 39//1
f 37//1 21//1 38//1
f 36//1 21//1 37//1
f 36//1 22//1 21//1
f 35//1 22//1 36//1
f 34//1 22//1 35//1
f 33//1 22//1 34//1
f 33//1 23//1 22//1
f 32//1 23//1 33//1
f 31//1 23//1 32//1
f 31//1 24//1 23//1
f 30//1 24//1 31//1
f 54//1 53//1 52//1
f 29//1 24//1 30//1
f 29//1 25//1 24//1
f 28//1 25//1 29//1
f 27//1 25//1 28//1
f 27//1 26//1 25//1
f 111//1 113//1 112//1
f 111//1 114//1 113//1
f 69//1 71//1 70//1
f 68//1 71//1 69//1
f 68//1 72//1 71//1
f 67//1 72//1 68//1
f 66//1 72//1 67//1
f 66//1 73//1 72//1
f 65//1 73//1 66//1
f 65//1 74//1 73//1
f 64//1 74//1 65//1
f 63//1 74//1 64//1
f 63//1 75//1 74//1
f 62//1 75//1 63//1
f 61//1 75//1 62//1
f 61//1 76//1 75//1
f 60//1 76//1 61//1
f 60//1 77//1 76//1
f 59//1 77//1 60//1
f 58//1 77//1 59//1
f 58//1 97//1 77//1
f 97//1 78//1 77//1
f 111//1 58//1 114//1
f 111//1 109//1 58//1
f 109//1 108//1 58//1
f 108//1 107//1 58//1
f 107//1 106//1 58//1
f 106//1 105//1 58//1
f 105//1 104//1 58//1
f 104//1 103//1 58//1
f 103//1 102//1 58//1
f 102//1 101//1 58//1
f 101//1 100//1 58//1
f 100//1 99//1 58//1
f 99//1 98//1 58//1
f 98//1 97//1 58//1
f 96//1 78//1 97//1
f 95//1 78//1 96//1
f 94//1 78//1 95//1
f 93//1 78//1 94//1
f 93//1 79//1 78//1
f 92//1 79//1 93//1
f 91//1 79//1 92//1
f 90//1 79//1 91//1
f 90//1 80//1 79//1
f 89//1 80//1 90//1
f 88//1 80//1 89//1
f 88//1 81//1 80//1
f 87//1 81//1 88//1
f 111//1 110//1 109//1
f 86//1 81//1 87//1
f 86//1 82//1 81//1
f 85//1 82//1 86//1
f 84//1 82//1 85//1
f 84//1 83//1 82//1
f 116//2 118//2 117//2 115//2
f 118//3 120//3 119//3 117//3
f 120//4 122//4 121//4 119//4
f 122//5 124//5 123//5 121//5
f 124//6 126//6 125//6 123//6
f 126//7 128//7 127//7 125//7
f 128//8 130//8 129//8 127//8
f 130//9 132//9 131//9 129//9
f 132//10 134//10 133//10 131//10
f 134//11 136//11 135//11 133//11
f 136//12 138//12 137//12 135//12
f 138//13 140//13 139//13 137//13
f 140//14 142//14 141//14 139//14
f 142//15 144//15 143//15 141//15
f 144//16 146//16 145//16 143//16
f 146//17 148//17 147//17 145//17
f 148//18 150//18 149//18 147//18
f 150//19 152//19 151//19 149//19
f 152//20 154//20 153//20 151//20
f 154//21 156//21 155//21 153//21
f 156//22 158//22 157//22 155//22
f 158//23 160//23 159//23 157//23
f 160//24 162//24 161//24 159//24
f 162//25 164//25 163//25 161//25
f 164//26 166//26 165//26 163//26
f 166//27 168//27 167//27 165//27
f 168//28 170//28 169//28 167//28
f 170//29 172//29 171//29 169//29
f 172//30 174//30 173//30 171//30
f 174//31 176//31 175//31 173//31
f 176//32 178//32 177//32 175//32
f 178//33 180//33 179//33 177//33
f 180//34 182//34 181//34 179//34
f 182//35 184//35 183//35 181//35
f 184//36 186//36 185//36 183//36
f 186//37 188//37 187//37 185//37
f 188//38 190//38 189//38 187//38
f 190//39 192//39 191//39 189//39
f 192//40 194//40 193//40 191//40
f 194//41 196//41 195//41 193//41
f 196//42 198//42 197//42 195//42
f 198//43 200//43 199//43 197//43
f 200//44 202//44 201//44 199//44
f 202//45 204//45 203//45 201//45
f 204//46 206//46 205//46 203//46
f 206//47 208//47 207//47 205//47
f 208//48 210//48 209//48 207//48
f 210//49 212//49 211//49 209//49
f 212//50 214//50 213//50 211//50
f 214//51 216//51 215//51 213//51
f 216//52 218//52 217//52 215//52
f 218//26 220//26 219//26 217//26
f 220//27 222//27 221//27 219//27
f 222//28 224//28 223//28 221//28
f 224//53 226//53 225//53 223//53
f 226//26 228//26 227//26 225//26
f 228//53 116//53 115//53 227//53
