# Blender3D v249 OBJ File: 
# www.blender3d.org
mtllib 72.mtl
v 0.065000 0.000000 0.050000
v 0.065000 0.449000 0.050000
v 0.154000 0.449000 0.050000
v 0.154000 0.000000 0.050000
v 0.102865 0.532489 0.050000
v 0.096005 0.533912 0.050000
v 0.089484 0.536203 0.050000
v 0.083370 0.539296 0.050000
v 0.077729 0.543126 0.050000
v 0.072625 0.547625 0.050000
v 0.068126 0.552729 0.050000
v 0.064296 0.558370 0.050000
v 0.061203 0.564484 0.050000
v 0.058912 0.571005 0.050000
v 0.057489 0.577865 0.050000
v 0.057000 0.585000 0.050000
v 0.057489 0.592135 0.050000
v 0.058912 0.598995 0.050000
v 0.061203 0.605516 0.050000
v 0.064296 0.611630 0.050000
v 0.068126 0.617271 0.050000
v 0.072625 0.622375 0.050000
v 0.077729 0.626874 0.050000
v 0.083370 0.630704 0.050000
v 0.089484 0.633797 0.050000
v 0.096005 0.636088 0.050000
v 0.102865 0.637511 0.050000
v 0.110000 0.638000 0.050000
v 0.117135 0.637511 0.050000
v 0.123995 0.636088 0.050000
v 0.130516 0.633797 0.050000
v 0.136630 0.630704 0.050000
v 0.142271 0.626874 0.050000
v 0.147375 0.622375 0.050000
v 0.151874 0.617271 0.050000
v 0.155704 0.611630 0.050000
v 0.158797 0.605516 0.050000
v 0.161088 0.598995 0.050000
v 0.162511 0.592135 0.050000
v 0.163000 0.585000 0.050000
v 0.162511 0.577865 0.050000
v 0.161088 0.571005 0.050000
v 0.158797 0.564484 0.050000
v 0.155704 0.558370 0.050000
v 0.151874 0.552729 0.050000
v 0.147375 0.547625 0.050000
v 0.142271 0.543126 0.050000
v 0.136630 0.539296 0.050000
v 0.130516 0.536203 0.050000
v 0.123995 0.533912 0.050000
v 0.117135 0.532489 0.050000
v 0.110000 0.532000 0.050000
v 0.065000 0.000000 -0.050000
v 0.065000 0.449000 -0.050000
v 0.154000 0.449000 -0.050000
v 0.154000 0.000000 -0.050000
v 0.102865 0.532489 -0.050000
v 0.096005 0.533912 -0.050000
v 0.089484 0.536203 -0.050000
v 0.083370 0.539296 -0.050000
v 0.077729 0.543126 -0.050000
v 0.072625 0.547625 -0.050000
v 0.068126 0.552729 -0.050000
v 0.064296 0.558370 -0.050000
v 0.061203 0.564484 -0.050000
v 0.058912 0.571005 -0.050000
v 0.057489 0.577865 -0.050000
v 0.057000 0.585000 -0.050000
v 0.057489 0.592135 -0.050000
v 0.058912 0.598995 -0.050000
v 0.061203 0.605516 -0.050000
v 0.064296 0.611630 -0.050000
v 0.068126 0.617271 -0.050000
v 0.072625 0.622375 -0.050000
v 0.077729 0.626874 -0.050000
v 0.083370 0.630704 -0.050000
v 0.089484 0.633797 -0.050000
v 0.096005 0.636088 -0.050000
v 0.102865 0.637511 -0.050000
v 0.110000 0.638000 -0.050000
v 0.117135 0.637511 -0.050000
v 0.123995 0.636088 -0.050000
v 0.130516 0.633797 -0.050000
v 0.136630 0.630704 -0.050000
v 0.142271 0.626874 -0.050000
v 0.147375 0.622375 -0.050000
v 0.151874 0.617271 -0.050000
v 0.155704 0.611630 -0.050000
v 0.158797 0.605516 -0.050000
v 0.161088 0.598995 -0.050000
v 0.162511 0.592135 -0.050000
v 0.163000 0.585000 -0.050000
v 0.162511 0.577865 -0.050000
v 0.161088 0.571005 -0.050000
v 0.158797 0.564484 -0.050000
v 0.155704 0.558370 -0.050000
v 0.151874 0.552729 -0.050000
v 0.147375 0.547625 -0.050000
v 0.142271 0.543126 -0.050000
v 0.136630 0.539296 -0.050000
v 0.130516 0.536203 -0.050000
v 0.123995 0.533912 -0.050000
v 0.117135 0.532489 -0.050000
v 0.110000 0.532000 -0.050000
v 0.065000 0.000000 -0.050000
v 0.065000 0.000000 0.050000
v 0.065000 0.449000 -0.050000
v 0.065000 0.449000 0.050000
v 0.154000 0.449000 -0.050000
v 0.154000 0.449000 0.050000
v 0.154000 0.000000 -0.050000
v 0.154000 0.000000 0.050000
v 0.102865 0.532489 -0.050000
v 0.102865 0.532489 0.050000
v 0.096005 0.533912 -0.050000
v 0.096005 0.533912 0.050000
v 0.089484 0.536203 -0.050000
v 0.089484 0.536203 0.050000
v 0.083370 0.539296 -0.050000
v 0.083370 0.539296 0.050000
v 0.077729 0.543126 -0.050000
v 0.077729 0.543126 0.050000
v 0.072625 0.547625 -0.050000
v 0.072625 0.547625 0.050000
v 0.068126 0.552729 -0.050000
v 0.068126 0.552729 0.050000
v 0.064296 0.558370 -0.050000
v 0.064296 0.558370 0.050000
v 0.061203 0.564484 -0.050000
v 0.061203 0.564484 0.050000
v 0.058912 0.571005 -0.050000
v 0.058912 0.571005 0.050000
v 0.057489 0.577865 -0.050000
v 0.057489 0.577865 0.050000
v 0.057000 0.585000 -0.050000
v 0.057000 0.585000 0.050000
v 0.057489 0.592135 -0.050000
v 0.057489 0.592135 0.050000
v 0.058912 0.598995 -0.050000
v 0.058912 0.598995 0.050000
v 0.061203 0.605516 -0.050000
v 0.061203 0.605516 0.050000
v 0.064296 0.611630 -0.050000
v 0.064296 0.611630 0.050000
v 0.068126 0.617271 -0.050000
v 0.068126 0.617271 0.050000
v 0.072625 0.622375 -0.050000
v 0.072625 0.622375 0.050000
v 0.077729 0.626874 -0.050000
v 0.077729 0.626874 0.050000
v 0.083370 0.630704 -0.050000
v 0.083370 0.630704 0.050000
v 0.089484 0.633797 -0.050000
v 0.089484 0.633797 0.050000
v 0.096005 0.636088 -0.050000
v 0.096005 0.636088 0.050000
v 0.102865 0.637511 -0.050000
v 0.102865 0.637511 0.050000
v 0.110000 0.638000 -0.050000
v 0.110000 0.638000 0.050000
v 0.117135 0.637511 -0.050000
v 0.117135 0.637511 0.050000
v 0.123995 0.636088 -0.050000
v 0.123995 0.636088 0.050000
v 0.130516 0.633797 -0.050000
v 0.130516 0.633797 0.050000
v 0.136630 0.630704 -0.050000
v 0.136630 0.630704 0.050000
v 0.142271 0.626874 -0.050000
v 0.142271 0.626874 0.050000
v 0.147375 0.622375 -0.050000
v 0.147375 0.622375 0.050000
v 0.151874 0.617271 -0.050000
v 0.151874 0.617271 0.050000
v 0.155704 0.611630 -0.050000
v 0.155704 0.611630 0.050000
v 0.158797 0.605516 -0.050000
v 0.158797 0.605516 0.050000
v 0.161088 0.598995 -0.050000
v 0.161088 0.598995 0.050000
v 0.162511 0.592135 -0.050000
v 0.162511 0.592135 0.050000
v 0.163000 0.585000 -0.050000
v 0.163000 0.585000 0.050000
v 0.162511 0.577865 -0.050000
v 0.162511 0.577865 0.050000
v 0.161088 0.571005 -0.050000
v 0.161088 0.571005 0.050000
v 0.158797 0.564484 -0.050000
v 0.158797 0.564484 0.050000
v 0.155704 0.558370 -0.050000
v 0.155704 0.558370 0.050000
v 0.151874 0.552729 -0.050000
v 0.151874 0.552729 0.050000
v 0.147375 0.547625 -0.050000
v 0.147375 0.547625 0.050000
v 0.142271 0.543126 -0.050000
v 0.142271 0.543126 0.050000
v 0.136630 0.539296 -0.050000
v 0.136630 0.539296 0.050000
v 0.130516 0.536203 -0.050000
v 0.130516 0.536203 0.050000
v 0.123995 0.533912 -0.050000
v 0.123995 0.533912 0.050000
v 0.117135 0.532489 -0.050000
v 0.117135 0.532489 0.050000
v 0.110000 0.532000 -0.050000
v 0.110000 0.532000 0.050000
vn 0.000000 0.000000 1.000000
vn -1.000000 0.000000 0.000000
vn 0.000000 1.000000 0.000000
vn 1.000000 0.000000 0.000000
vn 0.000000 -1.000000 0.000000
vn -0.203104 -0.979157 0.000000
vn -0.331510 -0.943452 0.000000
vn -0.451433 -0.892305 0.000000
vn -0.561597 -0.827411 0.000000
vn -0.661308 -0.750114 0.000000
vn -0.750111 -0.661312 0.000000
vn -0.827414 -0.561593 0.000000
vn -0.892306 -0.451431 0.000000
vn -0.943452 -0.331510 0.000000
vn -0.979158 -0.203101 0.000000
vn -0.997660 -0.068377 0.000000
vn -0.997660 0.068377 0.000000
vn -0.979158 0.203101 0.000000
vn -0.943452 0.331510 0.000000
vn -0.892306 0.451431 0.000000
vn -0.827411 0.561597 0.000000
vn -0.750111 0.661312 0.000000
vn -0.661313 0.750110 0.000000
vn -0.561597 0.827411 0.000000
vn -0.451426 0.892309 0.000000
vn -0.331510 0.943452 0.000000
vn -0.203104 0.979157 0.000000
vn -0.068376 0.997660 0.000000
vn 0.068376 0.997660 0.000000
vn 0.203104 0.979157 0.000000
vn 0.331510 0.943452 0.000000
vn 0.451426 0.892309 0.000000
vn 0.561597 0.827411 0.000000
vn 0.661313 0.750110 0.000000
vn 0.750111 0.661312 0.000000
vn 0.827411 0.561597 0.000000
vn 0.892306 0.451431 0.000000
vn 0.943452 0.331509 0.000000
vn 0.979158 0.203101 0.000000
vn 0.997660 0.068378 0.000000
vn 0.997660 -0.068378 0.000000
vn 0.979158 -0.203101 0.000000
vn 0.943452 -0.331509 0.000000
vn 0.892306 -0.451431 0.000000
vn 0.827414 -0.561593 0.000000
vn 0.750111 -0.661312 0.000000
vn 0.661308 -0.750114 0.000000
vn 0.561597 -0.827411 0.000000
vn 0.451433 -0.892305 0.000000
vn 0.331510 -0.943452 0.000000
vn 0.203104 -0.979157 0.000000
vn 0.068376 -0.997660 0.000000
vn -0.068376 -0.997660 0.000000
usemtl (null)
s off
f 27//1 29//1 28//1
f 26//1 29//1 27//1
f 26//1 30//1 29//1
f 25//1 30//1 26//1
f 25//1 31//1 30//1
f 24//1 31//1 25//1
f 24//1 32//1 31//1
f 23//1 32//1 24//1
f 23//1 33//1 32//1
f 22//1 33//1 23//1
f 22//1 34//1 33//1
f 21//1 34//1 22//1
f 21//1 35//1 34//1
f 20//1 35//1 21//1
f 20//1 36//1 35//1
f 19//1 36//1 20//1
f 19//1 37//1 36//1
f 18//1 37//1 19//1
f 18//1 38//1 37//1
f 17//1 38//1 18//1
f 17//1 39//1 38//1
f 16//1 39//1 17//1
f 16//1 40//1 39//1
f 15//1 40//1 16//1
f 15//1 41//1 40//1
f 14//1 41//1 15//1
f 14//1 42//1 41//1
f 13//1 42//1 14//1
f 13//1 43//1 42//1
f 12//1 43//1 13//1
f 12//1 44//1 43//1
f 11//1 44//1 12//1
f 11//1 45//1 44//1
f 10//1 45//1 11//1
f 10//1 46//1 45//1
f 9//1 46//1 10//1
f 9//1 47//1 46//1
f 8//1 47//1 9//1
f 8//1 48//1 47//1
f 7//1 48//1 8//1
f 7//1 49//1 48//1
f 6//1 49//1 7//1
f 6//1 50//1 49//1
f 5//1 50//1 6//1
f 5//1 51//1 50//1
f 52//1 51//1 5//1
f 1//1 3//1 2//1
f 1//1 4//1 3//1
f 79//1 81//1 80//1
f 78//1 81//1 79//1
f 78//1 82//1 81//1
f 77//1 82//1 78//1
f 77//1 83//1 82//1
f 76//1 83//1 77//1
f 76//1 84//1 83//1
f 75//1 84//1 76//1
f 75//1 85//1 84//1
f 74//1 85//1 75//1
f 74//1 86//1 85//1
f 73//1 86//1 74//1
f 73//1 87//1 86//1
f 72//1 87//1 73//1
f 72//1 88//1 87//1
f 71//1 88//1 72//1
f 71//1 89//1 88//1
f 70//1 89//1 71//1
f 70//1 90//1 89//1
f 69//1 90//1 70//1
f 69//1 91//1 90//1
f 68//1 91//1 69//1
f 68//1 92//1 91//1
f 67//1 92//1 68//1
f 67//1 93//1 92//1
f 66//1 93//1 67//1
f 66//1 94//1 93//1
f 65//1 94//1 66//1
f 65//1 95//1 94//1
f 64//1 95//1 65//1
f 64//1 96//1 95//1
f 63//1 96//1 64//1
f 63//1 97//1 96//1
f 62//1 97//1 63//1
f 62//1 98//1 97//1
f 61//1 98//1 62//1
f 61//1 99//1 98//1
f 60//1 99//1 61//1
f 60//1 100//1 99//1
f 59//1 100//1 60//1
f 59//1 101//1 100//1
f 58//1 101//1 59//1
f 58//1 102//1 101//1
f 57//1 102//1 58//1
f 57//1 103//1 102//1
f 104//1 103//1 57//1
f 53//1 55//1 54//1
f 53//1 56//1 55//1
f 106//2 108//2 107//2 105//2
f 108//3 110//3 109//3 107//3
f 110//4 112//4 111//4 109//4
f 112//5 106//5 105//5 111//5
f 114//6 116//6 115//6 113//6
f 116//7 118//7 117//7 115//7
f 118//8 120//8 119//8 117//8
f 120//9 122//9 121//9 119//9
f 122//10 124//10 123//10 121//10
f 124//11 126//11 125//11 123//11
f 126//12 128//12 127//12 125//12
f 128//13 130//13 129//13 127//13
f 130//14 132//14 131//14 129//14
f 132//15 134//15 133//15 131//15
f 134//16 136//16 135//16 133//16
f 136//17 138//17 137//17 135//17
f 138//18 140//18 139//18 137//18
f 140//19 142//19 141//19 139//19
f 142//20 144//20 143//20 141//20
f 144//21 146//21 145//21 143//21
f 146//22 148//22 147//22 145//22
f 148//23 150//23 149//23 147//23
f 150//24 152//24 151//24 149//24
f 152//25 154//25 153//25 151//25
f 154//26 156//26 155//26 153//26
f 156//27 158//27 157//27 155//27
f 158//28 160//28 159//28 157//28
f 160//29 162//29 161//29 159//29
f 162//30 164//30 163//30 161//30
f 164//31 166//31 165//31 163//31
f 166//32 168//32 167//32 165//32
f 168//33 170//33 169//33 167//33
f 170//34 172//34 171//34 169//34
f 172//35 174//35 173//35 171//35
f 174//36 176//36 175//36 173//36
f 176//37 178//37 177//37 175//37
f 178//38 180//38 179//38 177//38
f 180//39 182//39 181//39 179//39
f 182//40 184//40 183//40 181//40
f 184//41 186//41 185//41 183//41
f 186//42 188//42 187//42 185//42
f 188//43 190//43 189//43 187//43
f 190//44 192//44 191//44 189//44
f 192//45 194//45 193//45 191//45
f 194//46 196//46 195//46 193//46
f 196//47 198//47 197//47 195//47
f 198//48 200//48 199//48 197//48
f 200//49 202//49 201//49 199//49
f 202//50 204//50 203//50 201//50
f 204//51 206//51 205//51 203//51
f 206//52 208//52 207//52 205//52
f 208//53 114//53 113//53 207//53
