# Blender3D v249 OBJ File: 
# www.blender3d.org
mtllib 78.mtl
v 0.513969 0.194487 0.050000
v 0.508000 0.162065 0.050000
v 0.498281 0.131906 0.050000
v 0.485000 0.104185 0.050000
v 0.468344 0.079075 0.050000
v 0.448500 0.056750 0.050000
v 0.425656 0.037383 0.050000
v 0.400000 0.021148 0.050000
v 0.371719 0.008219 0.050000
v 0.341000 -0.001231 0.050000
v 0.308031 -0.007029 0.050000
v 0.273000 -0.009000 0.050000
v 0.239347 -0.006953 0.050000
v 0.207528 -0.000954 0.050000
v 0.177750 0.008781 0.050000
v 0.150222 0.022037 0.050000
v 0.125153 0.038598 0.050000
v 0.102750 0.058250 0.050000
v 0.083222 0.080777 0.050000
v 0.066778 0.105963 0.050000
v 0.053625 0.133594 0.050000
v 0.043972 0.163454 0.050000
v 0.038028 0.195328 0.050000
v 0.036000 0.229000 0.050000
v 0.038104 0.260605 0.050000
v 0.044250 0.290755 0.050000
v 0.054188 0.319203 0.050000
v 0.067667 0.345704 0.050000
v 0.084438 0.370010 0.050000
v 0.104250 0.391875 0.050000
v 0.126854 0.411053 0.050000
v 0.152000 0.427296 0.050000
v 0.179438 0.440359 0.050000
v 0.208917 0.449995 0.050000
v 0.240188 0.455958 0.050000
v 0.273000 0.458000 0.050000
v 0.307401 0.456034 0.050000
v 0.339958 0.450273 0.050000
v 0.370453 0.440922 0.050000
v 0.398667 0.428185 0.050000
v 0.424380 0.412268 0.050000
v 0.447375 0.393375 0.050000
v 0.467432 0.371711 0.050000
v 0.484333 0.347481 0.050000
v 0.497859 0.320891 0.050000
v 0.507792 0.292144 0.050000
v 0.513911 0.261445 0.050000
v 0.516000 0.229000 0.050000
v 0.128211 0.205935 0.050000
v 0.131769 0.184310 0.050000
v 0.137562 0.164234 0.050000
v 0.145481 0.145815 0.050000
v 0.155414 0.129159 0.050000
v 0.167250 0.114375 0.050000
v 0.180877 0.101570 0.050000
v 0.196185 0.090852 0.050000
v 0.213063 0.082328 0.050000
v 0.231398 0.076106 0.050000
v 0.251081 0.072295 0.050000
v 0.272000 0.071000 0.050000
v 0.294757 0.072237 0.050000
v 0.315972 0.075894 0.050000
v 0.335563 0.081891 0.050000
v 0.353444 0.090148 0.050000
v 0.369535 0.100586 0.050000
v 0.383750 0.113125 0.050000
v 0.396007 0.127685 0.050000
v 0.406222 0.144185 0.050000
v 0.414313 0.162547 0.050000
v 0.420194 0.182690 0.050000
v 0.423785 0.204534 0.050000
v 0.425000 0.228000 0.050000
v 0.423689 0.249227 0.050000
v 0.419847 0.269319 0.050000
v 0.413609 0.288141 0.050000
v 0.405111 0.305556 0.050000
v 0.394488 0.321429 0.050000
v 0.381875 0.335625 0.050000
v 0.367408 0.348009 0.050000
v 0.351222 0.358444 0.050000
v 0.333453 0.366797 0.050000
v 0.314236 0.372931 0.050000
v 0.293707 0.376710 0.050000
v 0.272000 0.378000 0.050000
v 0.251501 0.376711 0.050000
v 0.232093 0.372935 0.050000
v 0.213906 0.366813 0.050000
v 0.197074 0.358481 0.050000
v 0.181728 0.348081 0.050000
v 0.168000 0.335750 0.050000
v 0.156022 0.321627 0.050000
v 0.145926 0.305852 0.050000
v 0.137844 0.288563 0.050000
v 0.131907 0.269898 0.050000
v 0.128249 0.249998 0.050000
v 0.127000 0.229000 0.050000
v 0.513969 0.194487 -0.050000
v 0.508000 0.162065 -0.050000
v 0.498281 0.131906 -0.050000
v 0.485000 0.104185 -0.050000
v 0.468344 0.079075 -0.050000
v 0.448500 0.056750 -0.050000
v 0.425656 0.037383 -0.050000
v 0.400000 0.021148 -0.050000
v 0.371719 0.008219 -0.050000
v 0.341000 -0.001231 -0.050000
v 0.308031 -0.007029 -0.050000
v 0.273000 -0.009000 -0.050000
v 0.239347 -0.006953 -0.050000
v 0.207528 -0.000954 -0.050000
v 0.177750 0.008781 -0.050000
v 0.150222 0.022037 -0.050000
v 0.125153 0.038598 -0.050000
v 0.102750 0.058250 -0.050000
v 0.083222 0.080777 -0.050000
v 0.066778 0.105963 -0.050000
v 0.053625 0.133594 -0.050000
v 0.043972 0.163454 -0.050000
v 0.038028 0.195328 -0.050000
v 0.036000 0.229000 -0.050000
v 0.038104 0.260605 -0.050000
v 0.044250 0.290755 -0.050000
v 0.054188 0.319203 -0.050000
v 0.067667 0.345704 -0.050000
v 0.084438 0.370010 -0.050000
v 0.104250 0.391875 -0.050000
v 0.126854 0.411053 -0.050000
v 0.152000 0.427296 -0.050000
v 0.179438 0.440359 -0.050000
v 0.208917 0.449995 -0.050000
v 0.240188 0.455958 -0.050000
v 0.273000 0.458000 -0.050000
v 0.307401 0.456034 -0.050000
v 0.339958 0.450273 -0.050000
v 0.370453 0.440922 -0.050000
v 0.398667 0.428185 -0.050000
v 0.424380 0.412268 -0.050000
v 0.447375 0.393375 -0.050000
v 0.467432 0.371711 -0.050000
v 0.484333 0.347481 -0.050000
v 0.497859 0.320891 -0.050000
v 0.507792 0.292144 -0.050000
v 0.513911 0.261445 -0.050000
v 0.516000 0.229000 -0.050000
v 0.128211 0.205935 -0.050000
v 0.131769 0.184310 -0.050000
v 0.137562 0.164234 -0.050000
v 0.145481 0.145815 -0.050000
v 0.155414 0.129159 -0.050000
v 0.167250 0.114375 -0.050000
v 0.180877 0.101570 -0.050000
v 0.196185 0.090852 -0.050000
v 0.213063 0.082328 -0.050000
v 0.231398 0.076106 -0.050000
v 0.251081 0.072295 -0.050000
v 0.272000 0.071000 -0.050000
v 0.294757 0.072237 -0.050000
v 0.315972 0.075894 -0.050000
v 0.335563 0.081891 -0.050000
v 0.353444 0.090148 -0.050000
v 0.369535 0.100586 -0.050000
v 0.383750 0.113125 -0.050000
v 0.396007 0.127685 -0.050000
v 0.406222 0.144185 -0.050000
v 0.414313 0.162547 -0.050000
v 0.420194 0.182690 -0.050000
v 0.423785 0.204534 -0.050000
v 0.425000 0.228000 -0.050000
v 0.423689 0.249227 -0.050000
v 0.419847 0.269319 -0.050000
v 0.413609 0.288141 -0.050000
v 0.405111 0.305556 -0.050000
v 0.394488 0.321429 -0.050000
v 0.381875 0.335625 -0.050000
v 0.367408 0.348009 -0.050000
v 0.351222 0.358444 -0.050000
v 0.333453 0.366797 -0.050000
v 0.314236 0.372931 -0.050000
v 0.293707 0.376710 -0.050000
v 0.272000 0.378000 -0.050000
v 0.251501 0.376711 -0.050000
v 0.232093 0.372935 -0.050000
v 0.213906 0.366813 -0.050000
v 0.197074 0.358481 -0.050000
v 0.181728 0.348081 -0.050000
v 0.168000 0.335750 -0.050000
v 0.156022 0.321627 -0.050000
v 0.145926 0.305852 -0.050000
v 0.137844 0.288563 -0.050000
v 0.131907 0.269898 -0.050000
v 0.128249 0.249998 -0.050000
v 0.127000 0.229000 -0.050000
v 0.513969 0.194487 -0.050000
v 0.513969 0.194487 0.050000
v 0.508000 0.162065 -0.050000
v 0.508000 0.162065 0.050000
v 0.498281 0.131906 -0.050000
v 0.498281 0.131906 0.050000
v 0.485000 0.104185 -0.050000
v 0.485000 0.104185 0.050000
v 0.468344 0.079075 -0.050000
v 0.468344 0.079075 0.050000
v 0.448500 0.056750 -0.050000
v 0.448500 0.056750 0.050000
v 0.425656 0.037383 -0.050000
v 0.425656 0.037383 0.050000
v 0.400000 0.021148 -0.050000
v 0.400000 0.021148 0.050000
v 0.371719 0.008219 -0.050000
v 0.371719 0.008219 0.050000
v 0.341000 -0.001231 -0.050000
v 0.341000 -0.001231 0.050000
v 0.308031 -0.007029 -0.050000
v 0.308031 -0.007029 0.050000
v 0.273000 -0.009000 -0.050000
v 0.273000 -0.009000 0.050000
v 0.239347 -0.006953 -0.050000
v 0.239347 -0.006953 0.050000
v 0.207528 -0.000954 -0.050000
v 0.207528 -0.000954 0.050000
v 0.177750 0.008781 -0.050000
v 0.177750 0.008781 0.050000
v 0.150222 0.022037 -0.050000
v 0.150222 0.022037 0.050000
v 0.125153 0.038598 -0.050000
v 0.125153 0.038598 0.050000
v 0.102750 0.058250 -0.050000
v 0.102750 0.058250 0.050000
v 0.083222 0.080777 -0.050000
v 0.083222 0.080777 0.050000
v 0.066778 0.105963 -0.050000
v 0.066778 0.105963 0.050000
v 0.053625 0.133594 -0.050000
v 0.053625 0.133594 0.050000
v 0.043972 0.163454 -0.050000
v 0.043972 0.163454 0.050000
v 0.038028 0.195328 -0.050000
v 0.038028 0.195328 0.050000
v 0.036000 0.229000 -0.050000
v 0.036000 0.229000 0.050000
v 0.038104 0.260605 -0.050000
v 0.038104 0.260605 0.050000
v 0.044250 0.290755 -0.050000
v 0.044250 0.290755 0.050000
v 0.054188 0.319203 -0.050000
v 0.054188 0.319203 0.050000
v 0.067667 0.345704 -0.050000
v 0.067667 0.345704 0.050000
v 0.084438 0.370010 -0.050000
v 0.084438 0.370010 0.050000
v 0.104250 0.391875 -0.050000
v 0.104250 0.391875 0.050000
v 0.126854 0.411053 -0.050000
v 0.126854 0.411053 0.050000
v 0.152000 0.427296 -0.050000
v 0.152000 0.427296 0.050000
v 0.179438 0.440359 -0.050000
v 0.179438 0.440359 0.050000
v 0.208917 0.449995 -0.050000
v 0.208917 0.449995 0.050000
v 0.240188 0.455958 -0.050000
v 0.240188 0.455958 0.050000
v 0.273000 0.458000 -0.050000
v 0.273000 0.458000 0.050000
v 0.307401 0.456034 -0.050000
v 0.307401 0.456034 0.050000
v 0.339958 0.450273 -0.050000
v 0.339958 0.450273 0.050000
v 0.370453 0.440922 -0.050000
v 0.370453 0.440922 0.050000
v 0.398667 0.428185 -0.050000
v 0.398667 0.428185 0.050000
v 0.424380 0.412268 -0.050000
v 0.424380 0.412268 0.050000
v 0.447375 0.393375 -0.050000
v 0.447375 0.393375 0.050000
v 0.467432 0.371711 -0.050000
v 0.467432 0.371711 0.050000
v 0.484333 0.347481 -0.050000
v 0.484333 0.347481 0.050000
v 0.497859 0.320891 -0.050000
v 0.497859 0.320891 0.050000
v 0.507792 0.292144 -0.050000
v 0.507792 0.292144 0.050000
v 0.513911 0.261445 -0.050000
v 0.513911 0.261445 0.050000
v 0.516000 0.229000 -0.050000
v 0.516000 0.229000 0.050000
v 0.128211 0.205935 -0.050000
v 0.128211 0.205935 0.050000
v 0.131769 0.184310 -0.050000
v 0.131769 0.184310 0.050000
v 0.137562 0.164234 -0.050000
v 0.137562 0.164234 0.050000
v 0.145481 0.145815 -0.050000
v 0.145481 0.145815 0.050000
v 0.155414 0.129159 -0.050000
v 0.155414 0.129159 0.050000
v 0.167250 0.114375 -0.050000
v 0.167250 0.114375 0.050000
v 0.180877 0.101570 -0.050000
v 0.180877 0.101570 0.050000
v 0.196185 0.090852 -0.050000
v 0.196185 0.090852 0.050000
v 0.213063 0.082328 -0.050000
v 0.213063 0.082328 0.050000
v 0.231398 0.076106 -0.050000
v 0.231398 0.076106 0.050000
v 0.251081 0.072295 -0.050000
v 0.251081 0.072295 0.050000
v 0.272000 0.071000 -0.050000
v 0.272000 0.071000 0.050000
v 0.294757 0.072237 -0.050000
v 0.294757 0.072237 0.050000
v 0.315972 0.075894 -0.050000
v 0.315972 0.075894 0.050000
v 0.335563 0.081891 -0.050000
v 0.335563 0.081891 0.050000
v 0.353444 0.090148 -0.050000
v 0.353444 0.090148 0.050000
v 0.369535 0.100586 -0.050000
v 0.369535 0.100586 0.050000
v 0.383750 0.113125 -0.050000
v 0.383750 0.113125 0.050000
v 0.396007 0.127685 -0.050000
v 0.396007 0.127685 0.050000
v 0.406222 0.144185 -0.050000
v 0.406222 0.144185 0.050000
v 0.414313 0.162547 -0.050000
v 0.414313 0.162547 0.050000
v 0.420194 0.182690 -0.050000
v 0.420194 0.182690 0.050000
v 0.423785 0.204534 -0.050000
v 0.423785 0.204534 0.050000
v 0.425000 0.228000 -0.050000
v 0.425000 0.228000 0.050000
v 0.423689 0.249227 -0.050000
v 0.423689 0.249227 0.050000
v 0.419847 0.269319 -0.050000
v 0.419847 0.269319 0.050000
v 0.413609 0.288141 -0.050000
v 0.413609 0.288141 0.050000
v 0.405111 0.305556 -0.050000
v 0.405111 0.305556 0.050000
v 0.394488 0.321429 -0.050000
v 0.394488 0.321429 0.050000
v 0.381875 0.335625 -0.050000
v 0.381875 0.335625 0.050000
v 0.367408 0.348009 -0.050000
v 0.367408 0.348009 0.050000
v 0.351222 0.358444 -0.050000
v 0.351222 0.358444 0.050000
v 0.333453 0.366797 -0.050000
v 0.333453 0.366797 0.050000
v 0.314236 0.372931 -0.050000
v 0.314236 0.372931 0.050000
v 0.293707 0.376710 -0.050000
v 0.293707 0.376710 0.050000
v 0.272000 0.378000 -0.050000
v 0.272000 0.378000 0.050000
v 0.251501 0.376711 -0.050000
v 0.251501 0.376711 0.050000
v 0.232093 0.372935 -0.050000
v 0.232093 0.372935 0.050000
v 0.213906 0.366813 -0.050000
v 0.213906 0.366813 0.050000
v 0.197074 0.358481 -0.050000
v 0.197074 0.358481 0.050000
v 0.181728 0.348081 -0.050000
v 0.181728 0.348081 0.050000
v 0.168000 0.335750 -0.050000
v 0.168000 0.335750 0.050000
v 0.156022 0.321627 -0.050000
v 0.156022 0.321627 0.050000
v 0.145926 0.305852 -0.050000
v 0.145926 0.305852 0.050000
v 0.137844 0.288563 -0.050000
v 0.137844 0.288563 0.050000
v 0.131907 0.269898 -0.050000
v 0.131907 0.269898 0.050000
v 0.128249 0.249998 -0.050000
v 0.128249 0.249998 0.050000
v 0.127000 0.229000 -0.050000
v 0.127000 0.229000 0.050000
vn 0.000000 0.000000 1.000000
vn 0.983474 -0.181051 0.000000
vn 0.951799 -0.306722 0.000000
vn 0.901839 -0.432073 0.000000
vn 0.833330 -0.552776 0.000000
vn 0.747425 -0.664347 0.000000
vn 0.646673 -0.762768 0.000000
vn 0.534723 -0.845028 0.000000
vn 0.415782 -0.909464 0.000000
vn 0.294038 -0.955794 0.000000
vn 0.173190 -0.984888 0.000000
vn 0.056177 -0.998421 0.000000
vn -0.060728 -0.998154 0.000000
vn -0.185264 -0.982689 0.000000
vn -0.310736 -0.950496 0.000000
vn -0.433860 -0.900980 0.000000
vn -0.551202 -0.834372 0.000000
vn -0.659439 -0.751758 0.000000
vn -0.755611 -0.655021 0.000000
vn -0.837328 -0.546701 0.000000
vn -0.902921 -0.429807 0.000000
vn -0.951517 -0.307595 0.000000
vn -0.983050 -0.183338 0.000000
vn -0.998192 -0.060112 0.000000
vn -0.997791 0.066430 0.000000
vn -0.979850 0.199735 0.000000
vn -0.944060 0.329775 0.000000
vn -0.891327 0.453362 0.000000
vn -0.823087 0.567916 0.000000
vn -0.741034 0.671467 0.000000
vn -0.646945 0.762536 0.000000
vn -0.542611 0.839984 0.000000
vn -0.429870 0.902891 0.000000
vn -0.310697 0.950509 0.000000
vn -0.187296 0.982304 0.000000
vn -0.062119 0.998069 0.000000
vn 0.057052 0.998371 0.000000
vn 0.174243 0.984703 0.000000
vn 0.293177 0.956058 0.000000
vn 0.411455 0.911430 0.000000
vn 0.526339 0.850275 0.000000
vn 0.634826 0.772655 0.000000
vn 0.733791 0.679376 0.000000
vn 0.820182 0.572103 0.000000
vn 0.891314 0.453387 0.000000
vn 0.945175 0.326563 0.000000
vn 0.980703 0.195505 0.000000
vn 0.997935 0.064239 0.000000
vn 0.998272 -0.058754 0.000000
vn 0.986734 0.162348 0.000000
vn 0.960787 0.277288 0.000000
vn 0.918695 0.394968 0.000000
vn 0.858867 0.512199 0.000000
vn 0.780654 0.624963 0.000000
vn 0.684776 0.728753 0.000000
vn 0.573558 0.819165 0.000000
vn 0.450809 0.892620 0.000000
vn 0.321325 0.946969 0.000000
vn 0.190134 0.981758 0.000000
vn 0.061766 0.998091 0.000000
vn -0.054263 0.998527 0.000000
vn -0.169863 0.985468 0.000000
vn -0.292718 0.956199 0.000000
vn -0.419239 0.907876 0.000000
vn -0.544233 0.838934 0.000000
vn -0.661499 0.749946 0.000000
vn -0.765009 0.644020 0.000000
vn -0.850251 0.526377 0.000000
vn -0.915110 0.403204 0.000000
vn -0.959911 0.280303 0.000000
vn -0.986761 0.162182 0.000000
vn -0.998662 0.051720 0.000000
vn -0.998099 -0.061631 0.000000
vn -0.982204 -0.187817 0.000000
vn -0.949224 -0.314600 0.000000
vn -0.898704 -0.438556 0.000000
vn -0.831056 -0.556189 0.000000
vn -0.747566 -0.664188 0.000000
vn -0.650288 -0.759688 0.000000
vn -0.541882 -0.840454 0.000000
vn -0.425402 -0.905004 0.000000
vn -0.304067 -0.952651 0.000000
vn -0.181058 -0.983472 0.000000
vn -0.059321 -0.998239 0.000000
vn 0.062774 -0.998028 0.000000
vn 0.190947 -0.981600 0.000000
vn 0.319067 -0.947732 0.000000
vn 0.443587 -0.896231 0.000000
vn 0.561023 -0.827800 0.000000
vn 0.668241 -0.743945 0.000000
vn 0.762638 -0.646825 0.000000
vn 0.842277 -0.539045 0.000000
vn 0.905906 -0.423479 0.000000
vn 0.952960 -0.303096 0.000000
vn 0.983517 -0.180814 0.000000
vn 0.998236 -0.059370 0.000000
vn 0.998625 0.052415 0.000000
usemtl (null)
s off
f 35//1 37//1 36//1
f 35//1 38//1 37//1
f 34//1 38//1 35//1
f 34//1 39//1 38//1
f 33//1 39//1 34//1
f 33//1 40//1 39//1
f 32//1 40//1 33//1
f 32//1 41//1 40//1
f 31//1 41//1 32//1
f 31//1 42//1 41//1
f 30//1 42//1 31//1
f 30//1 43//1 42//1
f 29//1 84//1 30//1
f 84//1 43//1 30//1
f 29//1 85//1 84//1
f 83//1 43//1 84//1
f 29//1 86//1 85//1
f 82//1 43//1 83//1
f 29//1 87//1 86//1
f 81//1 43//1 82//1
f 81//1 44//1 43//1
f 28//1 87//1 29//1
f 28//1 88//1 87//1
f 80//1 44//1 81//1
f 28//1 89//1 88//1
f 79//1 44//1 80//1
f 28//1 90//1 89//1
f 78//1 44//1 79//1
f 78//1 45//1 44//1
f 27//1 90//1 28//1
f 27//1 91//1 90//1
f 77//1 45//1 78//1
f 27//1 92//1 91//1
f 76//1 45//1 77//1
f 76//1 46//1 45//1
f 26//1 92//1 27//1
f 26//1 93//1 92//1
f 75//1 46//1 76//1
f 75//1 47//1 46//1
f 25//1 93//1 26//1
f 25//1 94//1 93//1
f 74//1 47//1 75//1
f 25//1 95//1 94//1
f 73//1 47//1 74//1
f 73//1 48//1 47//1
f 24//1 95//1 25//1
f 24//1 96//1 95//1
f 72//1 48//1 73//1
f 23//1 96//1 24//1
f 23//1 49//1 96//1
f 72//1 1//1 48//1
f 71//1 1//1 72//1
f 23//1 50//1 49//1
f 70//1 1//1 71//1
f 22//1 50//1 23//1
f 2//1 1//1 70//1
f 22//1 51//1 50//1
f 69//1 2//1 70//1
f 22//1 52//1 51//1
f 21//1 52//1 22//1
f 68//1 2//1 69//1
f 68//1 3//1 2//1
f 21//1 53//1 52//1
f 67//1 3//1 68//1
f 20//1 53//1 21//1
f 67//1 4//1 3//1
f 20//1 54//1 53//1
f 66//1 4//1 67//1
f 20//1 55//1 54//1
f 65//1 4//1 66//1
f 19//1 55//1 20//1
f 65//1 5//1 4//1
f 19//1 56//1 55//1
f 64//1 5//1 65//1
f 19//1 57//1 56//1
f 63//1 5//1 64//1
f 19//1 58//1 57//1
f 62//1 5//1 63//1
f 18//1 58//1 19//1
f 62//1 6//1 5//1
f 18//1 59//1 58//1
f 61//1 6//1 62//1
f 18//1 60//1 59//1
f 60//1 6//1 61//1
f 18//1 6//1 60//1
f 17//1 6//1 18//1
f 17//1 7//1 6//1
f 16//1 7//1 17//1
f 16//1 8//1 7//1
f 15//1 8//1 16//1
f 15//1 9//1 8//1
f 14//1 9//1 15//1
f 14//1 10//1 9//1
f 13//1 10//1 14//1
f 13//1 11//1 10//1
f 12//1 11//1 13//1
f 131//1 133//1 132//1
f 131//1 134//1 133//1
f 130//1 134//1 131//1
f 130//1 135//1 134//1
f 129//1 135//1 130//1
f 129//1 136//1 135//1
f 128//1 136//1 129//1
f 128//1 137//1 136//1
f 127//1 137//1 128//1
f 127//1 138//1 137//1
f 126//1 138//1 127//1
f 126//1 139//1 138//1
f 125//1 180//1 126//1
f 180//1 139//1 126//1
f 125//1 181//1 180//1
f 179//1 139//1 180//1
f 125//1 182//1 181//1
f 178//1 139//1 179//1
f 125//1 183//1 182//1
f 177//1 139//1 178//1
f 177//1 140//1 139//1
f 124//1 183//1 125//1
f 124//1 184//1 183//1
f 176//1 140//1 177//1
f 124//1 185//1 184//1
f 175//1 140//1 176//1
f 124//1 186//1 185//1
f 174//1 140//1 175//1
f 174//1 141//1 140//1
f 123//1 186//1 124//1
f 123//1 187//1 186//1
f 173//1 141//1 174//1
f 123//1 188//1 187//1
f 172//1 141//1 173//1
f 172//1 142//1 141//1
f 122//1 188//1 123//1
f 122//1 189//1 188//1
f 171//1 142//1 172//1
f 171//1 143//1 142//1
f 121//1 189//1 122//1
f 121//1 190//1 189//1
f 170//1 143//1 171//1
f 121//1 191//1 190//1
f 169//1 143//1 170//1
f 169//1 144//1 143//1
f 120//1 191//1 121//1
f 120//1 192//1 191//1
f 168//1 144//1 169//1
f 119//1 192//1 120//1
f 119//1 145//1 192//1
f 168//1 97//1 144//1
f 167//1 97//1 168//1
f 119//1 146//1 145//1
f 166//1 97//1 167//1
f 118//1 146//1 119//1
f 166//1 98//1 97//1
f 118//1 147//1 146//1
f 165//1 98//1 166//1
f 118//1 148//1 147//1
f 117//1 148//1 118//1
f 164//1 98//1 165//1
f 164//1 99//1 98//1
f 117//1 149//1 148//1
f 163//1 99//1 164//1
f 116//1 149//1 117//1
f 163//1 100//1 99//1
f 116//1 150//1 149//1
f 162//1 100//1 163//1
f 116//1 151//1 150//1
f 161//1 100//1 162//1
f 115//1 151//1 116//1
f 161//1 101//1 100//1
f 115//1 152//1 151//1
f 160//1 101//1 161//1
f 115//1 153//1 152//1
f 159//1 101//1 160//1
f 115//1 154//1 153//1
f 158//1 101//1 159//1
f 114//1 154//1 115//1
f 158//1 102//1 101//1
f 114//1 155//1 154//1
f 157//1 102//1 158//1
f 114//1 156//1 155//1
f 156//1 102//1 157//1
f 114//1 102//1 156//1
f 113//1 102//1 114//1
f 113//1 103//1 102//1
f 112//1 103//1 113//1
f 112//1 104//1 103//1
f 111//1 104//1 112//1
f 111//1 105//1 104//1
f 110//1 105//1 111//1
f 110//1 106//1 105//1
f 109//1 106//1 110//1
f 109//1 107//1 106//1
f 108//1 107//1 109//1
f 194//2 196//2 195//2 193//2
f 196//3 198//3 197//3 195//3
f 198//4 200//4 199//4 197//4
f 200//5 202//5 201//5 199//5
f 202//6 204//6 203//6 201//6
f 204//7 206//7 205//7 203//7
f 206//8 208//8 207//8 205//8
f 208//9 210//9 209//9 207//9
f 210//10 212//10 211//10 209//10
f 212//11 214//11 213//11 211//11
f 214//12 216//12 215//12 213//12
f 216//13 218//13 217//13 215//13
f 218//14 220//14 219//14 217//14
f 220//15 222//15 221//15 219//15
f 222//16 224//16 223//16 221//16
f 224//17 226//17 225//17 223//17
f 226//18 228//18 227//18 225//18
f 228//19 230//19 229//19 227//19
f 230//20 232//20 231//20 229//20
f 232//21 234//21 233//21 231//21
f 234//22 236//22 235//22 233//22
f 236//23 238//23 237//23 235//23
f 238//24 240//24 239//24 237//24
f 240//25 242//25 241//25 239//25
f 242//26 244//26 243//26 241//26
f 244//27 246//27 245//27 243//27
f 246//28 248//28 247//28 245//28
f 248//29 250//29 249//29 247//29
f 250//30 252//30 251//30 249//30
f 252//31 254//31 253//31 251//31
f 254//32 256//32 255//32 253//32
f 256//33 258//33 257//33 255//33
f 258//34 260//34 259//34 257//34
f 260//35 262//35 261//35 259//35
f 262//36 264//36 263//36 261//36
f 264//37 266//37 265//37 263//37
f 266//38 268//38 267//38 265//38
f 268//39 270//39 269//39 267//39
f 270//40 272//40 271//40 269//40
f 272//41 274//41 273//41 271//41
f 274//42 276//42 275//42 273//42
f 276//43 278//43 277//43 275//43
f 278//44 280//44 279//44 277//44
f 280//45 282//45 281//45 279//45
f 282//46 284//46 283//46 281//46
f 284//47 286//47 285//47 283//47
f 286//48 288//48 287//48 285//48
f 288//49 194//49 193//49 287//49
f 290//50 292//50 291//50 289//50
f 292//51 294//51 293//51 291//51
f 294//52 296//52 295//52 293//52
f 296//53 298//53 297//53 295//53
f 298//54 300//54 299//54 297//54
f 300//55 302//55 301//55 299//55
f 302//56 304//56 303//56 301//56
f 304//57 306//57 305//57 303//57
f 306//58 308//58 307//58 305//58
f 308//59 310//59 309//59 307//59
f 310//60 312//60 311//60 309//60
f 312//61 314//61 313//61 311//61
f 314//62 316//62 315//62 313//62
f 316//63 318//63 317//63 315//63
f 318//64 320//64 319//64 317//64
f 320//65 322//65 321//65 319//65
f 322//66 324//66 323//66 321//66
f 324//67 326//67 325//67 323//67
f 326//68 328//68 327//68 325//68
f 328//69 330//69 329//69 327//69
f 330//70 332//70 331//70 329//70
f 332//71 334//71 333//71 331//71
f 334//72 336//72 335//72 333//72
f 336//73 338//73 337//73 335//73
f 338//74 340//74 339//74 337//74
f 340//75 342//75 341//75 339//75
f 342//76 344//76 343//76 341//76
f 344//77 346//77 345//77 343//77
f 346//78 348//78 347//78 345//78
f 348//79 350//79 349//79 347//79
f 350//80 352//80 351//80 349//80
f 352//81 354//81 353//81 351//81
f 354//82 356//82 355//82 353//82
f 356//83 358//83 357//83 355//83
f 358//84 360//84 359//84 357//84
f 360//85 362//85 361//85 359//85
f 362//86 364//86 363//86 361//86
f 364//87 366//87 365//87 363//87
f 366//88 368//88 367//88 365//88
f 368//89 370//89 369//89 367//89
f 370//90 372//90 371//90 369//90
f 372//91 374//91 373//91 371//91
f 374//92 376//92 375//92 373//92
f 376//93 378//93 377//93 375//93
f 378//94 380//94 379//94 377//94
f 380//95 382//95 381//95 379//95
f 382//96 384//96 383//96 381//96
f 384//97 290//97 289//97 383//97
