# Blender3D v249 OBJ File: 
# www.blender3d.org
mtllib 80.mtl
v 0.345774 0.004584 0.050000
v 0.337611 0.002343 0.050000
v 0.329531 0.000281 0.050000
v 0.321556 -0.001593 0.050000
v 0.313705 -0.003272 0.050000
v 0.306000 -0.004750 0.050000
v 0.298462 -0.006020 0.050000
v 0.291111 -0.007074 0.050000
v 0.283969 -0.007906 0.050000
v 0.277056 -0.008509 0.050000
v 0.270392 -0.008876 0.050000
v 0.264000 -0.009000 0.050000
v 0.231575 -0.007053 0.050000
v 0.200931 -0.001338 0.050000
v 0.172266 0.007953 0.050000
v 0.145778 0.020630 0.050000
v 0.121665 0.036501 0.050000
v 0.100125 0.055375 0.050000
v 0.081356 0.077062 0.050000
v 0.065556 0.101370 0.050000
v 0.052922 0.128109 0.050000
v 0.043653 0.157088 0.050000
v 0.037946 0.188115 0.050000
v 0.036000 0.221000 0.050000
v 0.036828 0.240611 0.050000
v 0.039625 0.262889 0.050000
v 0.044859 0.287000 0.050000
v 0.053000 0.312111 0.050000
v 0.064516 0.337389 0.050000
v 0.079875 0.362000 0.050000
v 0.099547 0.385111 0.050000
v 0.124000 0.405889 0.050000
v 0.153703 0.423500 0.050000
v 0.189125 0.437111 0.050000
v 0.230734 0.445889 0.050000
v 0.279000 0.449000 0.050000
v 0.443000 0.449000 0.050000
v 0.443000 -0.230000 0.050000
v 0.354000 -0.230000 0.050000
v 0.354000 0.007000 0.050000
v 0.255212 0.368056 0.050000
v 0.237532 0.365194 0.050000
v 0.220234 0.360375 0.050000
v 0.203593 0.353556 0.050000
v 0.187881 0.344694 0.050000
v 0.173375 0.333750 0.050000
v 0.160348 0.320681 0.050000
v 0.149074 0.305444 0.050000
v 0.139828 0.288000 0.050000
v 0.132884 0.268306 0.050000
v 0.128517 0.246319 0.050000
v 0.127000 0.222000 0.050000
v 0.128229 0.200655 0.050000
v 0.131829 0.180236 0.050000
v 0.137672 0.160922 0.050000
v 0.145630 0.142889 0.050000
v 0.155574 0.126314 0.050000
v 0.167375 0.111375 0.050000
v 0.180906 0.098248 0.050000
v 0.196037 0.087111 0.050000
v 0.212641 0.078141 0.050000
v 0.230588 0.071514 0.050000
v 0.249751 0.067408 0.050000
v 0.270000 0.066000 0.050000
v 0.277019 0.066145 0.050000
v 0.284069 0.066579 0.050000
v 0.291141 0.067297 0.050000
v 0.298222 0.068296 0.050000
v 0.305304 0.069573 0.050000
v 0.312375 0.071125 0.050000
v 0.319425 0.072947 0.050000
v 0.326444 0.075037 0.050000
v 0.333422 0.077391 0.050000
v 0.340347 0.080005 0.050000
v 0.347210 0.082876 0.050000
v 0.354000 0.086000 0.050000
v 0.354000 0.369000 0.050000
v 0.273000 0.369000 0.050000
v 0.345774 0.004584 -0.050000
v 0.337611 0.002343 -0.050000
v 0.329531 0.000281 -0.050000
v 0.321556 -0.001593 -0.050000
v 0.313705 -0.003272 -0.050000
v 0.306000 -0.004750 -0.050000
v 0.298462 -0.006020 -0.050000
v 0.291111 -0.007074 -0.050000
v 0.283969 -0.007906 -0.050000
v 0.277056 -0.008509 -0.050000
v 0.270392 -0.008876 -0.050000
v 0.264000 -0.009000 -0.050000
v 0.231575 -0.007053 -0.050000
v 0.200931 -0.001338 -0.050000
v 0.172266 0.007953 -0.050000
v 0.145778 0.020630 -0.050000
v 0.121665 0.036501 -0.050000
v 0.100125 0.055375 -0.050000
v 0.081356 0.077062 -0.050000
v 0.065556 0.101370 -0.050000
v 0.052922 0.128109 -0.050000
v 0.043653 0.157088 -0.050000
v 0.037946 0.188115 -0.050000
v 0.036000 0.221000 -0.050000
v 0.036828 0.240611 -0.050000
v 0.039625 0.262889 -0.050000
v 0.044859 0.287000 -0.050000
v 0.053000 0.312111 -0.050000
v 0.064516 0.337389 -0.050000
v 0.079875 0.362000 -0.050000
v 0.099547 0.385111 -0.050000
v 0.124000 0.405889 -0.050000
v 0.153703 0.423500 -0.050000
v 0.189125 0.437111 -0.050000
v 0.230734 0.445889 -0.050000
v 0.279000 0.449000 -0.050000
v 0.443000 0.449000 -0.050000
v 0.443000 -0.230000 -0.050000
v 0.354000 -0.230000 -0.050000
v 0.354000 0.007000 -0.050000
v 0.255212 0.368056 -0.050000
v 0.237532 0.365194 -0.050000
v 0.220234 0.360375 -0.050000
v 0.203593 0.353556 -0.050000
v 0.187881 0.344694 -0.050000
v 0.173375 0.333750 -0.050000
v 0.160348 0.320681 -0.050000
v 0.149074 0.305444 -0.050000
v 0.139828 0.288000 -0.050000
v 0.132884 0.268306 -0.050000
v 0.128517 0.246319 -0.050000
v 0.127000 0.222000 -0.050000
v 0.128229 0.200655 -0.050000
v 0.131829 0.180236 -0.050000
v 0.137672 0.160922 -0.050000
v 0.145630 0.142889 -0.050000
v 0.155574 0.126314 -0.050000
v 0.167375 0.111375 -0.050000
v 0.180906 0.098248 -0.050000
v 0.196037 0.087111 -0.050000
v 0.212641 0.078141 -0.050000
v 0.230588 0.071514 -0.050000
v 0.249751 0.067408 -0.050000
v 0.270000 0.066000 -0.050000
v 0.277019 0.066145 -0.050000
v 0.284069 0.066579 -0.050000
v 0.291141 0.067297 -0.050000
v 0.298222 0.068296 -0.050000
v 0.305304 0.069573 -0.050000
v 0.312375 0.071125 -0.050000
v 0.319425 0.072947 -0.050000
v 0.326444 0.075037 -0.050000
v 0.333422 0.077391 -0.050000
v 0.340347 0.080005 -0.050000
v 0.347210 0.082876 -0.050000
v 0.354000 0.086000 -0.050000
v 0.354000 0.369000 -0.050000
v 0.273000 0.369000 -0.050000
v 0.345774 0.004584 -0.050000
v 0.345774 0.004584 0.050000
v 0.337611 0.002343 -0.050000
v 0.337611 0.002343 0.050000
v 0.329531 0.000281 -0.050000
v 0.329531 0.000281 0.050000
v 0.321556 -0.001593 -0.050000
v 0.321556 -0.001593 0.050000
v 0.313705 -0.003272 -0.050000
v 0.313705 -0.003272 0.050000
v 0.306000 -0.004750 -0.050000
v 0.306000 -0.004750 0.050000
v 0.298462 -0.006020 -0.050000
v 0.298462 -0.006020 0.050000
v 0.291111 -0.007074 -0.050000
v 0.291111 -0.007074 0.050000
v 0.283969 -0.007906 -0.050000
v 0.283969 -0.007906 0.050000
v 0.277056 -0.008509 -0.050000
v 0.277056 -0.008509 0.050000
v 0.270392 -0.008876 -0.050000
v 0.270392 -0.008876 0.050000
v 0.264000 -0.009000 -0.050000
v 0.264000 -0.009000 0.050000
v 0.231575 -0.007053 -0.050000
v 0.231575 -0.007053 0.050000
v 0.200931 -0.001338 -0.050000
v 0.200931 -0.001338 0.050000
v 0.172266 0.007953 -0.050000
v 0.172266 0.007953 0.050000
v 0.145778 0.020630 -0.050000
v 0.145778 0.020630 0.050000
v 0.121665 0.036501 -0.050000
v 0.121665 0.036501 0.050000
v 0.100125 0.055375 -0.050000
v 0.100125 0.055375 0.050000
v 0.081356 0.077062 -0.050000
v 0.081356 0.077062 0.050000
v 0.065556 0.101370 -0.050000
v 0.065556 0.101370 0.050000
v 0.052922 0.128109 -0.050000
v 0.052922 0.128109 0.050000
v 0.043653 0.157088 -0.050000
v 0.043653 0.157088 0.050000
v 0.037946 0.188115 -0.050000
v 0.037946 0.188115 0.050000
v 0.036000 0.221000 -0.050000
v 0.036000 0.221000 0.050000
v 0.036828 0.240611 -0.050000
v 0.036828 0.240611 0.050000
v 0.039625 0.262889 -0.050000
v 0.039625 0.262889 0.050000
v 0.044859 0.287000 -0.050000
v 0.044859 0.287000 0.050000
v 0.053000 0.312111 -0.050000
v 0.053000 0.312111 0.050000
v 0.064516 0.337389 -0.050000
v 0.064516 0.337389 0.050000
v 0.079875 0.362000 -0.050000
v 0.079875 0.362000 0.050000
v 0.099547 0.385111 -0.050000
v 0.099547 0.385111 0.050000
v 0.124000 0.405889 -0.050000
v 0.124000 0.405889 0.050000
v 0.153703 0.423500 -0.050000
v 0.153703 0.423500 0.050000
v 0.189125 0.437111 -0.050000
v 0.189125 0.437111 0.050000
v 0.230734 0.445889 -0.050000
v 0.230734 0.445889 0.050000
v 0.279000 0.449000 -0.050000
v 0.279000 0.449000 0.050000
v 0.443000 0.449000 -0.050000
v 0.443000 0.449000 0.050000
v 0.443000 -0.230000 -0.050000
v 0.443000 -0.230000 0.050000
v 0.354000 -0.230000 -0.050000
v 0.354000 -0.230000 0.050000
v 0.354000 0.007000 -0.050000
v 0.354000 0.007000 0.050000
v 0.255212 0.368056 -0.050000
v 0.255212 0.368056 0.050000
v 0.237532 0.365194 -0.050000
v 0.237532 0.365194 0.050000
v 0.220234 0.360375 -0.050000
v 0.220234 0.360375 0.050000
v 0.203593 0.353556 -0.050000
v 0.203593 0.353556 0.050000
v 0.187881 0.344694 -0.050000
v 0.187881 0.344694 0.050000
v 0.173375 0.333750 -0.050000
v 0.173375 0.333750 0.050000
v 0.160348 0.320681 -0.050000
v 0.160348 0.320681 0.050000
v 0.149074 0.305444 -0.050000
v 0.149074 0.305444 0.050000
v 0.139828 0.288000 -0.050000
v 0.139828 0.288000 0.050000
v 0.132884 0.268306 -0.050000
v 0.132884 0.268306 0.050000
v 0.128517 0.246319 -0.050000
v 0.128517 0.246319 0.050000
v 0.127000 0.222000 -0.050000
v 0.127000 0.222000 0.050000
v 0.128229 0.200655 -0.050000
v 0.128229 0.200655 0.050000
v 0.131829 0.180236 -0.050000
v 0.131829 0.180236 0.050000
v 0.137672 0.160922 -0.050000
v 0.137672 0.160922 0.050000
v 0.145630 0.142889 -0.050000
v 0.145630 0.142889 0.050000
v 0.155574 0.126314 -0.050000
v 0.155574 0.126314 0.050000
v 0.167375 0.111375 -0.050000
v 0.167375 0.111375 0.050000
v 0.180906 0.098248 -0.050000
v 0.180906 0.098248 0.050000
v 0.196037 0.087111 -0.050000
v 0.196037 0.087111 0.050000
v 0.212641 0.078141 -0.050000
v 0.212641 0.078141 0.050000
v 0.230588 0.071514 -0.050000
v 0.230588 0.071514 0.050000
v 0.249751 0.067408 -0.050000
v 0.249751 0.067408 0.050000
v 0.270000 0.066000 -0.050000
v 0.270000 0.066000 0.050000
v 0.277019 0.066145 -0.050000
v 0.277019 0.066145 0.050000
v 0.284069 0.066579 -0.050000
v 0.284069 0.066579 0.050000
v 0.291141 0.067297 -0.050000
v 0.291141 0.067297 0.050000
v 0.298222 0.068296 -0.050000
v 0.298222 0.068296 0.050000
v 0.305304 0.069573 -0.050000
v 0.305304 0.069573 0.050000
v 0.312375 0.071125 -0.050000
v 0.312375 0.071125 0.050000
v 0.319425 0.072947 -0.050000
v 0.319425 0.072947 0.050000
v 0.326444 0.075037 -0.050000
v 0.326444 0.075037 0.050000
v 0.333422 0.077391 -0.050000
v 0.333422 0.077391 0.050000
v 0.340347 0.080005 -0.050000
v 0.340347 0.080005 0.050000
v 0.347210 0.082876 -0.050000
v 0.347210 0.082876 0.050000
v 0.354000 0.086000 -0.050000
v 0.354000 0.086000 0.050000
v 0.354000 0.369000 -0.050000
v 0.354000 0.369000 0.050000
v 0.273000 0.369000 -0.050000
v 0.273000 0.369000 0.050000
vn 0.000000 0.000000 1.000000
vn 0.264829 -0.964296 0.000000
vn 0.247203 -0.968964 0.000000
vn 0.228716 -0.973493 0.000000
vn 0.209185 -0.977876 0.000000
vn 0.188393 -0.982094 0.000000
vn 0.166093 -0.986110 0.000000
vn 0.141988 -0.989868 0.000000
vn 0.115730 -0.993281 0.000000
vn 0.086896 -0.996217 0.000000
vn 0.054980 -0.998487 0.000000
vn 0.019370 -0.999812 0.000000
vn -0.059948 -0.998201 0.000000
vn -0.183326 -0.983052 0.000000
vn -0.308335 -0.951278 0.000000
vn -0.431688 -0.902023 0.000000
vn -0.549791 -0.835302 0.000000
vn -0.659038 -0.752110 0.000000
vn -0.756142 -0.654408 0.000000
vn -0.838446 -0.544985 0.000000
vn -0.904158 -0.427198 0.000000
vn -0.952463 -0.304655 0.000000
vn -0.983504 -0.180888 0.000000
vn -0.998253 -0.059078 0.000000
vn -0.999110 0.042190 0.000000
vn -0.992211 0.124568 0.000000
vn -0.977237 0.212152 0.000000
vn -0.951262 0.308384 0.000000
vn -0.910017 0.414571 0.000000
vn -0.848348 0.529439 0.000000
vn -0.761493 0.648173 0.000000
vn -0.647515 0.762053 0.000000
vn -0.510001 0.860174 0.000000
vn -0.358688 0.933458 0.000000
vn -0.206413 0.978465 0.000000
vn -0.064325 0.997929 0.000000
vn 0.000000 1.000000 0.000000
vn 1.000000 0.000000 0.000000
vn 0.000000 -1.000000 0.000000
vn -1.000000 0.000000 0.000000
vn 0.281757 -0.959486 0.000000
vn 0.159749 -0.987158 0.000000
vn 0.268391 -0.963310 0.000000
vn 0.379178 -0.925324 0.000000
vn 0.491252 -0.871018 0.000000
vn 0.602276 -0.798288 0.000000
vn 0.708251 -0.705961 0.000000
vn 0.803867 -0.594809 0.000000
vn 0.883565 -0.468309 0.000000
vn 0.943097 -0.332517 0.000000
vn 0.980835 -0.194840 0.000000
vn 0.998061 -0.062248 0.000000
vn 0.998348 0.057462 0.000000
vn 0.984809 0.173639 0.000000
vn 0.957157 0.289570 0.000000
vn 0.914880 0.403726 0.000000
vn 0.857514 0.514461 0.000000
vn 0.784695 0.619883 0.000000
vn 0.696312 0.717739 0.000000
vn 0.592776 0.805368 0.000000
vn 0.475336 0.879804 0.000000
vn 0.346375 0.938096 0.000000
vn 0.209511 0.977806 0.000000
vn 0.069365 0.997591 0.000000
vn -0.020690 0.999786 0.000000
vn -0.061363 0.998116 0.000000
vn -0.101044 0.994882 0.000000
vn -0.139744 0.990188 0.000000
vn -0.177491 0.984122 0.000000
vn -0.214314 0.976765 0.000000
vn -0.250250 0.968181 0.000000
vn -0.285340 0.958426 0.000000
vn -0.319620 0.947546 0.000000
vn -0.353136 0.935572 0.000000
vn -0.385924 0.922531 0.000000
vn -0.418023 0.908437 0.000000
vn 0.053020 -0.998593 0.000000
usemtl (null)
s off
f 35//1 37//1 36//1
f 35//1 78//1 37//1
f 78//1 77//1 37//1
f 77//1 38//1 37//1
f 34//1 78//1 35//1
f 33//1 78//1 34//1
f 32//1 78//1 33//1
f 31//1 78//1 32//1
f 30//1 78//1 31//1
f 30//1 41//1 78//1
f 76//1 38//1 77//1
f 30//1 42//1 41//1
f 30//1 43//1 42//1
f 29//1 43//1 30//1
f 29//1 44//1 43//1
f 29//1 45//1 44//1
f 29//1 46//1 45//1
f 28//1 46//1 29//1
f 28//1 47//1 46//1
f 28//1 48//1 47//1
f 27//1 48//1 28//1
f 27//1 49//1 48//1
f 27//1 50//1 49//1
f 26//1 50//1 27//1
f 26//1 51//1 50//1
f 25//1 51//1 26//1
f 25//1 52//1 51//1
f 24//1 52//1 25//1
f 24//1 53//1 52//1
f 23//1 53//1 24//1
f 23//1 54//1 53//1
f 22//1 54//1 23//1
f 22//1 55//1 54//1
f 22//1 56//1 55//1
f 21//1 56//1 22//1
f 21//1 57//1 56//1
f 20//1 57//1 21//1
f 20//1 58//1 57//1
f 20//1 59//1 58//1
f 19//1 59//1 20//1
f 19//1 60//1 59//1
f 19//1 61//1 60//1
f 75//1 38//1 76//1
f 74//1 38//1 75//1
f 73//1 38//1 74//1
f 19//1 62//1 61//1
f 72//1 40//1 73//1
f 40//1 38//1 73//1
f 18//1 62//1 19//1
f 71//1 40//1 72//1
f 70//1 40//1 71//1
f 18//1 63//1 62//1
f 69//1 40//1 70//1
f 68//1 40//1 69//1
f 67//1 40//1 68//1
f 18//1 64//1 63//1
f 66//1 40//1 67//1
f 65//1 40//1 66//1
f 64//1 40//1 65//1
f 18//1 40//1 64//1
f 17//1 40//1 18//1
f 16//1 40//1 17//1
f 15//1 40//1 16//1
f 14//1 40//1 15//1
f 14//1 1//1 40//1
f 39//1 38//1 40//1
f 2//1 1//1 14//1
f 14//1 3//1 2//1
f 14//1 4//1 3//1
f 13//1 4//1 14//1
f 13//1 5//1 4//1
f 13//1 6//1 5//1
f 13//1 7//1 6//1
f 13//1 8//1 7//1
f 12//1 8//1 13//1
f 12//1 9//1 8//1
f 12//1 10//1 9//1
f 12//1 11//1 10//1
f 113//1 115//1 114//1
f 113//1 156//1 115//1
f 156//1 155//1 115//1
f 155//1 116//1 115//1
f 112//1 156//1 113//1
f 111//1 156//1 112//1
f 110//1 156//1 111//1
f 109//1 156//1 110//1
f 108//1 156//1 109//1
f 108//1 119//1 156//1
f 154//1 116//1 155//1
f 108//1 120//1 119//1
f 108//1 121//1 120//1
f 107//1 121//1 108//1
f 107//1 122//1 121//1
f 107//1 123//1 122//1
f 107//1 124//1 123//1
f 106//1 124//1 107//1
f 106//1 125//1 124//1
f 106//1 126//1 125//1
f 105//1 126//1 106//1
f 105//1 127//1 126//1
f 105//1 128//1 127//1
f 104//1 128//1 105//1
f 104//1 129//1 128//1
f 103//1 129//1 104//1
f 103//1 130//1 129//1
f 102//1 130//1 103//1
f 102//1 131//1 130//1
f 101//1 131//1 102//1
f 101//1 132//1 131//1
f 100//1 132//1 101//1
f 100//1 133//1 132//1
f 100//1 134//1 133//1
f 99//1 134//1 100//1
f 99//1 135//1 134//1
f 98//1 135//1 99//1
f 98//1 136//1 135//1
f 98//1 137//1 136//1
f 97//1 137//1 98//1
f 97//1 138//1 137//1
f 97//1 139//1 138//1
f 153//1 116//1 154//1
f 152//1 116//1 153//1
f 151//1 116//1 152//1
f 97//1 140//1 139//1
f 150//1 118//1 151//1
f 118//1 116//1 151//1
f 96//1 140//1 97//1
f 149//1 118//1 150//1
f 148//1 118//1 149//1
f 96//1 141//1 140//1
f 147//1 118//1 148//1
f 146//1 118//1 147//1
f 145//1 118//1 146//1
f 96//1 142//1 141//1
f 144//1 118//1 145//1
f 143//1 118//1 144//1
f 142//1 118//1 143//1
f 96//1 118//1 142//1
f 95//1 118//1 96//1
f 94//1 118//1 95//1
f 93//1 118//1 94//1
f 92//1 118//1 93//1
f 92//1 79//1 118//1
f 117//1 116//1 118//1
f 92//1 80//1 79//1
f 92//1 81//1 80//1
f 92//1 82//1 81//1
f 91//1 82//1 92//1
f 91//1 83//1 82//1
f 91//1 84//1 83//1
f 91//1 85//1 84//1
f 91//1 86//1 85//1
f 90//1 86//1 91//1
f 90//1 87//1 86//1
f 90//1 88//1 87//1
f 90//1 89//1 88//1
f 158//2 160//2 159//2 157//2
f 160//3 162//3 161//3 159//3
f 162//4 164//4 163//4 161//4
f 164//5 166//5 165//5 163//5
f 166//6 168//6 167//6 165//6
f 168//7 170//7 169//7 167//7
f 170//8 172//8 171//8 169//8
f 172//9 174//9 173//9 171//9
f 174//10 176//10 175//10 173//10
f 176//11 178//11 177//11 175//11
f 178//12 180//12 179//12 177//12
f 180//13 182//13 181//13 179//13
f 182//14 184//14 183//14 181//14
f 184//15 186//15 185//15 183//15
f 186//16 188//16 187//16 185//16
f 188//17 190//17 189//17 187//17
f 190//18 192//18 191//18 189//18
f 192//19 194//19 193//19 191//19
f 194//20 196//20 195//20 193//20
f 196//21 198//21 197//21 195//21
f 198//22 200//22 199//22 197//22
f 200//23 202//23 201//23 199//23
f 202//24 204//24 203//24 201//24
f 204//25 206//25 205//25 203//25
f 206//26 208//26 207//26 205//26
f 208//27 210//27 209//27 207//27
f 210//28 212//28 211//28 209//28
f 212//29 214//29 213//29 211//29
f 214//30 216//30 215//30 213//30
f 216//31 218//31 217//31 215//31
f 218//32 220//32 219//32 217//32
f 220//33 222//33 221//33 219//33
f 222//34 224//34 223//34 221//34
f 224//35 226//35 225//35 223//35
f 226//36 228//36 227//36 225//36
f 228//37 230//37 229//37 227//37
f 230//38 232//38 231//38 229//38
f 232//39 234//39 233//39 231//39
f 234//40 236//40 235//40 233//40
f 236//41 158//41 157//41 235//41
f 238//42 240//42 239//42 237//42
f 240//43 242//43 241//43 239//43
f 242//44 244//44 243//44 241//44
f 244//45 246//45 245//45 243//45
f 246//46 248//46 247//46 245//46
f 248//47 250//47 249//47 247//47
f 250//48 252//48 251//48 249//48
f 252//49 254//49 253//49 251//49
f 254//50 256//50 255//50 253//50
f 256//51 258//51 257//51 255//51
f 258//52 260//52 259//52 257//52
f 260//53 262//53 261//53 259//53
f 262//54 264//54 263//54 261//54
f 264//55 266//55 265//55 263//55
f 266//56 268//56 267//56 265//56
f 268//57 270//57 269//57 267//57
f 270//58 272//58 271//58 269//58
f 272//59 274//59 273//59 271//59
f 274//60 276//60 275//60 273//60
f 276//61 278//61 277//61 275//61
f 278//62 280//62 279//62 277//62
f 280//63 282//63 281//63 279//63
f 282//64 284//64 283//64 281//64
f 284//65 286//65 285//65 283//65
f 286//66 288//66 287//66 285//66
f 288//67 290//67 289//67 287//67
f 290//68 292//68 291//68 289//68
f 292//69 294//69 293//69 291//69
f 294//70 296//70 295//70 293//70
f 296//71 298//71 297//71 295//71
f 298//72 300//72 299//72 297//72
f 300//73 302//73 301//73 299//73
f 302//74 304//74 303//74 301//74
f 304//75 306//75 305//75 303//75
f 306//76 308//76 307//76 305//76
f 308//40 310//40 309//40 307//40
f 310//39 312//39 311//39 309//39
f 312//77 238//77 237//77 311//77
