# Blender3D v249 OBJ File: 
# www.blender3d.org
mtllib 83.mtl
v 0.309000 0.449000 0.050000
v 0.309000 0.369000 0.050000
v 0.167000 0.369000 0.050000
v 0.167000 0.139000 0.050000
v 0.167763 0.126528 0.050000
v 0.169935 0.115560 0.050000
v 0.173344 0.106016 0.050000
v 0.177815 0.097815 0.050000
v 0.183175 0.090878 0.050000
v 0.189250 0.085125 0.050000
v 0.195867 0.080476 0.050000
v 0.202852 0.076852 0.050000
v 0.210031 0.074172 0.050000
v 0.217231 0.072356 0.050000
v 0.224279 0.071326 0.050000
v 0.231000 0.071000 0.050000
v 0.239022 0.071229 0.050000
v 0.247093 0.071917 0.050000
v 0.255219 0.073063 0.050000
v 0.263407 0.074667 0.050000
v 0.271666 0.076729 0.050000
v 0.280000 0.079250 0.050000
v 0.288418 0.082229 0.050000
v 0.296926 0.085667 0.050000
v 0.305531 0.089563 0.050000
v 0.314241 0.093917 0.050000
v 0.323061 0.098729 0.050000
v 0.332000 0.104000 0.050000
v 0.332000 0.021000 0.050000
v 0.323917 0.016839 0.050000
v 0.315250 0.012875 0.050000
v 0.306125 0.009141 0.050000
v 0.296667 0.005667 0.050000
v 0.287000 0.002484 0.050000
v 0.277250 -0.000375 0.050000
v 0.267542 -0.002880 0.050000
v 0.258000 -0.005000 0.050000
v 0.248750 -0.006703 0.050000
v 0.239917 -0.007958 0.050000
v 0.231625 -0.008734 0.050000
v 0.224000 -0.009000 0.050000
v 0.200751 -0.007773 0.050000
v 0.179505 -0.004181 0.050000
v 0.160266 0.001641 0.050000
v 0.143037 0.009556 0.050000
v 0.127822 0.019429 0.050000
v 0.114625 0.031125 0.050000
v 0.103448 0.044509 0.050000
v 0.094296 0.059444 0.050000
v 0.087172 0.075797 0.050000
v 0.082079 0.093431 0.050000
v 0.079020 0.112210 0.050000
v 0.078000 0.132000 0.050000
v 0.078000 0.369000 0.050000
v 0.000000 0.369000 0.050000
v 0.000000 0.379000 0.050000
v 0.167000 0.542000 0.050000
v 0.167000 0.449000 0.050000
v 0.309000 0.449000 -0.050000
v 0.309000 0.369000 -0.050000
v 0.167000 0.369000 -0.050000
v 0.167000 0.139000 -0.050000
v 0.167763 0.126528 -0.050000
v 0.169935 0.115560 -0.050000
v 0.173344 0.106016 -0.050000
v 0.177815 0.097815 -0.050000
v 0.183175 0.090878 -0.050000
v 0.189250 0.085125 -0.050000
v 0.195867 0.080476 -0.050000
v 0.202852 0.076852 -0.050000
v 0.210031 0.074172 -0.050000
v 0.217231 0.072356 -0.050000
v 0.224279 0.071326 -0.050000
v 0.231000 0.071000 -0.050000
v 0.239022 0.071229 -0.050000
v 0.247093 0.071917 -0.050000
v 0.255219 0.073063 -0.050000
v 0.263407 0.074667 -0.050000
v 0.271666 0.076729 -0.050000
v 0.280000 0.079250 -0.050000
v 0.288418 0.082229 -0.050000
v 0.296926 0.085667 -0.050000
v 0.305531 0.089563 -0.050000
v 0.314241 0.093917 -0.050000
v 0.323061 0.098729 -0.050000
v 0.332000 0.104000 -0.050000
v 0.332000 0.021000 -0.050000
v 0.323917 0.016839 -0.050000
v 0.315250 0.012875 -0.050000
v 0.306125 0.009141 -0.050000
v 0.296667 0.005667 -0.050000
v 0.287000 0.002484 -0.050000
v 0.277250 -0.000375 -0.050000
v 0.267542 -0.002880 -0.050000
v 0.258000 -0.005000 -0.050000
v 0.248750 -0.006703 -0.050000
v 0.239917 -0.007958 -0.050000
v 0.231625 -0.008734 -0.050000
v 0.224000 -0.009000 -0.050000
v 0.200751 -0.007773 -0.050000
v 0.179505 -0.004181 -0.050000
v 0.160266 0.001641 -0.050000
v 0.143037 0.009556 -0.050000
v 0.127822 0.019429 -0.050000
v 0.114625 0.031125 -0.050000
v 0.103448 0.044509 -0.050000
v 0.094296 0.059444 -0.050000
v 0.087172 0.075797 -0.050000
v 0.082079 0.093431 -0.050000
v 0.079020 0.112210 -0.050000
v 0.078000 0.132000 -0.050000
v 0.078000 0.369000 -0.050000
v 0.000000 0.369000 -0.050000
v 0.000000 0.379000 -0.050000
v 0.167000 0.542000 -0.050000
v 0.167000 0.449000 -0.050000
v 0.309000 0.449000 -0.050000
v 0.309000 0.449000 0.050000
v 0.309000 0.369000 -0.050000
v 0.309000 0.369000 0.050000
v 0.167000 0.369000 -0.050000
v 0.167000 0.369000 0.050000
v 0.167000 0.139000 -0.050000
v 0.167000 0.139000 0.050000
v 0.167763 0.126528 -0.050000
v 0.167763 0.126528 0.050000
v 0.169935 0.115560 -0.050000
v 0.169935 0.115560 0.050000
v 0.173344 0.106016 -0.050000
v 0.173344 0.106016 0.050000
v 0.177815 0.097815 -0.050000
v 0.177815 0.097815 0.050000
v 0.183175 0.090878 -0.050000
v 0.183175 0.090878 0.050000
v 0.189250 0.085125 -0.050000
v 0.189250 0.085125 0.050000
v 0.195867 0.080476 -0.050000
v 0.195867 0.080476 0.050000
v 0.202852 0.076852 -0.050000
v 0.202852 0.076852 0.050000
v 0.210031 0.074172 -0.050000
v 0.210031 0.074172 0.050000
v 0.217231 0.072356 -0.050000
v 0.217231 0.072356 0.050000
v 0.224279 0.071326 -0.050000
v 0.224279 0.071326 0.050000
v 0.231000 0.071000 -0.050000
v 0.231000 0.071000 0.050000
v 0.239022 0.071229 -0.050000
v 0.239022 0.071229 0.050000
v 0.247093 0.071917 -0.050000
v 0.247093 0.071917 0.050000
v 0.255219 0.073063 -0.050000
v 0.255219 0.073063 0.050000
v 0.263407 0.074667 -0.050000
v 0.263407 0.074667 0.050000
v 0.271666 0.076729 -0.050000
v 0.271666 0.076729 0.050000
v 0.280000 0.079250 -0.050000
v 0.280000 0.079250 0.050000
v 0.288418 0.082229 -0.050000
v 0.288418 0.082229 0.050000
v 0.296926 0.085667 -0.050000
v 0.296926 0.085667 0.050000
v 0.305531 0.089563 -0.050000
v 0.305531 0.089563 0.050000
v 0.314241 0.093917 -0.050000
v 0.314241 0.093917 0.050000
v 0.323061 0.098729 -0.050000
v 0.323061 0.098729 0.050000
v 0.332000 0.104000 -0.050000
v 0.332000 0.104000 0.050000
v 0.332000 0.021000 -0.050000
v 0.332000 0.021000 0.050000
v 0.323917 0.016839 -0.050000
v 0.323917 0.016839 0.050000
v 0.315250 0.012875 -0.050000
v 0.315250 0.012875 0.050000
v 0.306125 0.009141 -0.050000
v 0.306125 0.009141 0.050000
v 0.296667 0.005667 -0.050000
v 0.296667 0.005667 0.050000
v 0.287000 0.002484 -0.050000
v 0.287000 0.002484 0.050000
v 0.277250 -0.000375 -0.050000
v 0.277250 -0.000375 0.050000
v 0.267542 -0.002880 -0.050000
v 0.267542 -0.002880 0.050000
v 0.258000 -0.005000 -0.050000
v 0.258000 -0.005000 0.050000
v 0.248750 -0.006703 -0.050000
v 0.248750 -0.006703 0.050000
v 0.239917 -0.007958 -0.050000
v 0.239917 -0.007958 0.050000
v 0.231625 -0.008734 -0.050000
v 0.231625 -0.008734 0.050000
v 0.224000 -0.009000 -0.050000
v 0.224000 -0.009000 0.050000
v 0.200751 -0.007773 -0.050000
v 0.200751 -0.007773 0.050000
v 0.179505 -0.004181 -0.050000
v 0.179505 -0.004181 0.050000
v 0.160266 0.001641 -0.050000
v 0.160266 0.001641 0.050000
v 0.143037 0.009556 -0.050000
v 0.143037 0.009556 0.050000
v 0.127822 0.019429 -0.050000
v 0.127822 0.019429 0.050000
v 0.114625 0.031125 -0.050000
v 0.114625 0.031125 0.050000
v 0.103448 0.044509 -0.050000
v 0.103448 0.044509 0.050000
v 0.094296 0.059444 -0.050000
v 0.094296 0.059444 0.050000
v 0.087172 0.075797 -0.050000
v 0.087172 0.075797 0.050000
v 0.082079 0.093431 -0.050000
v 0.082079 0.093431 0.050000
v 0.079020 0.112210 -0.050000
v 0.079020 0.112210 0.050000
v 0.078000 0.132000 -0.050000
v 0.078000 0.132000 0.050000
v 0.078000 0.369000 -0.050000
v 0.078000 0.369000 0.050000
v 0.000000 0.369000 -0.050000
v 0.000000 0.369000 0.050000
v 0.000000 0.379000 -0.050000
v 0.000000 0.379000 0.050000
v 0.167000 0.542000 -0.050000
v 0.167000 0.542000 0.050000
v 0.167000 0.449000 -0.050000
v 0.167000 0.449000 0.050000
vn 0.000000 0.000000 1.000000
vn 0.000000 0.000000 0.000000
vn 1.000000 0.000000 0.000000
vn 0.000000 -1.000000 0.000000
vn 0.998135 0.061043 0.000000
vn 0.980943 0.194295 0.000000
vn 0.941748 0.336318 0.000000
vn 0.877990 0.478678 0.000000
vn 0.791307 0.611419 0.000000
vn 0.687581 0.726107 0.000000
vn 0.574864 0.818249 0.000000
vn 0.460577 0.887620 0.000000
vn 0.349716 0.936856 0.000000
vn 0.244479 0.969655 0.000000
vn 0.144708 0.989474 0.000000
vn 0.048420 0.998827 0.000000
vn -0.028555 0.999592 0.000000
vn -0.084879 0.996391 0.000000
vn -0.139625 0.990205 0.000000
vn -0.192247 0.981347 0.000000
vn -0.242312 0.970199 0.000000
vn -0.289505 0.957176 0.000000
vn -0.333633 0.942703 0.000000
vn -0.374608 0.927183 0.000000
vn -0.412427 0.910991 0.000000
vn -0.447166 0.894451 0.000000
vn -0.478949 0.877842 0.000000
vn -0.507936 0.861395 0.000000
vn 0.457723 -0.889095 0.000000
vn 0.415902 -0.909409 0.000000
vn 0.378756 -0.925496 0.000000
vn 0.344771 -0.938687 0.000000
vn 0.312695 -0.949854 0.000000
vn 0.281417 -0.959586 0.000000
vn 0.249862 -0.968281 0.000000
vn 0.216874 -0.976200 0.000000
vn 0.181078 -0.983469 0.000000
vn 0.140686 -0.990054 0.000000
vn 0.093186 -0.995649 0.000000
vn 0.034815 -0.999394 0.000000
vn -0.052721 -0.998609 0.000000
vn -0.166702 -0.986007 0.000000
vn -0.289605 -0.957146 0.000000
vn -0.417461 -0.908695 0.000000
vn -0.544357 -0.838854 0.000000
vn -0.663261 -0.748388 0.000000
vn -0.767560 -0.640977 0.000000
vn -0.852652 -0.522480 0.000000
vn -0.916769 -0.399418 0.000000
vn -0.960729 -0.277489 0.000000
vn -0.986996 -0.160743 0.000000
vn -0.998674 -0.051486 0.000000
vn -1.000000 0.000000 0.000000
vn -0.698485 0.715625 0.000000
vn 0.000000 1.000000 0.000000
usemtl (null)
s off
f 56//1 58//1 57//1
f 56//1 1//1 58//1
f 2//1 1//1 56//1
f 55//1 2//1 56//1
f 54//2 2//2 55//2
f 53//1 3//1 54//1
f 3//2 2//2 54//2
f 53//1 4//1 3//1
f 53//1 5//1 4//1
f 52//1 5//1 53//1
f 52//1 6//1 5//1
f 52//1 7//1 6//1
f 51//1 7//1 52//1
f 51//1 8//1 7//1
f 27//1 29//1 28//1
f 26//1 29//1 27//1
f 51//1 9//1 8//1
f 25//1 29//1 26//1
f 50//1 9//1 51//1
f 50//1 10//1 9//1
f 24//1 29//1 25//1
f 23//1 29//1 24//1
f 50//1 11//1 10//1
f 22//1 29//1 23//1
f 50//1 12//1 11//1
f 21//1 29//1 22//1
f 50//1 13//1 12//1
f 20//1 29//1 21//1
f 49//1 13//1 50//1
f 19//1 29//1 20//1
f 49//1 14//1 13//1
f 18//1 29//1 19//1
f 49//1 15//1 14//1
f 17//1 29//1 18//1
f 49//1 16//1 15//1
f 16//1 29//1 17//1
f 49//1 29//1 16//1
f 48//1 29//1 49//1
f 47//1 29//1 48//1
f 46//1 29//1 47//1
f 46//1 30//1 29//1
f 45//1 30//1 46//1
f 45//1 31//1 30//1
f 45//1 32//1 31//1
f 44//1 32//1 45//1
f 44//1 33//1 32//1
f 44//1 34//1 33//1
f 44//1 35//1 34//1
f 43//1 35//1 44//1
f 43//1 36//1 35//1
f 43//1 37//1 36//1
f 42//1 37//1 43//1
f 42//1 38//1 37//1
f 42//1 39//1 38//1
f 41//1 39//1 42//1
f 41//1 40//1 39//1
f 114//1 116//1 115//1
f 114//1 59//1 116//1
f 114//1 60//1 59//1
f 113//1 60//1 114//1
f 112//2 60//2 113//2
f 111//1 61//1 112//1
f 61//2 60//2 112//2
f 111//1 62//1 61//1
f 111//1 63//1 62//1
f 110//1 63//1 111//1
f 110//1 64//1 63//1
f 110//1 65//1 64//1
f 109//1 65//1 110//1
f 109//1 66//1 65//1
f 85//1 87//1 86//1
f 84//1 87//1 85//1
f 109//1 67//1 66//1
f 83//1 87//1 84//1
f 108//1 67//1 109//1
f 108//1 68//1 67//1
f 82//1 87//1 83//1
f 81//1 87//1 82//1
f 108//1 69//1 68//1
f 80//1 87//1 81//1
f 108//1 70//1 69//1
f 79//1 87//1 80//1
f 108//1 71//1 70//1
f 78//1 87//1 79//1
f 107//1 71//1 108//1
f 77//1 87//1 78//1
f 107//1 72//1 71//1
f 76//1 87//1 77//1
f 107//1 73//1 72//1
f 75//1 87//1 76//1
f 107//1 74//1 73//1
f 74//1 87//1 75//1
f 107//1 87//1 74//1
f 106//1 87//1 107//1
f 105//1 87//1 106//1
f 104//1 87//1 105//1
f 104//1 88//1 87//1
f 103//1 88//1 104//1
f 103//1 89//1 88//1
f 103//1 90//1 89//1
f 102//1 90//1 103//1
f 102//1 91//1 90//1
f 102//1 92//1 91//1
f 102//1 93//1 92//1
f 101//1 93//1 102//1
f 101//1 94//1 93//1
f 101//1 95//1 94//1
f 100//1 95//1 101//1
f 100//1 96//1 95//1
f 100//1 97//1 96//1
f 99//1 97//1 100//1
f 99//1 98//1 97//1
f 118//3 120//3 119//3 117//3
f 120//4 122//4 121//4 119//4
f 122//3 124//3 123//3 121//3
f 124//5 126//5 125//5 123//5
f 126//6 128//6 127//6 125//6
f 128//7 130//7 129//7 127//7
f 130//8 132//8 131//8 129//8
f 132//9 134//9 133//9 131//9
f 134//10 136//10 135//10 133//10
f 136//11 138//11 137//11 135//11
f 138//12 140//12 139//12 137//12
f 140//13 142//13 141//13 139//13
f 142//14 144//14 143//14 141//14
f 144//15 146//15 145//15 143//15
f 146//16 148//16 147//16 145//16
f 148//17 150//17 149//17 147//17
f 150//18 152//18 151//18 149//18
f 152//19 154//19 153//19 151//19
f 154//20 156//20 155//20 153//20
f 156//21 158//21 157//21 155//21
f 158//22 160//22 159//22 157//22
f 160//23 162//23 161//23 159//23
f 162//24 164//24 163//24 161//24
f 164//25 166//25 165//25 163//25
f 166//26 168//26 167//26 165//26
f 168//27 170//27 169//27 167//27
f 170//28 172//28 171//28 169//28
f 172//3 174//3 173//3 171//3
f 174//29 176//29 175//29 173//29
f 176//30 178//30 177//30 175//30
f 178//31 180//31 179//31 177//31
f 180//32 182//32 181//32 179//32
f 182//33 184//33 183//33 181//33
f 184//34 186//34 185//34 183//34
f 186//35 188//35 187//35 185//35
f 188//36 190//36 189//36 187//36
f 190//37 192//37 191//37 189//37
f 192//38 194//38 193//38 191//38
f 194//39 196//39 195//39 193//39
f 196//40 198//40 197//40 195//40
f 198//41 200//41 199//41 197//41
f 200//42 202//42 201//42 199//42
f 202//43 204//43 203//43 201//43
f 204//44 206//44 205//44 203//44
f 206//45 208//45 207//45 205//45
f 208//46 210//46 209//46 207//46
f 210//47 212//47 211//47 209//47
f 212//48 214//48 213//48 211//48
f 214//49 216//49 215//49 213//49
f 216//50 218//50 217//50 215//50
f 218//51 220//51 219//51 217//51
f 220//52 222//52 221//52 219//52
f 222//53 224//53 223//53 221//53
f 224//4 226//4 225//4 223//4
f 226//53 228//53 227//53 225//53
f 228//54 230//54 229//54 227//54
f 230//3 232//3 231//3 229//3
f 232//55 118//55 117//55 231//55
