# Blender3D v249 OBJ File: 
# www.blender3d.org
mtllib 84.mtl
v 0.348000 0.057000 0.050000
v 0.338451 0.047299 0.050000
v 0.328357 0.038222 0.050000
v 0.317797 0.029813 0.050000
v 0.306852 0.022111 0.050000
v 0.295601 0.015160 0.050000
v 0.284125 0.009000 0.050000
v 0.272503 0.003674 0.050000
v 0.260815 -0.000778 0.050000
v 0.249141 -0.004313 0.050000
v 0.237560 -0.006889 0.050000
v 0.226153 -0.008465 0.050000
v 0.215000 -0.009000 0.050000
v 0.192834 -0.007655 0.050000
v 0.171921 -0.003657 0.050000
v 0.152391 0.002937 0.050000
v 0.134370 0.012074 0.050000
v 0.117989 0.023697 0.050000
v 0.103375 0.037750 0.050000
v 0.090657 0.054178 0.050000
v 0.079963 0.072926 0.050000
v 0.071422 0.093938 0.050000
v 0.065162 0.117157 0.050000
v 0.061312 0.142530 0.050000
v 0.060000 0.170000 0.050000
v 0.060000 0.449000 0.050000
v 0.149000 0.449000 0.050000
v 0.149000 0.164000 0.050000
v 0.149645 0.148818 0.050000
v 0.151579 0.134792 0.050000
v 0.154797 0.121953 0.050000
v 0.159296 0.110333 0.050000
v 0.165073 0.099964 0.050000
v 0.172125 0.090875 0.050000
v 0.180447 0.083099 0.050000
v 0.190037 0.076667 0.050000
v 0.200891 0.071609 0.050000
v 0.213005 0.067958 0.050000
v 0.226376 0.065745 0.050000
v 0.241000 0.065000 0.050000
v 0.250954 0.065457 0.050000
v 0.260801 0.066819 0.050000
v 0.270516 0.069078 0.050000
v 0.280074 0.072222 0.050000
v 0.289452 0.076241 0.050000
v 0.298625 0.081125 0.050000
v 0.307569 0.086863 0.050000
v 0.316259 0.093444 0.050000
v 0.324672 0.100859 0.050000
v 0.332782 0.109097 0.050000
v 0.340567 0.118148 0.050000
v 0.348000 0.128000 0.050000
v 0.348000 0.449000 0.050000
v 0.437000 0.449000 0.050000
v 0.437000 0.000000 0.050000
v 0.348000 0.000000 0.050000
v 0.348000 0.057000 -0.050000
v 0.338451 0.047299 -0.050000
v 0.328357 0.038222 -0.050000
v 0.317797 0.029813 -0.050000
v 0.306852 0.022111 -0.050000
v 0.295601 0.015160 -0.050000
v 0.284125 0.009000 -0.050000
v 0.272503 0.003674 -0.050000
v 0.260815 -0.000778 -0.050000
v 0.249141 -0.004313 -0.050000
v 0.237560 -0.006889 -0.050000
v 0.226153 -0.008465 -0.050000
v 0.215000 -0.009000 -0.050000
v 0.192834 -0.007655 -0.050000
v 0.171921 -0.003657 -0.050000
v 0.152391 0.002937 -0.050000
v 0.134370 0.012074 -0.050000
v 0.117989 0.023697 -0.050000
v 0.103375 0.037750 -0.050000
v 0.090657 0.054178 -0.050000
v 0.079963 0.072926 -0.050000
v 0.071422 0.093938 -0.050000
v 0.065162 0.117157 -0.050000
v 0.061312 0.142530 -0.050000
v 0.060000 0.170000 -0.050000
v 0.060000 0.449000 -0.050000
v 0.149000 0.449000 -0.050000
v 0.149000 0.164000 -0.050000
v 0.149645 0.148818 -0.050000
v 0.151579 0.134792 -0.050000
v 0.154797 0.121953 -0.050000
v 0.159296 0.110333 -0.050000
v 0.165073 0.099964 -0.050000
v 0.172125 0.090875 -0.050000
v 0.180447 0.083099 -0.050000
v 0.190037 0.076667 -0.050000
v 0.200891 0.071609 -0.050000
v 0.213005 0.067958 -0.050000
v 0.226376 0.065745 -0.050000
v 0.241000 0.065000 -0.050000
v 0.250954 0.065457 -0.050000
v 0.260801 0.066819 -0.050000
v 0.270516 0.069078 -0.050000
v 0.280074 0.072222 -0.050000
v 0.289452 0.076241 -0.050000
v 0.298625 0.081125 -0.050000
v 0.307569 0.086863 -0.050000
v 0.316259 0.093444 -0.050000
v 0.324672 0.100859 -0.050000
v 0.332782 0.109097 -0.050000
v 0.340567 0.118148 -0.050000
v 0.348000 0.128000 -0.050000
v 0.348000 0.449000 -0.050000
v 0.437000 0.449000 -0.050000
v 0.437000 0.000000 -0.050000
v 0.348000 0.000000 -0.050000
v 0.348000 0.057000 -0.050000
v 0.348000 0.057000 0.050000
v 0.338451 0.047299 -0.050000
v 0.338451 0.047299 0.050000
v 0.328357 0.038222 -0.050000
v 0.328357 0.038222 0.050000
v 0.317797 0.029813 -0.050000
v 0.317797 0.029813 0.050000
v 0.306852 0.022111 -0.050000
v 0.306852 0.022111 0.050000
v 0.295601 0.015160 -0.050000
v 0.295601 0.015160 0.050000
v 0.284125 0.009000 -0.050000
v 0.284125 0.009000 0.050000
v 0.272503 0.003674 -0.050000
v 0.272503 0.003674 0.050000
v 0.260815 -0.000778 -0.050000
v 0.260815 -0.000778 0.050000
v 0.249141 -0.004313 -0.050000
v 0.249141 -0.004313 0.050000
v 0.237560 -0.006889 -0.050000
v 0.237560 -0.006889 0.050000
v 0.226153 -0.008465 -0.050000
v 0.226153 -0.008465 0.050000
v 0.215000 -0.009000 -0.050000
v 0.215000 -0.009000 0.050000
v 0.192834 -0.007655 -0.050000
v 0.192834 -0.007655 0.050000
v 0.171921 -0.003657 -0.050000
v 0.171921 -0.003657 0.050000
v 0.152391 0.002937 -0.050000
v 0.152391 0.002937 0.050000
v 0.134370 0.012074 -0.050000
v 0.134370 0.012074 0.050000
v 0.117989 0.023697 -0.050000
v 0.117989 0.023697 0.050000
v 0.103375 0.037750 -0.050000
v 0.103375 0.037750 0.050000
v 0.090657 0.054178 -0.050000
v 0.090657 0.054178 0.050000
v 0.079963 0.072926 -0.050000
v 0.079963 0.072926 0.050000
v 0.071422 0.093938 -0.050000
v 0.071422 0.093938 0.050000
v 0.065162 0.117157 -0.050000
v 0.065162 0.117157 0.050000
v 0.061312 0.142530 -0.050000
v 0.061312 0.142530 0.050000
v 0.060000 0.170000 -0.050000
v 0.060000 0.170000 0.050000
v 0.060000 0.449000 -0.050000
v 0.060000 0.449000 0.050000
v 0.149000 0.449000 -0.050000
v 0.149000 0.449000 0.050000
v 0.149000 0.164000 -0.050000
v 0.149000 0.164000 0.050000
v 0.149645 0.148818 -0.050000
v 0.149645 0.148818 0.050000
v 0.151579 0.134792 -0.050000
v 0.151579 0.134792 0.050000
v 0.154797 0.121953 -0.050000
v 0.154797 0.121953 0.050000
v 0.159296 0.110333 -0.050000
v 0.159296 0.110333 0.050000
v 0.165073 0.099964 -0.050000
v 0.165073 0.099964 0.050000
v 0.172125 0.090875 -0.050000
v 0.172125 0.090875 0.050000
v 0.180447 0.083099 -0.050000
v 0.180447 0.083099 0.050000
v 0.190037 0.076667 -0.050000
v 0.190037 0.076667 0.050000
v 0.200891 0.071609 -0.050000
v 0.200891 0.071609 0.050000
v 0.213005 0.067958 -0.050000
v 0.213005 0.067958 0.050000
v 0.226376 0.065745 -0.050000
v 0.226376 0.065745 0.050000
v 0.241000 0.065000 -0.050000
v 0.241000 0.065000 0.050000
v 0.250954 0.065457 -0.050000
v 0.250954 0.065457 0.050000
v 0.260801 0.066819 -0.050000
v 0.260801 0.066819 0.050000
v 0.270516 0.069078 -0.050000
v 0.270516 0.069078 0.050000
v 0.280074 0.072222 -0.050000
v 0.280074 0.072222 0.050000
v 0.289452 0.076241 -0.050000
v 0.289452 0.076241 0.050000
v 0.298625 0.081125 -0.050000
v 0.298625 0.081125 0.050000
v 0.307569 0.086863 -0.050000
v 0.307569 0.086863 0.050000
v 0.316259 0.093444 -0.050000
v 0.316259 0.093444 0.050000
v 0.324672 0.100859 -0.050000
v 0.324672 0.100859 0.050000
v 0.332782 0.109097 -0.050000
v 0.332782 0.109097 0.050000
v 0.340567 0.118148 -0.050000
v 0.340567 0.118148 0.050000
v 0.348000 0.128000 -0.050000
v 0.348000 0.128000 0.050000
v 0.348000 0.449000 -0.050000
v 0.348000 0.449000 0.050000
v 0.437000 0.449000 -0.050000
v 0.437000 0.449000 0.050000
v 0.437000 0.000000 -0.050000
v 0.437000 0.000000 0.050000
v 0.348000 0.000000 -0.050000
v 0.348000 0.000000 0.050000
vn 0.000000 0.000000 1.000000
vn 0.712675 -0.701495 0.000000
vn 0.668619 -0.743605 0.000000
vn 0.622978 -0.782239 0.000000
vn 0.575460 -0.817830 0.000000
vn 0.525630 -0.850714 0.000000
vn 0.472920 -0.881105 0.000000
vn 0.416628 -0.909077 0.000000
vn 0.355911 -0.934520 0.000000
vn 0.289789 -0.957091 0.000000
vn 0.217168 -0.976134 0.000000
vn 0.136896 -0.990585 0.000000
vn 0.047888 -0.998853 0.000000
vn -0.060563 -0.998164 0.000000
vn -0.187762 -0.982215 0.000000
vn -0.319923 -0.947444 0.000000
vn -0.452213 -0.891910 0.000000
vn -0.578654 -0.815573 0.000000
vn -0.693142 -0.720801 0.000000
vn -0.790735 -0.612159 0.000000
vn -0.868624 -0.495472 0.000000
vn -0.926388 -0.376572 0.000000
vn -0.965529 -0.260296 0.000000
vn -0.988682 -0.150025 0.000000
vn -0.998861 -0.047704 0.000000
vn -1.000000 0.000000 0.000000
vn 0.000000 1.000000 0.000000
vn 1.000000 0.000000 0.000000
vn 0.999098 0.042462 0.000000
vn 0.990632 0.136556 0.000000
vn 0.969990 0.243143 0.000000
vn 0.932529 0.361094 0.000000
vn 0.873577 0.486685 0.000000
vn 0.790083 0.613000 0.000000
vn 0.682719 0.730681 0.000000
vn 0.557046 0.830482 0.000000
vn 0.422356 0.906430 0.000000
vn 0.288569 0.957459 0.000000
vn 0.163326 0.986572 0.000000
vn 0.050862 0.998706 0.000000
vn -0.045821 0.998950 0.000000
vn -0.137101 0.990557 0.000000
vn -0.226461 0.974020 0.000000
vn -0.312464 0.949930 0.000000
vn -0.393919 0.919145 0.000000
vn -0.469944 0.882696 0.000000
vn -0.539973 0.841682 0.000000
vn -0.603739 0.797182 0.000000
vn -0.661222 0.750191 0.000000
vn -0.712592 0.701578 0.000000
vn -0.758150 0.652081 0.000000
vn -0.798281 0.602285 0.000000
vn 0.000000 -1.000000 0.000000
usemtl (null)
s off
f 25//1 27//1 26//1
f 25//1 28//1 27//1
f 52//1 54//1 53//1
f 52//1 55//1 54//1
f 24//1 28//1 25//1
f 24//1 29//1 28//1
f 24//1 30//1 29//1
f 23//1 30//1 24//1
f 23//1 31//1 30//1
f 51//1 55//1 52//1
f 23//1 32//1 31//1
f 50//1 55//1 51//1
f 22//1 32//1 23//1
f 22//1 33//1 32//1
f 49//1 55//1 50//1
f 48//1 55//1 49//1
f 22//1 34//1 33//1
f 21//1 34//1 22//1
f 47//1 55//1 48//1
f 21//1 35//1 34//1
f 46//1 1//1 47//1
f 1//1 55//1 47//1
f 21//1 36//1 35//1
f 45//1 1//1 46//1
f 21//1 37//1 36//1
f 44//1 1//1 45//1
f 20//1 37//1 21//1
f 43//1 1//1 44//1
f 20//1 38//1 37//1
f 42//1 1//1 43//1
f 20//1 39//1 38//1
f 41//1 1//1 42//1
f 20//1 40//1 39//1
f 40//1 1//1 41//1
f 20//1 1//1 40//1
f 2//1 1//1 20//1
f 55//1 1//1 56//1
f 19//1 2//1 20//1
f 19//1 3//1 2//1
f 19//1 4//1 3//1
f 18//1 4//1 19//1
f 18//1 5//1 4//1
f 17//1 5//1 18//1
f 17//1 6//1 5//1
f 17//1 7//1 6//1
f 16//1 7//1 17//1
f 16//1 8//1 7//1
f 16//1 9//1 8//1
f 15//1 9//1 16//1
f 15//1 10//1 9//1
f 14//1 10//1 15//1
f 14//1 11//1 10//1
f 14//1 12//1 11//1
f 13//1 12//1 14//1
f 81//1 83//1 82//1
f 81//1 84//1 83//1
f 108//1 110//1 109//1
f 108//1 111//1 110//1
f 80//1 84//1 81//1
f 80//1 85//1 84//1
f 80//1 86//1 85//1
f 79//1 86//1 80//1
f 79//1 87//1 86//1
f 107//1 111//1 108//1
f 79//1 88//1 87//1
f 106//1 111//1 107//1
f 78//1 88//1 79//1
f 78//1 89//1 88//1
f 105//1 111//1 106//1
f 104//1 111//1 105//1
f 78//1 90//1 89//1
f 77//1 90//1 78//1
f 103//1 111//1 104//1
f 77//1 91//1 90//1
f 102//1 57//1 103//1
f 57//1 111//1 103//1
f 77//1 92//1 91//1
f 101//1 57//1 102//1
f 77//1 93//1 92//1
f 100//1 57//1 101//1
f 76//1 93//1 77//1
f 99//1 57//1 100//1
f 76//1 94//1 93//1
f 98//1 57//1 99//1
f 76//1 95//1 94//1
f 97//1 57//1 98//1
f 76//1 96//1 95//1
f 96//1 57//1 97//1
f 76//1 57//1 96//1
f 76//1 58//1 57//1
f 112//1 111//1 57//1
f 75//1 58//1 76//1
f 75//1 59//1 58//1
f 75//1 60//1 59//1
f 74//1 60//1 75//1
f 74//1 61//1 60//1
f 73//1 61//1 74//1
f 73//1 62//1 61//1
f 73//1 63//1 62//1
f 72//1 63//1 73//1
f 72//1 64//1 63//1
f 72//1 65//1 64//1
f 71//1 65//1 72//1
f 71//1 66//1 65//1
f 70//1 66//1 71//1
f 70//1 67//1 66//1
f 70//1 68//1 67//1
f 69//1 68//1 70//1
f 114//2 116//2 115//2 113//2
f 116//3 118//3 117//3 115//3
f 118//4 120//4 119//4 117//4
f 120//5 122//5 121//5 119//5
f 122//6 124//6 123//6 121//6
f 124//7 126//7 125//7 123//7
f 126//8 128//8 127//8 125//8
f 128//9 130//9 129//9 127//9
f 130//10 132//10 131//10 129//10
f 132//11 134//11 133//11 131//11
f 134//12 136//12 135//12 133//12
f 136//13 138//13 137//13 135//13
f 138//14 140//14 139//14 137//14
f 140//15 142//15 141//15 139//15
f 142//16 144//16 143//16 141//16
f 144//17 146//17 145//17 143//17
f 146//18 148//18 147//18 145//18
f 148//19 150//19 149//19 147//19
f 150//20 152//20 151//20 149//20
f 152//21 154//21 153//21 151//21
f 154//22 156//22 155//22 153//22
f 156//23 158//23 157//23 155//23
f 158//24 160//24 159//24 157//24
f 160//25 162//25 161//25 159//25
f 162//26 164//26 163//26 161//26
f 164//27 166//27 165//27 163//27
f 166//28 168//28 167//28 165//28
f 168//29 170//29 169//29 167//29
f 170//30 172//30 171//30 169//30
f 172//31 174//31 173//31 171//31
f 174//32 176//32 175//32 173//32
f 176//33 178//33 177//33 175//33
f 178//34 180//34 179//34 177//34
f 180//35 182//35 181//35 179//35
f 182//36 184//36 183//36 181//36
f 184//37 186//37 185//37 183//37
f 186//38 188//38 187//38 185//38
f 188//39 190//39 189//39 187//39
f 190//40 192//40 191//40 189//40
f 192//41 194//41 193//41 191//41
f 194//42 196//42 195//42 193//42
f 196//43 198//43 197//43 195//43
f 198//44 200//44 199//44 197//44
f 200//45 202//45 201//45 199//45
f 202//46 204//46 203//46 201//46
f 204//47 206//47 205//47 203//47
f 206//48 208//48 207//48 205//48
f 208//49 210//49 209//49 207//49
f 210//50 212//50 211//50 209//50
f 212//51 214//51 213//51 211//51
f 214//52 216//52 215//52 213//52
f 216//26 218//26 217//26 215//26
f 218//27 220//27 219//27 217//27
f 220//28 222//28 221//28 219//28
f 222//53 224//53 223//53 221//53
f 224//26 114//26 113//26 223//26
