# Blender3D v249 OBJ File: 
# www.blender3d.org
mtllib 85.mtl
v 0.100000 0.449000 0.050000
v 0.221000 0.173000 0.050000
v 0.339000 0.449000 0.050000
v 0.434000 0.449000 0.050000
v 0.236000 -0.009000 0.050000
v 0.206000 -0.009000 0.050000
v 0.003000 0.449000 0.050000
v 0.100000 0.449000 -0.050000
v 0.221000 0.173000 -0.050000
v 0.339000 0.449000 -0.050000
v 0.434000 0.449000 -0.050000
v 0.236000 -0.009000 -0.050000
v 0.206000 -0.009000 -0.050000
v 0.003000 0.449000 -0.050000
v 0.100000 0.449000 -0.050000
v 0.100000 0.449000 0.050000
v 0.221000 0.173000 -0.050000
v 0.221000 0.173000 0.050000
v 0.339000 0.449000 -0.050000
v 0.339000 0.449000 0.050000
v 0.434000 0.449000 -0.050000
v 0.434000 0.449000 0.050000
v 0.236000 -0.009000 -0.050000
v 0.236000 -0.009000 0.050000
v 0.206000 -0.009000 -0.050000
v 0.206000 -0.009000 0.050000
v 0.003000 0.449000 -0.050000
v 0.003000 0.449000 0.050000
vn 0.000000 0.000000 1.000000
vn 0.915852 0.401515 0.000000
vn -0.919489 0.393115 0.000000
vn 0.000000 1.000000 0.000000
vn 0.917897 -0.396820 0.000000
vn 0.000000 -1.000000 0.000000
vn -0.914223 -0.405212 0.000000
usemtl (null)
s off
f 6//1 1//1 7//1
f 2//1 1//1 6//1
f 2//1 4//1 3//1
f 2//1 5//1 4//1
f 6//1 5//1 2//1
f 13//1 8//1 14//1
f 13//1 9//1 8//1
f 9//1 11//1 10//1
f 9//1 12//1 11//1
f 13//1 12//1 9//1
f 16//2 18//2 17//2 15//2
f 18//3 20//3 19//3 17//3
f 20//4 22//4 21//4 19//4
f 22//5 24//5 23//5 21//5
f 24//6 26//6 25//6 23//6
f 26//7 28//7 27//7 25//7
f 28//4 16//4 15//4 27//4
