# Blender3D v249 OBJ File: 
# www.blender3d.org
mtllib 88.mtl
v 0.021000 -0.230000 0.050000
v 0.174000 0.096000 0.050000
v 0.000000 0.449000 0.050000
v 0.101000 0.449000 0.050000
v 0.222000 0.196000 0.050000
v 0.338000 0.449000 0.050000
v 0.438000 0.449000 0.050000
v 0.120000 -0.230000 0.050000
v 0.021000 -0.230000 -0.050000
v 0.174000 0.096000 -0.050000
v 0.000000 0.449000 -0.050000
v 0.101000 0.449000 -0.050000
v 0.222000 0.196000 -0.050000
v 0.338000 0.449000 -0.050000
v 0.438000 0.449000 -0.050000
v 0.120000 -0.230000 -0.050000
v 0.021000 -0.230000 -0.050000
v 0.021000 -0.230000 0.050000
v 0.174000 0.096000 -0.050000
v 0.174000 0.096000 0.050000
v 0.000000 0.449000 -0.050000
v 0.000000 0.449000 0.050000
v 0.101000 0.449000 -0.050000
v 0.101000 0.449000 0.050000
v 0.222000 0.196000 -0.050000
v 0.222000 0.196000 0.050000
v 0.338000 0.449000 -0.050000
v 0.338000 0.449000 0.050000
v 0.438000 0.449000 -0.050000
v 0.438000 0.449000 0.050000
v 0.120000 -0.230000 -0.050000
v 0.120000 -0.230000 0.050000
vn 0.000000 0.000000 1.000000
vn -0.905259 0.424861 0.000000
vn -0.896954 -0.442124 0.000000
vn 0.000000 1.000000 0.000000
vn 0.902134 0.431456 0.000000
vn -0.909008 0.416778 0.000000
vn 0.905603 -0.424126 0.000000
vn 0.000000 -1.000000 0.000000
usemtl (null)
s off
f 2//1 4//1 3//1
f 2//1 5//1 4//1
f 5//1 7//1 6//1
f 5//1 8//1 7//1
f 2//1 8//1 5//1
f 1//1 8//1 2//1
f 10//1 12//1 11//1
f 10//1 13//1 12//1
f 13//1 15//1 14//1
f 13//1 16//1 15//1
f 10//1 16//1 13//1
f 9//1 16//1 10//1
f 18//2 20//2 19//2 17//2
f 20//3 22//3 21//3 19//3
f 22//4 24//4 23//4 21//4
f 24//5 26//5 25//5 23//5
f 26//6 28//6 27//6 25//6
f 28//4 30//4 29//4 27//4
f 30//7 32//7 31//7 29//7
f 32//8 18//8 17//8 31//8
