# Blender3D v249 OBJ File: 
# www.blender3d.org
mtllib 89.mtl
v 0.405000 0.080000 0.050000
v 0.405000 0.000000 0.050000
v 0.011000 0.000000 0.050000
v 0.249000 0.369000 0.050000
v 0.021000 0.369000 0.050000
v 0.021000 0.449000 0.050000
v 0.404000 0.449000 0.050000
v 0.165000 0.080000 0.050000
v 0.405000 0.080000 -0.050000
v 0.405000 0.000000 -0.050000
v 0.011000 0.000000 -0.050000
v 0.249000 0.369000 -0.050000
v 0.021000 0.369000 -0.050000
v 0.021000 0.449000 -0.050000
v 0.404000 0.449000 -0.050000
v 0.165000 0.080000 -0.050000
v 0.405000 0.080000 -0.050000
v 0.405000 0.080000 0.050000
v 0.405000 0.000000 -0.050000
v 0.405000 0.000000 0.050000
v 0.011000 0.000000 -0.050000
v 0.011000 0.000000 0.050000
v 0.249000 0.369000 -0.050000
v 0.249000 0.369000 0.050000
v 0.021000 0.369000 -0.050000
v 0.021000 0.369000 0.050000
v 0.021000 0.449000 -0.050000
v 0.021000 0.449000 0.050000
v 0.404000 0.449000 -0.050000
v 0.404000 0.449000 0.050000
v 0.165000 0.080000 -0.050000
v 0.165000 0.080000 0.050000
vn 0.000000 0.000000 1.000000
vn 1.000000 0.000000 0.000000
vn 0.000000 -1.000000 0.000000
vn -0.840364 0.542023 0.000000
vn -1.000000 0.000000 0.000000
vn 0.000000 1.000000 0.000000
vn 0.839326 -0.543628 0.000000
usemtl (null)
s off
f 5//1 7//1 6//1
f 5//1 4//1 7//1
f 4//1 8//1 7//1
f 3//1 8//1 4//1
f 3//1 1//1 8//1
f 2//1 1//1 3//1
f 13//1 15//1 14//1
f 13//1 12//1 15//1
f 12//1 16//1 15//1
f 11//1 16//1 12//1
f 11//1 9//1 16//1
f 11//1 10//1 9//1
f 18//2 20//2 19//2 17//2
f 20//3 22//3 21//3 19//3
f 22//4 24//4 23//4 21//4
f 24//3 26//3 25//3 23//3
f 26//5 28//5 27//5 25//5
f 28//6 30//6 29//6 27//6
f 30//7 32//7 31//7 29//7
f 32//6 18//6 17//6 31//6
