# Blender3D v249 OBJ File: 
# www.blender3d.org
mtllib 92.mtl
v 0.285787 0.217741 0.050000
v 0.269046 0.214009 0.050000
v 0.254625 0.207875 0.050000
v 0.242370 0.199407 0.050000
v 0.232130 0.188676 0.050000
v 0.223750 0.175750 0.050000
v 0.217079 0.160699 0.050000
v 0.211963 0.143593 0.050000
v 0.208250 0.124500 0.050000
v 0.205787 0.103491 0.050000
v 0.204421 0.080634 0.050000
v 0.204000 0.056000 0.050000
v 0.204000 -0.032000 0.050000
v 0.203249 -0.059870 0.050000
v 0.200912 -0.085463 0.050000
v 0.196859 -0.108750 0.050000
v 0.190963 -0.129704 0.050000
v 0.183094 -0.148296 0.050000
v 0.173125 -0.164500 0.050000
v 0.160927 -0.178287 0.050000
v 0.146370 -0.189630 0.050000
v 0.129328 -0.198500 0.050000
v 0.109671 -0.204870 0.050000
v 0.087271 -0.208713 0.050000
v 0.062000 -0.210000 0.050000
v 0.023000 -0.210000 0.050000
v 0.023000 -0.134000 0.050000
v 0.038000 -0.134000 0.050000
v 0.054358 -0.133598 0.050000
v 0.068528 -0.132282 0.050000
v 0.080656 -0.129891 0.050000
v 0.090889 -0.126259 0.050000
v 0.099372 -0.121225 0.050000
v 0.106250 -0.114625 0.050000
v 0.111670 -0.106296 0.050000
v 0.115778 -0.096074 0.050000
v 0.118719 -0.083797 0.050000
v 0.120639 -0.069301 0.050000
v 0.121684 -0.052423 0.050000
v 0.122000 -0.033000 0.050000
v 0.122000 0.039000 0.050000
v 0.122575 0.071077 0.050000
v 0.124347 0.099949 0.050000
v 0.127391 0.125828 0.050000
v 0.131778 0.148926 0.050000
v 0.137582 0.169454 0.050000
v 0.144875 0.187625 0.050000
v 0.153731 0.203650 0.050000
v 0.164222 0.217741 0.050000
v 0.176422 0.230109 0.050000
v 0.190403 0.240968 0.050000
v 0.206238 0.250527 0.050000
v 0.224000 0.259000 0.050000
v 0.206238 0.267473 0.050000
v 0.190403 0.277032 0.050000
v 0.176422 0.287891 0.050000
v 0.164222 0.300259 0.050000
v 0.153731 0.314350 0.050000
v 0.144875 0.330375 0.050000
v 0.137582 0.348546 0.050000
v 0.131778 0.369074 0.050000
v 0.127391 0.392172 0.050000
v 0.124347 0.418051 0.050000
v 0.122575 0.446923 0.050000
v 0.122000 0.479000 0.050000
v 0.122000 0.551000 0.050000
v 0.121684 0.570423 0.050000
v 0.120639 0.587301 0.050000
v 0.118719 0.601797 0.050000
v 0.115778 0.614074 0.050000
v 0.111670 0.624296 0.050000
v 0.106250 0.632625 0.050000
v 0.099372 0.639225 0.050000
v 0.090889 0.644259 0.050000
v 0.080656 0.647891 0.050000
v 0.068528 0.650282 0.050000
v 0.054358 0.651598 0.050000
v 0.038000 0.652000 0.050000
v 0.023000 0.652000 0.050000
v 0.023000 0.728000 0.050000
v 0.062000 0.728000 0.050000
v 0.087271 0.726713 0.050000
v 0.109671 0.722870 0.050000
v 0.129328 0.716500 0.050000
v 0.146370 0.707630 0.050000
v 0.160927 0.696287 0.050000
v 0.173125 0.682500 0.050000
v 0.183094 0.666296 0.050000
v 0.190963 0.647704 0.050000
v 0.196859 0.626750 0.050000
v 0.200912 0.603463 0.050000
v 0.203249 0.577870 0.050000
v 0.204000 0.550000 0.050000
v 0.204000 0.462000 0.050000
v 0.204421 0.437366 0.050000
v 0.205787 0.414509 0.050000
v 0.208250 0.393500 0.050000
v 0.211963 0.374407 0.050000
v 0.217079 0.357301 0.050000
v 0.223750 0.342250 0.050000
v 0.232130 0.329324 0.050000
v 0.242370 0.318593 0.050000
v 0.254625 0.310125 0.050000
v 0.269046 0.303991 0.050000
v 0.285787 0.300259 0.050000
v 0.305000 0.299000 0.050000
v 0.305000 0.219000 0.050000
v 0.285787 0.217741 -0.050000
v 0.269046 0.214009 -0.050000
v 0.254625 0.207875 -0.050000
v 0.242370 0.199407 -0.050000
v 0.232130 0.188676 -0.050000
v 0.223750 0.175750 -0.050000
v 0.217079 0.160699 -0.050000
v 0.211963 0.143593 -0.050000
v 0.208250 0.124500 -0.050000
v 0.205787 0.103491 -0.050000
v 0.204421 0.080634 -0.050000
v 0.204000 0.056000 -0.050000
v 0.204000 -0.032000 -0.050000
v 0.203249 -0.059870 -0.050000
v 0.200912 -0.085463 -0.050000
v 0.196859 -0.108750 -0.050000
v 0.190963 -0.129704 -0.050000
v 0.183094 -0.148296 -0.050000
v 0.173125 -0.164500 -0.050000
v 0.160927 -0.178287 -0.050000
v 0.146370 -0.189630 -0.050000
v 0.129328 -0.198500 -0.050000
v 0.109671 -0.204870 -0.050000
v 0.087271 -0.208713 -0.050000
v 0.062000 -0.210000 -0.050000
v 0.023000 -0.210000 -0.050000
v 0.023000 -0.134000 -0.050000
v 0.038000 -0.134000 -0.050000
v 0.054358 -0.133598 -0.050000
v 0.068528 -0.132282 -0.050000
v 0.080656 -0.129891 -0.050000
v 0.090889 -0.126259 -0.050000
v 0.099372 -0.121225 -0.050000
v 0.106250 -0.114625 -0.050000
v 0.111670 -0.106296 -0.050000
v 0.115778 -0.096074 -0.050000
v 0.118719 -0.083797 -0.050000
v 0.120639 -0.069301 -0.050000
v 0.121684 -0.052423 -0.050000
v 0.122000 -0.033000 -0.050000
v 0.122000 0.039000 -0.050000
v 0.122575 0.071077 -0.050000
v 0.124347 0.099949 -0.050000
v 0.127391 0.125828 -0.050000
v 0.131778 0.148926 -0.050000
v 0.137582 0.169454 -0.050000
v 0.144875 0.187625 -0.050000
v 0.153731 0.203650 -0.050000
v 0.164222 0.217741 -0.050000
v 0.176422 0.230109 -0.050000
v 0.190403 0.240968 -0.050000
v 0.206238 0.250527 -0.050000
v 0.224000 0.259000 -0.050000
v 0.206238 0.267473 -0.050000
v 0.190403 0.277032 -0.050000
v 0.176422 0.287891 -0.050000
v 0.164222 0.300259 -0.050000
v 0.153731 0.314350 -0.050000
v 0.144875 0.330375 -0.050000
v 0.137582 0.348546 -0.050000
v 0.131778 0.369074 -0.050000
v 0.127391 0.392172 -0.050000
v 0.124347 0.418051 -0.050000
v 0.122575 0.446923 -0.050000
v 0.122000 0.479000 -0.050000
v 0.122000 0.551000 -0.050000
v 0.121684 0.570423 -0.050000
v 0.120639 0.587301 -0.050000
v 0.118719 0.601797 -0.050000
v 0.115778 0.614074 -0.050000
v 0.111670 0.624296 -0.050000
v 0.106250 0.632625 -0.050000
v 0.099372 0.639225 -0.050000
v 0.090889 0.644259 -0.050000
v 0.080656 0.647891 -0.050000
v 0.068528 0.650282 -0.050000
v 0.054358 0.651598 -0.050000
v 0.038000 0.652000 -0.050000
v 0.023000 0.652000 -0.050000
v 0.023000 0.728000 -0.050000
v 0.062000 0.728000 -0.050000
v 0.087271 0.726713 -0.050000
v 0.109671 0.722870 -0.050000
v 0.129328 0.716500 -0.050000
v 0.146370 0.707630 -0.050000
v 0.160927 0.696287 -0.050000
v 0.173125 0.682500 -0.050000
v 0.183094 0.666296 -0.050000
v 0.190963 0.647704 -0.050000
v 0.196859 0.626750 -0.050000
v 0.200912 0.603463 -0.050000
v 0.203249 0.577870 -0.050000
v 0.204000 0.550000 -0.050000
v 0.204000 0.462000 -0.050000
v 0.204421 0.437366 -0.050000
v 0.205787 0.414509 -0.050000
v 0.208250 0.393500 -0.050000
v 0.211963 0.374407 -0.050000
v 0.217079 0.357301 -0.050000
v 0.223750 0.342250 -0.050000
v 0.232130 0.329324 -0.050000
v 0.242370 0.318593 -0.050000
v 0.254625 0.310125 -0.050000
v 0.269046 0.303991 -0.050000
v 0.285787 0.300259 -0.050000
v 0.305000 0.299000 -0.050000
v 0.305000 0.219000 -0.050000
v 0.285787 0.217741 -0.050000
v 0.285787 0.217741 0.050000
v 0.269046 0.214009 -0.050000
v 0.269046 0.214009 0.050000
v 0.254625 0.207875 -0.050000
v 0.254625 0.207875 0.050000
v 0.242370 0.199407 -0.050000
v 0.242370 0.199407 0.050000
v 0.232130 0.188676 -0.050000
v 0.232130 0.188676 0.050000
v 0.223750 0.175750 -0.050000
v 0.223750 0.175750 0.050000
v 0.217079 0.160699 -0.050000
v 0.217079 0.160699 0.050000
v 0.211963 0.143593 -0.050000
v 0.211963 0.143593 0.050000
v 0.208250 0.124500 -0.050000
v 0.208250 0.124500 0.050000
v 0.205787 0.103491 -0.050000
v 0.205787 0.103491 0.050000
v 0.204421 0.080634 -0.050000
v 0.204421 0.080634 0.050000
v 0.204000 0.056000 -0.050000
v 0.204000 0.056000 0.050000
v 0.204000 -0.032000 -0.050000
v 0.204000 -0.032000 0.050000
v 0.203249 -0.059870 -0.050000
v 0.203249 -0.059870 0.050000
v 0.200912 -0.085463 -0.050000
v 0.200912 -0.085463 0.050000
v 0.196859 -0.108750 -0.050000
v 0.196859 -0.108750 0.050000
v 0.190963 -0.129704 -0.050000
v 0.190963 -0.129704 0.050000
v 0.183094 -0.148296 -0.050000
v 0.183094 -0.148296 0.050000
v 0.173125 -0.164500 -0.050000
v 0.173125 -0.164500 0.050000
v 0.160927 -0.178287 -0.050000
v 0.160927 -0.178287 0.050000
v 0.146370 -0.189630 -0.050000
v 0.146370 -0.189630 0.050000
v 0.129328 -0.198500 -0.050000
v 0.129328 -0.198500 0.050000
v 0.109671 -0.204870 -0.050000
v 0.109671 -0.204870 0.050000
v 0.087271 -0.208713 -0.050000
v 0.087271 -0.208713 0.050000
v 0.062000 -0.210000 -0.050000
v 0.062000 -0.210000 0.050000
v 0.023000 -0.210000 -0.050000
v 0.023000 -0.210000 0.050000
v 0.023000 -0.134000 -0.050000
v 0.023000 -0.134000 0.050000
v 0.038000 -0.134000 -0.050000
v 0.038000 -0.134000 0.050000
v 0.054358 -0.133598 -0.050000
v 0.054358 -0.133598 0.050000
v 0.068528 -0.132282 -0.050000
v 0.068528 -0.132282 0.050000
v 0.080656 -0.129891 -0.050000
v 0.080656 -0.129891 0.050000
v 0.090889 -0.126259 -0.050000
v 0.090889 -0.126259 0.050000
v 0.099372 -0.121225 -0.050000
v 0.099372 -0.121225 0.050000
v 0.106250 -0.114625 -0.050000
v 0.106250 -0.114625 0.050000
v 0.111670 -0.106296 -0.050000
v 0.111670 -0.106296 0.050000
v 0.115778 -0.096074 -0.050000
v 0.115778 -0.096074 0.050000
v 0.118719 -0.083797 -0.050000
v 0.118719 -0.083797 0.050000
v 0.120639 -0.069301 -0.050000
v 0.120639 -0.069301 0.050000
v 0.121684 -0.052423 -0.050000
v 0.121684 -0.052423 0.050000
v 0.122000 -0.033000 -0.050000
v 0.122000 -0.033000 0.050000
v 0.122000 0.039000 -0.050000
v 0.122000 0.039000 0.050000
v 0.122575 0.071077 -0.050000
v 0.122575 0.071077 0.050000
v 0.124347 0.099949 -0.050000
v 0.124347 0.099949 0.050000
v 0.127391 0.125828 -0.050000
v 0.127391 0.125828 0.050000
v 0.131778 0.148926 -0.050000
v 0.131778 0.148926 0.050000
v 0.137582 0.169454 -0.050000
v 0.137582 0.169454 0.050000
v 0.144875 0.187625 -0.050000
v 0.144875 0.187625 0.050000
v 0.153731 0.203650 -0.050000
v 0.153731 0.203650 0.050000
v 0.164222 0.217741 -0.050000
v 0.164222 0.217741 0.050000
v 0.176422 0.230109 -0.050000
v 0.176422 0.230109 0.050000
v 0.190403 0.240968 -0.050000
v 0.190403 0.240968 0.050000
v 0.206238 0.250527 -0.050000
v 0.206238 0.250527 0.050000
v 0.224000 0.259000 -0.050000
v 0.224000 0.259000 0.050000
v 0.206238 0.267473 -0.050000
v 0.206238 0.267473 0.050000
v 0.190403 0.277032 -0.050000
v 0.190403 0.277032 0.050000
v 0.176422 0.287891 -0.050000
v 0.176422 0.287891 0.050000
v 0.164222 0.300259 -0.050000
v 0.164222 0.300259 0.050000
v 0.153731 0.314350 -0.050000
v 0.153731 0.314350 0.050000
v 0.144875 0.330375 -0.050000
v 0.144875 0.330375 0.050000
v 0.137582 0.348546 -0.050000
v 0.137582 0.348546 0.050000
v 0.131778 0.369074 -0.050000
v 0.131778 0.369074 0.050000
v 0.127391 0.392172 -0.050000
v 0.127391 0.392172 0.050000
v 0.124347 0.418051 -0.050000
v 0.124347 0.418051 0.050000
v 0.122575 0.446923 -0.050000
v 0.122575 0.446923 0.050000
v 0.122000 0.479000 -0.050000
v 0.122000 0.479000 0.050000
v 0.122000 0.551000 -0.050000
v 0.122000 0.551000 0.050000
v 0.121684 0.570423 -0.050000
v 0.121684 0.570423 0.050000
v 0.120639 0.587301 -0.050000
v 0.120639 0.587301 0.050000
v 0.118719 0.601797 -0.050000
v 0.118719 0.601797 0.050000
v 0.115778 0.614074 -0.050000
v 0.115778 0.614074 0.050000
v 0.111670 0.624296 -0.050000
v 0.111670 0.624296 0.050000
v 0.106250 0.632625 -0.050000
v 0.106250 0.632625 0.050000
v 0.099372 0.639225 -0.050000
v 0.099372 0.639225 0.050000
v 0.090889 0.644259 -0.050000
v 0.090889 0.644259 0.050000
v 0.080656 0.647891 -0.050000
v 0.080656 0.647891 0.050000
v 0.068528 0.650282 -0.050000
v 0.068528 0.650282 0.050000
v 0.054358 0.651598 -0.050000
v 0.054358 0.651598 0.050000
v 0.038000 0.652000 -0.050000
v 0.038000 0.652000 0.050000
v 0.023000 0.652000 -0.050000
v 0.023000 0.652000 0.050000
v 0.023000 0.728000 -0.050000
v 0.023000 0.728000 0.050000
v 0.062000 0.728000 -0.050000
v 0.062000 0.728000 0.050000
v 0.087271 0.726713 -0.050000
v 0.087271 0.726713 0.050000
v 0.109671 0.722870 -0.050000
v 0.109671 0.722870 0.050000
v 0.129328 0.716500 -0.050000
v 0.129328 0.716500 0.050000
v 0.146370 0.707630 -0.050000
v 0.146370 0.707630 0.050000
v 0.160927 0.696287 -0.050000
v 0.160927 0.696287 0.050000
v 0.173125 0.682500 -0.050000
v 0.173125 0.682500 0.050000
v 0.183094 0.666296 -0.050000
v 0.183094 0.666296 0.050000
v 0.190963 0.647704 -0.050000
v 0.190963 0.647704 0.050000
v 0.196859 0.626750 -0.050000
v 0.196859 0.626750 0.050000
v 0.200912 0.603463 -0.050000
v 0.200912 0.603463 0.050000
v 0.203249 0.577870 -0.050000
v 0.203249 0.577870 0.050000
v 0.204000 0.550000 -0.050000
v 0.204000 0.550000 0.050000
v 0.204000 0.462000 -0.050000
v 0.204000 0.462000 0.050000
v 0.204421 0.437366 -0.050000
v 0.204421 0.437366 0.050000
v 0.205787 0.414509 -0.050000
v 0.205787 0.414509 0.050000
v 0.208250 0.393500 -0.050000
v 0.208250 0.393500 0.050000
v 0.211963 0.374407 -0.050000
v 0.211963 0.374407 0.050000
v 0.217079 0.357301 -0.050000
v 0.217079 0.357301 0.050000
v 0.223750 0.342250 -0.050000
v 0.223750 0.342250 0.050000
v 0.232130 0.329324 -0.050000
v 0.232130 0.329324 0.050000
v 0.242370 0.318593 -0.050000
v 0.242370 0.318593 0.050000
v 0.254625 0.310125 -0.050000
v 0.254625 0.310125 0.050000
v 0.269046 0.303991 -0.050000
v 0.269046 0.303991 0.050000
v 0.285787 0.300259 -0.050000
v 0.285787 0.300259 0.050000
v 0.305000 0.299000 -0.050000
v 0.305000 0.299000 0.050000
v 0.305000 0.219000 -0.050000
v 0.305000 0.219000 0.050000
vn 0.000000 0.000000 1.000000
vn 0.217560 -0.976047 0.000000
vn 0.391422 -0.920211 0.000000
vn 0.568467 -0.822706 0.000000
vn 0.723454 -0.690372 0.000000
vn 0.839103 -0.543973 0.000000
vn 0.914217 -0.405225 0.000000
vn 0.958076 -0.286515 0.000000
vn 0.981611 -0.190895 0.000000
vn 0.993198 -0.116435 0.000000
vn 0.998220 -0.059646 0.000000
vn 0.999854 -0.017100 0.000000
vn 1.000000 0.000000 0.000000
vn 0.999638 -0.026921 0.000000
vn 0.995855 -0.090952 0.000000
vn 0.985192 -0.171453 0.000000
vn 0.962613 -0.270881 0.000000
vn 0.920922 -0.389746 0.000000
vn 0.851710 -0.524014 0.000000
vn 0.748936 -0.662643 0.000000
vn 0.614654 -0.788797 0.000000
vn 0.461697 -0.887038 0.000000
vn 0.308294 -0.951291 0.000000
vn 0.169075 -0.985603 0.000000
vn 0.050863 -0.998706 0.000000
vn 0.000000 -1.000000 0.000000
vn -1.000000 0.000000 0.000000
vn 0.000000 1.000000 0.000000
vn -0.024580 0.999698 0.000000
vn -0.092432 0.995719 0.000000
vn -0.193477 0.981105 0.000000
vn -0.334445 0.942415 0.000000
vn -0.510358 0.859962 0.000000
vn -0.692356 0.721556 0.000000
vn -0.838163 0.545420 0.000000
vn -0.927881 0.372876 0.000000
vn -0.972487 0.232957 0.000000
vn -0.991341 0.131314 0.000000
vn -0.998088 0.061805 0.000000
vn -0.999868 0.016266 0.000000
vn -0.999840 0.017912 0.000000
vn -0.998121 0.061278 0.000000
vn -0.993156 0.116796 0.000000
vn -0.982436 0.186601 0.000000
vn -0.962281 0.272058 0.000000
vn -0.928034 0.372496 0.000000
vn -0.875240 0.483688 0.000000
vn -0.802094 0.597197 0.000000
vn -0.711953 0.702227 0.000000
vn -0.613384 0.789785 0.000000
vn -0.516822 0.856093 0.000000
vn -0.430540 0.902572 0.000000
vn -0.430540 -0.902572 0.000000
vn -0.516822 -0.856093 0.000000
vn -0.613384 -0.789785 0.000000
vn -0.711953 -0.702227 0.000000
vn -0.802095 -0.597197 0.000000
vn -0.875240 -0.483688 0.000000
vn -0.928034 -0.372496 0.000000
vn -0.962281 -0.272058 0.000000
vn -0.982436 -0.186601 0.000000
vn -0.993156 -0.116796 0.000000
vn -0.998121 -0.061278 0.000000
vn -0.999840 -0.017912 0.000000
vn -0.999868 -0.016266 0.000000
vn -0.998088 -0.061805 0.000000
vn -0.991341 -0.131314 0.000000
vn -0.972487 -0.232957 0.000000
vn -0.927882 -0.372875 0.000000
vn -0.838162 -0.545421 0.000000
vn -0.692358 -0.721555 0.000000
vn -0.510358 -0.859962 0.000000
vn -0.334444 -0.942416 0.000000
vn -0.193480 -0.981104 0.000000
vn -0.092428 -0.995719 0.000000
vn -0.024581 -0.999698 0.000000
vn 0.050863 0.998706 0.000000
vn 0.169075 0.985603 0.000000
vn 0.308294 0.951291 0.000000
vn 0.461697 0.887038 0.000000
vn 0.614654 0.788797 0.000000
vn 0.748937 0.662642 0.000000
vn 0.851710 0.524014 0.000000
vn 0.920922 0.389746 0.000000
vn 0.962613 0.270881 0.000000
vn 0.985192 0.171454 0.000000
vn 0.995855 0.090952 0.000000
vn 0.999638 0.026921 0.000000
vn 0.999854 0.017100 0.000000
vn 0.998220 0.059646 0.000000
vn 0.993198 0.116435 0.000000
vn 0.981611 0.190894 0.000000
vn 0.958076 0.286516 0.000000
vn 0.914217 0.405225 0.000000
vn 0.839102 0.543974 0.000000
vn 0.723455 0.690372 0.000000
vn 0.568467 0.822706 0.000000
vn 0.391422 0.920211 0.000000
vn 0.217558 0.976047 0.000000
vn 0.065402 0.997859 0.000000
vn 0.065401 -0.997859 0.000000
usemtl (null)
s off
f 79//1 81//1 80//1
f 79//1 82//1 81//1
f 79//1 83//1 82//1
f 79//1 84//1 83//1
f 79//1 85//1 84//1
f 79//1 86//1 85//1
f 79//1 87//1 86//1
f 79//1 88//1 87//1
f 79//1 78//1 88//1
f 78//1 77//1 88//1
f 77//1 89//1 88//1
f 76//1 89//1 77//1
f 75//1 89//1 76//1
f 74//1 89//1 75//1
f 74//1 90//1 89//1
f 73//1 90//1 74//1
f 72//1 90//1 73//1
f 71//1 90//1 72//1
f 71//1 91//1 90//1
f 70//1 91//1 71//1
f 69//1 91//1 70//1
f 69//1 92//1 91//1
f 68//1 92//1 69//1
f 67//1 92//1 68//1
f 67//1 93//1 92//1
f 66//1 93//1 67//1
f 65//1 93//1 66//1
f 65//1 94//1 93//1
f 64//1 94//1 65//1
f 64//1 95//1 94//1
f 63//1 95//1 64//1
f 63//1 96//1 95//1
f 62//1 96//1 63//1
f 62//1 97//1 96//1
f 62//1 98//1 97//1
f 61//1 98//1 62//1
f 61//1 99//1 98//1
f 60//1 99//1 61//1
f 60//1 100//1 99//1
f 59//1 100//1 60//1
f 59//1 101//1 100//1
f 58//1 101//1 59//1
f 58//1 102//1 101//1
f 58//1 103//1 102//1
f 57//1 103//1 58//1
f 57//1 104//1 103//1
f 57//1 105//1 104//1
f 57//1 106//1 105//1
f 56//1 106//1 57//1
f 56//1 107//1 106//1
f 55//1 107//1 56//1
f 54//1 53//1 55//1
f 53//1 107//1 55//1
f 52//1 107//1 53//1
f 51//1 107//1 52//1
f 50//1 107//1 51//1
f 49//1 107//1 50//1
f 49//1 1//1 107//1
f 2//1 1//1 49//1
f 48//1 2//1 49//1
f 48//1 3//1 2//1
f 48//1 4//1 3//1
f 47//1 4//1 48//1
f 47//1 5//1 4//1
f 47//1 6//1 5//1
f 46//1 6//1 47//1
f 46//1 7//1 6//1
f 45//1 7//1 46//1
f 45//1 8//1 7//1
f 44//1 8//1 45//1
f 44//1 9//1 8//1
f 43//1 9//1 44//1
f 43//1 10//1 9//1
f 43//1 11//1 10//1
f 42//1 11//1 43//1
f 42//1 12//1 11//1
f 41//1 12//1 42//1
f 41//1 13//1 12//1
f 40//1 13//1 41//1
f 40//1 14//1 13//1
f 39//1 14//1 40//1
f 38//1 14//1 39//1
f 38//1 15//1 14//1
f 37//1 15//1 38//1
f 36//1 15//1 37//1
f 36//1 16//1 15//1
f 35//1 16//1 36//1
f 34//1 16//1 35//1
f 34//1 17//1 16//1
f 33//1 17//1 34//1
f 32//1 17//1 33//1
f 31//1 17//1 32//1
f 31//1 18//1 17//1
f 30//1 18//1 31//1
f 29//1 18//1 30//1
f 28//1 18//1 29//1
f 26//1 28//1 27//1
f 26//1 18//1 28//1
f 26//1 19//1 18//1
f 26//1 20//1 19//1
f 26//1 21//1 20//1
f 26//1 22//1 21//1
f 26//1 23//1 22//1
f 26//1 24//1 23//1
f 26//1 25//1 24//1
f 186//1 188//1 187//1
f 186//1 189//1 188//1
f 186//1 190//1 189//1
f 186//1 191//1 190//1
f 186//1 192//1 191//1
f 186//1 193//1 192//1
f 186//1 194//1 193//1
f 186//1 195//1 194//1
f 186//1 185//1 195//1
f 185//1 184//1 195//1
f 184//1 196//1 195//1
f 183//1 196//1 184//1
f 182//1 196//1 183//1
f 181//1 196//1 182//1
f 181//1 197//1 196//1
f 180//1 197//1 181//1
f 179//1 197//1 180//1
f 178//1 197//1 179//1
f 178//1 198//1 197//1
f 177//1 198//1 178//1
f 176//1 198//1 177//1
f 176//1 199//1 198//1
f 175//1 199//1 176//1
f 174//1 199//1 175//1
f 174//1 200//1 199//1
f 173//1 200//1 174//1
f 172//1 200//1 173//1
f 172//1 201//1 200//1
f 171//1 201//1 172//1
f 171//1 202//1 201//1
f 170//1 202//1 171//1
f 170//1 203//1 202//1
f 169//1 203//1 170//1
f 169//1 204//1 203//1
f 169//1 205//1 204//1
f 168//1 205//1 169//1
f 168//1 206//1 205//1
f 167//1 206//1 168//1
f 167//1 207//1 206//1
f 166//1 207//1 167//1
f 166//1 208//1 207//1
f 165//1 208//1 166//1
f 165//1 209//1 208//1
f 165//1 210//1 209//1
f 164//1 210//1 165//1
f 164//1 211//1 210//1
f 164//1 212//1 211//1
f 164//1 213//1 212//1
f 163//1 213//1 164//1
f 163//1 214//1 213//1
f 162//1 214//1 163//1
f 161//1 160//1 162//1
f 160//1 214//1 162//1
f 159//1 214//1 160//1
f 158//1 214//1 159//1
f 157//1 214//1 158//1
f 156//1 214//1 157//1
f 156//1 108//1 214//1
f 156//1 109//1 108//1
f 155//1 109//1 156//1
f 155//1 110//1 109//1
f 155//1 111//1 110//1
f 154//1 111//1 155//1
f 154//1 112//1 111//1
f 154//1 113//1 112//1
f 153//1 113//1 154//1
f 153//1 114//1 113//1
f 152//1 114//1 153//1
f 152//1 115//1 114//1
f 151//1 115//1 152//1
f 151//1 116//1 115//1
f 150//1 116//1 151//1
f 150//1 117//1 116//1
f 150//1 118//1 117//1
f 149//1 118//1 150//1
f 149//1 119//1 118//1
f 148//1 119//1 149//1
f 148//1 120//1 119//1
f 147//1 120//1 148//1
f 147//1 121//1 120//1
f 146//1 121//1 147//1
f 145//1 121//1 146//1
f 145//1 122//1 121//1
f 144//1 122//1 145//1
f 143//1 122//1 144//1
f 143//1 123//1 122//1
f 142//1 123//1 143//1
f 141//1 123//1 142//1
f 141//1 124//1 123//1
f 140//1 124//1 141//1
f 139//1 124//1 140//1
f 138//1 124//1 139//1
f 138//1 125//1 124//1
f 137//1 125//1 138//1
f 136//1 125//1 137//1
f 135//1 125//1 136//1
f 133//1 135//1 134//1
f 133//1 125//1 135//1
f 133//1 126//1 125//1
f 133//1 127//1 126//1
f 133//1 128//1 127//1
f 133//1 129//1 128//1
f 133//1 130//1 129//1
f 133//1 131//1 130//1
f 133//1 132//1 131//1
f 216//2 218//2 217//2 215//2
f 218//3 220//3 219//3 217//3
f 220//4 222//4 221//4 219//4
f 222//5 224//5 223//5 221//5
f 224//6 226//6 225//6 223//6
f 226//7 228//7 227//7 225//7
f 228//8 230//8 229//8 227//8
f 230//9 232//9 231//9 229//9
f 232//10 234//10 233//10 231//10
f 234//11 236//11 235//11 233//11
f 236//12 238//12 237//12 235//12
f 238//13 240//13 239//13 237//13
f 240//14 242//14 241//14 239//14
f 242//15 244//15 243//15 241//15
f 244//16 246//16 245//16 243//16
f 246//17 248//17 247//17 245//17
f 248//18 250//18 249//18 247//18
f 250//19 252//19 251//19 249//19
f 252//20 254//20 253//20 251//20
f 254//21 256//21 255//21 253//21
f 256//22 258//22 257//22 255//22
f 258//23 260//23 259//23 257//23
f 260//24 262//24 261//24 259//24
f 262//25 264//25 263//25 261//25
f 264//26 266//26 265//26 263//26
f 266//27 268//27 267//27 265//27
f 268//28 270//28 269//28 267//28
f 270//29 272//29 271//29 269//29
f 272//30 274//30 273//30 271//30
f 274//31 276//31 275//31 273//31
f 276//32 278//32 277//32 275//32
f 278//33 280//33 279//33 277//33
f 280//34 282//34 281//34 279//34
f 282//35 284//35 283//35 281//35
f 284//36 286//36 285//36 283//36
f 286//37 288//37 287//37 285//37
f 288//38 290//38 289//38 287//38
f 290//39 292//39 291//39 289//39
f 292//40 294//40 293//40 291//40
f 294//27 296//27 295//27 293//27
f 296//41 298//41 297//41 295//41
f 298//42 300//42 299//42 297//42
f 300//43 302//43 301//43 299//43
f 302//44 304//44 303//44 301//44
f 304//45 306//45 305//45 303//45
f 306//46 308//46 307//46 305//46
f 308//47 310//47 309//47 307//47
f 310//48 312//48 311//48 309//48
f 312//49 314//49 313//49 311//49
f 314//50 316//50 315//50 313//50
f 316//51 318//51 317//51 315//51
f 318//52 320//52 319//52 317//52
f 320//53 322//53 321//53 319//53
f 322//54 324//54 323//54 321//54
f 324//55 326//55 325//55 323//55
f 326//56 328//56 327//56 325//56
f 328//57 330//57 329//57 327//57
f 330//58 332//58 331//58 329//58
f 332//59 334//59 333//59 331//59
f 334//60 336//60 335//60 333//60
f 336//61 338//61 337//61 335//61
f 338//62 340//62 339//62 337//62
f 340//63 342//63 341//63 339//63
f 342//64 344//64 343//64 341//64
f 344//27 346//27 345//27 343//27
f 346//65 348//65 347//65 345//65
f 348//66 350//66 349//66 347//66
f 350//67 352//67 351//67 349//67
f 352//68 354//68 353//68 351//68
f 354//69 356//69 355//69 353//69
f 356//70 358//70 357//70 355//70
f 358//71 360//71 359//71 357//71
f 360//72 362//72 361//72 359//72
f 362//73 364//73 363//73 361//73
f 364//74 366//74 365//74 363//74
f 366//75 368//75 367//75 365//75
f 368//76 370//76 369//76 367//76
f 370//26 372//26 371//26 369//26
f 372//27 374//27 373//27 371//27
f 374//28 376//28 375//28 373//28
f 376//77 378//77 377//77 375//77
f 378//78 380//78 379//78 377//78
f 380//79 382//79 381//79 379//79
f 382//80 384//80 383//80 381//80
f 384//81 386//81 385//81 383//81
f 386//82 388//82 387//82 385//82
f 388//83 390//83 389//83 387//83
f 390//84 392//84 391//84 389//84
f 392//85 394//85 393//85 391//85
f 394//86 396//86 395//86 393//86
f 396//87 398//87 397//87 395//87
f 398//88 400//88 399//88 397//88
f 400//13 402//13 401//13 399//13
f 402//89 404//89 403//89 401//89
f 404//90 406//90 405//90 403//90
f 406//91 408//91 407//91 405//91
f 408//92 410//92 409//92 407//92
f 410//93 412//93 411//93 409//93
f 412//94 414//94 413//94 411//94
f 414//95 416//95 415//95 413//95
f 416//96 418//96 417//96 415//96
f 418//97 420//97 419//97 417//97
f 420//98 422//98 421//98 419//98
f 422//99 424//99 423//99 421//99
f 424//100 426//100 425//100 423//100
f 426//13 428//13 427//13 425//13
f 428//101 216//101 215//101 427//101
