# Blender3D v249 OBJ File: 
# www.blender3d.org
mtllib 93.mtl
v 0.035933 0.289822 0.050000
v 0.047218 0.298241 0.050000
v 0.058828 0.306188 0.050000
v 0.070741 0.313593 0.050000
v 0.082931 0.320387 0.050000
v 0.095375 0.326500 0.050000
v 0.108048 0.331863 0.050000
v 0.120926 0.336407 0.050000
v 0.133984 0.340063 0.050000
v 0.147199 0.342759 0.050000
v 0.160546 0.344428 0.050000
v 0.174000 0.345000 0.050000
v 0.184290 0.344615 0.050000
v 0.194653 0.343505 0.050000
v 0.205078 0.341734 0.050000
v 0.215556 0.339370 0.050000
v 0.226075 0.336479 0.050000
v 0.236625 0.333125 0.050000
v 0.247196 0.329376 0.050000
v 0.257778 0.325296 0.050000
v 0.268359 0.320953 0.050000
v 0.278931 0.316412 0.050000
v 0.289481 0.311739 0.050000
v 0.300000 0.307000 0.050000
v 0.310477 0.302261 0.050000
v 0.320903 0.297588 0.050000
v 0.331266 0.293047 0.050000
v 0.341556 0.288704 0.050000
v 0.351762 0.284624 0.050000
v 0.361875 0.280875 0.050000
v 0.371884 0.277521 0.050000
v 0.381778 0.274630 0.050000
v 0.391547 0.272266 0.050000
v 0.401181 0.270495 0.050000
v 0.410668 0.269385 0.050000
v 0.420000 0.269000 0.050000
v 0.431177 0.269650 0.050000
v 0.442662 0.271532 0.050000
v 0.454391 0.274547 0.050000
v 0.466296 0.278593 0.050000
v 0.478313 0.283569 0.050000
v 0.490375 0.289375 0.050000
v 0.502416 0.295910 0.050000
v 0.514370 0.303074 0.050000
v 0.526172 0.310766 0.050000
v 0.537755 0.318884 0.050000
v 0.549053 0.327329 0.050000
v 0.560000 0.336000 0.050000
v 0.560000 0.253000 0.050000
v 0.549508 0.244388 0.050000
v 0.538560 0.236107 0.050000
v 0.527203 0.228234 0.050000
v 0.515482 0.220852 0.050000
v 0.503440 0.214039 0.050000
v 0.491125 0.207875 0.050000
v 0.478580 0.202440 0.050000
v 0.465852 0.197815 0.050000
v 0.452984 0.194078 0.050000
v 0.440023 0.191310 0.050000
v 0.427013 0.189591 0.050000
v 0.414000 0.189000 0.050000
v 0.404150 0.189385 0.050000
v 0.394116 0.190495 0.050000
v 0.383922 0.192266 0.050000
v 0.373593 0.194630 0.050000
v 0.363152 0.197521 0.050000
v 0.352625 0.200875 0.050000
v 0.342035 0.204624 0.050000
v 0.331407 0.208704 0.050000
v 0.320766 0.213047 0.050000
v 0.310134 0.217588 0.050000
v 0.299538 0.222261 0.050000
v 0.289000 0.227000 0.050000
v 0.278273 0.231739 0.050000
v 0.267602 0.236412 0.050000
v 0.257000 0.240953 0.050000
v 0.246481 0.245296 0.050000
v 0.236060 0.249376 0.050000
v 0.225750 0.253125 0.050000
v 0.215565 0.256479 0.050000
v 0.205519 0.259370 0.050000
v 0.195625 0.261734 0.050000
v 0.185898 0.263505 0.050000
v 0.176352 0.264615 0.050000
v 0.167000 0.265000 0.050000
v 0.154829 0.264388 0.050000
v 0.142801 0.262607 0.050000
v 0.130891 0.259734 0.050000
v 0.119074 0.255852 0.050000
v 0.107327 0.251039 0.050000
v 0.095625 0.245375 0.050000
v 0.083944 0.238940 0.050000
v 0.072259 0.231815 0.050000
v 0.060547 0.224078 0.050000
v 0.048782 0.215810 0.050000
v 0.036942 0.207091 0.050000
v 0.025000 0.198000 0.050000
v 0.025000 0.281000 0.050000
v 0.035933 0.289822 -0.050000
v 0.047218 0.298241 -0.050000
v 0.058828 0.306188 -0.050000
v 0.070741 0.313593 -0.050000
v 0.082931 0.320387 -0.050000
v 0.095375 0.326500 -0.050000
v 0.108048 0.331863 -0.050000
v 0.120926 0.336407 -0.050000
v 0.133984 0.340063 -0.050000
v 0.147199 0.342759 -0.050000
v 0.160546 0.344428 -0.050000
v 0.174000 0.345000 -0.050000
v 0.184290 0.344615 -0.050000
v 0.194653 0.343505 -0.050000
v 0.205078 0.341734 -0.050000
v 0.215556 0.339370 -0.050000
v 0.226075 0.336479 -0.050000
v 0.236625 0.333125 -0.050000
v 0.247196 0.329376 -0.050000
v 0.257778 0.325296 -0.050000
v 0.268359 0.320953 -0.050000
v 0.278931 0.316412 -0.050000
v 0.289481 0.311739 -0.050000
v 0.300000 0.307000 -0.050000
v 0.310477 0.302261 -0.050000
v 0.320903 0.297588 -0.050000
v 0.331266 0.293047 -0.050000
v 0.341556 0.288704 -0.050000
v 0.351762 0.284624 -0.050000
v 0.361875 0.280875 -0.050000
v 0.371884 0.277521 -0.050000
v 0.381778 0.274630 -0.050000
v 0.391547 0.272266 -0.050000
v 0.401181 0.270495 -0.050000
v 0.410668 0.269385 -0.050000
v 0.420000 0.269000 -0.050000
v 0.431177 0.269650 -0.050000
v 0.442662 0.271532 -0.050000
v 0.454391 0.274547 -0.050000
v 0.466296 0.278593 -0.050000
v 0.478313 0.283569 -0.050000
v 0.490375 0.289375 -0.050000
v 0.502416 0.295910 -0.050000
v 0.514370 0.303074 -0.050000
v 0.526172 0.310766 -0.050000
v 0.537755 0.318884 -0.050000
v 0.549053 0.327329 -0.050000
v 0.560000 0.336000 -0.050000
v 0.560000 0.253000 -0.050000
v 0.549508 0.244388 -0.050000
v 0.538560 0.236107 -0.050000
v 0.527203 0.228234 -0.050000
v 0.515482 0.220852 -0.050000
v 0.503440 0.214039 -0.050000
v 0.491125 0.207875 -0.050000
v 0.478580 0.202440 -0.050000
v 0.465852 0.197815 -0.050000
v 0.452984 0.194078 -0.050000
v 0.440023 0.191310 -0.050000
v 0.427013 0.189591 -0.050000
v 0.414000 0.189000 -0.050000
v 0.404150 0.189385 -0.050000
v 0.394116 0.190495 -0.050000
v 0.383922 0.192266 -0.050000
v 0.373593 0.194630 -0.050000
v 0.363152 0.197521 -0.050000
v 0.352625 0.200875 -0.050000
v 0.342035 0.204624 -0.050000
v 0.331407 0.208704 -0.050000
v 0.320766 0.213047 -0.050000
v 0.310134 0.217588 -0.050000
v 0.299538 0.222261 -0.050000
v 0.289000 0.227000 -0.050000
v 0.278273 0.231739 -0.050000
v 0.267602 0.236412 -0.050000
v 0.257000 0.240953 -0.050000
v 0.246481 0.245296 -0.050000
v 0.236060 0.249376 -0.050000
v 0.225750 0.253125 -0.050000
v 0.215565 0.256479 -0.050000
v 0.205519 0.259370 -0.050000
v 0.195625 0.261734 -0.050000
v 0.185898 0.263505 -0.050000
v 0.176352 0.264615 -0.050000
v 0.167000 0.265000 -0.050000
v 0.154829 0.264388 -0.050000
v 0.142801 0.262607 -0.050000
v 0.130891 0.259734 -0.050000
v 0.119074 0.255852 -0.050000
v 0.107327 0.251039 -0.050000
v 0.095625 0.245375 -0.050000
v 0.083944 0.238940 -0.050000
v 0.072259 0.231815 -0.050000
v 0.060547 0.224078 -0.050000
v 0.048782 0.215810 -0.050000
v 0.036942 0.207091 -0.050000
v 0.025000 0.198000 -0.050000
v 0.025000 0.281000 -0.050000
v 0.035933 0.289822 -0.050000
v 0.035933 0.289822 0.050000
v 0.047218 0.298241 -0.050000
v 0.047218 0.298241 0.050000
v 0.058828 0.306188 -0.050000
v 0.058828 0.306188 0.050000
v 0.070741 0.313593 -0.050000
v 0.070741 0.313593 0.050000
v 0.082931 0.320387 -0.050000
v 0.082931 0.320387 0.050000
v 0.095375 0.326500 -0.050000
v 0.095375 0.326500 0.050000
v 0.108048 0.331863 -0.050000
v 0.108048 0.331863 0.050000
v 0.120926 0.336407 -0.050000
v 0.120926 0.336407 0.050000
v 0.133984 0.340063 -0.050000
v 0.133984 0.340063 0.050000
v 0.147199 0.342759 -0.050000
v 0.147199 0.342759 0.050000
v 0.160546 0.344428 -0.050000
v 0.160546 0.344428 0.050000
v 0.174000 0.345000 -0.050000
v 0.174000 0.345000 0.050000
v 0.184290 0.344615 -0.050000
v 0.184290 0.344615 0.050000
v 0.194653 0.343505 -0.050000
v 0.194653 0.343505 0.050000
v 0.205078 0.341734 -0.050000
v 0.205078 0.341734 0.050000
v 0.215556 0.339370 -0.050000
v 0.215556 0.339370 0.050000
v 0.226075 0.336479 -0.050000
v 0.226075 0.336479 0.050000
v 0.236625 0.333125 -0.050000
v 0.236625 0.333125 0.050000
v 0.247196 0.329376 -0.050000
v 0.247196 0.329376 0.050000
v 0.257778 0.325296 -0.050000
v 0.257778 0.325296 0.050000
v 0.268359 0.320953 -0.050000
v 0.268359 0.320953 0.050000
v 0.278931 0.316412 -0.050000
v 0.278931 0.316412 0.050000
v 0.289481 0.311739 -0.050000
v 0.289481 0.311739 0.050000
v 0.300000 0.307000 -0.050000
v 0.300000 0.307000 0.050000
v 0.310477 0.302261 -0.050000
v 0.310477 0.302261 0.050000
v 0.320903 0.297588 -0.050000
v 0.320903 0.297588 0.050000
v 0.331266 0.293047 -0.050000
v 0.331266 0.293047 0.050000
v 0.341556 0.288704 -0.050000
v 0.341556 0.288704 0.050000
v 0.351762 0.284624 -0.050000
v 0.351762 0.284624 0.050000
v 0.361875 0.280875 -0.050000
v 0.361875 0.280875 0.050000
v 0.371884 0.277521 -0.050000
v 0.371884 0.277521 0.050000
v 0.381778 0.274630 -0.050000
v 0.381778 0.274630 0.050000
v 0.391547 0.272266 -0.050000
v 0.391547 0.272266 0.050000
v 0.401181 0.270495 -0.050000
v 0.401181 0.270495 0.050000
v 0.410668 0.269385 -0.050000
v 0.410668 0.269385 0.050000
v 0.420000 0.269000 -0.050000
v 0.420000 0.269000 0.050000
v 0.431177 0.269650 -0.050000
v 0.431177 0.269650 0.050000
v 0.442662 0.271532 -0.050000
v 0.442662 0.271532 0.050000
v 0.454391 0.274547 -0.050000
v 0.454391 0.274547 0.050000
v 0.466296 0.278593 -0.050000
v 0.466296 0.278593 0.050000
v 0.478313 0.283569 -0.050000
v 0.478313 0.283569 0.050000
v 0.490375 0.289375 -0.050000
v 0.490375 0.289375 0.050000
v 0.502416 0.295910 -0.050000
v 0.502416 0.295910 0.050000
v 0.514370 0.303074 -0.050000
v 0.514370 0.303074 0.050000
v 0.526172 0.310766 -0.050000
v 0.526172 0.310766 0.050000
v 0.537755 0.318884 -0.050000
v 0.537755 0.318884 0.050000
v 0.549053 0.327329 -0.050000
v 0.549053 0.327329 0.050000
v 0.560000 0.336000 -0.050000
v 0.560000 0.336000 0.050000
v 0.560000 0.253000 -0.050000
v 0.560000 0.253000 0.050000
v 0.549508 0.244388 -0.050000
v 0.549508 0.244388 0.050000
v 0.538560 0.236107 -0.050000
v 0.538560 0.236107 0.050000
v 0.527203 0.228234 -0.050000
v 0.527203 0.228234 0.050000
v 0.515482 0.220852 -0.050000
v 0.515482 0.220852 0.050000
v 0.503440 0.214039 -0.050000
v 0.503440 0.214039 0.050000
v 0.491125 0.207875 -0.050000
v 0.491125 0.207875 0.050000
v 0.478580 0.202440 -0.050000
v 0.478580 0.202440 0.050000
v 0.465852 0.197815 -0.050000
v 0.465852 0.197815 0.050000
v 0.452984 0.194078 -0.050000
v 0.452984 0.194078 0.050000
v 0.440023 0.191310 -0.050000
v 0.440023 0.191310 0.050000
v 0.427013 0.189591 -0.050000
v 0.427013 0.189591 0.050000
v 0.414000 0.189000 -0.050000
v 0.414000 0.189000 0.050000
v 0.404150 0.189385 -0.050000
v 0.404150 0.189385 0.050000
v 0.394116 0.190495 -0.050000
v 0.394116 0.190495 0.050000
v 0.383922 0.192266 -0.050000
v 0.383922 0.192266 0.050000
v 0.373593 0.194630 -0.050000
v 0.373593 0.194630 0.050000
v 0.363152 0.197521 -0.050000
v 0.363152 0.197521 0.050000
v 0.352625 0.200875 -0.050000
v 0.352625 0.200875 0.050000
v 0.342035 0.204624 -0.050000
v 0.342035 0.204624 0.050000
v 0.331407 0.208704 -0.050000
v 0.331407 0.208704 0.050000
v 0.320766 0.213047 -0.050000
v 0.320766 0.213047 0.050000
v 0.310134 0.217588 -0.050000
v 0.310134 0.217588 0.050000
v 0.299538 0.222261 -0.050000
v 0.299538 0.222261 0.050000
v 0.289000 0.227000 -0.050000
v 0.289000 0.227000 0.050000
v 0.278273 0.231739 -0.050000
v 0.278273 0.231739 0.050000
v 0.267602 0.236412 -0.050000
v 0.267602 0.236412 0.050000
v 0.257000 0.240953 -0.050000
v 0.257000 0.240953 0.050000
v 0.246481 0.245296 -0.050000
v 0.246481 0.245296 0.050000
v 0.236060 0.249376 -0.050000
v 0.236060 0.249376 0.050000
v 0.225750 0.253125 -0.050000
v 0.225750 0.253125 0.050000
v 0.215565 0.256479 -0.050000
v 0.215565 0.256479 0.050000
v 0.205519 0.259370 -0.050000
v 0.205519 0.259370 0.050000
v 0.195625 0.261734 -0.050000
v 0.195625 0.261734 0.050000
v 0.185898 0.263505 -0.050000
v 0.185898 0.263505 0.050000
v 0.176352 0.264615 -0.050000
v 0.176352 0.264615 0.050000
v 0.167000 0.265000 -0.050000
v 0.167000 0.265000 0.050000
v 0.154829 0.264388 -0.050000
v 0.154829 0.264388 0.050000
v 0.142801 0.262607 -0.050000
v 0.142801 0.262607 0.050000
v 0.130891 0.259734 -0.050000
v 0.130891 0.259734 0.050000
v 0.119074 0.255852 -0.050000
v 0.119074 0.255852 0.050000
v 0.107327 0.251039 -0.050000
v 0.107327 0.251039 0.050000
v 0.095625 0.245375 -0.050000
v 0.095625 0.245375 0.050000
v 0.083944 0.238940 -0.050000
v 0.083944 0.238940 0.050000
v 0.072259 0.231815 -0.050000
v 0.072259 0.231815 0.050000
v 0.060547 0.224078 -0.050000
v 0.060547 0.224078 0.050000
v 0.048782 0.215810 -0.050000
v 0.048782 0.215810 0.050000
v 0.036942 0.207091 -0.050000
v 0.036942 0.207091 0.050000
v 0.025000 0.198000 -0.050000
v 0.025000 0.198000 0.050000
v 0.025000 0.281000 -0.050000
v 0.025000 0.281000 0.050000
vn 0.000000 0.000000 1.000000
vn -0.597992 0.801502 0.000000
vn -0.564815 0.825217 0.000000
vn -0.527932 0.849287 0.000000
vn -0.486822 0.873501 0.000000
vn -0.440943 0.897535 0.000000
vn -0.389747 0.920922 0.000000
vn -0.332745 0.943017 0.000000
vn -0.269544 0.962988 0.000000
vn -0.199951 0.979806 0.000000
vn -0.124083 0.992272 0.000000
vn -0.042458 0.999098 0.000000
vn 0.037373 0.999301 0.000000
vn 0.106554 0.994307 0.000000
vn 0.167407 0.985888 0.000000
vn 0.220096 0.975478 0.000000
vn 0.265073 0.964228 0.000000
vn 0.302930 0.953013 0.000000
vn 0.334280 0.942474 0.000000
vn 0.359704 0.933066 0.000000
vn 0.379707 0.925107 0.000000
vn 0.394695 0.918812 0.000000
vn 0.404979 0.914326 0.000000
vn 0.410756 0.911745 0.000000
vn 0.412112 0.911133 0.000000
vn 0.409024 0.912523 0.000000
vn 0.401365 0.915918 0.000000
vn 0.388861 0.921296 0.000000
vn 0.371127 0.928582 0.000000
vn 0.347633 0.937631 0.000000
vn 0.317708 0.948189 0.000000
vn 0.280536 0.959843 0.000000
vn 0.235200 0.971947 0.000000
vn 0.180732 0.983532 0.000000
vn 0.116253 0.993220 0.000000
vn 0.041205 0.999151 0.000000
vn -0.058051 0.998314 0.000000
vn -0.161745 0.986832 0.000000
vn -0.248927 0.968522 0.000000
vn -0.321746 0.946826 0.000000
vn -0.382602 0.923913 0.000000
vn -0.433728 0.901044 0.000000
vn -0.477019 0.878893 0.000000
vn -0.514030 0.857772 0.000000
vn -0.546016 0.837775 0.000000
vn -0.573969 0.818877 0.000000
vn -0.598707 0.800968 0.000000
vn -0.620882 0.783904 0.000000
vn 1.000000 0.000000 0.000000
vn 0.634427 -0.772983 0.000000
vn 0.603320 -0.797499 0.000000
vn 0.569676 -0.821870 0.000000
vn 0.532930 -0.846159 0.000000
vn 0.492454 -0.870338 0.000000
vn 0.447567 -0.894251 0.000000
vn 0.397523 -0.917592 0.000000
vn 0.341548 -0.939864 0.000000
vn 0.278877 -0.960327 0.000000
vn 0.208846 -0.977948 0.000000
vn 0.131017 -0.991380 0.000000
vn 0.045358 -0.998971 0.000000
vn -0.039040 -0.999238 0.000000
vn -0.110004 -0.993931 0.000000
vn -0.171097 -0.985254 0.000000
vn -0.223096 -0.974796 0.000000
vn -0.266930 -0.963716 0.000000
vn -0.303534 -0.952820 0.000000
vn -0.333760 -0.942658 0.000000
vn -0.358339 -0.933592 0.000000
vn -0.377866 -0.925860 0.000000
vn -0.392808 -0.919621 0.000000
vn -0.403499 -0.914980 0.000000
vn -0.410154 -0.912016 0.000000
vn -0.404109 -0.914711 0.000000
vn -0.401131 -0.916021 0.000000
vn -0.393731 -0.919226 0.000000
vn -0.381654 -0.924305 0.000000
vn -0.364506 -0.931201 0.000000
vn -0.341764 -0.939786 0.000000
vn -0.312745 -0.949837 0.000000
vn -0.276614 -0.960981 0.000000
vn -0.232403 -0.972620 0.000000
vn -0.179056 -0.983839 0.000000
vn -0.115551 -0.993302 0.000000
vn -0.041116 -0.999154 0.000000
vn 0.050196 -0.998739 0.000000
vn 0.146536 -0.989205 0.000000
vn 0.234425 -0.972134 0.000000
vn 0.312149 -0.950033 0.000000
vn 0.379135 -0.925341 0.000000
vn 0.435657 -0.900113 0.000000
vn 0.482493 -0.875900 0.000000
vn 0.520651 -0.853770 0.000000
vn 0.551166 -0.834396 0.000000
vn 0.574993 -0.818158 0.000000
vn 0.592956 -0.805235 0.000000
vn 0.605728 -0.795672 0.000000
vn -1.000000 0.000000 0.000000
vn -0.627945 0.778258 0.000000
usemtl (null)
s off
f 11//1 13//1 12//1
f 11//1 14//1 13//1
f 10//1 14//1 11//1
f 10//1 15//1 14//1
f 9//1 15//1 10//1
f 9//1 16//1 15//1
f 8//1 16//1 9//1
f 8//1 17//1 16//1
f 8//1 18//1 17//1
f 7//1 18//1 8//1
f 47//1 49//1 48//1
f 7//1 19//1 18//1
f 6//1 19//1 7//1
f 6//1 20//1 19//1
f 46//1 49//1 47//1
f 5//1 20//1 6//1
f 5//1 21//1 20//1
f 5//1 22//1 21//1
f 4//1 22//1 5//1
f 45//1 49//1 46//1
f 4//1 23//1 22//1
f 3//1 23//1 4//1
f 3//1 24//1 23//1
f 44//1 49//1 45//1
f 3//1 25//1 24//1
f 2//1 25//1 3//1
f 43//1 49//1 44//1
f 2//1 26//1 25//1
f 1//1 26//1 2//1
f 1//1 27//1 26//1
f 42//1 49//1 43//1
f 1//1 28//1 27//1
f 28//1 1//1 98//1
f 41//1 49//1 42//1
f 98//1 29//1 28//1
f 98//1 30//1 29//1
f 40//1 49//1 41//1
f 97//1 96//1 98//1
f 96//1 95//1 98//1
f 95//1 94//1 98//1
f 94//1 93//1 98//1
f 93//1 92//1 98//1
f 92//1 91//1 98//1
f 91//1 90//1 98//1
f 90//1 89//1 98//1
f 89//1 88//1 98//1
f 88//1 87//1 98//1
f 87//1 86//1 98//1
f 86//1 85//1 98//1
f 85//1 30//1 98//1
f 85//1 31//1 30//1
f 39//1 49//1 40//1
f 85//1 32//1 31//1
f 85//1 33//1 32//1
f 38//1 49//1 39//1
f 85//1 34//1 33//1
f 37//1 49//1 38//1
f 85//1 35//1 34//1
f 36//1 49//1 37//1
f 85//1 36//1 35//1
f 85//1 49//1 36//1
f 84//1 49//1 85//1
f 83//1 49//1 84//1
f 82//1 49//1 83//1
f 81//1 49//1 82//1
f 80//1 49//1 81//1
f 79//1 49//1 80//1
f 78//1 49//1 79//1
f 78//1 50//1 49//1
f 77//1 50//1 78//1
f 76//1 50//1 77//1
f 76//1 51//1 50//1
f 75//1 51//1 76//1
f 74//1 51//1 75//1
f 74//1 52//1 51//1
f 73//1 52//1 74//1
f 73//1 53//1 52//1
f 72//1 53//1 73//1
f 71//1 53//1 72//1
f 71//1 54//1 53//1
f 70//1 54//1 71//1
f 70//1 55//1 54//1
f 69//1 55//1 70//1
f 68//1 55//1 69//1
f 68//1 56//1 55//1
f 67//1 56//1 68//1
f 67//1 57//1 56//1
f 66//1 57//1 67//1
f 66//1 58//1 57//1
f 65//1 58//1 66//1
f 64//1 58//1 65//1
f 64//1 59//1 58//1
f 63//1 59//1 64//1
f 63//1 60//1 59//1
f 62//1 60//1 63//1
f 62//1 61//1 60//1
f 109//1 111//1 110//1
f 109//1 112//1 111//1
f 108//1 112//1 109//1
f 108//1 113//1 112//1
f 107//1 113//1 108//1
f 107//1 114//1 113//1
f 106//1 114//1 107//1
f 106//1 115//1 114//1
f 106//1 116//1 115//1
f 105//1 116//1 106//1
f 145//1 147//1 146//1
f 105//1 117//1 116//1
f 104//1 117//1 105//1
f 104//1 118//1 117//1
f 144//1 147//1 145//1
f 103//1 118//1 104//1
f 103//1 119//1 118//1
f 103//1 120//1 119//1
f 102//1 120//1 103//1
f 143//1 147//1 144//1
f 102//1 121//1 120//1
f 101//1 121//1 102//1
f 101//1 122//1 121//1
f 142//1 147//1 143//1
f 101//1 123//1 122//1
f 100//1 123//1 101//1
f 141//1 147//1 142//1
f 100//1 124//1 123//1
f 99//1 124//1 100//1
f 99//1 125//1 124//1
f 140//1 147//1 141//1
f 99//1 126//1 125//1
f 196//1 126//1 99//1
f 139//1 147//1 140//1
f 196//1 127//1 126//1
f 196//1 128//1 127//1
f 138//1 147//1 139//1
f 195//1 194//1 196//1
f 194//1 193//1 196//1
f 193//1 192//1 196//1
f 192//1 191//1 196//1
f 191//1 190//1 196//1
f 190//1 189//1 196//1
f 189//1 188//1 196//1
f 188//1 187//1 196//1
f 187//1 186//1 196//1
f 186//1 185//1 196//1
f 185//1 184//1 196//1
f 184//1 183//1 196//1
f 183//1 128//1 196//1
f 183//1 129//1 128//1
f 137//1 147//1 138//1
f 183//1 130//1 129//1
f 183//1 131//1 130//1
f 136//1 147//1 137//1
f 183//1 132//1 131//1
f 135//1 147//1 136//1
f 183//1 133//1 132//1
f 134//1 147//1 135//1
f 183//1 134//1 133//1
f 183//1 147//1 134//1
f 182//1 147//1 183//1
f 181//1 147//1 182//1
f 180//1 147//1 181//1
f 179//1 147//1 180//1
f 178//1 147//1 179//1
f 177//1 147//1 178//1
f 176//1 147//1 177//1
f 176//1 148//1 147//1
f 175//1 148//1 176//1
f 174//1 148//1 175//1
f 174//1 149//1 148//1
f 173//1 149//1 174//1
f 172//1 149//1 173//1
f 172//1 150//1 149//1
f 171//1 150//1 172//1
f 171//1 151//1 150//1
f 170//1 151//1 171//1
f 169//1 151//1 170//1
f 169//1 152//1 151//1
f 168//1 152//1 169//1
f 168//1 153//1 152//1
f 167//1 153//1 168//1
f 166//1 153//1 167//1
f 166//1 154//1 153//1
f 165//1 154//1 166//1
f 165//1 155//1 154//1
f 164//1 155//1 165//1
f 164//1 156//1 155//1
f 163//1 156//1 164//1
f 162//1 156//1 163//1
f 162//1 157//1 156//1
f 161//1 157//1 162//1
f 161//1 158//1 157//1
f 160//1 158//1 161//1
f 160//1 159//1 158//1
f 198//2 200//2 199//2 197//2
f 200//3 202//3 201//3 199//3
f 202//4 204//4 203//4 201//4
f 204//5 206//5 205//5 203//5
f 206//6 208//6 207//6 205//6
f 208//7 210//7 209//7 207//7
f 210//8 212//8 211//8 209//8
f 212//9 214//9 213//9 211//9
f 214//10 216//10 215//10 213//10
f 216//11 218//11 217//11 215//11
f 218//12 220//12 219//12 217//12
f 220//13 222//13 221//13 219//13
f 222//14 224//14 223//14 221//14
f 224//15 226//15 225//15 223//15
f 226//16 228//16 227//16 225//16
f 228//17 230//17 229//17 227//17
f 230//18 232//18 231//18 229//18
f 232//19 234//19 233//19 231//19
f 234//20 236//20 235//20 233//20
f 236//21 238//21 237//21 235//21
f 238//22 240//22 239//22 237//22
f 240//23 242//23 241//23 239//23
f 242//24 244//24 243//24 241//24
f 244//25 246//25 245//25 243//25
f 246//26 248//26 247//26 245//26
f 248//27 250//27 249//27 247//27
f 250//28 252//28 251//28 249//28
f 252//29 254//29 253//29 251//29
f 254//30 256//30 255//30 253//30
f 256//31 258//31 257//31 255//31
f 258//32 260//32 259//32 257//32
f 260//33 262//33 261//33 259//33
f 262//34 264//34 263//34 261//34
f 264//35 266//35 265//35 263//35
f 266//36 268//36 267//36 265//36
f 268//37 270//37 269//37 267//37
f 270//38 272//38 271//38 269//38
f 272//39 274//39 273//39 271//39
f 274//40 276//40 275//40 273//40
f 276//41 278//41 277//41 275//41
f 278//42 280//42 279//42 277//42
f 280//43 282//43 281//43 279//43
f 282//44 284//44 283//44 281//44
f 284//45 286//45 285//45 283//45
f 286//46 288//46 287//46 285//46
f 288//47 290//47 289//47 287//47
f 290//48 292//48 291//48 289//48
f 292//49 294//49 293//49 291//49
f 294//50 296//50 295//50 293//50
f 296//51 298//51 297//51 295//51
f 298//52 300//52 299//52 297//52
f 300//53 302//53 301//53 299//53
f 302//54 304//54 303//54 301//54
f 304//55 306//55 305//55 303//55
f 306//56 308//56 307//56 305//56
f 308//57 310//57 309//57 307//57
f 310//58 312//58 311//58 309//58
f 312//59 314//59 313//59 311//59
f 314//60 316//60 315//60 313//60
f 316//61 318//61 317//61 315//61
f 318//62 320//62 319//62 317//62
f 320//63 322//63 321//63 319//63
f 322//64 324//64 323//64 321//64
f 324//65 326//65 325//65 323//65
f 326//66 328//66 327//66 325//66
f 328//67 330//67 329//67 327//67
f 330//68 332//68 331//68 329//68
f 332//69 334//69 333//69 331//69
f 334//70 336//70 335//70 333//70
f 336//71 338//71 337//71 335//71
f 338//72 340//72 339//72 337//72
f 340//73 342//73 341//73 339//73
f 342//74 344//74 343//74 341//74
f 344//75 346//75 345//75 343//75
f 346//76 348//76 347//76 345//76
f 348//77 350//77 349//77 347//77
f 350//78 352//78 351//78 349//78
f 352//79 354//79 353//79 351//79
f 354//80 356//80 355//80 353//80
f 356//81 358//81 357//81 355//81
f 358//82 360//82 359//82 357//82
f 360//83 362//83 361//83 359//83
f 362//84 364//84 363//84 361//84
f 364//85 366//85 365//85 363//85
f 366//86 368//86 367//86 365//86
f 368//87 370//87 369//87 367//87
f 370//88 372//88 371//88 369//88
f 372//89 374//89 373//89 371//89
f 374//90 376//90 375//90 373//90
f 376//91 378//91 377//91 375//91
f 378//92 380//92 379//92 377//92
f 380//93 382//93 381//93 379//93
f 382//94 384//94 383//94 381//94
f 384//95 386//95 385//95 383//95
f 386//96 388//96 387//96 385//96
f 388//97 390//97 389//97 387//97
f 390//98 392//98 391//98 389//98
f 392//99 198//99 197//99 391//99
